<?xml version="1.0" encoding="UTF-8" standalone="no"?>
<!-- Created with Inkscape (http://www.inkscape.org/) -->

<svg
   width="63.469181mm"
   height="43.656261mm"
   viewBox="0 0 63.469181 43.656261"
   version="1.1"
   id="svg1"
   inkscape:version="1.3 (0e150ed, 2023-07-21)"
   sodipodi:docname="knitr.svg"
   inkscape:export-filename="../intro/knitr.png"
   inkscape:export-xdpi="300"
   inkscape:export-ydpi="300"
   xmlns:inkscape="http://www.inkscape.org/namespaces/inkscape"
   xmlns:sodipodi="http://sodipodi.sourceforge.net/DTD/sodipodi-0.dtd"
   xmlns="http://www.w3.org/2000/svg"
   xmlns:svg="http://www.w3.org/2000/svg">
  <sodipodi:namedview
     id="namedview1"
     pagecolor="#ffffff"
     bordercolor="#000000"
     borderopacity="0.25"
     inkscape:showpageshadow="2"
     inkscape:pageopacity="0.0"
     inkscape:pagecheckerboard="0"
     inkscape:deskcolor="#d1d1d1"
     inkscape:document-units="mm"
     inkscape:zoom="2.3165526"
     inkscape:cx="105.32893"
     inkscape:cy="110.72488"
     inkscape:window-width="1512"
     inkscape:window-height="916"
     inkscape:window-x="0"
     inkscape:window-y="38"
     inkscape:window-maximized="0"
     inkscape:current-layer="layer1" />
  <defs
     id="defs1" />
  <g
     inkscape:label="Layer 1"
     inkscape:groupmode="layer"
     id="layer1"
     transform="translate(-72.760417,-126.73542)">
    <path
       style="fill:#000000"
       d="m 90.888427,170.0609 c -0.0615,-0.1819 -0.31822,-1.0451 -0.57061,-1.91823 -0.34975,-1.20994 -0.46278,-2.6384 -0.47528,-6.00613 -0.0148,-3.97965 -0.0509,-4.32137 -0.36366,-3.43959 -0.19098,0.53848 -0.43856,1.69343 -0.55017,2.56656 -0.18201,1.42386 -0.22526,1.50816 -0.41959,0.81783 -0.13408,-0.47627 -0.0875,-1.28314 0.12224,-2.11667 0.18639,-0.74085 0.73225,-2.18044 1.21301,-3.19908 0.48075,-1.01865 1.36327,-2.50693 1.96114,-3.30729 0.59787,-0.80037 1.20085,-1.49493 1.33995,-1.54347 0.1391,-0.0485 0.18196,0.0966 0.0952,0.32263 -0.0999,0.26039 0.16652,0.70821 0.72743,1.22264 0.4868,0.44647 1.59946,1.15808 2.47259,1.58136 1.11103,0.53862 1.40488,0.77388 0.97905,0.78385 -0.33465,0.008 -0.98949,-0.17841 -1.45521,-0.41387 -0.46572,-0.23546 -1.23371,-0.71777 -1.70665,-1.0718 -0.47295,-0.35403 -0.8599,-0.58936 -0.8599,-0.52297 0,0.0664 0.38695,0.59345 0.8599,1.17123 0.47294,0.57777 0.97896,1.25222 1.12448,1.49877 0.14552,0.24655 0.83107,0.56884 1.52345,0.7162 0.69237,0.14736 1.20123,0.36118 1.13079,0.47515 -0.0704,0.11398 -0.44909,0.14586 -0.84144,0.0709 -0.71337,-0.13637 -0.71337,-0.13637 0.0598,0.94071 0.54569,0.76015 0.83053,0.97522 0.96805,0.73092 0.10717,-0.19039 0.11861,-2.02219 0.0254,-4.07068 -0.0932,-2.04848 -0.26667,-3.66441 -0.38552,-3.59096 -0.11885,0.0735 -0.55568,-0.0421 -0.97073,-0.25669 -0.41506,-0.21463 -0.90938,-0.57669 -1.0985,-0.80456 -0.18913,-0.22788 -0.49514,-0.41432 -0.68003,-0.41432 -0.18489,0 -0.4032,0.17467 -0.48513,0.38816 -0.0864,0.22521 0.19329,0.73042 0.66626,1.20338 0.44836,0.44836 1.18726,0.97835 1.642,1.17775 0.53502,0.2346 0.65967,0.37016 0.35323,0.38412 -0.26046,0.0119 -0.9153,-0.20491 -1.45521,-0.48173 -0.5399,-0.27683 -1.23748,-0.79965 -1.55017,-1.16183 -0.56852,-0.65851 -0.56852,-0.65851 0.59531,-1.80073 1.16384,-1.14222 1.16384,-1.14222 1.16384,-0.30838 0,0.56172 0.1919,0.96824 0.58804,1.24571 0.32342,0.22654 0.79967,0.41188 1.05833,0.41188 0.25866,0 0.4703,-0.18157 0.4703,-0.40348 0,-0.22192 -0.23373,-1.06848 -0.51939,-1.88124 -0.28566,-0.81276 -1.02032,-2.14123 -1.63257,-2.95215 -1.11318,-1.4744 -1.11318,-1.4744 -2.33846,-0.14186 -0.67389,0.73289 -1.89716,2.22527 -2.71836,3.31639 -0.8212,1.09111 -1.91247,2.69942 -2.42505,3.574 -0.51258,0.87459 -1.35263,2.63362 -1.86678,3.90896 -0.5515,1.36801 -0.93481,2.77263 -0.93481,3.4256 0,0.60875 0.16889,1.33778 0.37531,1.62008 0.35871,0.49056 0.38339,0.47816 0.55788,-0.28016 0.10041,-0.43639 0.4821,-1.80546 0.84819,-3.04239 0.36609,-1.23693 0.93656,-2.78474 1.26773,-3.43958 0.33116,-0.65485 1.49423,-2.44078 2.58461,-3.96875 1.09037,-1.52797 2.46932,-3.24664 3.06432,-3.81927 0.59501,-0.57263 1.14333,-0.97964 1.21851,-0.90446 0.0752,0.0752 -0.49625,0.84134 -1.26983,1.7026 -0.77358,0.86125 -1.88387,2.22076 -2.46732,3.02113 -0.58344,0.80036 -1.54125,2.28864 -2.12846,3.30729 -0.58722,1.01864 -1.38171,2.64629 -1.76555,3.617 -0.38384,0.9707 -0.69607,2.28039 -0.69384,2.91042 0.002,0.63002 0.0915,1.27473 0.19844,1.43269 0.10691,0.15796 0.43251,0.43363 0.72355,0.61261 0.46359,0.28507 0.40669,0.30901 -0.45903,0.1931 -0.54506,-0.073 -2.07828,-0.79262 -3.41903,-1.60479 -1.33696,-0.80987 -2.56816,-1.47249 -2.736,-1.47249 -0.16783,0 -0.55911,-0.27032 -0.86949,-0.60071 -0.31038,-0.33038 -0.94281,-1.43171 -1.40538,-2.44739 -0.46258,-1.01568 -1.37311,-3.5731 -2.0234,-5.68315 -1.0543,-3.42094 -1.16671,-4.02914 -1.03796,-5.61546 0.10622,-1.30881 0.41922,-2.36549 1.18423,-3.99799 0.57192,-1.22043 1.17442,-2.30214 1.33889,-2.40379 0.16448,-0.10165 0.29905,-0.36818 0.29905,-0.59229 0,-0.2241 -1.20694,-1.70535 -2.68208,-3.29167 -1.55982,-1.67739 -2.88832,-2.88422 -3.175,-2.88422 -0.30889,0 -0.49292,-0.18878 -0.49292,-0.50564 0,-0.27811 0.36632,-0.81389 0.81405,-1.19063 0.44772,-0.37674 0.9123,-0.68498 1.03239,-0.68498 0.12009,0 0.43838,0.41279 0.7073,0.91731 0.26893,0.50451 1.55556,2.17181 2.85917,3.70511 2.01097,2.36528 2.40821,2.71749 2.62096,2.32384 0.13791,-0.25518 0.6489,-0.91079 1.13552,-1.45691 0.48663,-0.54613 0.88477,-1.11004 0.88477,-1.25315 0,-0.14311 0.86321,-0.6849 1.91823,-1.20399 1.05503,-0.51909 2.15365,-1.17617 2.44139,-1.46017 0.34413,-0.33968 0.52315,-0.87084 0.52315,-1.55224 0,-0.61005 -0.18787,-1.24345 -0.45701,-1.54085 -0.25135,-0.27774 -0.45701,-0.69978 -0.45701,-0.93787 0,-0.23808 0.2303,-0.55613 0.51178,-0.70677 0.28147,-0.15064 0.94957,-0.27389 1.48465,-0.27389 0.97104,0 0.97255,0.002 0.79681,0.93855 -0.0968,0.5162 -0.097,1.46588 -3.5e-4,2.1104 0.15985,1.06595 0.22301,1.14655 0.69887,0.89188 0.3104,-0.16613 1.0786,-0.20809 1.88912,-0.1032 0.7513,0.0972 2.66192,0.46416 4.24583,0.8154 1.5839,0.35125 3.54843,0.6398 4.365623,0.64122 1.00391,0.002 1.92295,0.20614 2.83368,0.63021 0.74134,0.3452 1.75337,1.11058 2.24896,1.70085 0.50248,0.59849 1.52506,2.57272 2.31167,4.46302 0.77583,1.86439 1.7464,4.3423 2.15682,5.50646 0.41043,1.16417 0.83328,2.41432 0.93967,2.77813 0.18448,0.63079 0.17035,0.64105 -0.30474,0.22132 -0.274,-0.24208 -1.41205,-0.90363 -2.52899,-1.4701 -2.03081,-1.02997 -2.03081,-1.02997 -1.66326,-0.31919 0.20216,0.39093 0.69537,1.10036 1.09603,1.57652 0.40066,0.47616 1.26819,1.10505 1.92784,1.39755 0.65965,0.29249 1.05996,0.57881 0.88958,0.63625 -0.17039,0.0574 -0.90149,-0.19539 -1.62468,-0.56185 -1.31488,-0.66631 -1.31488,-0.66631 -0.93211,0.58024 0.21053,0.6856 0.45325,2.5226 0.53938,4.08222 0.0861,1.55962 0.25629,2.77406 0.37813,2.69875 0.12185,-0.0753 0.72713,-1.70854 1.34507,-3.62942 0.61795,-1.92087 1.15897,-3.25438 1.20226,-2.96333 0.0433,0.29104 -0.34466,1.83243 -0.86212,3.42532 -0.51747,1.59288 -1.41767,3.72318 -2.00045,4.73401 -1.05961,1.83785 -1.05961,1.83785 5.10027,1.6919 3.83687,-0.0909 7.85612,-0.35894 10.65779,-0.71073 2.47385,-0.31063 5.47666,-0.79461 6.6729,-1.07551 1.19625,-0.2809 2.59523,-0.68632 3.10886,-0.90092 0.6335,-0.2647 0.93386,-0.56278 0.93386,-0.92677 0,-0.29511 -0.32197,-0.74767 -0.71549,-1.00568 -0.61405,-0.40262 -1.42989,-0.47608 -5.75469,-0.51818 -2.77155,-0.027 -5.51544,-0.12229 -6.09753,-0.21181 -0.58208,-0.0895 -1.32622,-0.33808 -1.65364,-0.55236 -0.32743,-0.21428 -0.59532,-0.61439 -0.59532,-0.88915 0,-0.27475 0.36089,-0.80321 0.80197,-1.17435 0.44108,-0.37115 1.24475,-0.79779 1.78594,-0.94809 0.54118,-0.1503 2.88897,-0.27231 5.2173,-0.27114 2.32834,0.001 4.49989,0.0736 4.82567,0.1609 0.32579,0.0873 0.53631,0.24941 0.46783,0.36021 -0.0685,0.1108 0.34958,0.27727 0.92902,0.36993 0.57944,0.0926 1.05352,0.28612 1.05352,0.42992 0,0.1438 -0.0893,0.25768 -0.19843,0.25307 -0.10914,-0.005 -1.4486,-0.17943 -2.97657,-0.38849 -1.52796,-0.20906 -3.62057,-0.38388 -4.65023,-0.38849 -1.63079,-0.007 -1.94766,0.072 -2.45825,0.61553 -0.58614,0.62392 -0.58614,0.62392 0.0373,1.0324 0.34288,0.22466 1.0919,0.53855 1.6645,0.69752 0.57259,0.15898 2.11264,0.29201 3.42233,0.29563 1.30969,0.004 2.91897,0.15311 3.57618,0.3322 0.65721,0.17909 1.46937,0.52137 1.80479,0.76062 0.46954,0.3349 0.59031,0.63928 0.52486,1.32291 -0.0742,0.77541 -0.25264,0.96758 -1.40791,1.51645 -0.72761,0.34569 -2.16614,1.04836 -3.19675,1.56148 -1.87383,0.93296 -1.87383,0.93296 -9.65729,0.98847 -4.28091,0.0305 -9.45034,0.20005 -11.48763,0.3767 -3.14369,0.27259 -3.98441,0.44504 -5.55625,1.13969 -1.01865,0.45018 -2.47716,0.87267 -3.24115,0.93886 -0.76398,0.0662 -1.38906,0.17317 -1.38906,0.23772 0,0.0646 0.54511,0.78655 1.21135,1.60444 0.66625,0.81788 1.49968,2.05605 1.85209,2.75148 0.3524,0.69543 0.64073,1.38744 0.64073,1.5378 0,0.15036 -0.16184,0.27338 -0.35964,0.27338 -0.1978,0 -0.85494,-0.39194 -1.4603,-0.87098 -0.60535,-0.47904 -1.53652,-1.52083 -2.06925,-2.3151 -0.532733,-0.79427 -1.155523,-1.59703 -1.383983,-1.7839 -0.22845,-0.18688 -0.71303,-0.46355 -1.07683,-0.61483 -0.3638,-0.15128 -1.15712,-0.36803 -1.76294,-0.48167 -0.60581,-0.11363 -1.65185,-0.12308 -2.32453,-0.021 -0.67268,0.10209 -1.28536,0.0848 -1.36153,-0.0385 -0.0762,-0.12324 0.0174,-0.24443 0.20786,-0.26933 0.19049,-0.0249 0.58447,-0.0676 0.87551,-0.0948 0.29105,-0.0273 0.94589,-0.0669 1.45521,-0.088 0.92604,-0.0384 0.92604,-0.0384 0.095,-0.54517 -0.45706,-0.27871 -0.90751,-0.6305 -1.001,-0.78177 -0.0935,-0.15126 0.43211,-0.0248 1.16799,0.28101 0.73588,0.30582 1.41166,0.48234 1.50173,0.39227 0.0901,-0.0901 0.0126,-0.34596 -0.17227,-0.56865 -0.18481,-0.22269 -1.26951,-1.059 -2.41045,-1.85848 -1.14094,-0.79947 -2.12664,-1.45359 -2.19045,-1.45359 -0.0638,0 -0.0517,0.26789 0.0269,0.59531 0.0786,0.32742 0.50753,0.98227 0.95317,1.45521 0.78551,0.83363 0.79187,0.8599 0.20818,0.8599 -0.53135,0 -0.58161,0.0933 -0.42776,0.79375 0.1039,0.47305 0.0664,0.79375 -0.0929,0.79375 -0.14696,0 -0.30998,-0.26789 -0.36227,-0.59532 -0.0523,-0.32742 -0.0903,1.19063 -0.0846,3.37344 0.006,2.18281 -0.0811,4.29617 -0.19296,4.69636 -0.11191,0.40018 -0.32401,0.7276 -0.47132,0.7276 -0.14732,0 -0.31813,-0.14883 -0.37957,-0.33073 z m 0.39753,-5.93388 c -0.0248,-2.44806 -0.13758,-5.34398 -0.25063,-6.43539 -0.15296,-1.4767 -0.21548,-0.35418 -0.24435,4.38767 -0.0213,3.50463 0.0406,6.45143 0.13759,6.54844 0.097,0.097 0.22726,0.12552 0.28943,0.0633 0.0622,-0.0622 0.0928,-2.11601 0.068,-4.56407 z m 10.049553,1.13763 c 0,-0.0549 -0.20836,-0.2633 -0.46302,-0.46302 -0.41964,-0.32911 -0.429,-0.31975 -0.0999,0.0999 0.19972,0.25466 0.40808,0.46302 0.46302,0.46302 0.0549,0 0.0999,-0.045 0.0999,-0.0999 z m -0.96286,-1.2826 c -0.11019,-0.17829 -1.369463,-1.85191 -2.798373,-3.71916 -1.42892,-1.86725 -3.15727,-4.09387 -3.84077,-4.94805 -0.68351,-0.85417 -1.34403,-1.49045 -1.46782,-1.41394 -0.12378,0.0765 -0.0571,0.33564 0.14818,0.57585 0.20528,0.24022 2.06194,2.55011 4.12592,5.13311 2.06397,2.58299 3.815803,4.69635 3.892943,4.69635 0.0772,0 0.0501,-0.14587 -0.0601,-0.32416 z m 2.17945,-2.39173 c 0.0584,-0.0584 0.18321,-2.06082 0.27736,-4.44983 0.11286,-2.8638 0.0667,-4.94305 -0.13533,-6.10299 -0.16858,-0.96764 -0.56122,-2.33686 -0.87253,-3.04271 -0.31131,-0.70585 -1.10692,-2.11681 -1.76802,-3.13545 -0.661113,-1.01865 -2.280233,-2.93362 -3.598063,-4.2555 -1.38811,-1.39237 -3.17516,-2.86651 -4.24813,-3.50428 -1.01865,-0.60548 -1.62845,-1.10152 -1.35513,-1.10232 0.27333,-7.9e-4 1.11766,0.35368 1.87628,0.78772 0.75862,0.43404 2.38778,1.7735 3.62035,2.97656 1.23257,1.20307 2.72824,2.84225 3.32372,3.64261 0.595483,0.80036 1.375383,1.99099 1.733123,2.64583 0.35775,0.65485 0.93478,1.96453 1.2823,2.91042 0.5877,1.5996 0.63186,2.0896 0.63186,7.01146 0,4.07105 0.0763,5.28556 0.33073,5.26521 0.1819,-0.0146 0.50626,-0.0443 0.72081,-0.0661 0.21454,-0.0218 0.6015,-0.42664 0.85989,-0.89958 0.40061,-0.73322 0.46676,-1.52251 0.44908,-5.35781 -0.0207,-4.49792 -0.0207,-4.49792 -0.97357,-6.6947 -0.52406,-1.20823 -1.34259,-2.81558 -1.81897,-3.57188 -0.47637,-0.7563 -1.39922,-2.08947 -2.05077,-2.96259 -0.65156,-0.87313 -1.957073,-2.46111 -2.901143,-3.52886 -1.55862,-1.76281 -1.99224,-2.07341 -4.71471,-3.3772 -1.64903,-0.78972 -2.99823,-1.55027 -2.99823,-1.69012 0,-0.15633 0.2293,-0.16452 0.59531,-0.0213 0.32743,0.12814 1.60735,0.73948 2.84427,1.35853 1.77926,0.89047 2.72032,1.60026 4.50585,3.39848 1.24129,1.25012 2.875903,3.18173 3.632453,4.29248 0.75655,1.11075 1.91535,3.10419 2.57512,4.42986 0.65976,1.32568 1.38872,3.21485 1.61992,4.19817 0.31534,1.34123 0.38897,2.64708 0.29476,5.22743 -0.0691,1.89177 -0.22251,3.67771 -0.34096,3.96875 -0.18585,0.45662 -0.15854,0.48301 0.19919,0.19247 0.228,-0.18518 0.73732,-0.80244 1.13181,-1.37169 0.39449,-0.56925 0.82658,-1.4893 0.96019,-2.04456 0.15371,-0.63875 0.13751,-2.02995 -0.0441,-3.78768 -0.15787,-1.52797 -0.58931,-3.72593 -0.95874,-4.88435 -0.36944,-1.15843 -0.81899,-2.34905 -0.99899,-2.64584 -0.18,-0.29678 -0.64759,-1.10515 -1.03908,-1.79637 -0.3915,-0.69123 -0.58518,-1.25677 -0.4304,-1.25677 0.15477,0 0.4143,0.29168 0.57674,0.64818 0.16243,0.3565 0.95259,1.08458 1.75592,1.61796 0.80332,0.53337 1.79897,1.06682 2.21254,1.18543 0.63756,0.18285 0.75194,0.13938 0.75194,-0.2858 0,-0.27579 -0.1895,-1.07115 -0.42111,-1.76746 -0.23161,-0.69631 -0.7168,-1.93433 -1.07821,-2.75116 -0.6571,-1.48514 -0.6571,-1.48514 -2.09243,-0.70773 -0.78943,0.42757 -1.43533,0.8365 -1.43533,0.90872 0,0.0722 0.18471,0.31603 0.41046,0.54178 0.22575,0.22575 1.20802,0.81219 2.18281,1.3032 0.9748,0.49101 1.56739,0.89311 1.31688,0.89356 -0.25051,4.5e-4 -1.08395,-0.28216 -1.85208,-0.62802 -0.76814,-0.34586 -1.65575,-0.87812 -1.97248,-1.18281 -0.40142,-0.38617 -0.61718,-0.45616 -0.71225,-0.23106 -0.0935,0.22149 -0.2327,0.16987 -0.44303,-0.16435 -0.16867,-0.268 -0.99084,-1.28003 -1.82705,-2.24896 -0.83621,-0.96893 -2.04458,-2.24157 -2.685263,-2.82808 -0.64068,-0.58651 -2.11738,-1.64661 -3.28154,-2.35578 -1.16417,-0.70917 -2.85466,-1.75732 -3.75664,-2.32922 -1.19747,-0.75925 -1.79538,-0.9905 -2.21591,-0.85703 -0.52282,0.16593 -0.56131,0.30831 -0.41728,1.54352 0.0873,0.7484 0.237,2.20985 0.33276,3.24765 0.17411,1.88692 0.17411,1.88692 1.5037,2.48783 0.73285,0.3312 2.20839,1.43567 3.2876,2.4608 1.07689,1.02295 2.63997,2.87999 3.4735,4.12676 1.01075,1.51185 1.688583,2.88372 2.035143,4.11894 0.42751,1.52375 0.5186,2.67293 0.51381,6.48229 -0.005,3.80741 -0.0857,4.79477 -0.45511,5.55625 -0.44928,0.92605 -0.44928,0.92605 -0.25876,-0.39687 0.10479,-0.72761 0.18823,-3.34698 0.18543,-5.82083 -0.005,-4.10826 -0.0608,-4.64691 -0.648173,-6.21771 -0.35369,-0.94589 -0.87955,-2.13651 -1.16858,-2.64584 -0.28903,-0.50932 -1.10854,-1.66968 -1.82114,-2.57858 -0.71259,-0.9089 -2.26351,-2.42695 -3.44647,-3.37344 -1.18297,-0.94649 -2.30421,-1.72089 -2.49164,-1.72089 -0.22353,0 -0.34079,0.37974 -0.34079,1.10364 0,0.65566 0.17775,1.30005 0.43789,1.5875 0.34824,0.38481 0.36178,0.48469 0.0661,0.48791 -0.3035,0.003 -0.29929,0.0498 0.0229,0.25356 0.31431,0.19872 0.32778,0.3164 0.0662,0.57804 -0.18069,0.18068 -0.32852,0.78095 -0.32852,1.33393 0,0.55298 0.12047,1.00542 0.26771,1.00542 0.16547,0 0.2022,0.42943 0.0962,1.12448 -0.0944,0.61846 -0.29116,1.27599 -0.43736,1.46118 -0.1462,0.18518 -0.46871,0.2723 -0.7167,0.19359 -0.27557,-0.0875 -0.72797,0.13397 -1.16346,0.56946 -0.39191,0.39192 -1.2892,1.67402 -1.99398,2.84912 -0.70478,1.1751 -1.59316,3.04951 -1.97419,4.16536 -0.44345,1.29868 -0.69277,2.5974 -0.69277,3.60871 0,1.13903 0.13564,1.74741 0.48611,2.18022 0.48546,0.59951 0.48657,0.59753 0.81986,-1.46853 0.18356,-1.13787 0.71857,-2.91287 1.18892,-3.94445 0.47035,-1.03158 1.51302,-2.88763 2.31705,-4.12456 0.80403,-1.23693 2.08316,-3.01934 2.84253,-3.96091 0.75936,-0.94157 1.72386,-1.9536 2.14333,-2.24896 0.76267,-0.537 0.76267,-0.537 -0.74725,-1.91391 -0.83046,-0.75731 -1.34501,-1.38238 -1.14345,-1.38907 0.20157,-0.007 1.39456,1.02965 2.6511,2.30295 1.25654,1.27331 2.54314,2.85089 2.85911,3.50573 0.31598,0.65485 0.69967,1.96453 0.85264,2.91042 0.15297,0.94589 0.28772,3.08901 0.29945,4.7625 0.0117,1.67349 0.10847,3.65326 0.215,4.3995 0.10654,0.74624 0.39468,1.66352 0.64032,2.03842 0.438623,0.66941 0.468443,0.67505 1.665113,0.31491 0.67017,-0.20169 1.26628,-0.41449 1.32467,-0.47289 z M 91.810507,144.35426 c 0,-0.0504 0.1786,-0.23981 0.39688,-0.42096 0.22875,-0.18985 0.39687,-0.21557 0.39687,-0.0607 0,0.14777 -0.17859,0.33721 -0.39687,0.42097 -0.21828,0.0838 -0.39688,0.11108 -0.39688,0.0607 z m -7.4274,10.50078 c 0.30572,-0.90528 0.99191,-2.39356 1.52488,-3.30729 0.53297,-0.91373 1.41059,-2.25664 1.95026,-2.98424 0.53968,-0.72761 1.07423,-1.62058 1.18789,-1.98438 0.11366,-0.3638 0.22111,-0.94277 0.23879,-1.2866 0.0177,-0.34383 -0.12122,-0.68399 -0.30865,-0.75591 -0.18742,-0.0719 -0.34077,-0.38923 -0.34077,-0.70512 0,-0.31589 -0.23812,-0.77824 -0.52917,-1.02744 -0.29104,-0.24919 -0.52916,-0.5865 -0.52916,-0.74957 0,-0.16306 0.23416,-0.0154 0.52036,0.32814 0.52037,0.62463 0.52037,0.62463 0.52917,-1.311 0.005,-1.06459 -0.12971,-2.19568 -0.299,-2.51354 -0.16929,-0.31785 -0.49671,-0.71974 -0.7276,-0.89307 -0.2309,-0.17333 -1.13418,-0.57417 -2.00731,-0.89075 -0.87312,-0.31658 -1.79659,-0.75942 -2.05214,-0.9841 -0.25555,-0.22467 -0.41064,-0.46249 -0.34465,-0.52849 0.066,-0.066 0.51322,0.12302 0.99381,0.42004 0.4806,0.29702 1.44177,0.73286 2.13594,0.96853 0.69416,0.23567 1.37877,0.3564 1.52135,0.26828 0.14258,-0.0881 0.25923,-0.50878 0.25923,-0.9348 0,-0.62115 -0.17032,-0.8483 -0.85989,-1.14677 -0.47294,-0.2047 -1.09783,-0.55375 -1.38865,-0.77566 -0.29081,-0.22192 -0.4536,-0.47864 -0.36175,-0.57049 0.0918,-0.0918 0.62745,0.14658 1.19021,0.52984 1.02321,0.69685 1.02321,0.69685 1.10153,0.069 0.0431,-0.3453 -0.0183,-0.88888 -0.13629,-1.20796 -0.21431,-0.57934 -0.2172,-0.57885 -2.0627,0.35131 -1.01644,0.5123 -2.29456,1.39843 -2.84027,1.96916 -0.5457,0.57073 -0.99219,1.21861 -0.99219,1.43974 0,0.22113 0.56555,0.70865 1.25678,1.08339 0.69122,0.37474 1.02402,0.60953 0.73956,0.52175 -0.28446,-0.0878 -1.05788,-0.2337 -1.7187,-0.32428 -1.2015,-0.16468 -1.2015,-0.16468 0.21265,1.4677 0.77779,0.89781 1.44129,1.63238 1.47445,1.63238 0.0332,0 0.0181,-0.38695 -0.0334,-0.8599 -0.079,-0.72453 0.0367,-0.59679 0.73478,0.81153 0.45568,0.91928 1.31482,2.16944 1.9092,2.77812 0.59438,0.60869 1.05526,1.20498 1.02418,1.32509 -0.0311,0.1201 0.1846,0.14184 0.4793,0.0483 0.48464,-0.15382 0.53581,-0.0547 0.53581,1.0384 0,0.98164 -0.0883,1.20845 -0.47029,1.20845 -0.25866,0 -0.71734,0.17304 -1.01928,0.38453 -0.51287,0.35922 -0.54124,0.344 -0.43127,-0.23128 0.0889,-0.46484 -0.15343,-0.86719 -0.98835,-1.64129 -0.60833,-0.56403 -1.27758,-1.12261 -1.48722,-1.24131 -0.20964,-0.11869 -0.73511,-0.83306 -1.16772,-1.5875 -0.4326,-0.75443 -1.02187,-1.66935 -1.30949,-2.03315 -0.52294,-0.66146 -0.52294,-0.66146 -0.52883,0.0239 -0.003,0.37694 0.35443,1.40638 0.79481,2.28766 0.44038,0.88128 1.47274,2.26903 2.29413,3.0839 0.82139,0.81486 1.4371,1.53791 1.36824,1.60677 -0.0689,0.0689 -0.71916,-0.39439 -1.44511,-1.02943 -0.72595,-0.63504 -1.66597,-1.65399 -2.08893,-2.26432 -0.43065,-0.62144 -1.00837,-2.05021 -1.31301,-3.24726 -0.2992,-1.17565 -0.68402,-2.18423 -0.85516,-2.24128 -0.19282,-0.0643 -0.37998,0.35514 -0.49209,1.10276 -0.0995,0.66356 -0.0989,1.75325 0.001,2.42153 0.10021,0.66829 0.41777,1.76961 0.70568,2.4474 0.30765,0.72425 1.3085,2.03553 2.42752,3.18045 1.04722,1.07146 1.62562,1.80577 1.28532,1.63181 -0.34029,-0.17397 -1.07605,-0.72948 -1.63502,-1.23447 -0.55897,-0.505 -1.37753,-1.48109 -1.81903,-2.16911 -0.4415,-0.68801 -0.99321,-2.07229 -1.22602,-3.07617 -0.23282,-1.00388 -0.35395,-2.10155 -0.26919,-2.43927 0.0848,-0.33771 0.0856,-0.61403 0.002,-0.61403 -0.0837,0 -0.39776,0.55511 -0.69788,1.23358 -0.4314,0.97524 -0.51043,1.53342 -0.37739,2.66535 0.0925,0.78748 0.34416,1.85274 0.55913,2.36724 0.21497,0.5145 1.28446,1.85371 2.37665,2.97603 1.09218,1.12233 1.98578,2.14515 1.98578,2.27295 0,0.12779 -0.1373,0.095 -0.30511,-0.0728 -0.18461,-0.18461 -0.47198,-0.21765 -0.72761,-0.0837 -0.23237,0.12182 -0.91628,0.30324 -1.51981,0.40316 -0.61774,0.10229 -1.16481,0.0725 -1.25173,-0.0681 -0.0849,-0.13741 0.43864,-0.32851 1.16347,-0.42466 0.72483,-0.0961 1.31788,-0.24332 1.31788,-0.32705 0,-0.0837 -0.61425,-0.82376 -1.365,-1.64453 -0.75075,-0.82077 -1.64256,-2.08762 -1.98179,-2.81522 -0.33924,-0.72761 -0.62158,-1.73964 -0.62742,-2.24896 -0.009,-0.80567 -0.0486,-0.86057 -0.30308,-0.42235 -0.18837,0.32444 -0.23371,1.26775 -0.12741,2.65075 0.11637,1.5139 0.51284,3.17367 1.34446,5.62832 0.64868,1.91469 1.48067,4.0556 1.84887,4.75758 0.3682,0.70198 0.83427,1.48468 1.03572,1.73934 0.20145,0.25466 0.43864,0.46302 0.52709,0.46302 0.0885,0 0.33845,-0.32742 0.55555,-0.7276 0.33707,-0.62131 0.39628,-0.64923 0.40533,-0.19116 0.006,0.29504 0.21895,0.83082 0.47361,1.19062 0.46181,0.65247 0.46349,0.64897 0.63859,-1.33019 0.0966,-1.09141 0.42569,-2.72506 0.73141,-3.63034 z m -2.0401,0.78607 c 0.0488,-0.61846 0.0511,-1.12448 0.005,-1.12448 -0.046,0 -0.56407,0.24508 -1.15123,0.54463 -0.58716,0.29954 -1.20749,0.49548 -1.37852,0.43542 -0.17103,-0.0601 0.26072,-0.38068 0.95946,-0.71248 0.69873,-0.33179 1.54569,-0.97422 1.88213,-1.42761 0.33644,-0.45338 0.9965,-1.53871 1.4668,-2.41183 0.4703,-0.87313 0.97737,-1.73633 1.12682,-1.91823 0.14946,-0.1819 0.37512,-0.33073 0.50148,-0.33073 0.12636,0 -0.11813,0.56554 -0.5433,1.25677 -0.42517,0.69122 -1.13844,2.16957 -1.58505,3.28522 -0.44661,1.11565 -0.81384,2.18721 -0.81607,2.38125 -0.002,0.19404 -0.12832,0.53139 -0.28022,0.74967 -0.20632,0.29651 -0.25371,0.1125 -0.18739,-0.7276 z m 3.24979,-16.14548 c -0.7276,-0.66706 -1.14432,-1.14741 -0.92604,-1.06745 0.21828,0.08 1.02195,0.36724 1.78594,0.63839 0.76398,0.27116 1.38906,0.58413 1.38906,0.6955 0,0.11136 -0.16986,0.20248 -0.37747,0.20248 -0.20761,0 -0.41597,0.16738 -0.46302,0.37195 -0.0571,0.24826 -0.52551,-0.0314 -1.40847,-0.84087 z m 22.550223,20.15281 c -0.0879,-0.0879 -0.31612,-0.0973 -0.50712,-0.0209 -0.21106,0.0845 -0.14837,0.14715 0.15986,0.15985 0.27891,0.0115 0.43518,-0.0511 0.34726,-0.13897 z M 94.824547,158.9484 c -0.1057,-0.1819 -0.78893,-1.10463 -1.51828,-2.05052 -0.72936,-0.94589 -1.43931,-1.83885 -1.57768,-1.98437 -0.16007,-0.16835 -0.19504,0.10825 -0.0961,0.76042 0.0855,0.56375 0.36889,1.26579 0.62977,1.56008 0.26088,0.2943 0.93868,0.87485 1.50622,1.2901 0.56753,0.41526 1.08058,0.75502 1.14009,0.75502 0.0595,0 0.0217,-0.14883 -0.084,-0.33073 z m 36.012013,-0.31326 c 0.7276,-0.35046 1.14432,-0.64592 0.92604,-0.65658 -0.21828,-0.0107 -0.84689,0.10557 -1.39691,0.25832 -0.55002,0.15274 -2.45502,0.43648 -4.23334,0.63054 -3.23329,0.35283 -3.23329,0.35283 0.074,0.37886 2.98212,0.0235 3.43736,-0.0366 4.63021,-0.61114 z m -5.93283,-5.59724 c -0.45704,-0.38457 -0.81405,-0.94154 -0.81405,-1.27 0,-0.32176 0.14883,-0.73716 0.33073,-0.92311 0.26774,-0.2737 0.12916,-0.30435 -0.7276,-0.16097 -0.58209,0.0974 -1.35599,0.38651 -1.7198,0.64244 -0.3638,0.25594 -0.698,0.70981 -0.74266,1.00861 -0.0619,0.41393 0.12711,0.60883 0.79375,0.81861 0.48122,0.15143 1.17261,0.32528 1.53641,0.38633 0.36381,0.061 0.99802,0.12722 1.40937,0.14704 0.7479,0.036 0.7479,0.036 -0.0661,-0.64895 z m -34.593673,-7.05408 c -0.0392,-0.47294 -0.19627,-2.64584 -0.34902,-4.82865 -0.15275,-2.18281 -0.47329,-5.90351 -0.71231,-8.26823 -0.32312,-3.19675 -0.52535,-4.29948 -0.78848,-4.29948 -0.19465,0 -0.35312,0.0893 -0.35217,0.19844 9.6e-4,0.10914 0.35928,3.05594 0.79626,6.54844 0.43699,3.4925 0.87082,7.51086 0.96408,8.92969 0.0933,1.41882 0.24681,2.57968 0.34124,2.57968 0.0944,0 0.1396,-0.38695 0.1004,-0.85989 z m -7.75997,-5.32542 c 0,-0.0549 -0.20835,-0.2633 -0.46302,-0.46302 -0.41964,-0.32911 -0.429,-0.31975 -0.0999,0.0999 0.19972,0.25466 0.40808,0.46302 0.46303,0.46302 0.0549,0 0.0999,-0.045 0.0999,-0.0999 z m 23.974023,-0.85678 c 0.56601,-0.38066 1.0682,-0.72732 1.11596,-0.77036 0.0478,-0.043 -0.0734,-0.38407 -0.2692,-0.75782 -0.35606,-0.67956 -0.35606,-0.67956 -2.17197,0.25069 -0.99876,0.51163 -1.87198,0.87419 -1.94049,0.80567 -0.0685,-0.0685 0.45307,-0.49011 1.15908,-0.93688 0.70601,-0.44676 1.55063,-0.88391 1.87693,-0.97143 0.48716,-0.13066 0.56308,-0.28423 0.42444,-0.85855 -0.0929,-0.38469 -0.39772,-1.02686 -0.67745,-1.42704 -0.37979,-0.54334 -0.72912,-0.7276 -1.37938,-0.7276 -0.47892,0 -1.55454,0.36487 -2.39024,0.81083 -0.83571,0.44596 -1.57137,0.75893 -1.63481,0.6955 -0.0634,-0.0634 0.45474,-0.4751 1.15149,-0.9148 0.69676,-0.43971 1.53473,-0.87976 1.86215,-0.97791 0.32742,-0.0982 0.59531,-0.29332 0.59531,-0.43373 0,-0.1404 -0.26295,-0.35255 -0.58434,-0.47144 -0.41302,-0.15279 -1.01418,-0.023 -2.05052,0.44277 -0.8064,0.36241 -1.675273,0.83982 -1.930833,1.06091 -0.25555,0.22109 -0.54527,0.32135 -0.64382,0.22281 -0.0985,-0.0985 -0.068,-0.28633 0.0678,-0.41729 0.13582,-0.13096 0.82688,-0.54392 1.535683,-0.91767 0.72707,-0.38339 1.13066,-0.72965 0.92604,-0.79448 -0.19948,-0.0632 -0.98777,-0.18814 -1.751753,-0.27765 -1.38192,-0.16191 -1.38907,-0.15896 -1.39005,0.57397 -9.9e-4,0.73672 -9.9e-4,0.73672 -0.50869,-0.0959 -0.30218,-0.49557 -0.86409,-0.94233 -1.38808,-1.10363 -0.4842,-0.14905 -1.59474,-0.34318 -2.46787,-0.43139 -1.5875,-0.16038 -1.5875,-0.16038 -0.79375,0.52355 0.43656,0.37617 1.46289,1.02817 2.28073,1.4489 0.81783,0.42074 2.36564,1.46805 3.43958,2.32736 1.073943,0.85932 2.309803,2.06887 2.746363,2.68789 0.43656,0.61903 1.00211,1.3508 1.25677,1.62616 0.30032,0.32473 0.82193,0.50065 1.48443,0.50065 0.6629,0 1.38263,-0.24292 2.05052,-0.69209 z m -4.92401,-2.44734 c 0,-0.15022 0.77786,-0.64436 1.72857,-1.09809 0.95072,-0.45374 1.93299,-0.7759 2.18282,-0.71592 0.40003,0.096 0.39109,0.1349 -0.0749,0.32565 -0.29105,0.11912 -1.18401,0.51849 -1.98438,0.88748 -0.80036,0.36899 -1.5445,0.71659 -1.65365,0.77244 -0.10914,0.0559 -0.19843,-0.0214 -0.19843,-0.17156 z m -22.277733,-0.3663 c -1.07501,-1.20054 -2.4665,-2.80789 -3.09222,-3.57187 -0.62571,-0.76398 -1.25556,-1.38906 -1.39966,-1.38906 -0.14409,0 -0.2223,0.10944 -0.1738,0.24321 0.0485,0.13376 1.4989,1.74111 3.2231,3.57187 1.72419,1.83077 3.1939,3.32867 3.26601,3.32867 0.0721,0 -0.74843,-0.98227 -1.82343,-2.18282 z m -4.97436,-5.62239 c 0.26788,-0.32278 0.25528,-0.39688 -0.0675,-0.39688 -0.21828,0 -0.54509,0.1786 -0.72625,0.39688 -0.26788,0.32278 -0.25528,0.39687 0.0675,0.39687 0.21828,0 0.54509,-0.17859 0.72625,-0.39687 z m 14.2875,-3.83646 c 0.32265,-0.20851 0.28846,-0.25724 -0.18282,-0.26053 -0.31883,-0.002 -0.65328,0.11501 -0.74322,0.26053 -0.0899,0.14552 -0.008,0.26276 0.18282,0.26053 0.19049,-0.002 0.52494,-0.11947 0.74322,-0.26053 z"
       id="path135685" />
  </g>
</svg>
