<svg class="calplot" fill="currentColor" font-family="system-ui, sans-serif" font-size="10" text-anchor="middle" width="1000" height="200" viewBox="0 0 1000 200" style="font-size: 20px;" xmlns="http://www.w3.org/2000/svg" xmlns:xlink="http://www.w3.org/1999/xlink"><style>:where(.calplot) {
  --plot-background: white;
  display: block;
  height: auto;
  height: intrinsic;
  max-width: 100%;
}
:where(.calplot text),
:where(.calplot tspan) {
  white-space: pre;
}</style><g aria-label="y-axis tick label" text-anchor="end" transform="translate(-2,10)"><text y="0.32em" transform="translate(42,20)">Sun</text><text y="0.32em" transform="translate(42,40)">Mon</text><text y="0.32em" transform="translate(42,60)">Tue</text><text y="0.32em" transform="translate(42,80)">Wed</text><text y="0.32em" transform="translate(42,100)">Thu</text><text y="0.32em" transform="translate(42,120)">Fri</text><text y="0.32em" transform="translate(42,140)">Sat</text></g><g aria-label="x-axis tick label" font-variant="tabular-nums" transform="translate(8.849056603773585,2)"><text y="0.71em" transform="translate(42,160)">0</text><text y="0.71em" transform="translate(77.39622641509433,160)">2</text><text y="0.71em" transform="translate(112.79245283018868,160)">4</text><text y="0.71em" transform="translate(148.18867924528303,160)">6</text><text y="0.71em" transform="translate(183.58490566037736,160)">8</text><text y="0.71em" transform="translate(218.9811320754717,160)">10</text><text y="0.71em" transform="translate(254.37735849056605,160)">12</text><text y="0.71em" transform="translate(289.7735849056604,160)">14</text><text y="0.71em" transform="translate(325.1698113207547,160)">16</text><text y="0.71em" transform="translate(360.5660377358491,160)">18</text><text y="0.71em" transform="translate(395.9622641509434,160)">20</text><text y="0.71em" transform="translate(431.35849056603774,160)">22</text><text y="0.71em" transform="translate(466.7547169811321,160)">24</text><text y="0.71em" transform="translate(502.1509433962264,160)">26</text><text y="0.71em" transform="translate(537.5471698113208,160)">28</text><text y="0.71em" transform="translate(572.9433962264151,160)">30</text><text y="0.71em" transform="translate(608.3396226415094,160)">32</text><text y="0.71em" transform="translate(643.7358490566038,160)">34</text><text y="0.71em" transform="translate(679.1320754716982,160)">36</text><text y="0.71em" transform="translate(714.5283018867924,160)">38</text><text y="0.71em" transform="translate(749.9245283018868,160)">40</text><text y="0.71em" transform="translate(785.3207547169811,160)">42</text><text y="0.71em" transform="translate(820.7169811320755,160)">44</text><text y="0.71em" transform="translate(856.1132075471698,160)">46</text><text y="0.71em" transform="translate(891.5094339622642,160)">48</text><text y="0.71em" transform="translate(926.9056603773585,160)">50</text><text y="0.71em" transform="translate(962.3018867924528,160)">52</text></g><g aria-label="x-axis label" transform="translate(0,36)"><text transform="translate(511,160)">Week →</text></g><g aria-label="cell" stroke-width="3"><rect x="42.5" width="16.69811320754717" y="20.5" height="19" fill="#fbb4ae" stroke="none"/><rect x="42.5" width="16.69811320754717" y="40.5" height="19" fill="#fbb4ae" stroke="none"/><rect x="42.5" width="16.69811320754717" y="60.5" height="19" fill="#fbb4ae" stroke="none"/><rect x="42.5" width="16.69811320754717" y="80.5" height="19" fill="#fbb4ae" stroke="none"/><rect x="42.5" width="16.69811320754717" y="100.5" height="19" fill="#fbb4ae" stroke="none"/><rect x="42.5" width="16.69811320754717" y="120.5" height="19" fill="#fbb4ae" stroke="none"/><rect x="42.5" width="16.69811320754717" y="140.5" height="19" fill="#fbb4ae" stroke="none"/><rect x="60.198113207547166" width="16.69811320754717" y="20.5" height="19" fill="#fbb4ae" stroke="none"/><rect x="60.198113207547166" width="16.69811320754717" y="40.5" height="19" fill="#fbb4ae" stroke="none"/><rect x="60.198113207547166" width="16.69811320754717" y="60.5" height="19" fill="#fbb4ae" stroke="none"/><rect x="60.198113207547166" width="16.69811320754717" y="80.5" height="19" fill="#fbb4ae" stroke="none"/><rect x="60.198113207547166" width="16.69811320754717" y="100.5" height="19" fill="#fbb4ae" stroke="none"/><rect x="60.198113207547166" width="16.69811320754717" y="120.5" height="19" fill="#fbb4ae" stroke="none"/><rect x="60.198113207547166" width="16.69811320754717" y="140.5" height="19" fill="#fbb4ae" stroke="none"/><rect x="77.89622641509433" width="16.69811320754717" y="20.5" height="19" fill="#fbb4ae" stroke="none"/><rect x="77.89622641509433" width="16.69811320754717" y="40.5" height="19" fill="#fbb4ae" stroke="none"/><rect x="77.89622641509433" width="16.69811320754717" y="60.5" height="19" fill="#fbb4ae" stroke="none"/><rect x="77.89622641509433" width="16.69811320754717" y="80.5" height="19" fill="#fbb4ae" stroke="none"/><rect x="77.89622641509433" width="16.69811320754717" y="100.5" height="19" fill="#fbb4ae" stroke="none"/><rect x="77.89622641509433" width="16.69811320754717" y="120.5" height="19" fill="#fbb4ae" stroke="none"/><rect x="77.89622641509433" width="16.69811320754717" y="140.5" height="19" fill="#fbb4ae" stroke="none"/><rect x="95.59433962264151" width="16.69811320754717" y="20.5" height="19" fill="#fbb4ae" stroke="none"/><rect x="95.59433962264151" width="16.69811320754717" y="40.5" height="19" fill="#fbb4ae" stroke="none"/><rect x="95.59433962264151" width="16.69811320754717" y="60.5" height="19" fill="#fbb4ae" stroke="none"/><rect x="95.59433962264151" width="16.69811320754717" y="80.5" height="19" fill="#fbb4ae" stroke="none"/><rect x="95.59433962264151" width="16.69811320754717" y="100.5" height="19" fill="#fbb4ae" stroke="none"/><rect x="95.59433962264151" width="16.69811320754717" y="120.5" height="19" fill="#fbb4ae" stroke="none"/><rect x="95.59433962264151" width="16.69811320754717" y="140.5" height="19" fill="#fbb4ae" stroke="none"/><rect x="113.29245283018868" width="16.69811320754717" y="20.5" height="19" fill="#fbb4ae" stroke="none"/><rect x="113.29245283018868" width="16.69811320754717" y="40.5" height="19" fill="#fbb4ae" stroke="none"/><rect x="113.29245283018868" width="16.69811320754717" y="60.5" height="19" fill="#fbb4ae" stroke="none"/><rect x="113.29245283018868" width="16.69811320754717" y="80.5" height="19" fill="#b3cde3" stroke="none"/><rect x="113.29245283018868" width="16.69811320754717" y="100.5" height="19" fill="#b3cde3" stroke="none"/><rect x="113.29245283018868" width="16.69811320754717" y="120.5" height="19" fill="#b3cde3" stroke="none"/><rect x="113.29245283018868" width="16.69811320754717" y="140.5" height="19" fill="#b3cde3" stroke="none"/><rect x="130.99056603773585" width="16.69811320754717" y="20.5" height="19" fill="#b3cde3" stroke="none"/><rect x="130.99056603773585" width="16.69811320754717" y="40.5" height="19" fill="#b3cde3" stroke="none"/><rect x="130.99056603773585" width="16.69811320754717" y="60.5" height="19" fill="#b3cde3" stroke="none"/><rect x="130.99056603773585" width="16.69811320754717" y="80.5" height="19" fill="#b3cde3" stroke="none"/><rect x="130.99056603773585" width="16.69811320754717" y="100.5" height="19" fill="#b3cde3" stroke="none"/><rect x="130.99056603773585" width="16.69811320754717" y="120.5" height="19" fill="#b3cde3" stroke="none"/><rect x="130.99056603773585" width="16.69811320754717" y="140.5" height="19" fill="#b3cde3" stroke="none"/><rect x="148.68867924528303" width="16.69811320754717" y="20.5" height="19" fill="#b3cde3" stroke="none"/><rect x="148.68867924528303" width="16.69811320754717" y="40.5" height="19" fill="#b3cde3" stroke="none"/><rect x="148.68867924528303" width="16.69811320754717" y="60.5" height="19" fill="#b3cde3" stroke="none"/><rect x="148.68867924528303" width="16.69811320754717" y="80.5" height="19" fill="#b3cde3" stroke="none"/><rect x="148.68867924528303" width="16.69811320754717" y="100.5" height="19" fill="#b3cde3" stroke="none"/><rect x="148.68867924528303" width="16.69811320754717" y="120.5" height="19" fill="#b3cde3" stroke="none"/><rect x="148.68867924528303" width="16.69811320754717" y="140.5" height="19" fill="#b3cde3" stroke="none"/><rect x="166.3867924528302" width="16.69811320754717" y="20.5" height="19" fill="#b3cde3" stroke="none"/><rect x="166.3867924528302" width="16.69811320754717" y="40.5" height="19" fill="#b3cde3" stroke="none"/><rect x="166.3867924528302" width="16.69811320754717" y="60.5" height="19" fill="#b3cde3" stroke="none"/><rect x="166.3867924528302" width="16.69811320754717" y="80.5" height="19" fill="#b3cde3" stroke="none"/><rect x="166.3867924528302" width="16.69811320754717" y="100.5" height="19" fill="#b3cde3" stroke="none"/><rect x="166.3867924528302" width="16.69811320754717" y="120.5" height="19" fill="#b3cde3" stroke="none"/><rect x="166.3867924528302" width="16.69811320754717" y="140.5" height="19" fill="#b3cde3" stroke="none"/><rect x="184.08490566037736" width="16.69811320754717" y="20.5" height="19" fill="#b3cde3" stroke="none"/><rect x="184.08490566037736" width="16.69811320754717" y="40.5" height="19" fill="#b3cde3" stroke="none"/><rect x="184.08490566037736" width="16.69811320754717" y="60.5" height="19" fill="#b3cde3" stroke="none"/><rect x="184.08490566037736" width="16.69811320754717" y="80.5" height="19" fill="#e41a1c" stroke="darkorange"/><rect x="184.08490566037736" width="16.69811320754717" y="100.5" height="19" fill="#ccebc5" stroke="none"/><rect x="184.08490566037736" width="16.69811320754717" y="120.5" height="19" fill="#ccebc5" stroke="none"/><rect x="184.08490566037736" width="16.69811320754717" y="140.5" height="19" fill="#ccebc5" stroke="none"/><rect x="201.78301886792454" width="16.69811320754717" y="20.5" height="19" fill="#ccebc5" stroke="none"/><rect x="201.78301886792454" width="16.69811320754717" y="40.5" height="19" fill="#ccebc5" stroke="none"/><rect x="201.78301886792454" width="16.69811320754717" y="60.5" height="19" fill="#ccebc5" stroke="none"/><rect x="201.78301886792454" width="16.69811320754717" y="80.5" height="19" fill="#ccebc5" stroke="none"/><rect x="201.78301886792454" width="16.69811320754717" y="100.5" height="19" fill="#ccebc5" stroke="none"/><rect x="201.78301886792454" width="16.69811320754717" y="120.5" height="19" fill="#ccebc5" stroke="none"/><rect x="201.78301886792454" width="16.69811320754717" y="140.5" height="19" fill="#ccebc5" stroke="none"/><rect x="219.4811320754717" width="16.69811320754717" y="20.5" height="19" fill="#ccebc5" stroke="none"/><rect x="219.4811320754717" width="16.69811320754717" y="40.5" height="19" fill="#ccebc5" stroke="none"/><rect x="219.4811320754717" width="16.69811320754717" y="60.5" height="19" fill="#ccebc5" stroke="none"/><rect x="219.4811320754717" width="16.69811320754717" y="80.5" height="19" fill="#ccebc5" stroke="none"/><rect x="219.4811320754717" width="16.69811320754717" y="100.5" height="19" fill="#ccebc5" stroke="none"/><rect x="219.4811320754717" width="16.69811320754717" y="120.5" height="19" fill="#ccebc5" stroke="none"/><rect x="219.4811320754717" width="16.69811320754717" y="140.5" height="19" fill="#ccebc5" stroke="none"/><rect x="237.17924528301887" width="16.69811320754717" y="20.5" height="19" fill="#ccebc5" stroke="none"/><rect x="237.17924528301887" width="16.69811320754717" y="40.5" height="19" fill="#ccebc5" stroke="none"/><rect x="237.17924528301887" width="16.69811320754717" y="60.5" height="19" fill="#ccebc5" stroke="none"/><rect x="237.17924528301887" width="16.69811320754717" y="80.5" height="19" fill="#ccebc5" stroke="none"/><rect x="237.17924528301887" width="16.69811320754717" y="100.5" height="19" fill="#ccebc5" stroke="none"/><rect x="237.17924528301887" width="16.69811320754717" y="120.5" height="19" fill="#ccebc5" stroke="none"/><rect x="237.17924528301887" width="16.69811320754717" y="140.5" height="19" fill="#ccebc5" stroke="none"/><rect x="254.87735849056605" width="16.69811320754717" y="20.5" height="19" fill="#ccebc5" stroke="none"/><rect x="254.87735849056605" width="16.69811320754717" y="40.5" height="19" fill="#ccebc5" stroke="none"/><rect x="254.87735849056605" width="16.69811320754717" y="60.5" height="19" fill="#ccebc5" stroke="none"/><rect x="254.87735849056605" width="16.69811320754717" y="80.5" height="19" fill="#ccebc5" stroke="none"/><rect x="254.87735849056605" width="16.69811320754717" y="100.5" height="19" fill="#ccebc5" stroke="none"/><rect x="254.87735849056605" width="16.69811320754717" y="120.5" height="19" fill="#ccebc5" stroke="none"/><rect x="254.87735849056605" width="16.69811320754717" y="140.5" height="19" fill="#decbe4" stroke="none"/><rect x="272.57547169811323" width="16.69811320754717" y="20.5" height="19" fill="#decbe4" stroke="none"/><rect x="272.57547169811323" width="16.69811320754717" y="40.5" height="19" fill="#decbe4" stroke="none"/><rect x="272.57547169811323" width="16.69811320754717" y="60.5" height="19" fill="#decbe4" stroke="none"/><rect x="272.57547169811323" width="16.69811320754717" y="80.5" height="19" fill="#decbe4" stroke="none"/><rect x="272.57547169811323" width="16.69811320754717" y="100.5" height="19" fill="#decbe4" stroke="none"/><rect x="272.57547169811323" width="16.69811320754717" y="120.5" height="19" fill="#decbe4" stroke="none"/><rect x="272.57547169811323" width="16.69811320754717" y="140.5" height="19" fill="#decbe4" stroke="none"/><rect x="290.2735849056604" width="16.69811320754717" y="20.5" height="19" fill="#decbe4" stroke="none"/><rect x="290.2735849056604" width="16.69811320754717" y="40.5" height="19" fill="#decbe4" stroke="none"/><rect x="290.2735849056604" width="16.69811320754717" y="60.5" height="19" fill="#decbe4" stroke="none"/><rect x="290.2735849056604" width="16.69811320754717" y="80.5" height="19" fill="#decbe4" stroke="none"/><rect x="290.2735849056604" width="16.69811320754717" y="100.5" height="19" fill="#decbe4" stroke="none"/><rect x="290.2735849056604" width="16.69811320754717" y="120.5" height="19" fill="#decbe4" stroke="none"/><rect x="290.2735849056604" width="16.69811320754717" y="140.5" height="19" fill="#decbe4" stroke="none"/><rect x="307.97169811320754" width="16.69811320754717" y="20.5" height="19" fill="#decbe4" stroke="none"/><rect x="307.97169811320754" width="16.69811320754717" y="40.5" height="19" fill="#decbe4" stroke="none"/><rect x="307.97169811320754" width="16.69811320754717" y="60.5" height="19" fill="#decbe4" stroke="none"/><rect x="307.97169811320754" width="16.69811320754717" y="80.5" height="19" fill="#decbe4" stroke="none"/><rect x="307.97169811320754" width="16.69811320754717" y="100.5" height="19" fill="#decbe4" stroke="none"/><rect x="307.97169811320754" width="16.69811320754717" y="120.5" height="19" fill="#decbe4" stroke="none"/><rect x="307.97169811320754" width="16.69811320754717" y="140.5" height="19" fill="#decbe4" stroke="none"/><rect x="325.6698113207547" width="16.69811320754717" y="20.5" height="19" fill="#decbe4" stroke="none"/><rect x="325.6698113207547" width="16.69811320754717" y="40.5" height="19" fill="#decbe4" stroke="none"/><rect x="325.6698113207547" width="16.69811320754717" y="60.5" height="19" fill="#decbe4" stroke="none"/><rect x="325.6698113207547" width="16.69811320754717" y="80.5" height="19" fill="#decbe4" stroke="none"/><rect x="325.6698113207547" width="16.69811320754717" y="100.5" height="19" fill="#decbe4" stroke="none"/><rect x="325.6698113207547" width="16.69811320754717" y="120.5" height="19" fill="#decbe4" stroke="none"/><rect x="325.6698113207547" width="16.69811320754717" y="140.5" height="19" fill="#decbe4" stroke="none"/><rect x="343.3679245283019" width="16.69811320754717" y="20.5" height="19" fill="#decbe4" stroke="none"/><rect x="343.3679245283019" width="16.69811320754717" y="40.5" height="19" fill="#fed9a6" stroke="none"/><rect x="343.3679245283019" width="16.69811320754717" y="60.5" height="19" fill="#fed9a6" stroke="none"/><rect x="343.3679245283019" width="16.69811320754717" y="80.5" height="19" fill="#fed9a6" stroke="none"/><rect x="343.3679245283019" width="16.69811320754717" y="100.5" height="19" fill="#fed9a6" stroke="none"/><rect x="343.3679245283019" width="16.69811320754717" y="120.5" height="19" fill="#fed9a6" stroke="none"/><rect x="343.3679245283019" width="16.69811320754717" y="140.5" height="19" fill="#fed9a6" stroke="none"/><rect x="361.0660377358491" width="16.69811320754717" y="20.5" height="19" fill="#fed9a6" stroke="none"/><rect x="361.0660377358491" width="16.69811320754717" y="40.5" height="19" fill="#fed9a6" stroke="none"/><rect x="361.0660377358491" width="16.69811320754717" y="60.5" height="19" fill="#fed9a6" stroke="none"/><rect x="361.0660377358491" width="16.69811320754717" y="80.5" height="19" fill="#fed9a6" stroke="none"/><rect x="361.0660377358491" width="16.69811320754717" y="100.5" height="19" fill="#fed9a6" stroke="none"/><rect x="361.0660377358491" width="16.69811320754717" y="120.5" height="19" fill="#fed9a6" stroke="none"/><rect x="361.0660377358491" width="16.69811320754717" y="140.5" height="19" fill="#fed9a6" stroke="none"/><rect x="378.7641509433962" width="16.69811320754717" y="20.5" height="19" fill="#fed9a6" stroke="none"/><rect x="378.7641509433962" width="16.69811320754717" y="40.5" height="19" fill="#fed9a6" stroke="none"/><rect x="378.7641509433962" width="16.69811320754717" y="60.5" height="19" fill="#fed9a6" stroke="none"/><rect x="378.7641509433962" width="16.69811320754717" y="80.5" height="19" fill="#fed9a6" stroke="none"/><rect x="378.7641509433962" width="16.69811320754717" y="100.5" height="19" fill="#fed9a6" stroke="none"/><rect x="378.7641509433962" width="16.69811320754717" y="120.5" height="19" fill="#fed9a6" stroke="none"/><rect x="378.7641509433962" width="16.69811320754717" y="140.5" height="19" fill="#fed9a6" stroke="none"/><rect x="396.4622641509434" width="16.69811320754717" y="20.5" height="19" fill="#fed9a6" stroke="none"/><rect x="396.4622641509434" width="16.69811320754717" y="40.5" height="19" fill="#fed9a6" stroke="none"/><rect x="396.4622641509434" width="16.69811320754717" y="60.5" height="19" fill="#fed9a6" stroke="none"/><rect x="396.4622641509434" width="16.69811320754717" y="80.5" height="19" fill="#fed9a6" stroke="none"/><rect x="396.4622641509434" width="16.69811320754717" y="100.5" height="19" fill="#fed9a6" stroke="none"/><rect x="396.4622641509434" width="16.69811320754717" y="120.5" height="19" fill="#fed9a6" stroke="none"/><rect x="396.4622641509434" width="16.69811320754717" y="140.5" height="19" fill="#fed9a6" stroke="none"/><rect x="414.16037735849056" width="16.69811320754717" y="20.5" height="19" fill="#fed9a6" stroke="none"/><rect x="414.16037735849056" width="16.69811320754717" y="40.5" height="19" fill="#fed9a6" stroke="none"/><rect x="414.16037735849056" width="16.69811320754717" y="60.5" height="19" fill="#fed9a6" stroke="none"/><rect x="414.16037735849056" width="16.69811320754717" y="80.5" height="19" fill="#fed9a6" stroke="none"/><rect x="414.16037735849056" width="16.69811320754717" y="100.5" height="19" fill="#ffffcc" stroke="none"/><rect x="414.16037735849056" width="16.69811320754717" y="120.5" height="19" fill="#ffffcc" stroke="none"/><rect x="414.16037735849056" width="16.69811320754717" y="140.5" height="19" fill="#ffffcc" stroke="none"/><rect x="431.85849056603774" width="16.69811320754717" y="20.5" height="19" fill="#ffffcc" stroke="none"/><rect x="431.85849056603774" width="16.69811320754717" y="40.5" height="19" fill="#ffffcc" stroke="none"/><rect x="431.85849056603774" width="16.69811320754717" y="60.5" height="19" fill="#ffffcc" stroke="none"/><rect x="431.85849056603774" width="16.69811320754717" y="80.5" height="19" fill="#ffffcc" stroke="none"/><rect x="431.85849056603774" width="16.69811320754717" y="100.5" height="19" fill="#ffffcc" stroke="none"/><rect x="431.85849056603774" width="16.69811320754717" y="120.5" height="19" fill="#ffffcc" stroke="none"/><rect x="431.85849056603774" width="16.69811320754717" y="140.5" height="19" fill="#ffffcc" stroke="none"/><rect x="449.5566037735849" width="16.69811320754717" y="20.5" height="19" fill="#ffffcc" stroke="none"/><rect x="449.5566037735849" width="16.69811320754717" y="40.5" height="19" fill="#ffffcc" stroke="none"/><rect x="449.5566037735849" width="16.69811320754717" y="60.5" height="19" fill="#ffffcc" stroke="none"/><rect x="449.5566037735849" width="16.69811320754717" y="80.5" height="19" fill="#ffffcc" stroke="none"/><rect x="449.5566037735849" width="16.69811320754717" y="100.5" height="19" fill="#ffffcc" stroke="none"/><rect x="449.5566037735849" width="16.69811320754717" y="120.5" height="19" fill="#ffffcc" stroke="none"/><rect x="449.5566037735849" width="16.69811320754717" y="140.5" height="19" fill="#ffffcc" stroke="none"/><rect x="467.2547169811321" width="16.69811320754717" y="20.5" height="19" fill="#ffffcc" stroke="none"/><rect x="467.2547169811321" width="16.69811320754717" y="40.5" height="19" fill="#ffffcc" stroke="none"/><rect x="467.2547169811321" width="16.69811320754717" y="60.5" height="19" fill="#ffffcc" stroke="none"/><rect x="467.2547169811321" width="16.69811320754717" y="80.5" height="19" fill="#ffffcc" stroke="none"/><rect x="467.2547169811321" width="16.69811320754717" y="100.5" height="19" fill="#ffffcc" stroke="none"/><rect x="467.2547169811321" width="16.69811320754717" y="120.5" height="19" fill="#ffffcc" stroke="none"/><rect x="467.2547169811321" width="16.69811320754717" y="140.5" height="19" fill="#ffffcc" stroke="none"/><rect x="484.95283018867923" width="16.69811320754717" y="20.5" height="19" fill="#ffffcc" stroke="none"/><rect x="484.95283018867923" width="16.69811320754717" y="40.5" height="19" fill="#ffffcc" stroke="none"/><rect x="484.95283018867923" width="16.69811320754717" y="60.5" height="19" fill="#ffffcc" stroke="none"/><rect x="484.95283018867923" width="16.69811320754717" y="80.5" height="19" fill="#ffffcc" stroke="none"/><rect x="484.95283018867923" width="16.69811320754717" y="100.5" height="19" fill="#ffffcc" stroke="none"/><rect x="484.95283018867923" width="16.69811320754717" y="120.5" height="19" fill="#ffffcc" stroke="none"/><rect x="484.95283018867923" width="16.69811320754717" y="140.5" height="19" fill="#e5d8bd" stroke="none"/><rect x="502.6509433962264" width="16.69811320754717" y="20.5" height="19" fill="#e5d8bd" stroke="none"/><rect x="502.6509433962264" width="16.69811320754717" y="40.5" height="19" fill="#e5d8bd" stroke="none"/><rect x="502.6509433962264" width="16.69811320754717" y="60.5" height="19" fill="#e5d8bd" stroke="none"/><rect x="502.6509433962264" width="16.69811320754717" y="80.5" height="19" fill="#e5d8bd" stroke="none"/><rect x="502.6509433962264" width="16.69811320754717" y="100.5" height="19" fill="#e5d8bd" stroke="none"/><rect x="502.6509433962264" width="16.69811320754717" y="120.5" height="19" fill="#e5d8bd" stroke="none"/><rect x="502.6509433962264" width="16.69811320754717" y="140.5" height="19" fill="#e5d8bd" stroke="none"/><rect x="520.3490566037735" width="16.69811320754717" y="20.5" height="19" fill="#e5d8bd" stroke="none"/><rect x="520.3490566037735" width="16.69811320754717" y="40.5" height="19" fill="#e5d8bd" stroke="none"/><rect x="520.3490566037735" width="16.69811320754717" y="60.5" height="19" fill="#e5d8bd" stroke="none"/><rect x="520.3490566037735" width="16.69811320754717" y="80.5" height="19" fill="#e5d8bd" stroke="none"/><rect x="520.3490566037735" width="16.69811320754717" y="100.5" height="19" fill="#e5d8bd" stroke="none"/><rect x="520.3490566037735" width="16.69811320754717" y="120.5" height="19" fill="#e5d8bd" stroke="none"/><rect x="520.3490566037735" width="16.69811320754717" y="140.5" height="19" fill="#e5d8bd" stroke="none"/><rect x="538.0471698113208" width="16.69811320754717" y="20.5" height="19" fill="#e5d8bd" stroke="none"/><rect x="538.0471698113208" width="16.69811320754717" y="40.5" height="19" fill="#e5d8bd" stroke="none"/><rect x="538.0471698113208" width="16.69811320754717" y="60.5" height="19" fill="#e5d8bd" stroke="none"/><rect x="538.0471698113208" width="16.69811320754717" y="80.5" height="19" fill="#e5d8bd" stroke="none"/><rect x="538.0471698113208" width="16.69811320754717" y="100.5" height="19" fill="#e5d8bd" stroke="none"/><rect x="538.0471698113208" width="16.69811320754717" y="120.5" height="19" fill="#e5d8bd" stroke="none"/><rect x="538.0471698113208" width="16.69811320754717" y="140.5" height="19" fill="#e5d8bd" stroke="none"/><rect x="555.7452830188679" width="16.69811320754717" y="20.5" height="19" fill="#e5d8bd" stroke="none"/><rect x="555.7452830188679" width="16.69811320754717" y="40.5" height="19" fill="#e5d8bd" stroke="none"/><rect x="555.7452830188679" width="16.69811320754717" y="60.5" height="19" fill="#e5d8bd" stroke="none"/><rect x="555.7452830188679" width="16.69811320754717" y="80.5" height="19" fill="#e5d8bd" stroke="none"/><rect x="555.7452830188679" width="16.69811320754717" y="100.5" height="19" fill="#e5d8bd" stroke="none"/><rect x="555.7452830188679" width="16.69811320754717" y="120.5" height="19" fill="#e5d8bd" stroke="none"/><rect x="555.7452830188679" width="16.69811320754717" y="140.5" height="19" fill="#e5d8bd" stroke="none"/><rect x="573.4433962264151" width="16.69811320754717" y="20.5" height="19" fill="#e5d8bd" stroke="none"/><rect x="573.4433962264151" width="16.69811320754717" y="40.5" height="19" fill="#e5d8bd" stroke="none"/><rect x="573.4433962264151" width="16.69811320754717" y="60.5" height="19" fill="#fddaec" stroke="none"/><rect x="573.4433962264151" width="16.69811320754717" y="80.5" height="19" fill="#fddaec" stroke="none"/><rect x="573.4433962264151" width="16.69811320754717" y="100.5" height="19" fill="#fddaec" stroke="none"/><rect x="573.4433962264151" width="16.69811320754717" y="120.5" height="19" fill="#fddaec" stroke="none"/><rect x="573.4433962264151" width="16.69811320754717" y="140.5" height="19" fill="#fddaec" stroke="none"/><rect x="591.1415094339623" width="16.69811320754717" y="20.5" height="19" fill="#fddaec" stroke="none"/><rect x="591.1415094339623" width="16.69811320754717" y="40.5" height="19" fill="#fddaec" stroke="none"/><rect x="591.1415094339623" width="16.69811320754717" y="60.5" height="19" fill="#fddaec" stroke="none"/><rect x="591.1415094339623" width="16.69811320754717" y="80.5" height="19" fill="#fddaec" stroke="none"/><rect x="591.1415094339623" width="16.69811320754717" y="100.5" height="19" fill="#fddaec" stroke="none"/><rect x="591.1415094339623" width="16.69811320754717" y="120.5" height="19" fill="#fddaec" stroke="none"/><rect x="591.1415094339623" width="16.69811320754717" y="140.5" height="19" fill="#fddaec" stroke="none"/><rect x="608.8396226415094" width="16.69811320754717" y="20.5" height="19" fill="#fddaec" stroke="none"/><rect x="608.8396226415094" width="16.69811320754717" y="40.5" height="19" fill="#fddaec" stroke="none"/><rect x="608.8396226415094" width="16.69811320754717" y="60.5" height="19" fill="#fddaec" stroke="none"/><rect x="608.8396226415094" width="16.69811320754717" y="80.5" height="19" fill="#fddaec" stroke="none"/><rect x="608.8396226415094" width="16.69811320754717" y="100.5" height="19" fill="#fddaec" stroke="none"/><rect x="608.8396226415094" width="16.69811320754717" y="120.5" height="19" fill="#fddaec" stroke="none"/><rect x="608.8396226415094" width="16.69811320754717" y="140.5" height="19" fill="#fddaec" stroke="none"/><rect x="626.5377358490566" width="16.69811320754717" y="20.5" height="19" fill="#fddaec" stroke="none"/><rect x="626.5377358490566" width="16.69811320754717" y="40.5" height="19" fill="#fddaec" stroke="none"/><rect x="626.5377358490566" width="16.69811320754717" y="60.5" height="19" fill="#fddaec" stroke="none"/><rect x="626.5377358490566" width="16.69811320754717" y="80.5" height="19" fill="#fddaec" stroke="none"/><rect x="626.5377358490566" width="16.69811320754717" y="100.5" height="19" fill="#fddaec" stroke="none"/><rect x="626.5377358490566" width="16.69811320754717" y="120.5" height="19" fill="#fddaec" stroke="none"/><rect x="626.5377358490566" width="16.69811320754717" y="140.5" height="19" fill="#fddaec" stroke="none"/><rect x="644.2358490566038" width="16.69811320754717" y="20.5" height="19" fill="#fddaec" stroke="none"/><rect x="644.2358490566038" width="16.69811320754717" y="40.5" height="19" fill="#fddaec" stroke="none"/><rect x="644.2358490566038" width="16.69811320754717" y="60.5" height="19" fill="#fddaec" stroke="none"/><rect x="644.2358490566038" width="16.69811320754717" y="80.5" height="19" fill="#fddaec" stroke="none"/><rect x="644.2358490566038" width="16.69811320754717" y="100.5" height="19" fill="#fddaec" stroke="none"/><rect x="644.2358490566038" width="16.69811320754717" y="120.5" height="19" fill="#f2f2f2" stroke="none"/><rect x="644.2358490566038" width="16.69811320754717" y="140.5" height="19" fill="#f2f2f2" stroke="none"/><rect x="661.933962264151" width="16.69811320754717" y="20.5" height="19" fill="#f2f2f2" stroke="none"/><rect x="661.933962264151" width="16.69811320754717" y="40.5" height="19" fill="#f2f2f2" stroke="none"/><rect x="661.933962264151" width="16.69811320754717" y="60.5" height="19" fill="#f2f2f2" stroke="none"/><rect x="661.933962264151" width="16.69811320754717" y="80.5" height="19" fill="#f2f2f2" stroke="none"/><rect x="661.933962264151" width="16.69811320754717" y="100.5" height="19" fill="#f2f2f2" stroke="none"/><rect x="661.933962264151" width="16.69811320754717" y="120.5" height="19" fill="#f2f2f2" stroke="none"/><rect x="661.933962264151" width="16.69811320754717" y="140.5" height="19" fill="#f2f2f2" stroke="none"/><rect x="679.6320754716982" width="16.69811320754717" y="20.5" height="19" fill="#f2f2f2" stroke="none"/><rect x="679.6320754716982" width="16.69811320754717" y="40.5" height="19" fill="#f2f2f2" stroke="none"/><rect x="679.6320754716982" width="16.69811320754717" y="60.5" height="19" fill="#f2f2f2" stroke="none"/><rect x="679.6320754716982" width="16.69811320754717" y="80.5" height="19" fill="#f2f2f2" stroke="none"/><rect x="679.6320754716982" width="16.69811320754717" y="100.5" height="19" fill="#f2f2f2" stroke="none"/><rect x="679.6320754716982" width="16.69811320754717" y="120.5" height="19" fill="#f2f2f2" stroke="none"/><rect x="679.6320754716982" width="16.69811320754717" y="140.5" height="19" fill="#f2f2f2" stroke="none"/><rect x="697.3301886792453" width="16.69811320754717" y="20.5" height="19" fill="#f2f2f2" stroke="none"/><rect x="697.3301886792453" width="16.69811320754717" y="40.5" height="19" fill="#f2f2f2" stroke="none"/><rect x="697.3301886792453" width="16.69811320754717" y="60.5" height="19" fill="#f2f2f2" stroke="none"/><rect x="697.3301886792453" width="16.69811320754717" y="80.5" height="19" fill="#f2f2f2" stroke="none"/><rect x="697.3301886792453" width="16.69811320754717" y="100.5" height="19" fill="#f2f2f2" stroke="none"/><rect x="697.3301886792453" width="16.69811320754717" y="120.5" height="19" fill="#f2f2f2" stroke="none"/><rect x="697.3301886792453" width="16.69811320754717" y="140.5" height="19" fill="#f2f2f2" stroke="none"/><rect x="715.0283018867924" width="16.69811320754717" y="20.5" height="19" fill="#f2f2f2" stroke="none"/><rect x="715.0283018867924" width="16.69811320754717" y="40.5" height="19" fill="#f2f2f2" stroke="none"/><rect x="715.0283018867924" width="16.69811320754717" y="60.5" height="19" fill="#f2f2f2" stroke="none"/><rect x="715.0283018867924" width="16.69811320754717" y="80.5" height="19" fill="#f2f2f2" stroke="none"/><rect x="715.0283018867924" width="16.69811320754717" y="100.5" height="19" fill="#f2f2f2" stroke="none"/><rect x="715.0283018867924" width="16.69811320754717" y="120.5" height="19" fill="#f2f2f2" stroke="none"/><rect x="715.0283018867924" width="16.69811320754717" y="140.5" height="19" fill="#f2f2f2" stroke="none"/><rect x="732.7264150943396" width="16.69811320754717" y="20.5" height="19" fill="#e6f5c9" stroke="none"/><rect x="732.7264150943396" width="16.69811320754717" y="40.5" height="19" fill="#e6f5c9" stroke="none"/><rect x="732.7264150943396" width="16.69811320754717" y="60.5" height="19" fill="#e6f5c9" stroke="none"/><rect x="732.7264150943396" width="16.69811320754717" y="80.5" height="19" fill="#e6f5c9" stroke="none"/><rect x="732.7264150943396" width="16.69811320754717" y="100.5" height="19" fill="#e6f5c9" stroke="none"/><rect x="732.7264150943396" width="16.69811320754717" y="120.5" height="19" fill="#e6f5c9" stroke="none"/><rect x="732.7264150943396" width="16.69811320754717" y="140.5" height="19" fill="#e6f5c9" stroke="none"/><rect x="750.4245283018868" width="16.69811320754717" y="20.5" height="19" fill="#e6f5c9" stroke="none"/><rect x="750.4245283018868" width="16.69811320754717" y="40.5" height="19" fill="#e6f5c9" stroke="none"/><rect x="750.4245283018868" width="16.69811320754717" y="60.5" height="19" fill="#e6f5c9" stroke="none"/><rect x="750.4245283018868" width="16.69811320754717" y="80.5" height="19" fill="#e6f5c9" stroke="none"/><rect x="750.4245283018868" width="16.69811320754717" y="100.5" height="19" fill="#e6f5c9" stroke="none"/><rect x="750.4245283018868" width="16.69811320754717" y="120.5" height="19" fill="#e6f5c9" stroke="none"/><rect x="750.4245283018868" width="16.69811320754717" y="140.5" height="19" fill="#e6f5c9" stroke="none"/><rect x="768.122641509434" width="16.69811320754717" y="20.5" height="19" fill="#e6f5c9" stroke="none"/><rect x="768.122641509434" width="16.69811320754717" y="40.5" height="19" fill="#e6f5c9" stroke="none"/><rect x="768.122641509434" width="16.69811320754717" y="60.5" height="19" fill="#e6f5c9" stroke="none"/><rect x="768.122641509434" width="16.69811320754717" y="80.5" height="19" fill="#e6f5c9" stroke="none"/><rect x="768.122641509434" width="16.69811320754717" y="100.5" height="19" fill="#e6f5c9" stroke="none"/><rect x="768.122641509434" width="16.69811320754717" y="120.5" height="19" fill="#e6f5c9" stroke="none"/><rect x="768.122641509434" width="16.69811320754717" y="140.5" height="19" fill="#e6f5c9" stroke="none"/><rect x="785.8207547169811" width="16.69811320754717" y="20.5" height="19" fill="#e6f5c9" stroke="none"/><rect x="785.8207547169811" width="16.69811320754717" y="40.5" height="19" fill="#e6f5c9" stroke="none"/><rect x="785.8207547169811" width="16.69811320754717" y="60.5" height="19" fill="#e6f5c9" stroke="none"/><rect x="785.8207547169811" width="16.69811320754717" y="80.5" height="19" fill="#e6f5c9" stroke="none"/><rect x="785.8207547169811" width="16.69811320754717" y="100.5" height="19" fill="#e6f5c9" stroke="none"/><rect x="785.8207547169811" width="16.69811320754717" y="120.5" height="19" fill="#e6f5c9" stroke="none"/><rect x="785.8207547169811" width="16.69811320754717" y="140.5" height="19" fill="#e6f5c9" stroke="none"/><rect x="803.5188679245283" width="16.69811320754717" y="20.5" height="19" fill="#e6f5c9" stroke="none"/><rect x="803.5188679245283" width="16.69811320754717" y="40.5" height="19" fill="#e6f5c9" stroke="none"/><rect x="803.5188679245283" width="16.69811320754717" y="60.5" height="19" fill="#e6f5c9" stroke="none"/><rect x="803.5188679245283" width="16.69811320754717" y="80.5" height="19" fill="#fff2ae" stroke="none"/><rect x="803.5188679245283" width="16.69811320754717" y="100.5" height="19" fill="#fff2ae" stroke="none"/><rect x="803.5188679245283" width="16.69811320754717" y="120.5" height="19" fill="#fff2ae" stroke="none"/><rect x="803.5188679245283" width="16.69811320754717" y="140.5" height="19" fill="#fff2ae" stroke="none"/><rect x="821.2169811320755" width="16.69811320754717" y="20.5" height="19" fill="#fff2ae" stroke="none"/><rect x="821.2169811320755" width="16.69811320754717" y="40.5" height="19" fill="#fff2ae" stroke="none"/><rect x="821.2169811320755" width="16.69811320754717" y="60.5" height="19" fill="#fff2ae" stroke="none"/><rect x="821.2169811320755" width="16.69811320754717" y="80.5" height="19" fill="#fff2ae" stroke="none"/><rect x="821.2169811320755" width="16.69811320754717" y="100.5" height="19" fill="#fff2ae" stroke="none"/><rect x="821.2169811320755" width="16.69811320754717" y="120.5" height="19" fill="#fff2ae" stroke="none"/><rect x="821.2169811320755" width="16.69811320754717" y="140.5" height="19" fill="#fff2ae" stroke="none"/><rect x="838.9150943396227" width="16.69811320754717" y="20.5" height="19" fill="#fff2ae" stroke="none"/><rect x="838.9150943396227" width="16.69811320754717" y="40.5" height="19" fill="#fff2ae" stroke="none"/><rect x="838.9150943396227" width="16.69811320754717" y="60.5" height="19" fill="#fff2ae" stroke="none"/><rect x="838.9150943396227" width="16.69811320754717" y="80.5" height="19" fill="#fff2ae" stroke="none"/><rect x="838.9150943396227" width="16.69811320754717" y="100.5" height="19" fill="#fff2ae" stroke="none"/><rect x="838.9150943396227" width="16.69811320754717" y="120.5" height="19" fill="#fff2ae" stroke="none"/><rect x="838.9150943396227" width="16.69811320754717" y="140.5" height="19" fill="#fff2ae" stroke="none"/><rect x="856.6132075471698" width="16.69811320754717" y="20.5" height="19" fill="#fff2ae" stroke="none"/><rect x="856.6132075471698" width="16.69811320754717" y="40.5" height="19" fill="#fff2ae" stroke="none"/><rect x="856.6132075471698" width="16.69811320754717" y="60.5" height="19" fill="#fff2ae" stroke="none"/><rect x="856.6132075471698" width="16.69811320754717" y="80.5" height="19" fill="#fff2ae" stroke="none"/><rect x="856.6132075471698" width="16.69811320754717" y="100.5" height="19" fill="#fff2ae" stroke="none"/><rect x="856.6132075471698" width="16.69811320754717" y="120.5" height="19" fill="#fff2ae" stroke="none"/><rect x="856.6132075471698" width="16.69811320754717" y="140.5" height="19" fill="#fff2ae" stroke="none"/><rect x="874.311320754717" width="16.69811320754717" y="20.5" height="19" fill="#fff2ae" stroke="none"/><rect x="874.311320754717" width="16.69811320754717" y="40.5" height="19" fill="#fff2ae" stroke="none"/><rect x="874.311320754717" width="16.69811320754717" y="60.5" height="19" fill="#fff2ae" stroke="none"/><rect x="874.311320754717" width="16.69811320754717" y="80.5" height="19" fill="#fff2ae" stroke="none"/><rect x="874.311320754717" width="16.69811320754717" y="100.5" height="19" fill="#fff2ae" stroke="none"/><rect x="874.311320754717" width="16.69811320754717" y="120.5" height="19" fill="#f1e2cc" stroke="none"/><rect x="874.311320754717" width="16.69811320754717" y="140.5" height="19" fill="#f1e2cc" stroke="none"/><rect x="892.0094339622642" width="16.69811320754717" y="20.5" height="19" fill="#f1e2cc" stroke="none"/><rect x="892.0094339622642" width="16.69811320754717" y="40.5" height="19" fill="#f1e2cc" stroke="none"/><rect x="892.0094339622642" width="16.69811320754717" y="60.5" height="19" fill="#f1e2cc" stroke="none"/><rect x="892.0094339622642" width="16.69811320754717" y="80.5" height="19" fill="#f1e2cc" stroke="none"/><rect x="892.0094339622642" width="16.69811320754717" y="100.5" height="19" fill="#f1e2cc" stroke="none"/><rect x="892.0094339622642" width="16.69811320754717" y="120.5" height="19" fill="#f1e2cc" stroke="none"/><rect x="892.0094339622642" width="16.69811320754717" y="140.5" height="19" fill="#f1e2cc" stroke="none"/><rect x="909.7075471698113" width="16.69811320754717" y="20.5" height="19" fill="#f1e2cc" stroke="none"/><rect x="909.7075471698113" width="16.69811320754717" y="40.5" height="19" fill="#f1e2cc" stroke="none"/><rect x="909.7075471698113" width="16.69811320754717" y="60.5" height="19" fill="#f1e2cc" stroke="none"/><rect x="909.7075471698113" width="16.69811320754717" y="80.5" height="19" fill="#f1e2cc" stroke="none"/><rect x="909.7075471698113" width="16.69811320754717" y="100.5" height="19" fill="#f1e2cc" stroke="none"/><rect x="909.7075471698113" width="16.69811320754717" y="120.5" height="19" fill="#f1e2cc" stroke="none"/><rect x="909.7075471698113" width="16.69811320754717" y="140.5" height="19" fill="#f1e2cc" stroke="none"/><rect x="927.4056603773585" width="16.69811320754717" y="20.5" height="19" fill="#f1e2cc" stroke="none"/><rect x="927.4056603773585" width="16.69811320754717" y="40.5" height="19" fill="#f1e2cc" stroke="none"/><rect x="927.4056603773585" width="16.69811320754717" y="60.5" height="19" fill="#f1e2cc" stroke="none"/><rect x="927.4056603773585" width="16.69811320754717" y="80.5" height="19" fill="#f1e2cc" stroke="none"/><rect x="927.4056603773585" width="16.69811320754717" y="100.5" height="19" fill="#f1e2cc" stroke="none"/><rect x="927.4056603773585" width="16.69811320754717" y="120.5" height="19" fill="#f1e2cc" stroke="none"/><rect x="927.4056603773585" width="16.69811320754717" y="140.5" height="19" fill="#f1e2cc" stroke="none"/><rect x="945.1037735849056" width="16.69811320754717" y="20.5" height="19" fill="#f1e2cc" stroke="none"/><rect x="945.1037735849056" width="16.69811320754717" y="40.5" height="19" fill="#f1e2cc" stroke="none"/><rect x="945.1037735849056" width="16.69811320754717" y="60.5" height="19" fill="#f1e2cc" stroke="none"/><rect x="945.1037735849056" width="16.69811320754717" y="80.5" height="19" fill="#f1e2cc" stroke="none"/><rect x="945.1037735849056" width="16.69811320754717" y="100.5" height="19" fill="#f1e2cc" stroke="none"/><rect x="945.1037735849056" width="16.69811320754717" y="120.5" height="19" fill="#f1e2cc" stroke="none"/><rect x="945.1037735849056" width="16.69811320754717" y="140.5" height="19" fill="#f1e2cc" stroke="none"/><rect x="962.8018867924528" width="16.69811320754717" y="20.5" height="19" fill="#f1e2cc" stroke="none"/></g><g aria-label="text" text-anchor="start" font-family="ui-monospace, monospace" font-size="18px" transform="translate(8.849056603773585,9)"><text y="0.32em" transform="translate(42,0)">Jan</text><text y="0.32em" transform="translate(130.49056603773585,0)">Feb</text><text y="0.32em" transform="translate(201.28301886792454,0)">Mar</text><text y="0.32em" transform="translate(272.07547169811323,0)">Apr</text><text y="0.32em" transform="translate(360.5660377358491,0)">May</text><text y="0.32em" transform="translate(431.35849056603774,0)">Jun</text><text y="0.32em" transform="translate(502.1509433962264,0)">Jul</text><text y="0.32em" transform="translate(590.6415094339623,0)">Aug</text><text y="0.32em" transform="translate(661.433962264151,0)">Sep</text><text y="0.32em" transform="translate(732.2264150943396,0)">Oct</text><text y="0.32em" transform="translate(820.7169811320755,0)">Nov</text><text y="0.32em" transform="translate(891.5094339622642,0)">Dec</text></g><g aria-label="text" font-family="ui-monospace, monospace" font-size="13px" font-variant="tabular-nums" transform="translate(8.849056603773585,10)"><text y="0.32em" transform="translate(42,20)" fill="black">1</text><text y="0.32em" transform="translate(42,40)" fill="black">2</text><text y="0.32em" transform="translate(42,60)" fill="black">3</text><text y="0.32em" transform="translate(42,80)" fill="black">4</text><text y="0.32em" transform="translate(42,100)" fill="black">5</text><text y="0.32em" transform="translate(42,120)" fill="black">6</text><text y="0.32em" transform="translate(42,140)" fill="black">7</text><text y="0.32em" transform="translate(59.698113207547166,20)" fill="black">8</text><text y="0.32em" transform="translate(59.698113207547166,40)" fill="black">9</text><text y="0.32em" transform="translate(59.698113207547166,60)" fill="black">10</text><text y="0.32em" transform="translate(59.698113207547166,80)" fill="black">11</text><text y="0.32em" transform="translate(59.698113207547166,100)" fill="black">12</text><text y="0.32em" transform="translate(59.698113207547166,120)" fill="black">13</text><text y="0.32em" transform="translate(59.698113207547166,140)" fill="black">14</text><text y="0.32em" transform="translate(77.39622641509433,20)" fill="black">15</text><text y="0.32em" transform="translate(77.39622641509433,40)" fill="black">16</text><text y="0.32em" transform="translate(77.39622641509433,60)" fill="black">17</text><text y="0.32em" transform="translate(77.39622641509433,80)" fill="black">18</text><text y="0.32em" transform="translate(77.39622641509433,100)" fill="black">19</text><text y="0.32em" transform="translate(77.39622641509433,120)" fill="black">20</text><text y="0.32em" transform="translate(77.39622641509433,140)" fill="black">21</text><text y="0.32em" transform="translate(95.09433962264151,20)" fill="black">22</text><text y="0.32em" transform="translate(95.09433962264151,40)" fill="black">23</text><text y="0.32em" transform="translate(95.09433962264151,60)" fill="black">24</text><text y="0.32em" transform="translate(95.09433962264151,80)" fill="black">25</text><text y="0.32em" transform="translate(95.09433962264151,100)" fill="black">26</text><text y="0.32em" transform="translate(95.09433962264151,120)" fill="black">27</text><text y="0.32em" transform="translate(95.09433962264151,140)" fill="black">28</text><text y="0.32em" transform="translate(112.79245283018868,20)" fill="black">29</text><text y="0.32em" transform="translate(112.79245283018868,40)" fill="black">30</text><text y="0.32em" transform="translate(112.79245283018868,60)" fill="black">31</text><text y="0.32em" transform="translate(112.79245283018868,80)" fill="black">1</text><text y="0.32em" transform="translate(112.79245283018868,100)" fill="black">2</text><text y="0.32em" transform="translate(112.79245283018868,120)" fill="black">3</text><text y="0.32em" transform="translate(112.79245283018868,140)" fill="black">4</text><text y="0.32em" transform="translate(130.49056603773585,20)" fill="black">5</text><text y="0.32em" transform="translate(130.49056603773585,40)" fill="black">6</text><text y="0.32em" transform="translate(130.49056603773585,60)" fill="black">7</text><text y="0.32em" transform="translate(130.49056603773585,80)" fill="black">8</text><text y="0.32em" transform="translate(130.49056603773585,100)" fill="black">9</text><text y="0.32em" transform="translate(130.49056603773585,120)" fill="black">10</text><text y="0.32em" transform="translate(130.49056603773585,140)" fill="black">11</text><text y="0.32em" transform="translate(148.18867924528303,20)" fill="black">12</text><text y="0.32em" transform="translate(148.18867924528303,40)" fill="black">13</text><text y="0.32em" transform="translate(148.18867924528303,60)" fill="black">14</text><text y="0.32em" transform="translate(148.18867924528303,80)" fill="black">15</text><text y="0.32em" transform="translate(148.18867924528303,100)" fill="black">16</text><text y="0.32em" transform="translate(148.18867924528303,120)" fill="black">17</text><text y="0.32em" transform="translate(148.18867924528303,140)" fill="black">18</text><text y="0.32em" transform="translate(165.8867924528302,20)" fill="black">19</text><text y="0.32em" transform="translate(165.8867924528302,40)" fill="black">20</text><text y="0.32em" transform="translate(165.8867924528302,60)" fill="black">21</text><text y="0.32em" transform="translate(165.8867924528302,80)" fill="black">22</text><text y="0.32em" transform="translate(165.8867924528302,100)" fill="black">23</text><text y="0.32em" transform="translate(165.8867924528302,120)" fill="black">24</text><text y="0.32em" transform="translate(165.8867924528302,140)" fill="black">25</text><text y="0.32em" transform="translate(183.58490566037736,20)" fill="black">26</text><text y="0.32em" transform="translate(183.58490566037736,40)" fill="black">27</text><text y="0.32em" transform="translate(183.58490566037736,60)" fill="black">28</text><text y="0.32em" transform="translate(183.58490566037736,80)" fill="white">1</text><text y="0.32em" transform="translate(183.58490566037736,100)" fill="black">2</text><text y="0.32em" transform="translate(183.58490566037736,120)" fill="black">3</text><text y="0.32em" transform="translate(183.58490566037736,140)" fill="black">4</text><text y="0.32em" transform="translate(201.28301886792454,20)" fill="black">5</text><text y="0.32em" transform="translate(201.28301886792454,40)" fill="black">6</text><text y="0.32em" transform="translate(201.28301886792454,60)" fill="black">7</text><text y="0.32em" transform="translate(201.28301886792454,80)" fill="black">8</text><text y="0.32em" transform="translate(201.28301886792454,100)" fill="black">9</text><text y="0.32em" transform="translate(201.28301886792454,120)" fill="black">10</text><text y="0.32em" transform="translate(201.28301886792454,140)" fill="black">11</text><text y="0.32em" transform="translate(218.9811320754717,20)" fill="black">12</text><text y="0.32em" transform="translate(218.9811320754717,40)" fill="black">13</text><text y="0.32em" transform="translate(218.9811320754717,60)" fill="black">14</text><text y="0.32em" transform="translate(218.9811320754717,80)" fill="black">15</text><text y="0.32em" transform="translate(218.9811320754717,100)" fill="black">16</text><text y="0.32em" transform="translate(218.9811320754717,120)" fill="black">17</text><text y="0.32em" transform="translate(218.9811320754717,140)" fill="black">18</text><text y="0.32em" transform="translate(236.67924528301887,20)" fill="black">19</text><text y="0.32em" transform="translate(236.67924528301887,40)" fill="black">20</text><text y="0.32em" transform="translate(236.67924528301887,60)" fill="black">21</text><text y="0.32em" transform="translate(236.67924528301887,80)" fill="black">22</text><text y="0.32em" transform="translate(236.67924528301887,100)" fill="black">23</text><text y="0.32em" transform="translate(236.67924528301887,120)" fill="black">24</text><text y="0.32em" transform="translate(236.67924528301887,140)" fill="black">25</text><text y="0.32em" transform="translate(254.37735849056605,20)" fill="black">26</text><text y="0.32em" transform="translate(254.37735849056605,40)" fill="black">27</text><text y="0.32em" transform="translate(254.37735849056605,60)" fill="black">28</text><text y="0.32em" transform="translate(254.37735849056605,80)" fill="black">29</text><text y="0.32em" transform="translate(254.37735849056605,100)" fill="black">30</text><text y="0.32em" transform="translate(254.37735849056605,120)" fill="black">31</text><text y="0.32em" transform="translate(254.37735849056605,140)" fill="black">1</text><text y="0.32em" transform="translate(272.07547169811323,20)" fill="black">2</text><text y="0.32em" transform="translate(272.07547169811323,40)" fill="black">3</text><text y="0.32em" transform="translate(272.07547169811323,60)" fill="black">4</text><text y="0.32em" transform="translate(272.07547169811323,80)" fill="black">5</text><text y="0.32em" transform="translate(272.07547169811323,100)" fill="black">6</text><text y="0.32em" transform="translate(272.07547169811323,120)" fill="black">7</text><text y="0.32em" transform="translate(272.07547169811323,140)" fill="black">8</text><text y="0.32em" transform="translate(289.7735849056604,20)" fill="black">9</text><text y="0.32em" transform="translate(289.7735849056604,40)" fill="black">10</text><text y="0.32em" transform="translate(289.7735849056604,60)" fill="black">11</text><text y="0.32em" transform="translate(289.7735849056604,80)" fill="black">12</text><text y="0.32em" transform="translate(289.7735849056604,100)" fill="black">13</text><text y="0.32em" transform="translate(289.7735849056604,120)" fill="black">14</text><text y="0.32em" transform="translate(289.7735849056604,140)" fill="black">15</text><text y="0.32em" transform="translate(307.47169811320754,20)" fill="black">16</text><text y="0.32em" transform="translate(307.47169811320754,40)" fill="black">17</text><text y="0.32em" transform="translate(307.47169811320754,60)" fill="black">18</text><text y="0.32em" transform="translate(307.47169811320754,80)" fill="black">19</text><text y="0.32em" transform="translate(307.47169811320754,100)" fill="black">20</text><text y="0.32em" transform="translate(307.47169811320754,120)" fill="black">21</text><text y="0.32em" transform="translate(307.47169811320754,140)" fill="black">22</text><text y="0.32em" transform="translate(325.1698113207547,20)" fill="black">23</text><text y="0.32em" transform="translate(325.1698113207547,40)" fill="black">24</text><text y="0.32em" transform="translate(325.1698113207547,60)" fill="black">25</text><text y="0.32em" transform="translate(325.1698113207547,80)" fill="black">26</text><text y="0.32em" transform="translate(325.1698113207547,100)" fill="black">27</text><text y="0.32em" transform="translate(325.1698113207547,120)" fill="black">28</text><text y="0.32em" transform="translate(325.1698113207547,140)" fill="black">29</text><text y="0.32em" transform="translate(342.8679245283019,20)" fill="black">30</text><text y="0.32em" transform="translate(342.8679245283019,40)" fill="black">1</text><text y="0.32em" transform="translate(342.8679245283019,60)" fill="black">2</text><text y="0.32em" transform="translate(342.8679245283019,80)" fill="black">3</text><text y="0.32em" transform="translate(342.8679245283019,100)" fill="black">4</text><text y="0.32em" transform="translate(342.8679245283019,120)" fill="black">5</text><text y="0.32em" transform="translate(342.8679245283019,140)" fill="black">6</text><text y="0.32em" transform="translate(360.5660377358491,20)" fill="black">7</text><text y="0.32em" transform="translate(360.5660377358491,40)" fill="black">8</text><text y="0.32em" transform="translate(360.5660377358491,60)" fill="black">9</text><text y="0.32em" transform="translate(360.5660377358491,80)" fill="black">10</text><text y="0.32em" transform="translate(360.5660377358491,100)" fill="black">11</text><text y="0.32em" transform="translate(360.5660377358491,120)" fill="black">12</text><text y="0.32em" transform="translate(360.5660377358491,140)" fill="black">13</text><text y="0.32em" transform="translate(378.2641509433962,20)" fill="black">14</text><text y="0.32em" transform="translate(378.2641509433962,40)" fill="black">15</text><text y="0.32em" transform="translate(378.2641509433962,60)" fill="black">16</text><text y="0.32em" transform="translate(378.2641509433962,80)" fill="black">17</text><text y="0.32em" transform="translate(378.2641509433962,100)" fill="black">18</text><text y="0.32em" transform="translate(378.2641509433962,120)" fill="black">19</text><text y="0.32em" transform="translate(378.2641509433962,140)" fill="black">20</text><text y="0.32em" transform="translate(395.9622641509434,20)" fill="black">21</text><text y="0.32em" transform="translate(395.9622641509434,40)" fill="black">22</text><text y="0.32em" transform="translate(395.9622641509434,60)" fill="black">23</text><text y="0.32em" transform="translate(395.9622641509434,80)" fill="black">24</text><text y="0.32em" transform="translate(395.9622641509434,100)" fill="black">25</text><text y="0.32em" transform="translate(395.9622641509434,120)" fill="black">26</text><text y="0.32em" transform="translate(395.9622641509434,140)" fill="black">27</text><text y="0.32em" transform="translate(413.66037735849056,20)" fill="black">28</text><text y="0.32em" transform="translate(413.66037735849056,40)" fill="black">29</text><text y="0.32em" transform="translate(413.66037735849056,60)" fill="black">30</text><text y="0.32em" transform="translate(413.66037735849056,80)" fill="black">31</text><text y="0.32em" transform="translate(413.66037735849056,100)" fill="black">1</text><text y="0.32em" transform="translate(413.66037735849056,120)" fill="black">2</text><text y="0.32em" transform="translate(413.66037735849056,140)" fill="black">3</text><text y="0.32em" transform="translate(431.35849056603774,20)" fill="black">4</text><text y="0.32em" transform="translate(431.35849056603774,40)" fill="black">5</text><text y="0.32em" transform="translate(431.35849056603774,60)" fill="black">6</text><text y="0.32em" transform="translate(431.35849056603774,80)" fill="black">7</text><text y="0.32em" transform="translate(431.35849056603774,100)" fill="black">8</text><text y="0.32em" transform="translate(431.35849056603774,120)" fill="black">9</text><text y="0.32em" transform="translate(431.35849056603774,140)" fill="black">10</text><text y="0.32em" transform="translate(449.0566037735849,20)" fill="black">11</text><text y="0.32em" transform="translate(449.0566037735849,40)" fill="black">12</text><text y="0.32em" transform="translate(449.0566037735849,60)" fill="black">13</text><text y="0.32em" transform="translate(449.0566037735849,80)" fill="black">14</text><text y="0.32em" transform="translate(449.0566037735849,100)" fill="black">15</text><text y="0.32em" transform="translate(449.0566037735849,120)" fill="black">16</text><text y="0.32em" transform="translate(449.0566037735849,140)" fill="black">17</text><text y="0.32em" transform="translate(466.7547169811321,20)" fill="black">18</text><text y="0.32em" transform="translate(466.7547169811321,40)" fill="black">19</text><text y="0.32em" transform="translate(466.7547169811321,60)" fill="black">20</text><text y="0.32em" transform="translate(466.7547169811321,80)" fill="black">21</text><text y="0.32em" transform="translate(466.7547169811321,100)" fill="black">22</text><text y="0.32em" transform="translate(466.7547169811321,120)" fill="black">23</text><text y="0.32em" transform="translate(466.7547169811321,140)" fill="black">24</text><text y="0.32em" transform="translate(484.45283018867923,20)" fill="black">25</text><text y="0.32em" transform="translate(484.45283018867923,40)" fill="black">26</text><text y="0.32em" transform="translate(484.45283018867923,60)" fill="black">27</text><text y="0.32em" transform="translate(484.45283018867923,80)" fill="black">28</text><text y="0.32em" transform="translate(484.45283018867923,100)" fill="black">29</text><text y="0.32em" transform="translate(484.45283018867923,120)" fill="black">30</text><text y="0.32em" transform="translate(484.45283018867923,140)" fill="black">1</text><text y="0.32em" transform="translate(502.1509433962264,20)" fill="black">2</text><text y="0.32em" transform="translate(502.1509433962264,40)" fill="black">3</text><text y="0.32em" transform="translate(502.1509433962264,60)" fill="black">4</text><text y="0.32em" transform="translate(502.1509433962264,80)" fill="black">5</text><text y="0.32em" transform="translate(502.1509433962264,100)" fill="black">6</text><text y="0.32em" transform="translate(502.1509433962264,120)" fill="black">7</text><text y="0.32em" transform="translate(502.1509433962264,140)" fill="black">8</text><text y="0.32em" transform="translate(519.8490566037735,20)" fill="black">9</text><text y="0.32em" transform="translate(519.8490566037735,40)" fill="black">10</text><text y="0.32em" transform="translate(519.8490566037735,60)" fill="black">11</text><text y="0.32em" transform="translate(519.8490566037735,80)" fill="black">12</text><text y="0.32em" transform="translate(519.8490566037735,100)" fill="black">13</text><text y="0.32em" transform="translate(519.8490566037735,120)" fill="black">14</text><text y="0.32em" transform="translate(519.8490566037735,140)" fill="black">15</text><text y="0.32em" transform="translate(537.5471698113208,20)" fill="black">16</text><text y="0.32em" transform="translate(537.5471698113208,40)" fill="black">17</text><text y="0.32em" transform="translate(537.5471698113208,60)" fill="black">18</text><text y="0.32em" transform="translate(537.5471698113208,80)" fill="black">19</text><text y="0.32em" transform="translate(537.5471698113208,100)" fill="black">20</text><text y="0.32em" transform="translate(537.5471698113208,120)" fill="black">21</text><text y="0.32em" transform="translate(537.5471698113208,140)" fill="black">22</text><text y="0.32em" transform="translate(555.2452830188679,20)" fill="black">23</text><text y="0.32em" transform="translate(555.2452830188679,40)" fill="black">24</text><text y="0.32em" transform="translate(555.2452830188679,60)" fill="black">25</text><text y="0.32em" transform="translate(555.2452830188679,80)" fill="black">26</text><text y="0.32em" transform="translate(555.2452830188679,100)" fill="black">27</text><text y="0.32em" transform="translate(555.2452830188679,120)" fill="black">28</text><text y="0.32em" transform="translate(555.2452830188679,140)" fill="black">29</text><text y="0.32em" transform="translate(572.9433962264151,20)" fill="black">30</text><text y="0.32em" transform="translate(572.9433962264151,40)" fill="black">31</text><text y="0.32em" transform="translate(572.9433962264151,60)" fill="black">1</text><text y="0.32em" transform="translate(572.9433962264151,80)" fill="black">2</text><text y="0.32em" transform="translate(572.9433962264151,100)" fill="black">3</text><text y="0.32em" transform="translate(572.9433962264151,120)" fill="black">4</text><text y="0.32em" transform="translate(572.9433962264151,140)" fill="black">5</text><text y="0.32em" transform="translate(590.6415094339623,20)" fill="black">6</text><text y="0.32em" transform="translate(590.6415094339623,40)" fill="black">7</text><text y="0.32em" transform="translate(590.6415094339623,60)" fill="black">8</text><text y="0.32em" transform="translate(590.6415094339623,80)" fill="black">9</text><text y="0.32em" transform="translate(590.6415094339623,100)" fill="black">10</text><text y="0.32em" transform="translate(590.6415094339623,120)" fill="black">11</text><text y="0.32em" transform="translate(590.6415094339623,140)" fill="black">12</text><text y="0.32em" transform="translate(608.3396226415094,20)" fill="black">13</text><text y="0.32em" transform="translate(608.3396226415094,40)" fill="black">14</text><text y="0.32em" transform="translate(608.3396226415094,60)" fill="black">15</text><text y="0.32em" transform="translate(608.3396226415094,80)" fill="black">16</text><text y="0.32em" transform="translate(608.3396226415094,100)" fill="black">17</text><text y="0.32em" transform="translate(608.3396226415094,120)" fill="black">18</text><text y="0.32em" transform="translate(608.3396226415094,140)" fill="black">19</text><text y="0.32em" transform="translate(626.0377358490566,20)" fill="black">20</text><text y="0.32em" transform="translate(626.0377358490566,40)" fill="black">21</text><text y="0.32em" transform="translate(626.0377358490566,60)" fill="black">22</text><text y="0.32em" transform="translate(626.0377358490566,80)" fill="black">23</text><text y="0.32em" transform="translate(626.0377358490566,100)" fill="black">24</text><text y="0.32em" transform="translate(626.0377358490566,120)" fill="black">25</text><text y="0.32em" transform="translate(626.0377358490566,140)" fill="black">26</text><text y="0.32em" transform="translate(643.7358490566038,20)" fill="black">27</text><text y="0.32em" transform="translate(643.7358490566038,40)" fill="black">28</text><text y="0.32em" transform="translate(643.7358490566038,60)" fill="black">29</text><text y="0.32em" transform="translate(643.7358490566038,80)" fill="black">30</text><text y="0.32em" transform="translate(643.7358490566038,100)" fill="black">31</text><text y="0.32em" transform="translate(643.7358490566038,120)" fill="black">1</text><text y="0.32em" transform="translate(643.7358490566038,140)" fill="black">2</text><text y="0.32em" transform="translate(661.433962264151,20)" fill="black">3</text><text y="0.32em" transform="translate(661.433962264151,40)" fill="black">4</text><text y="0.32em" transform="translate(661.433962264151,60)" fill="black">5</text><text y="0.32em" transform="translate(661.433962264151,80)" fill="black">6</text><text y="0.32em" transform="translate(661.433962264151,100)" fill="black">7</text><text y="0.32em" transform="translate(661.433962264151,120)" fill="black">8</text><text y="0.32em" transform="translate(661.433962264151,140)" fill="black">9</text><text y="0.32em" transform="translate(679.1320754716982,20)" fill="black">10</text><text y="0.32em" transform="translate(679.1320754716982,40)" fill="black">11</text><text y="0.32em" transform="translate(679.1320754716982,60)" fill="black">12</text><text y="0.32em" transform="translate(679.1320754716982,80)" fill="black">13</text><text y="0.32em" transform="translate(679.1320754716982,100)" fill="black">14</text><text y="0.32em" transform="translate(679.1320754716982,120)" fill="black">15</text><text y="0.32em" transform="translate(679.1320754716982,140)" fill="black">16</text><text y="0.32em" transform="translate(696.8301886792453,20)" fill="black">17</text><text y="0.32em" transform="translate(696.8301886792453,40)" fill="black">18</text><text y="0.32em" transform="translate(696.8301886792453,60)" fill="black">19</text><text y="0.32em" transform="translate(696.8301886792453,80)" fill="black">20</text><text y="0.32em" transform="translate(696.8301886792453,100)" fill="black">21</text><text y="0.32em" transform="translate(696.8301886792453,120)" fill="black">22</text><text y="0.32em" transform="translate(696.8301886792453,140)" fill="black">23</text><text y="0.32em" transform="translate(714.5283018867924,20)" fill="black">24</text><text y="0.32em" transform="translate(714.5283018867924,40)" fill="black">25</text><text y="0.32em" transform="translate(714.5283018867924,60)" fill="black">26</text><text y="0.32em" transform="translate(714.5283018867924,80)" fill="black">27</text><text y="0.32em" transform="translate(714.5283018867924,100)" fill="black">28</text><text y="0.32em" transform="translate(714.5283018867924,120)" fill="black">29</text><text y="0.32em" transform="translate(714.5283018867924,140)" fill="black">30</text><text y="0.32em" transform="translate(732.2264150943396,20)" fill="black">1</text><text y="0.32em" transform="translate(732.2264150943396,40)" fill="black">2</text><text y="0.32em" transform="translate(732.2264150943396,60)" fill="black">3</text><text y="0.32em" transform="translate(732.2264150943396,80)" fill="black">4</text><text y="0.32em" transform="translate(732.2264150943396,100)" fill="black">5</text><text y="0.32em" transform="translate(732.2264150943396,120)" fill="black">6</text><text y="0.32em" transform="translate(732.2264150943396,140)" fill="black">7</text><text y="0.32em" transform="translate(749.9245283018868,20)" fill="black">8</text><text y="0.32em" transform="translate(749.9245283018868,40)" fill="black">9</text><text y="0.32em" transform="translate(749.9245283018868,60)" fill="black">10</text><text y="0.32em" transform="translate(749.9245283018868,80)" fill="black">11</text><text y="0.32em" transform="translate(749.9245283018868,100)" fill="black">12</text><text y="0.32em" transform="translate(749.9245283018868,120)" fill="black">13</text><text y="0.32em" transform="translate(749.9245283018868,140)" fill="black">14</text><text y="0.32em" transform="translate(767.622641509434,20)" fill="black">15</text><text y="0.32em" transform="translate(767.622641509434,40)" fill="black">16</text><text y="0.32em" transform="translate(767.622641509434,60)" fill="black">17</text><text y="0.32em" transform="translate(767.622641509434,80)" fill="black">18</text><text y="0.32em" transform="translate(767.622641509434,100)" fill="black">19</text><text y="0.32em" transform="translate(767.622641509434,120)" fill="black">20</text><text y="0.32em" transform="translate(767.622641509434,140)" fill="black">21</text><text y="0.32em" transform="translate(785.3207547169811,20)" fill="black">22</text><text y="0.32em" transform="translate(785.3207547169811,40)" fill="black">23</text><text y="0.32em" transform="translate(785.3207547169811,60)" fill="black">24</text><text y="0.32em" transform="translate(785.3207547169811,80)" fill="black">25</text><text y="0.32em" transform="translate(785.3207547169811,100)" fill="black">26</text><text y="0.32em" transform="translate(785.3207547169811,120)" fill="black">27</text><text y="0.32em" transform="translate(785.3207547169811,140)" fill="black">28</text><text y="0.32em" transform="translate(803.0188679245283,20)" fill="black">29</text><text y="0.32em" transform="translate(803.0188679245283,40)" fill="black">30</text><text y="0.32em" transform="translate(803.0188679245283,60)" fill="black">31</text><text y="0.32em" transform="translate(803.0188679245283,80)" fill="black">1</text><text y="0.32em" transform="translate(803.0188679245283,100)" fill="black">2</text><text y="0.32em" transform="translate(803.0188679245283,120)" fill="black">3</text><text y="0.32em" transform="translate(803.0188679245283,140)" fill="black">4</text><text y="0.32em" transform="translate(820.7169811320755,20)" fill="black">5</text><text y="0.32em" transform="translate(820.7169811320755,40)" fill="black">6</text><text y="0.32em" transform="translate(820.7169811320755,60)" fill="black">7</text><text y="0.32em" transform="translate(820.7169811320755,80)" fill="black">8</text><text y="0.32em" transform="translate(820.7169811320755,100)" fill="black">9</text><text y="0.32em" transform="translate(820.7169811320755,120)" fill="black">10</text><text y="0.32em" transform="translate(820.7169811320755,140)" fill="black">11</text><text y="0.32em" transform="translate(838.4150943396227,20)" fill="black">12</text><text y="0.32em" transform="translate(838.4150943396227,40)" fill="black">13</text><text y="0.32em" transform="translate(838.4150943396227,60)" fill="black">14</text><text y="0.32em" transform="translate(838.4150943396227,80)" fill="black">15</text><text y="0.32em" transform="translate(838.4150943396227,100)" fill="black">16</text><text y="0.32em" transform="translate(838.4150943396227,120)" fill="black">17</text><text y="0.32em" transform="translate(838.4150943396227,140)" fill="black">18</text><text y="0.32em" transform="translate(856.1132075471698,20)" fill="black">19</text><text y="0.32em" transform="translate(856.1132075471698,40)" fill="black">20</text><text y="0.32em" transform="translate(856.1132075471698,60)" fill="black">21</text><text y="0.32em" transform="translate(856.1132075471698,80)" fill="black">22</text><text y="0.32em" transform="translate(856.1132075471698,100)" fill="black">23</text><text y="0.32em" transform="translate(856.1132075471698,120)" fill="black">24</text><text y="0.32em" transform="translate(856.1132075471698,140)" fill="black">25</text><text y="0.32em" transform="translate(873.811320754717,20)" fill="black">26</text><text y="0.32em" transform="translate(873.811320754717,40)" fill="black">27</text><text y="0.32em" transform="translate(873.811320754717,60)" fill="black">28</text><text y="0.32em" transform="translate(873.811320754717,80)" fill="black">29</text><text y="0.32em" transform="translate(873.811320754717,100)" fill="black">30</text><text y="0.32em" transform="translate(873.811320754717,120)" fill="black">1</text><text y="0.32em" transform="translate(873.811320754717,140)" fill="black">2</text><text y="0.32em" transform="translate(891.5094339622642,20)" fill="black">3</text><text y="0.32em" transform="translate(891.5094339622642,40)" fill="black">4</text><text y="0.32em" transform="translate(891.5094339622642,60)" fill="black">5</text><text y="0.32em" transform="translate(891.5094339622642,80)" fill="black">6</text><text y="0.32em" transform="translate(891.5094339622642,100)" fill="black">7</text><text y="0.32em" transform="translate(891.5094339622642,120)" fill="black">8</text><text y="0.32em" transform="translate(891.5094339622642,140)" fill="black">9</text><text y="0.32em" transform="translate(909.2075471698113,20)" fill="black">10</text><text y="0.32em" transform="translate(909.2075471698113,40)" fill="black">11</text><text y="0.32em" transform="translate(909.2075471698113,60)" fill="black">12</text><text y="0.32em" transform="translate(909.2075471698113,80)" fill="black">13</text><text y="0.32em" transform="translate(909.2075471698113,100)" fill="black">14</text><text y="0.32em" transform="translate(909.2075471698113,120)" fill="black">15</text><text y="0.32em" transform="translate(909.2075471698113,140)" fill="black">16</text><text y="0.32em" transform="translate(926.9056603773585,20)" fill="black">17</text><text y="0.32em" transform="translate(926.9056603773585,40)" fill="black">18</text><text y="0.32em" transform="translate(926.9056603773585,60)" fill="black">19</text><text y="0.32em" transform="translate(926.9056603773585,80)" fill="black">20</text><text y="0.32em" transform="translate(926.9056603773585,100)" fill="black">21</text><text y="0.32em" transform="translate(926.9056603773585,120)" fill="black">22</text><text y="0.32em" transform="translate(926.9056603773585,140)" fill="black">23</text><text y="0.32em" transform="translate(944.6037735849056,20)" fill="black">24</text><text y="0.32em" transform="translate(944.6037735849056,40)" fill="black">25</text><text y="0.32em" transform="translate(944.6037735849056,60)" fill="black">26</text><text y="0.32em" transform="translate(944.6037735849056,80)" fill="black">27</text><text y="0.32em" transform="translate(944.6037735849056,100)" fill="black">28</text><text y="0.32em" transform="translate(944.6037735849056,120)" fill="black">29</text><text y="0.32em" transform="translate(944.6037735849056,140)" fill="black">30</text><text y="0.32em" transform="translate(962.3018867924528,20)" fill="black">31</text></g></svg>