<svg width="310" height="310" viewBox="-177.14285714285714 -155 372 310" xmlns="http://www.w3.org/2000/svg" xmlns:xlink="http://www.w3.org/1999/xlink">
  <g transform="rotate(0)"><path d="M 0,-112.85714285714286 l 0,-5" fill="none" stroke="#434343" stroke-width="1"/></g><g transform="rotate(1.8)"><path d="M 0,-112.85714285714286 l 0,-5" fill="none" stroke="#434343" stroke-width="1"/></g><g transform="rotate(3.6)"><path d="M 0,-112.85714285714286 l 0,-5" fill="none" stroke="#434343" stroke-width="1"/></g><g transform="rotate(5.4)"><path d="M 0,-112.85714285714286 l 0,-5" fill="none" stroke="#434343" stroke-width="1"/></g><g transform="rotate(7.2)"><path d="M 0,-112.85714285714286 l 0,-5" fill="none" stroke="#434343" stroke-width="1"/></g><g transform="rotate(9)"><path d="M 0,-112.85714285714286 l 0,-5" fill="none" stroke="#434343" stroke-width="1"/></g><g transform="rotate(10.8)"><path d="M 0,-112.85714285714286 l 0,-5" fill="none" stroke="#434343" stroke-width="1"/></g><g transform="rotate(12.6)"><path d="M 0,-112.85714285714286 l 0,-5" fill="none" stroke="#434343" stroke-width="1"/></g><g transform="rotate(14.4)"><path d="M 0,-112.85714285714286 l 0,-5" fill="none" stroke="#434343" stroke-width="1"/></g><g transform="rotate(16.2)"><path d="M 0,-112.85714285714286 l 0,-5" fill="none" stroke="#434343" stroke-width="1"/></g><g transform="rotate(18)"><path d="M 0,-112.85714285714286 l 0,-5" fill="none" stroke="#434343" stroke-width="1"/></g><g transform="rotate(19.8)"><path d="M 0,-112.85714285714286 l 0,-5" fill="none" stroke="#434343" stroke-width="1"/></g><g transform="rotate(21.6)"><path d="M 0,-112.85714285714286 l 0,-5" fill="none" stroke="#434343" stroke-width="1"/></g><g transform="rotate(23.400000000000002)"><path d="M 0,-112.85714285714286 l 0,-5" fill="none" stroke="#434343" stroke-width="1"/></g><g transform="rotate(25.2)"><path d="M 0,-112.85714285714286 l 0,-5" fill="none" stroke="#434343" stroke-width="1"/></g><g transform="rotate(27)"><path d="M 0,-112.85714285714286 l 0,-5" fill="none" stroke="#434343" stroke-width="1"/></g><g transform="rotate(28.8)"><path d="M 0,-112.85714285714286 l 0,-5" fill="none" stroke="#434343" stroke-width="1"/></g><g transform="rotate(30.6)"><path d="M 0,-112.85714285714286 l 0,-5" fill="none" stroke="#434343" stroke-width="1"/></g><g transform="rotate(32.4)"><path d="M 0,-112.85714285714286 l 0,-5" fill="none" stroke="#434343" stroke-width="1"/></g><g transform="rotate(34.2)"><path d="M 0,-112.85714285714286 l 0,-5" fill="none" stroke="#434343" stroke-width="1"/></g><g transform="rotate(36)"><path d="M 0,-112.85714285714286 l 0,-5" fill="none" stroke="#434343" stroke-width="1"/></g><g transform="rotate(37.800000000000004)"><path d="M 0,-112.85714285714286 l 0,-5" fill="none" stroke="#434343" stroke-width="1"/></g><g transform="rotate(39.6)"><path d="M 0,-112.85714285714286 l 0,-5" fill="none" stroke="#434343" stroke-width="1"/></g><g transform="rotate(41.4)"><path d="M 0,-112.85714285714286 l 0,-5" fill="none" stroke="#434343" stroke-width="1"/></g><g transform="rotate(43.2)"><path d="M 0,-112.85714285714286 l 0,-5" fill="none" stroke="#434343" stroke-width="1"/></g><g transform="rotate(45)"><path d="M 0,-112.85714285714286 l 0,-5" fill="none" stroke="#434343" stroke-width="1"/></g><g transform="rotate(46.800000000000004)"><path d="M 0,-112.85714285714286 l 0,-5" fill="none" stroke="#434343" stroke-width="1"/></g><g transform="rotate(48.6)"><path d="M 0,-112.85714285714286 l 0,-5" fill="none" stroke="#434343" stroke-width="1"/></g><g transform="rotate(50.4)"><path d="M 0,-112.85714285714286 l 0,-5" fill="none" stroke="#434343" stroke-width="1"/></g><g transform="rotate(52.2)"><path d="M 0,-112.85714285714286 l 0,-5" fill="none" stroke="#434343" stroke-width="1"/></g><g transform="rotate(54)"><path d="M 0,-112.85714285714286 l 0,-5" fill="none" stroke="#434343" stroke-width="1"/></g><g transform="rotate(55.800000000000004)"><path d="M 0,-112.85714285714286 l 0,-5" fill="none" stroke="#434343" stroke-width="1"/></g><g transform="rotate(57.6)"><path d="M 0,-112.85714285714286 l 0,-5" fill="none" stroke="#434343" stroke-width="1"/></g><g transform="rotate(59.4)"><path d="M 0,-112.85714285714286 l 0,-5" fill="none" stroke="#434343" stroke-width="1"/></g><g transform="rotate(61.2)"><path d="M 0,-112.85714285714286 l 0,-5" fill="none" stroke="#434343" stroke-width="1"/></g><g transform="rotate(63)"><path d="M 0,-112.85714285714286 l 0,-5" fill="none" stroke="#434343" stroke-width="1"/></g><g transform="rotate(64.8)"><path d="M 0,-112.85714285714286 l 0,-5" fill="none" stroke="#434343" stroke-width="1"/></g><g transform="rotate(66.60000000000001)"><path d="M 0,-112.85714285714286 l 0,-5" fill="none" stroke="#434343" stroke-width="1"/></g><g transform="rotate(68.4)"><path d="M 0,-112.85714285714286 l 0,-5" fill="none" stroke="#434343" stroke-width="1"/></g><g transform="rotate(70.2)"><path d="M 0,-112.85714285714286 l 0,-5" fill="none" stroke="#434343" stroke-width="1"/></g><g transform="rotate(72)"><path d="M 0,-112.85714285714286 l 0,-5" fill="none" stroke="#434343" stroke-width="1"/></g><g transform="rotate(73.8)"><path d="M 0,-112.85714285714286 l 0,-5" fill="none" stroke="#434343" stroke-width="1"/></g><g transform="rotate(75.60000000000001)"><path d="M 0,-112.85714285714286 l 0,-5" fill="none" stroke="#434343" stroke-width="1"/></g><g transform="rotate(77.4)"><path d="M 0,-112.85714285714286 l 0,-5" fill="none" stroke="#434343" stroke-width="1"/></g><g transform="rotate(79.2)"><path d="M 0,-112.85714285714286 l 0,-5" fill="none" stroke="#434343" stroke-width="1"/></g><g transform="rotate(81)"><path d="M 0,-112.85714285714286 l 0,-5" fill="none" stroke="#434343" stroke-width="1"/></g><g transform="rotate(82.8)"><path d="M 0,-112.85714285714286 l 0,-5" fill="none" stroke="#434343" stroke-width="1"/></g><g transform="rotate(84.60000000000001)"><path d="M 0,-112.85714285714286 l 0,-5" fill="none" stroke="#434343" stroke-width="1"/></g><g transform="rotate(86.4)"><path d="M 0,-112.85714285714286 l 0,-5" fill="none" stroke="#434343" stroke-width="1"/></g><g transform="rotate(88.2)"><path d="M 0,-112.85714285714286 l 0,-5" fill="none" stroke="#434343" stroke-width="1"/></g><g transform="rotate(90)"><path d="M 0,-112.85714285714286 l 0,-5" fill="none" stroke="#434343" stroke-width="1"/></g><g transform="rotate(91.8)"><path d="M 0,-112.85714285714286 l 0,-5" fill="none" stroke="#434343" stroke-width="1"/></g><g transform="rotate(93.60000000000001)"><path d="M 0,-112.85714285714286 l 0,-5" fill="none" stroke="#434343" stroke-width="1"/></g><g transform="rotate(95.4)"><path d="M 0,-112.85714285714286 l 0,-5" fill="none" stroke="#434343" stroke-width="1"/></g><g transform="rotate(97.2)"><path d="M 0,-112.85714285714286 l 0,-5" fill="none" stroke="#434343" stroke-width="1"/></g><g transform="rotate(99)"><path d="M 0,-112.85714285714286 l 0,-5" fill="none" stroke="#434343" stroke-width="1"/></g><g transform="rotate(100.8)"><path d="M 0,-112.85714285714286 l 0,-5" fill="none" stroke="#434343" stroke-width="1"/></g><g transform="rotate(102.60000000000001)"><path d="M 0,-112.85714285714286 l 0,-5" fill="none" stroke="#434343" stroke-width="1"/></g><g transform="rotate(104.4)"><path d="M 0,-112.85714285714286 l 0,-5" fill="none" stroke="#434343" stroke-width="1"/></g><g transform="rotate(106.2)"><path d="M 0,-112.85714285714286 l 0,-5" fill="none" stroke="#434343" stroke-width="1"/></g><g transform="rotate(108)"><path d="M 0,-112.85714285714286 l 0,-5" fill="none" stroke="#434343" stroke-width="1"/></g><g transform="rotate(109.8)"><path d="M 0,-112.85714285714286 l 0,-5" fill="none" stroke="#434343" stroke-width="1"/></g><g transform="rotate(111.60000000000001)"><path d="M 0,-112.85714285714286 l 0,-5" fill="none" stroke="#434343" stroke-width="1"/></g><g transform="rotate(113.4)"><path d="M 0,-112.85714285714286 l 0,-5" fill="none" stroke="#434343" stroke-width="1"/></g><g transform="rotate(115.2)"><path d="M 0,-112.85714285714286 l 0,-5" fill="none" stroke="#434343" stroke-width="1"/></g><g transform="rotate(117)"><path d="M 0,-112.85714285714286 l 0,-5" fill="none" stroke="#434343" stroke-width="1"/></g><g transform="rotate(118.8)"><path d="M 0,-112.85714285714286 l 0,-5" fill="none" stroke="#434343" stroke-width="1"/></g><g transform="rotate(120.60000000000001)"><path d="M 0,-112.85714285714286 l 0,-5" fill="none" stroke="#434343" stroke-width="1"/></g><g transform="rotate(122.4)"><path d="M 0,-112.85714285714286 l 0,-5" fill="none" stroke="#434343" stroke-width="1"/></g><g transform="rotate(124.2)"><path d="M 0,-112.85714285714286 l 0,-5" fill="none" stroke="#434343" stroke-width="1"/></g><g transform="rotate(126)"><path d="M 0,-112.85714285714286 l 0,-5" fill="none" stroke="#434343" stroke-width="1"/></g><g transform="rotate(127.8)"><path d="M 0,-112.85714285714286 l 0,-5" fill="none" stroke="#434343" stroke-width="1"/></g><g transform="rotate(129.6)"><path d="M 0,-112.85714285714286 l 0,-5" fill="none" stroke="#434343" stroke-width="1"/></g><g transform="rotate(131.4)"><path d="M 0,-112.85714285714286 l 0,-5" fill="none" stroke="#434343" stroke-width="1"/></g><g transform="rotate(133.20000000000002)"><path d="M 0,-112.85714285714286 l 0,-5" fill="none" stroke="#434343" stroke-width="1"/></g><g transform="rotate(135)"><path d="M 0,-112.85714285714286 l 0,-5" fill="none" stroke="#434343" stroke-width="1"/></g><g transform="rotate(136.8)"><path d="M 0,-112.85714285714286 l 0,-5" fill="none" stroke="#434343" stroke-width="1"/></g><g transform="rotate(138.6)"><path d="M 0,-112.85714285714286 l 0,-5" fill="none" stroke="#434343" stroke-width="1"/></g><g transform="rotate(140.4)"><path d="M 0,-112.85714285714286 l 0,-5" fill="none" stroke="#434343" stroke-width="1"/></g><g transform="rotate(142.20000000000002)"><path d="M 0,-112.85714285714286 l 0,-5" fill="none" stroke="#434343" stroke-width="1"/></g><g transform="rotate(144)"><path d="M 0,-112.85714285714286 l 0,-5" fill="none" stroke="#434343" stroke-width="1"/></g><g transform="rotate(145.8)"><path d="M 0,-112.85714285714286 l 0,-5" fill="none" stroke="#434343" stroke-width="1"/></g><g transform="rotate(147.6)"><path d="M 0,-112.85714285714286 l 0,-5" fill="none" stroke="#434343" stroke-width="1"/></g><g transform="rotate(149.4)"><path d="M 0,-112.85714285714286 l 0,-5" fill="none" stroke="#434343" stroke-width="1"/></g><g transform="rotate(151.20000000000002)"><path d="M 0,-112.85714285714286 l 0,-5" fill="none" stroke="#434343" stroke-width="1"/></g><g transform="rotate(153)"><path d="M 0,-112.85714285714286 l 0,-5" fill="none" stroke="#434343" stroke-width="1"/></g><g transform="rotate(154.8)"><path d="M 0,-112.85714285714286 l 0,-5" fill="none" stroke="#434343" stroke-width="1"/></g><g transform="rotate(156.6)"><path d="M 0,-112.85714285714286 l 0,-5" fill="none" stroke="#434343" stroke-width="1"/></g><g transform="rotate(158.4)"><path d="M 0,-112.85714285714286 l 0,-5" fill="none" stroke="#434343" stroke-width="1"/></g><g transform="rotate(160.20000000000002)"><path d="M 0,-112.85714285714286 l 0,-5" fill="none" stroke="#434343" stroke-width="1"/></g><g transform="rotate(162)"><path d="M 0,-112.85714285714286 l 0,-5" fill="none" stroke="#434343" stroke-width="1"/></g><g transform="rotate(163.8)"><path d="M 0,-112.85714285714286 l 0,-5" fill="none" stroke="#434343" stroke-width="1"/></g><g transform="rotate(165.6)"><path d="M 0,-112.85714285714286 l 0,-5" fill="none" stroke="#434343" stroke-width="1"/></g><g transform="rotate(167.4)"><path d="M 0,-112.85714285714286 l 0,-5" fill="none" stroke="#434343" stroke-width="1"/></g><g transform="rotate(169.20000000000002)"><path d="M 0,-112.85714285714286 l 0,-5" fill="none" stroke="#434343" stroke-width="1"/></g><g transform="rotate(171)"><path d="M 0,-112.85714285714286 l 0,-5" fill="none" stroke="#434343" stroke-width="1"/></g><g transform="rotate(172.8)"><path d="M 0,-112.85714285714286 l 0,-5" fill="none" stroke="#434343" stroke-width="1"/></g><g transform="rotate(174.6)"><path d="M 0,-112.85714285714286 l 0,-5" fill="none" stroke="#434343" stroke-width="1"/></g><g transform="rotate(176.4)"><path d="M 0,-112.85714285714286 l 0,-5" fill="none" stroke="#434343" stroke-width="1"/></g><g transform="rotate(178.20000000000002)"><path d="M 0,-112.85714285714286 l 0,-5" fill="none" stroke="#434343" stroke-width="1"/></g><g transform="rotate(180)"><path d="M 0,-112.85714285714286 l 0,-5" fill="none" stroke="#434343" stroke-width="1"/></g><g transform="rotate(181.8)"><path d="M 0,-112.85714285714286 l 0,-5" fill="none" stroke="#434343" stroke-width="1"/></g><g transform="rotate(183.6)"><path d="M 0,-112.85714285714286 l 0,-5" fill="none" stroke="#434343" stroke-width="1"/></g><g transform="rotate(185.4)"><path d="M 0,-112.85714285714286 l 0,-5" fill="none" stroke="#434343" stroke-width="1"/></g><g transform="rotate(187.20000000000002)"><path d="M 0,-112.85714285714286 l 0,-5" fill="none" stroke="#434343" stroke-width="1"/></g><g transform="rotate(189)"><path d="M 0,-112.85714285714286 l 0,-5" fill="none" stroke="#434343" stroke-width="1"/></g><g transform="rotate(190.8)"><path d="M 0,-112.85714285714286 l 0,-5" fill="none" stroke="#434343" stroke-width="1"/></g><g transform="rotate(192.6)"><path d="M 0,-112.85714285714286 l 0,-5" fill="none" stroke="#434343" stroke-width="1"/></g><g transform="rotate(194.4)"><path d="M 0,-112.85714285714286 l 0,-5" fill="none" stroke="#434343" stroke-width="1"/></g><g transform="rotate(196.20000000000002)"><path d="M 0,-112.85714285714286 l 0,-5" fill="none" stroke="#434343" stroke-width="1"/></g><g transform="rotate(198)"><path d="M 0,-112.85714285714286 l 0,-5" fill="none" stroke="#434343" stroke-width="1"/></g><g transform="rotate(199.8)"><path d="M 0,-112.85714285714286 l 0,-5" fill="none" stroke="#434343" stroke-width="1"/></g><g transform="rotate(201.6)"><path d="M 0,-112.85714285714286 l 0,-5" fill="none" stroke="#434343" stroke-width="1"/></g><g transform="rotate(203.4)"><path d="M 0,-112.85714285714286 l 0,-5" fill="none" stroke="#434343" stroke-width="1"/></g><g transform="rotate(205.20000000000002)"><path d="M 0,-112.85714285714286 l 0,-5" fill="none" stroke="#434343" stroke-width="1"/></g><g transform="rotate(207)"><path d="M 0,-112.85714285714286 l 0,-5" fill="none" stroke="#434343" stroke-width="1"/></g><g transform="rotate(208.8)"><path d="M 0,-112.85714285714286 l 0,-5" fill="none" stroke="#434343" stroke-width="1"/></g><g transform="rotate(210.6)"><path d="M 0,-112.85714285714286 l 0,-5" fill="none" stroke="#434343" stroke-width="1"/></g><g transform="rotate(212.4)"><path d="M 0,-112.85714285714286 l 0,-5" fill="none" stroke="#434343" stroke-width="1"/></g><g transform="rotate(214.20000000000002)"><path d="M 0,-112.85714285714286 l 0,-5" fill="none" stroke="#434343" stroke-width="1"/></g><g transform="rotate(216)"><path d="M 0,-112.85714285714286 l 0,-5" fill="none" stroke="#434343" stroke-width="1"/></g><g transform="rotate(217.8)"><path d="M 0,-112.85714285714286 l 0,-5" fill="none" stroke="#434343" stroke-width="1"/></g><g transform="rotate(219.6)"><path d="M 0,-112.85714285714286 l 0,-5" fill="none" stroke="#434343" stroke-width="1"/></g><g transform="rotate(221.4)"><path d="M 0,-112.85714285714286 l 0,-5" fill="none" stroke="#434343" stroke-width="1"/></g><g transform="rotate(223.20000000000002)"><path d="M 0,-112.85714285714286 l 0,-5" fill="none" stroke="#434343" stroke-width="1"/></g><g transform="rotate(225)"><path d="M 0,-112.85714285714286 l 0,-5" fill="none" stroke="#434343" stroke-width="1"/></g><g transform="rotate(226.8)"><path d="M 0,-112.85714285714286 l 0,-5" fill="none" stroke="#434343" stroke-width="1"/></g><g transform="rotate(228.6)"><path d="M 0,-112.85714285714286 l 0,-5" fill="none" stroke="#434343" stroke-width="1"/></g><g transform="rotate(230.4)"><path d="M 0,-112.85714285714286 l 0,-5" fill="none" stroke="#434343" stroke-width="1"/></g><g transform="rotate(232.20000000000002)"><path d="M 0,-112.85714285714286 l 0,-5" fill="none" stroke="#434343" stroke-width="1"/></g><g transform="rotate(234)"><path d="M 0,-112.85714285714286 l 0,-5" fill="none" stroke="#434343" stroke-width="1"/></g><g transform="rotate(235.8)"><path d="M 0,-112.85714285714286 l 0,-5" fill="none" stroke="#434343" stroke-width="1"/></g><g transform="rotate(237.6)"><path d="M 0,-112.85714285714286 l 0,-5" fill="none" stroke="#434343" stroke-width="1"/></g><g transform="rotate(239.4)"><path d="M 0,-112.85714285714286 l 0,-5" fill="none" stroke="#434343" stroke-width="1"/></g><g transform="rotate(241.20000000000002)"><path d="M 0,-112.85714285714286 l 0,-5" fill="none" stroke="#434343" stroke-width="1"/></g><g transform="rotate(243)"><path d="M 0,-112.85714285714286 l 0,-5" fill="none" stroke="#434343" stroke-width="1"/></g><g transform="rotate(244.8)"><path d="M 0,-112.85714285714286 l 0,-5" fill="none" stroke="#434343" stroke-width="1"/></g><g transform="rotate(246.6)"><path d="M 0,-112.85714285714286 l 0,-5" fill="none" stroke="#434343" stroke-width="1"/></g><g transform="rotate(248.4)"><path d="M 0,-112.85714285714286 l 0,-5" fill="none" stroke="#434343" stroke-width="1"/></g><g transform="rotate(250.20000000000002)"><path d="M 0,-112.85714285714286 l 0,-5" fill="none" stroke="#434343" stroke-width="1"/></g><g transform="rotate(252)"><path d="M 0,-112.85714285714286 l 0,-5" fill="none" stroke="#434343" stroke-width="1"/></g><g transform="rotate(253.8)"><path d="M 0,-112.85714285714286 l 0,-5" fill="none" stroke="#434343" stroke-width="1"/></g><g transform="rotate(255.6)"><path d="M 0,-112.85714285714286 l 0,-5" fill="none" stroke="#434343" stroke-width="1"/></g><g transform="rotate(257.40000000000003)"><path d="M 0,-112.85714285714286 l 0,-5" fill="none" stroke="#434343" stroke-width="1"/></g><g transform="rotate(259.2)"><path d="M 0,-112.85714285714286 l 0,-5" fill="none" stroke="#434343" stroke-width="1"/></g><g transform="rotate(261)"><path d="M 0,-112.85714285714286 l 0,-5" fill="none" stroke="#434343" stroke-width="1"/></g><g transform="rotate(262.8)"><path d="M 0,-112.85714285714286 l 0,-5" fill="none" stroke="#434343" stroke-width="1"/></g><g transform="rotate(264.6)"><path d="M 0,-112.85714285714286 l 0,-5" fill="none" stroke="#434343" stroke-width="1"/></g><g transform="rotate(266.40000000000003)"><path d="M 0,-112.85714285714286 l 0,-5" fill="none" stroke="#434343" stroke-width="1"/></g><g transform="rotate(268.2)"><path d="M 0,-112.85714285714286 l 0,-5" fill="none" stroke="#434343" stroke-width="1"/></g><g transform="rotate(270)"><path d="M 0,-112.85714285714286 l 0,-5" fill="none" stroke="#434343" stroke-width="1"/></g><g transform="rotate(271.8)"><path d="M 0,-112.85714285714286 l 0,-5" fill="none" stroke="#434343" stroke-width="1"/></g><g transform="rotate(273.6)"><path d="M 0,-112.85714285714286 l 0,-5" fill="none" stroke="#434343" stroke-width="1"/></g><g transform="rotate(275.40000000000003)"><path d="M 0,-112.85714285714286 l 0,-5" fill="none" stroke="#434343" stroke-width="1"/></g><g transform="rotate(277.2)"><path d="M 0,-112.85714285714286 l 0,-5" fill="none" stroke="#434343" stroke-width="1"/></g><g transform="rotate(279)"><path d="M 0,-112.85714285714286 l 0,-5" fill="none" stroke="#434343" stroke-width="1"/></g><g transform="rotate(280.8)"><path d="M 0,-112.85714285714286 l 0,-5" fill="none" stroke="#434343" stroke-width="1"/></g><g transform="rotate(282.6)"><path d="M 0,-112.85714285714286 l 0,-5" fill="none" stroke="#434343" stroke-width="1"/></g><g transform="rotate(284.40000000000003)"><path d="M 0,-112.85714285714286 l 0,-5" fill="none" stroke="#434343" stroke-width="1"/></g><g transform="rotate(286.2)"><path d="M 0,-112.85714285714286 l 0,-5" fill="none" stroke="#434343" stroke-width="1"/></g><g transform="rotate(288)"><path d="M 0,-112.85714285714286 l 0,-5" fill="none" stroke="#434343" stroke-width="1"/></g><g transform="rotate(289.8)"><path d="M 0,-112.85714285714286 l 0,-5" fill="none" stroke="#434343" stroke-width="1"/></g><g transform="rotate(291.6)"><path d="M 0,-112.85714285714286 l 0,-5" fill="none" stroke="#434343" stroke-width="1"/></g><g transform="rotate(293.40000000000003)"><path d="M 0,-112.85714285714286 l 0,-5" fill="none" stroke="#434343" stroke-width="1"/></g><g transform="rotate(295.2)"><path d="M 0,-112.85714285714286 l 0,-5" fill="none" stroke="#434343" stroke-width="1"/></g><g transform="rotate(297)"><path d="M 0,-112.85714285714286 l 0,-5" fill="none" stroke="#434343" stroke-width="1"/></g><g transform="rotate(298.8)"><path d="M 0,-112.85714285714286 l 0,-5" fill="none" stroke="#434343" stroke-width="1"/></g><g transform="rotate(300.6)"><path d="M 0,-112.85714285714286 l 0,-5" fill="none" stroke="#434343" stroke-width="1"/></g><g transform="rotate(302.40000000000003)"><path d="M 0,-112.85714285714286 l 0,-5" fill="none" stroke="#434343" stroke-width="1"/></g><g transform="rotate(304.2)"><path d="M 0,-112.85714285714286 l 0,-5" fill="none" stroke="#434343" stroke-width="1"/></g><g transform="rotate(306)"><path d="M 0,-112.85714285714286 l 0,-5" fill="none" stroke="#434343" stroke-width="1"/></g><g transform="rotate(307.8)"><path d="M 0,-112.85714285714286 l 0,-5" fill="none" stroke="#434343" stroke-width="1"/></g><g transform="rotate(309.6)"><path d="M 0,-112.85714285714286 l 0,-5" fill="none" stroke="#434343" stroke-width="1"/></g><g transform="rotate(311.40000000000003)"><path d="M 0,-112.85714285714286 l 0,-5" fill="none" stroke="#434343" stroke-width="1"/></g><g transform="rotate(313.2)"><path d="M 0,-112.85714285714286 l 0,-5" fill="none" stroke="#434343" stroke-width="1"/></g><g transform="rotate(315)"><path d="M 0,-112.85714285714286 l 0,-5" fill="none" stroke="#434343" stroke-width="1"/></g><g transform="rotate(316.8)"><path d="M 0,-112.85714285714286 l 0,-5" fill="none" stroke="#434343" stroke-width="1"/></g><g transform="rotate(318.6)"><path d="M 0,-112.85714285714286 l 0,-5" fill="none" stroke="#434343" stroke-width="1"/></g><g transform="rotate(320.40000000000003)"><path d="M 0,-112.85714285714286 l 0,-5" fill="none" stroke="#434343" stroke-width="1"/></g><g transform="rotate(322.2)"><path d="M 0,-112.85714285714286 l 0,-5" fill="none" stroke="#434343" stroke-width="1"/></g><g transform="rotate(324)"><path d="M 0,-112.85714285714286 l 0,-5" fill="none" stroke="#434343" stroke-width="1"/></g><g transform="rotate(325.8)"><path d="M 0,-112.85714285714286 l 0,-5" fill="none" stroke="#434343" stroke-width="1"/></g><g transform="rotate(327.6)"><path d="M 0,-112.85714285714286 l 0,-5" fill="none" stroke="#434343" stroke-width="1"/></g><g transform="rotate(329.40000000000003)"><path d="M 0,-112.85714285714286 l 0,-5" fill="none" stroke="#434343" stroke-width="1"/></g><g transform="rotate(331.2)"><path d="M 0,-112.85714285714286 l 0,-5" fill="none" stroke="#434343" stroke-width="1"/></g><g transform="rotate(333)"><path d="M 0,-112.85714285714286 l 0,-5" fill="none" stroke="#434343" stroke-width="1"/></g><g transform="rotate(334.8)"><path d="M 0,-112.85714285714286 l 0,-5" fill="none" stroke="#434343" stroke-width="1"/></g><g transform="rotate(336.6)"><path d="M 0,-112.85714285714286 l 0,-5" fill="none" stroke="#434343" stroke-width="1"/></g><g transform="rotate(338.40000000000003)"><path d="M 0,-112.85714285714286 l 0,-5" fill="none" stroke="#434343" stroke-width="1"/></g><g transform="rotate(340.2)"><path d="M 0,-112.85714285714286 l 0,-5" fill="none" stroke="#434343" stroke-width="1"/></g><g transform="rotate(342)"><path d="M 0,-112.85714285714286 l 0,-5" fill="none" stroke="#434343" stroke-width="1"/></g><g transform="rotate(343.8)"><path d="M 0,-112.85714285714286 l 0,-5" fill="none" stroke="#434343" stroke-width="1"/></g><g transform="rotate(345.6)"><path d="M 0,-112.85714285714286 l 0,-5" fill="none" stroke="#434343" stroke-width="1"/></g><g transform="rotate(347.40000000000003)"><path d="M 0,-112.85714285714286 l 0,-5" fill="none" stroke="#434343" stroke-width="1"/></g><g transform="rotate(349.2)"><path d="M 0,-112.85714285714286 l 0,-5" fill="none" stroke="#434343" stroke-width="1"/></g><g transform="rotate(351)"><path d="M 0,-112.85714285714286 l 0,-5" fill="none" stroke="#434343" stroke-width="1"/></g><g transform="rotate(352.8)"><path d="M 0,-112.85714285714286 l 0,-5" fill="none" stroke="#434343" stroke-width="1"/></g><g transform="rotate(354.6)"><path d="M 0,-112.85714285714286 l 0,-5" fill="none" stroke="#434343" stroke-width="1"/></g><g transform="rotate(356.40000000000003)"><path d="M 0,-112.85714285714286 l 0,-5" fill="none" stroke="#434343" stroke-width="1"/></g><g transform="rotate(358.2)"><path d="M 0,-112.85714285714286 l 0,-5" fill="none" stroke="#434343" stroke-width="1"/></g>
  <g transform="rotate(0)"><path d="M 0,-112.85714285714286 l 0,-8" fill="none" stroke="black" stroke-width="1"/></g><g transform="rotate(9)"><path d="M 0,-112.85714285714286 l 0,-8" fill="none" stroke="black" stroke-width="1"/></g><g transform="rotate(18)"><path d="M 0,-112.85714285714286 l 0,-8" fill="none" stroke="black" stroke-width="1"/></g><g transform="rotate(27)"><path d="M 0,-112.85714285714286 l 0,-8" fill="none" stroke="black" stroke-width="1"/></g><g transform="rotate(36)"><path d="M 0,-112.85714285714286 l 0,-8" fill="none" stroke="black" stroke-width="1"/></g><g transform="rotate(45)"><path d="M 0,-112.85714285714286 l 0,-8" fill="none" stroke="black" stroke-width="1"/></g><g transform="rotate(54)"><path d="M 0,-112.85714285714286 l 0,-8" fill="none" stroke="black" stroke-width="1"/></g><g transform="rotate(63)"><path d="M 0,-112.85714285714286 l 0,-8" fill="none" stroke="black" stroke-width="1"/></g><g transform="rotate(72)"><path d="M 0,-112.85714285714286 l 0,-8" fill="none" stroke="black" stroke-width="1"/></g><g transform="rotate(81)"><path d="M 0,-112.85714285714286 l 0,-8" fill="none" stroke="black" stroke-width="1"/></g><g transform="rotate(90)"><path d="M 0,-112.85714285714286 l 0,-8" fill="none" stroke="black" stroke-width="1"/></g><g transform="rotate(99)"><path d="M 0,-112.85714285714286 l 0,-8" fill="none" stroke="black" stroke-width="1"/></g><g transform="rotate(108)"><path d="M 0,-112.85714285714286 l 0,-8" fill="none" stroke="black" stroke-width="1"/></g><g transform="rotate(117)"><path d="M 0,-112.85714285714286 l 0,-8" fill="none" stroke="black" stroke-width="1"/></g><g transform="rotate(126)"><path d="M 0,-112.85714285714286 l 0,-8" fill="none" stroke="black" stroke-width="1"/></g><g transform="rotate(135)"><path d="M 0,-112.85714285714286 l 0,-8" fill="none" stroke="black" stroke-width="1"/></g><g transform="rotate(144)"><path d="M 0,-112.85714285714286 l 0,-8" fill="none" stroke="black" stroke-width="1"/></g><g transform="rotate(153)"><path d="M 0,-112.85714285714286 l 0,-8" fill="none" stroke="black" stroke-width="1"/></g><g transform="rotate(162)"><path d="M 0,-112.85714285714286 l 0,-8" fill="none" stroke="black" stroke-width="1"/></g><g transform="rotate(171)"><path d="M 0,-112.85714285714286 l 0,-8" fill="none" stroke="black" stroke-width="1"/></g><g transform="rotate(180)"><path d="M 0,-112.85714285714286 l 0,-8" fill="none" stroke="black" stroke-width="1"/></g><g transform="rotate(189)"><path d="M 0,-112.85714285714286 l 0,-8" fill="none" stroke="black" stroke-width="1"/></g><g transform="rotate(198)"><path d="M 0,-112.85714285714286 l 0,-8" fill="none" stroke="black" stroke-width="1"/></g><g transform="rotate(207)"><path d="M 0,-112.85714285714286 l 0,-8" fill="none" stroke="black" stroke-width="1"/></g><g transform="rotate(216)"><path d="M 0,-112.85714285714286 l 0,-8" fill="none" stroke="black" stroke-width="1"/></g><g transform="rotate(225)"><path d="M 0,-112.85714285714286 l 0,-8" fill="none" stroke="black" stroke-width="1"/></g><g transform="rotate(234)"><path d="M 0,-112.85714285714286 l 0,-8" fill="none" stroke="black" stroke-width="1"/></g><g transform="rotate(243)"><path d="M 0,-112.85714285714286 l 0,-8" fill="none" stroke="black" stroke-width="1"/></g><g transform="rotate(252)"><path d="M 0,-112.85714285714286 l 0,-8" fill="none" stroke="black" stroke-width="1"/></g><g transform="rotate(261)"><path d="M 0,-112.85714285714286 l 0,-8" fill="none" stroke="black" stroke-width="1"/></g><g transform="rotate(270)"><path d="M 0,-112.85714285714286 l 0,-8" fill="none" stroke="black" stroke-width="1"/></g><g transform="rotate(279)"><path d="M 0,-112.85714285714286 l 0,-8" fill="none" stroke="black" stroke-width="1"/></g><g transform="rotate(288)"><path d="M 0,-112.85714285714286 l 0,-8" fill="none" stroke="black" stroke-width="1"/></g><g transform="rotate(297)"><path d="M 0,-112.85714285714286 l 0,-8" fill="none" stroke="black" stroke-width="1"/></g><g transform="rotate(306)"><path d="M 0,-112.85714285714286 l 0,-8" fill="none" stroke="black" stroke-width="1"/></g><g transform="rotate(315)"><path d="M 0,-112.85714285714286 l 0,-8" fill="none" stroke="black" stroke-width="1"/></g><g transform="rotate(324)"><path d="M 0,-112.85714285714286 l 0,-8" fill="none" stroke="black" stroke-width="1"/></g><g transform="rotate(333)"><path d="M 0,-112.85714285714286 l 0,-8" fill="none" stroke="black" stroke-width="1"/></g><g transform="rotate(342)"><path d="M 0,-112.85714285714286 l 0,-8" fill="none" stroke="black" stroke-width="1"/></g><g transform="rotate(351)"><path d="M 0,-112.85714285714286 l 0,-8" fill="none" stroke="black" stroke-width="1"/></g>
  <g transform="rotate(0)"><path d="M 0,-124.85714285714286 l 3,10 l -6,0 z" fill="black" stroke="black" stroke-width="1"/></g><g transform="rotate(90)"><path d="M 0,-124.85714285714286 l 3,10 l -6,0 z" fill="black" stroke="black" stroke-width="1"/></g><g transform="rotate(180)"><path d="M 0,-124.85714285714286 l 3,10 l -6,0 z" fill="black" stroke="black" stroke-width="1"/></g><g transform="rotate(270)"><path d="M 0,-124.85714285714286 l 3,10 l -6,0 z" fill="black" stroke="black" stroke-width="1"/></g>
  <g transform="rotate(45)"><path d="M 0,-124.85714285714286 l 3,10 l -6,0 z" fill="white" stroke="black" stroke-width="1"/></g><g transform="rotate(135)"><path d="M 0,-124.85714285714286 l 3,10 l -6,0 z" fill="white" stroke="black" stroke-width="1"/></g><g transform="rotate(225)"><path d="M 0,-124.85714285714286 l 3,10 l -6,0 z" fill="white" stroke="black" stroke-width="1"/></g><g transform="rotate(315)"><path d="M 0,-124.85714285714286 l 3,10 l -6,0 z" fill="white" stroke="black" stroke-width="1"/></g>
  <circle r="112.85714285714286" fill="#d3d3d3" stroke="#434343" stroke-width="3"/>
  <g transform="rotate(0)"><text y="-147.92857142857144" font-size="26" text-anchor="middle" dy=".7em">N</text></g><g transform="rotate(90)"><text y="-147.92857142857144" font-size="26" text-anchor="middle" dy=".7em">E</text></g><g transform="rotate(180)"><text y="-147.92857142857144" font-size="26" text-anchor="middle" dy=".7em">S</text></g><g transform="rotate(270)"><text y="-147.92857142857144" font-size="26" text-anchor="middle" dy=".7em">W</text></g>
  <g transform="rotate(45)"><text y="-147.92857142857144" font-size="26" text-anchor="middle" dy=".7em">NE</text></g><g transform="rotate(135)"><text y="-147.92857142857144" font-size="26" text-anchor="middle" dy=".7em">SE</text></g><g transform="rotate(225)"><text y="-147.92857142857144" font-size="26" text-anchor="middle" dy=".7em">SW</text></g><g transform="rotate(315)"><text y="-147.92857142857144" font-size="26" text-anchor="middle" dy=".7em">NW</text></g>
  <g transform="rotate(0)"><text y="-147.92857142857144" font-size="36" text-anchor="middle" dy="-0.07em">0</text></g><g transform="rotate(90)"><text y="-147.92857142857144" font-size="36" text-anchor="middle" dy="-0.07em">250</text></g><g transform="rotate(180)"><text y="-147.92857142857144" font-size="36" text-anchor="middle" dy="-0.07em">500</text></g><g transform="rotate(270)"><text y="-147.92857142857144" font-size="36" text-anchor="middle" dy="-0.07em">750</text></g>
  <g transform="rotate(45)"><text y="-147.92857142857144" font-size="36" text-anchor="middle" dy="-0.07em">125</text></g><g transform="rotate(135)"><text y="-147.92857142857144" font-size="36" text-anchor="middle" dy="-0.07em">375</text></g><g transform="rotate(225)"><text y="-147.92857142857144" font-size="36" text-anchor="middle" dy="-0.07em">625</text></g><g transform="rotate(315)"><text y="-147.92857142857144" font-size="36" text-anchor="middle" dy="-0.07em">875</text></g>
  <g transform="rotate(9)"><path d="M 0,0 L -7.994231306009742,-101.78571428571429 A 7.994231306009742 3.997115653004871 0 0 1 7.994231306009742 -101.78571428571429 z" fill="#ff0040" stroke="black" stroke-width="0.5"/></g><g transform="rotate(18)"><path d="M 0,0 L -7.994231306009742,-101.78571428571429 A 7.994231306009742 3.997115653004871 0 0 1 7.994231306009742 -101.78571428571429 z" fill="#ff0080" stroke="black" stroke-width="0.5"/></g><g transform="rotate(27)"><path d="M 0,0 L -7.994231306009742,-101.78571428571429 A 7.994231306009742 3.997115653004871 0 0 1 7.994231306009742 -101.78571428571429 z" fill="#ff00bf" stroke="black" stroke-width="0.5"/></g><g transform="rotate(36)"><path d="M 0,0 L -7.994231306009742,-101.78571428571429 A 7.994231306009742 3.997115653004871 0 0 1 7.994231306009742 -101.78571428571429 z" fill="#ff00ff" stroke="black" stroke-width="0.5"/></g><g transform="rotate(45)"><path d="M 0,0 L -7.994231306009742,-101.78571428571429 A 7.994231306009742 3.997115653004871 0 0 1 7.994231306009742 -101.78571428571429 z" fill="#df00ff" stroke="black" stroke-width="0.5"/></g><g transform="rotate(54)"><path d="M 0,0 L -7.994231306009742,-101.78571428571429 A 7.994231306009742 3.997115653004871 0 0 1 7.994231306009742 -101.78571428571429 z" fill="#c000ff" stroke="black" stroke-width="0.5"/></g><g transform="rotate(63)"><path d="M 0,0 L -7.994231306009742,-101.78571428571429 A 7.994231306009742 3.997115653004871 0 0 1 7.994231306009742 -101.78571428571429 z" fill="#a000ff" stroke="black" stroke-width="0.5"/></g><g transform="rotate(72)"><path d="M 0,0 L -7.994231306009742,-101.78571428571429 A 7.994231306009742 3.997115653004871 0 0 1 7.994231306009742 -101.78571428571429 z" fill="#8000ff" stroke="black" stroke-width="0.5"/></g><g transform="rotate(81)"><path d="M 0,0 L -7.994231306009742,-101.78571428571429 A 7.994231306009742 3.997115653004871 0 0 1 7.994231306009742 -101.78571428571429 z" fill="#6000ff" stroke="black" stroke-width="0.5"/></g><g transform="rotate(90)"><path d="M 0,0 L -7.994231306009742,-101.78571428571429 A 7.994231306009742 3.997115653004871 0 0 1 7.994231306009742 -101.78571428571429 z" fill="#4000ff" stroke="black" stroke-width="0.5"/></g><g transform="rotate(99)"><path d="M 0,0 L -7.994231306009742,-101.78571428571429 A 7.994231306009742 3.997115653004871 0 0 1 7.994231306009742 -101.78571428571429 z" fill="#2000ff" stroke="black" stroke-width="0.5"/></g><g transform="rotate(108)"><path d="M 0,0 L -7.994231306009742,-101.78571428571429 A 7.994231306009742 3.997115653004871 0 0 1 7.994231306009742 -101.78571428571429 z" fill="#0000ff" stroke="black" stroke-width="0.5"/></g><g transform="rotate(117)"><path d="M 0,0 L -7.994231306009742,-101.78571428571429 A 7.994231306009742 3.997115653004871 0 0 1 7.994231306009742 -101.78571428571429 z" fill="#0020ff" stroke="black" stroke-width="0.5"/></g><g transform="rotate(126)"><path d="M 0,0 L -7.994231306009742,-101.78571428571429 A 7.994231306009742 3.997115653004871 0 0 1 7.994231306009742 -101.78571428571429 z" fill="#0040ff" stroke="black" stroke-width="0.5"/></g><g transform="rotate(135)"><path d="M 0,0 L -7.994231306009742,-101.78571428571429 A 7.994231306009742 3.997115653004871 0 0 1 7.994231306009742 -101.78571428571429 z" fill="#0060ff" stroke="black" stroke-width="0.5"/></g><g transform="rotate(144)"><path d="M 0,0 L -7.994231306009742,-101.78571428571429 A 7.994231306009742 3.997115653004871 0 0 1 7.994231306009742 -101.78571428571429 z" fill="#0080ff" stroke="black" stroke-width="0.5"/></g><g transform="rotate(153)"><path d="M 0,0 L -7.994231306009742,-101.78571428571429 A 7.994231306009742 3.997115653004871 0 0 1 7.994231306009742 -101.78571428571429 z" fill="#00a0ff" stroke="black" stroke-width="0.5"/></g><g transform="rotate(162)"><path d="M 0,0 L -7.994231306009742,-101.78571428571429 A 7.994231306009742 3.997115653004871 0 0 1 7.994231306009742 -101.78571428571429 z" fill="#00c0ff" stroke="black" stroke-width="0.5"/></g><g transform="rotate(171)"><path d="M 0,0 L -7.994231306009742,-101.78571428571429 A 7.994231306009742 3.997115653004871 0 0 1 7.994231306009742 -101.78571428571429 z" fill="#00dfff" stroke="black" stroke-width="0.5"/></g><g transform="rotate(180)"><path d="M 0,0 L -7.994231306009742,-101.78571428571429 A 7.994231306009742 3.997115653004871 0 0 1 7.994231306009742 -101.78571428571429 z" fill="#00ffff" stroke="black" stroke-width="0.5"/></g><g transform="rotate(189)"><path d="M 0,0 L -7.994231306009742,-101.78571428571429 A 7.994231306009742 3.997115653004871 0 0 1 7.994231306009742 -101.78571428571429 z" fill="#00ffbf" stroke="black" stroke-width="0.5"/></g><g transform="rotate(198)"><path d="M 0,0 L -7.994231306009742,-101.78571428571429 A 7.994231306009742 3.997115653004871 0 0 1 7.994231306009742 -101.78571428571429 z" fill="#00ff80" stroke="black" stroke-width="0.5"/></g><g transform="rotate(207)"><path d="M 0,0 L -7.994231306009742,-101.78571428571429 A 7.994231306009742 3.997115653004871 0 0 1 7.994231306009742 -101.78571428571429 z" fill="#00ff40" stroke="black" stroke-width="0.5"/></g><g transform="rotate(216)"><path d="M 0,0 L -7.994231306009742,-101.78571428571429 A 7.994231306009742 3.997115653004871 0 0 1 7.994231306009742 -101.78571428571429 z" fill="#00ff00" stroke="black" stroke-width="0.5"/></g><g transform="rotate(225)"><path d="M 0,0 L -7.994231306009742,-101.78571428571429 A 7.994231306009742 3.997115653004871 0 0 1 7.994231306009742 -101.78571428571429 z" fill="#30ff00" stroke="black" stroke-width="0.5"/></g><g transform="rotate(234)"><path d="M 0,0 L -7.994231306009742,-101.78571428571429 A 7.994231306009742 3.997115653004871 0 0 1 7.994231306009742 -101.78571428571429 z" fill="#60ff00" stroke="black" stroke-width="0.5"/></g><g transform="rotate(243)"><path d="M 0,0 L -7.994231306009742,-101.78571428571429 A 7.994231306009742 3.997115653004871 0 0 1 7.994231306009742 -101.78571428571429 z" fill="#90ff00" stroke="black" stroke-width="0.5"/></g><g transform="rotate(252)"><path d="M 0,0 L -7.994231306009742,-101.78571428571429 A 7.994231306009742 3.997115653004871 0 0 1 7.994231306009742 -101.78571428571429 z" fill="#c0ff00" stroke="black" stroke-width="0.5"/></g><g transform="rotate(261)"><path d="M 0,0 L -7.994231306009742,-101.78571428571429 A 7.994231306009742 3.997115653004871 0 0 1 7.994231306009742 -101.78571428571429 z" fill="#d0ff00" stroke="black" stroke-width="0.5"/></g><g transform="rotate(270)"><path d="M 0,0 L -7.994231306009742,-101.78571428571429 A 7.994231306009742 3.997115653004871 0 0 1 7.994231306009742 -101.78571428571429 z" fill="#e0ff00" stroke="black" stroke-width="0.5"/></g><g transform="rotate(279)"><path d="M 0,0 L -7.994231306009742,-101.78571428571429 A 7.994231306009742 3.997115653004871 0 0 1 7.994231306009742 -101.78571428571429 z" fill="#efff00" stroke="black" stroke-width="0.5"/></g><g transform="rotate(288)"><path d="M 0,0 L -7.994231306009742,-101.78571428571429 A 7.994231306009742 3.997115653004871 0 0 1 7.994231306009742 -101.78571428571429 z" fill="#ffff00" stroke="black" stroke-width="0.5"/></g><g transform="rotate(297)"><path d="M 0,0 L -7.994231306009742,-101.78571428571429 A 7.994231306009742 3.997115653004871 0 0 1 7.994231306009742 -101.78571428571429 z" fill="#ffdf00" stroke="black" stroke-width="0.5"/></g><g transform="rotate(306)"><path d="M 0,0 L -7.994231306009742,-101.78571428571429 A 7.994231306009742 3.997115653004871 0 0 1 7.994231306009742 -101.78571428571429 z" fill="#ffc000" stroke="black" stroke-width="0.5"/></g><g transform="rotate(315)"><path d="M 0,0 L -7.994231306009742,-101.78571428571429 A 7.994231306009742 3.997115653004871 0 0 1 7.994231306009742 -101.78571428571429 z" fill="#ffa000" stroke="black" stroke-width="0.5"/></g><g transform="rotate(324)"><path d="M 0,0 L -7.994231306009742,-101.78571428571429 A 7.994231306009742 3.997115653004871 0 0 1 7.994231306009742 -101.78571428571429 z" fill="#ff8000" stroke="black" stroke-width="0.5"/></g><g transform="rotate(333)"><path d="M 0,0 L -7.994231306009742,-101.78571428571429 A 7.994231306009742 3.997115653004871 0 0 1 7.994231306009742 -101.78571428571429 z" fill="#ff6000" stroke="black" stroke-width="0.5"/></g><g transform="rotate(342)"><path d="M 0,0 L -7.994231306009742,-101.78571428571429 A 7.994231306009742 3.997115653004871 0 0 1 7.994231306009742 -101.78571428571429 z" fill="#ff4000" stroke="black" stroke-width="0.5"/></g><g transform="rotate(351)"><path d="M 0,0 L -7.994231306009742,-101.78571428571429 A 7.994231306009742 3.997115653004871 0 0 1 7.994231306009742 -101.78571428571429 z" fill="#ff2000" stroke="black" stroke-width="0.5"/></g><g transform="rotate(360)"><path d="M 0,0 L -7.994231306009742,-101.78571428571429 A 7.994231306009742 3.997115653004871 0 0 1 7.994231306009742 -101.78571428571429 z" fill="hsl(0, 100%, 50%)" stroke="black" stroke-width="0.5"/></g>
</svg>