<?xml version="1.0" encoding="UTF-8" standalone="no"?>
<!-- 
Creator: http://commons.wikimedia.org/wiki/User:ParaDox 2006-07-24 09'30
Resource: http://commons.wikimedia.org/wiki/Image:A_Yin-Yang-Yuan_Symbol_-_Triality-One.svg
-->

<svg
   version="1.0"
   width="190.78535"
   height="190.71271"
   viewBox="0 0 280.52513 396.59061"
   id="svg2"
   xml:space="preserve"
   sodipodi:version="0.32"
   inkscape:version="1.4 (e7c3feb1, 2024-10-09)"
   sodipodi:docname="deidecDart.svg"
   inkscape:export-filename="deidecDart.png"
   inkscape:export-xdpi="300"
   inkscape:export-ydpi="300"
   xmlns:inkscape="http://www.inkscape.org/namespaces/inkscape"
   xmlns:sodipodi="http://sodipodi.sourceforge.net/DTD/sodipodi-0.dtd"
   xmlns:xlink="http://www.w3.org/1999/xlink"
   xmlns="http://www.w3.org/2000/svg"
   xmlns:svg="http://www.w3.org/2000/svg"
   xmlns:rdf="http://www.w3.org/1999/02/22-rdf-syntax-ns#"
   xmlns:cc="http://creativecommons.org/ns#"
   xmlns:dc="http://purl.org/dc/elements/1.1/"><metadata
   id="metadata26"><rdf:RDF><cc:Work
       rdf:about=""><dc:format>image/svg+xml</dc:format><dc:type
         rdf:resource="http://purl.org/dc/dcmitype/StillImage" /></cc:Work></rdf:RDF></metadata><sodipodi:namedview
   inkscape:window-height="896"
   inkscape:window-width="1472"
   inkscape:pageshadow="2"
   inkscape:pageopacity="0.0"
   guidetolerance="10.0"
   gridtolerance="10.0"
   objecttolerance="10.0"
   borderopacity="1.0"
   bordercolor="#666666"
   pagecolor="#ffffff"
   id="base"
   inkscape:zoom="2.1378285"
   inkscape:cx="102.4404"
   inkscape:cy="85.834764"
   inkscape:window-x="0"
   inkscape:window-y="32"
   inkscape:current-layer="svg2"
   inkscape:showpageshadow="2"
   inkscape:pagecheckerboard="0"
   inkscape:deskcolor="#d1d1d1"
   inkscape:window-maximized="0"
   showgrid="false" />
 <defs
   id="defs4"><linearGradient
   x1="227.64796"
   y1="836.40973"
   x2="569.92059"
   y2="287.24582"
   id="id0"
   gradientUnits="userSpaceOnUse">
   <stop
   style="stop-color:blue;stop-opacity:1"
   offset="0"
   id="stop9" />
   <stop
   style="stop-color:#ff0000;stop-opacity:1;"
   offset="1"
   id="stop11" />
   
  </linearGradient><linearGradient
   x1="245.55229"
   y1="785.56146"
   x2="546.28687"
   y2="338.09409"
   id="linearGradient4679"
   xlink:href="#id0"
   gradientUnits="userSpaceOnUse"
   gradientTransform="matrix(1.830783,-0.59485747,0.59485747,1.830783,-663.81742,-230.30367)" />
   
   
   
  
   
   
   
  </defs>
 
<g
   id="g1"
   inkscape:label="deidec"
   style="display:inline"><g
     id="g10"
     inkscape:label="circle"
     style="display:inline;fill:none;stroke:#000000;stroke-width:0.521187;stroke-dasharray:none;stroke-opacity:1"
     transform="matrix(1.1726214,1.6139743,1.6139743,-1.1726213,-509.90813,726.39421)"><path
       fill="#ffffff"
       d="m -22.523033,518.33956 c 54.671827,-0.11878 98.9291,-44.47237 98.9291,-99.14426 0,-54.67189 -44.257273,-99.02548 -98.9291,-99.14426"
       id="path683"
       style="display:inline;fill:none;stroke:#000000;stroke-width:0.521187;stroke-dasharray:none;stroke-opacity:1"
       sodipodi:nodetypes="csc" /><path
       fill="#ffffff"
       d="m 35.718052,499.33326 c 44.161158,-32.23121 53.895994,-94.1282 21.760472,-138.35895 -32.135522,-44.23076 -94.011288,-54.0996 -138.311539,-22.05984 -8.920328,6.48389 -15.043217,15.38617 -18.122886,25.15395"
       id="path684"
       style="display:inline;fill:none;stroke:#000000;stroke-width:0.521187;stroke-dasharray:none;stroke-opacity:1"
       sodipodi:nodetypes="cscc" /><path
       fill="#ffffff"
       d="M 71.665322,449.76298 C 88.446362,397.73044 59.939816,341.93376 7.9440571,325.03931 -44.051702,308.14487 -99.910447,336.5296 -116.91826,388.48846 m 188.533535,30.76439 c 3.124331,9.5764 3.36784,20.1899 0.05005,30.51013"
       id="path685"
       style="display:inline;fill:none;stroke:#000000;stroke-width:0.521187;stroke-dasharray:none;stroke-opacity:1"
       sodipodi:nodetypes="csccc" /><path
       fill="#ffffff"
       d="M 71.599337,388.56201 C 54.592249,336.60217 -1.2671157,308.21649 -53.263545,325.11115 c -51.996425,16.89467 -80.502915,72.69248 -63.720705,124.72539 3.38629,10.41163 9.89157,18.93729 18.144851,24.87871"
       id="path686"
       style="display:inline;fill:none;stroke:#000000;stroke-width:0.521187;stroke-dasharray:none;stroke-opacity:1"
       sodipodi:nodetypes="cscc" /><path
       fill="#ffffff"
       d="M 35.545735,339.04596 C -8.7545276,307.00745 -70.6292,316.87672 -102.7643,361.10688 c -32.13509,44.23017 -22.26872,106.03718 21.891247,138.26879 M 6.4010021,329.66553 c 10.1099119,-0.035 20.3221859,3.01224 29.1447329,9.38043"
       id="path687"
       style="display:inline;fill:none;stroke:#000000;stroke-width:0.521187;stroke-dasharray:none;stroke-opacity:1"
       sodipodi:nodetypes="csccc" /><path
       fill="#ffffff"
       d="m 6.6157557,508.76332 c -8.1667849,5.99148 -18.2373547,9.54234 -29.2577207,9.57624 h -0.118932 C -77.432724,518.22078 -121.69,473.86719 -121.69,419.1953 c 0,-54.67189 44.257276,-99.02548 98.929103,-99.14426 10.975811,0.004 21.1174654,3.57447 29.3290545,9.61565"
       id="path689"
       style="display:inline;fill:none;stroke:#000000;stroke-width:0.521187;stroke-dasharray:none;stroke-opacity:1"
       sodipodi:nodetypes="cccscc" /><path
       fill="#ffffff"
       d="m -80.9618,499.3111 c -44.16026,-32.23151 -53.89454,-94.12782 -21.75934,-138.35813 32.135206,-44.23031 93.9699635,-54.07731 138.270223,-22.03849 M -98.865198,474.7126 c 3.11009,9.54781 9.184441,18.22455 17.906741,24.60315"
       id="path690"
       style="display:inline;fill:none;stroke:#000000;stroke-width:0.521187;stroke-dasharray:none;stroke-opacity:1"
       sodipodi:nodetypes="csccc" /><path
       fill="#ffffff"
       d="m -116.94925,449.76298 c -16.78118,-52.03259 11.72536,-107.8294 63.721198,-124.72387 51.9958401,-16.89448 107.85466,11.49037 124.862385,63.44935 3.394827,10.46163 3.124409,21.23334 -0.10284,30.92544"
       id="path691"
       style="display:inline;fill:none;stroke:#000000;stroke-width:0.521187;stroke-dasharray:none;stroke-opacity:1"
       sodipodi:nodetypes="cscc" /><path
       fill="#ffffff"
       d="m -116.88324,388.56201 c 17.006999,-51.95996 72.866439,-80.34576 124.8629499,-63.45107 51.9965111,16.8947 80.5029871,72.69265 63.7206381,124.7256 M -98.940996,363.93059 c -8.141584,5.91007 -14.564804,14.34513 -17.942244,24.63142"
       id="path692"
       style="display:inline;fill:none;stroke:#000000;stroke-width:0.521187;stroke-dasharray:none;stroke-opacity:1"
       sodipodi:nodetypes="csccc" /><path
       fill="#ffffff"
       d="m -80.829663,339.04597 c 44.300258,-32.03891 106.175279,-22.16978 138.310512,22.06057 32.135232,44.23036 22.400901,106.12673 -21.759444,138.35821 -8.842751,6.41865 -19.094236,9.49138 -29.2438924,9.4578"
       id="path693"
       style="display:inline;fill:none;stroke:#000000;stroke-width:0.521187;stroke-dasharray:none;stroke-opacity:1"
       inkscape:label="path693"
       sodipodi:nodetypes="cscc" /></g><g
     id="g3"
     inkscape:transform-center-y="-15.568492"
     inkscape:transform-center-x="-0.064984954"
     transform="matrix(0.99497513,0,0,0.99497513,0.98237284,1.467206)"
     style="display:inline;stroke:#010000;stroke-width:1.04501;stroke-dasharray:none;stroke-opacity:1"
     inkscape:label="kwiatek"><g
       id="g75"
       inkscape:label="inner"
       style="display:inline;fill:none;stroke:#010000;stroke-width:0.522457;stroke-linecap:round;stroke-linejoin:round;stroke-dasharray:none;stroke-opacity:1"
       transform="matrix(-1.90229,0.61809143,-0.61809145,-1.90229,356.25569,1009.2917)"><path
         id="path71"
         style="display:inline;fill:none;fill-opacity:1;stroke:#010000;stroke-width:0.522457;stroke-linecap:round;stroke-linejoin:round;stroke-dasharray:none;stroke-opacity:1"
         d="m -51.602405,428.58379 c 10.084801,-0.007 20.260237,-3.08238 29.045061,-9.45976 l -0.203526,0.0714 c -10.772405,0.0335 -20.733507,3.50115 -28.848035,9.36442"
         sodipodi:nodetypes="cccc" /><path
         id="path60"
         style="display:inline;fill:none;fill-opacity:1;stroke:#010000;stroke-width:0.522457;stroke-linecap:round;stroke-linejoin:round;stroke-dasharray:none;stroke-opacity:1"
         d="m 6.3607515,409.73028 c -8.1745282,5.94962 -18.2379165,9.461 -29.1216215,9.46519 l 0.2035,-0.0714 c 8.76552,-6.32701 18.9028549,-9.37586 28.9486629,-9.38066"
         sodipodi:nodetypes="cccc" /><path
         id="path69"
         style="display:inline;fill:none;fill-opacity:1;stroke:#010000;stroke-width:0.522457;stroke-linecap:round;stroke-linejoin:round;stroke-dasharray:none;stroke-opacity:1"
         d="m -51.629603,409.74137 c 8.171821,5.94297 18.229524,9.45003 29.106543,9.45422 l -0.203502,-0.0716 c -8.751384,-6.31679 -18.870152,-9.366 -28.900041,-9.38062"
         sodipodi:nodetypes="cccc" /><path
         id="path59"
         style="display:inline;fill:none;fill-opacity:1;stroke:#010000;stroke-width:0.522457;stroke-linecap:round;stroke-linejoin:round;stroke-dasharray:none;stroke-opacity:1"
         d="m 6.3534799,428.58379 c -10.096251,-3.3e-4 -20.2850629,-3.07503 -29.0800419,-9.4598 l 0.203529,0.0715 c 10.785279,0.0335 20.7573157,3.50941 28.8771205,9.38543"
         sodipodi:nodetypes="cccc" /><path
         id="path68"
         style="display:inline;fill:none;fill-opacity:1;stroke:#010000;stroke-width:0.522457;stroke-linecap:round;stroke-linejoin:round;stroke-dasharray:none;stroke-opacity:1"
         d="m -40.643613,394.47774 c 3.094952,9.60937 9.143941,18.36396 17.913926,24.77746 l 0.07205,-0.12942 c -3.386315,-10.31288 -9.834176,-18.76488 -18.005839,-24.67703"
         sodipodi:nodetypes="cccc" /><path
         id="path57"
         style="display:inline;fill:none;fill-opacity:1;stroke:#010000;stroke-width:0.522457;stroke-linecap:round;stroke-linejoin:round;stroke-dasharray:none;stroke-opacity:1"
         d="m -4.851692,443.75498 c -8.091882,-5.92888 -14.46551,-14.36183 -17.805947,-24.6292 l -0.07205,0.12942 c 8.712464,6.3351 14.7553486,14.97739 17.8996847,24.47943"
         sodipodi:nodetypes="cccc" /><path
         id="path67"
         style="display:inline;fill:none;fill-opacity:1;stroke:#010000;stroke-width:0.522457;stroke-linecap:round;stroke-linejoin:round;stroke-dasharray:none;stroke-opacity:1"
         d="m -22.640121,388.68243 c -3.126358,9.57815 -3.370721,20.19418 -0.05215,30.51679 h 0.10065 c 3.318074,-10.32103 3.074298,-20.93538 -0.0507,-30.51237"
         sodipodi:nodetypes="cccc" /><path
         id="path55"
         style="display:inline;fill:none;fill-opacity:1;stroke:#010000;stroke-width:0.522457;stroke-linecap:round;stroke-linejoin:round;stroke-dasharray:none;stroke-opacity:1"
         d="m -22.631671,449.62431 c 3.07186,-9.56166 3.27584,-20.14313 -0.0606,-30.42509 h 0.10065 c -3.339495,10.29136 -3.132092,20.88277 -0.05218,30.45131"
         sodipodi:nodetypes="cccc" /><path
         id="path73"
         style="display:inline;fill:none;fill-opacity:1;stroke:#010000;stroke-width:0.522457;stroke-linecap:round;stroke-linejoin:round;stroke-dasharray:none;stroke-opacity:1"
         d="m -4.6393315,394.46243 c -8.1627045,5.91151 -14.6032365,14.35843 -17.9869595,24.66335 l 0.07205,0.12943 c 8.777252,-6.41882 14.8289932,-15.1826 17.9216097,-24.80134"
         sodipodi:nodetypes="cccc" /><path
         id="path54"
         style="display:inline;fill:none;fill-opacity:1;stroke:#010000;stroke-width:0.522457;stroke-linecap:round;stroke-linejoin:round;stroke-dasharray:none;stroke-opacity:1"
         d="m -40.479047,443.78925 c 8.11411,-5.93063 14.505881,-14.37631 17.852756,-24.66347 l 0.07205,0.12943 c -8.73398,6.35074 -14.785181,15.02009 -17.92293,24.54984"
         sodipodi:nodetypes="cccc" /></g><g
       id="g161"
       inkscape:label="mid"
       style="display:inline;fill:none;stroke:#010000;stroke-width:0.785556;stroke-linecap:round;stroke-linejoin:round;stroke-dasharray:none;stroke-opacity:1"
       transform="matrix(1.3302817,0,1.6539136e-8,1.3302817,-253.38453,-358.45511)"><path
         id="path155"
         style="display:inline;fill:none;fill-opacity:1;stroke:#010000;stroke-width:0.785556;stroke-linecap:round;stroke-linejoin:round;stroke-dasharray:none;stroke-opacity:1"
         d="m 332.93628,391.31645 c 14.81521,-4.8264 30.99888,-4.97542 46.13377,-0.0664 m -83.0148,26.89235 c 15.38888,-5.05311 28.02197,-14.64006 36.90141,-26.79475"
         sodipodi:nodetypes="cccc" /><path
         id="path91"
         style="display:inline;fill:none;fill-opacity:1;stroke:#010000;stroke-width:0.785556;stroke-linecap:round;stroke-linejoin:round;stroke-dasharray:none;stroke-opacity:1"
         d="m 332.95664,391.34762 c 9.21706,-12.61686 14.38956,-28.0005 14.40137,-43.95194 m -51.56062,70.94342 c 9.59908,-13.20131 22.72093,-22.3269 37.13885,-27.02263"
         sodipodi:nodetypes="cccc" /><path
         id="path160"
         style="display:inline;fill:none;fill-opacity:1;stroke:#010000;stroke-width:0.785556;stroke-linecap:round;stroke-linejoin:round;stroke-dasharray:none;stroke-opacity:1"
         d="m 244.5595,488.86769 c 0.0297,-15.83507 5.14466,-31.10493 14.24993,-43.65935 l -0.0498,-0.005 c 14.36308,-4.67475 27.44287,-13.74442 37.03775,-26.86473"
         sodipodi:nodetypes="cccc" /><path
         style="display:inline;fill:none;fill-opacity:1;stroke:#010000;stroke-width:0.785556;stroke-linecap:round;stroke-linejoin:round;stroke-dasharray:none;stroke-opacity:1"
         d="m 258.75967,445.2038 c -14.78055,4.81039 -30.9203,4.96597 -46.02031,0.0908 m 83.31589,-27.15223 c -15.56174,5.06263 -28.3207,14.75992 -37.24581,27.06596"
         id="path101"
         sodipodi:nodetypes="cccc" /><path
         style="display:inline;fill:none;fill-opacity:1;stroke:#010000;stroke-width:0.785556;stroke-linecap:round;stroke-linejoin:round;stroke-dasharray:none;stroke-opacity:1"
         d="m 244.55942,488.95419 c 2.6e-4,-0.0289 5e-4,-0.0579 8e-5,-0.0865"
         id="path92" /><path
         id="path154"
         style="display:inline;fill:none;fill-opacity:1;stroke:#010000;stroke-width:0.785556;stroke-linecap:round;stroke-linejoin:round;stroke-dasharray:none;stroke-opacity:1"
         d="m 341.72471,418.24684 c -14.34943,4.63933 -30.23594,4.98047 -45.68532,0.0137 m 82.966,27.02157 c -9.34088,-12.842 -22.48839,-22.22146 -37.27546,-27.03365"
         sodipodi:nodetypes="cccc" /><path
         id="path93"
         style="display:inline;fill:none;fill-opacity:1;stroke:#010000;stroke-width:0.785556;stroke-linecap:round;stroke-linejoin:round;stroke-dasharray:none;stroke-opacity:1"
         d="m 341.72471,418.24684 c 14.80477,-4.78649 27.97336,-14.14829 37.33764,-26.97633 m -83.34724,26.98219 c 15.5559,-5.04809 31.56789,-4.70589 46.01481,-0.004"
         sodipodi:nodetypes="cccc" /><path
         id="path159"
         style="display:inline;fill:none;fill-opacity:1;stroke:#010000;stroke-width:0.785556;stroke-linecap:round;stroke-linejoin:round;stroke-dasharray:none;stroke-opacity:1"
         d="m 250.06035,418.24901 c 14.34143,4.62993 30.21636,4.96712 45.65477,0.004 m -82.96399,27.0341 c 9.34818,-12.85079 22.50836,-22.23394 37.30875,-27.04233"
         sodipodi:nodetypes="cccc" /><path
         id="path94"
         style="display:inline;fill:none;fill-opacity:1;stroke:#010000;stroke-width:0.785556;stroke-linecap:round;stroke-linejoin:round;stroke-dasharray:none;stroke-opacity:1"
         d="m 250.05988,418.24462 c 14.4377,-4.69056 30.4362,-5.02782 45.97951,0.0159 m -83.37625,-27.03747 c 9.37252,12.85737 22.56474,22.23767 37.39727,27.02614"
         sodipodi:nodetypes="cccc" /><path
         id="path153"
         style="display:inline;fill:none;fill-opacity:1;stroke:#010000;stroke-width:0.785556;stroke-linecap:round;stroke-linejoin:round;stroke-dasharray:none;stroke-opacity:1"
         d="m 347.28566,488.87442 c 3.5e-4,-15.83967 -5.08838,-31.12213 -14.17362,-43.69482 l 0.0419,0.0322 c -14.43237,-4.6575 -27.57982,-13.7479 -37.21392,-26.92183 l 0.0429,-0.21855"
         sodipodi:nodetypes="ccccc" /><path
         id="path95"
         style="display:inline;fill:none;fill-opacity:1;stroke:#010000;stroke-width:0.785556;stroke-linecap:round;stroke-linejoin:round;stroke-dasharray:none;stroke-opacity:1"
         d="m 333.11204,445.1796 c -8.89058,-12.3033 -21.60824,-22.01172 -37.12915,-27.10815 m 83.02038,27.17245 c -15.04156,4.85741 -31.11507,4.72284 -45.84936,-0.0321"
         sodipodi:nodetypes="cccc" /><path
         id="path158"
         style="display:inline;fill:none;fill-opacity:1;stroke:#010000;stroke-width:0.785556;stroke-linecap:round;stroke-linejoin:round;stroke-dasharray:none;stroke-opacity:1"
         d="m 259.03415,391.34369 c -14.87402,-4.89897 -31.14231,-5.07679 -46.35276,-0.14727 m 83.3015,26.87503 c -15.40223,-5.01104 -28.05898,-14.56172 -36.9703,-26.68859"
         sodipodi:nodetypes="cccc" /><path
         id="path96"
         style="display:inline;fill:none;fill-opacity:1;stroke:#010000;stroke-width:0.785556;stroke-linecap:round;stroke-linejoin:round;stroke-dasharray:none;stroke-opacity:1"
         d="m 259.03415,391.34369 c 14.32606,4.71849 27.35851,13.81614 36.90585,26.9463 m -51.45271,-70.89214 c 0.0411,15.9756 5.25778,31.37344 14.5253,43.98502"
         sodipodi:nodetypes="cccc" /><path
         id="path152"
         style="display:inline;fill:none;fill-opacity:1;stroke:#010000;stroke-width:0.785556;stroke-linecap:round;stroke-linejoin:round;stroke-dasharray:none;stroke-opacity:1"
         d="m 310.06099,461.82449 c -8.91849,-12.24303 -14.19885,-27.30818 -14.24952,-43.60884 m 0.0586,87.35217 c 9.31154,-12.83229 14.16898,-28.20794 14.18985,-43.73603"
         sodipodi:nodetypes="cccc" /><path
         id="path97"
         style="display:inline;fill:none;fill-opacity:1;stroke:#010000;stroke-width:0.785556;stroke-linecap:round;stroke-linejoin:round;stroke-dasharray:none;stroke-opacity:1"
         d="m 347.28902,488.88465 c -15.09374,-4.90547 -28.07632,-14.49699 -37.22803,-27.06016 l -10e-4,0.007 c 0.0203,-15.14927 -4.56277,-30.44363 -14.10451,-43.66295"
         sodipodi:nodetypes="cccc" /><path
         id="path157"
         style="display:inline;fill:none;fill-opacity:1;stroke:#010000;stroke-width:0.785556;stroke-linecap:round;stroke-linejoin:round;stroke-dasharray:none;stroke-opacity:1"
         d="m 281.73226,374.68943 c 0.0499,15.10036 4.67472,30.32654 14.22313,43.47943 m -51.45991,-70.77312 c 15.12304,4.95405 28.11437,14.61455 37.24195,27.25058"
         sodipodi:nodetypes="cccc" /><path
         id="path98"
         style="display:inline;fill:none;fill-opacity:1;stroke:#010000;stroke-width:0.785556;stroke-linecap:round;stroke-linejoin:round;stroke-dasharray:none;stroke-opacity:1"
         d="m 281.73227,374.68945 c -0.0516,-15.60476 4.78242,-31.07518 14.11717,-43.98436 m -0.038,87.51056 c -0.006,-16.26818 -5.22394,-31.31743 -14.07404,-43.56933"
         sodipodi:nodetypes="cccc" /><path
         id="path151"
         style="display:inline;fill:none;fill-opacity:1;stroke:#010000;stroke-width:0.785556;stroke-linecap:round;stroke-linejoin:round;stroke-dasharray:none;stroke-opacity:1"
         d="m 295.84866,505.59501 c -9.30601,-12.80523 -14.17317,-28.14803 -14.22089,-43.64943 l 0.005,-0.016 c 8.92591,-12.24606 14.2111,-27.31755 14.2618,-43.62567"
         sodipodi:nodetypes="cccc" /><path
         id="path99"
         style="display:inline;fill:none;fill-opacity:1;stroke:#010000;stroke-width:0.785556;stroke-linecap:round;stroke-linejoin:round;stroke-dasharray:none;stroke-opacity:1"
         d="m 281.63337,461.93023 c -9.11555,12.50623 -22.02817,22.06567 -37.04034,26.98607 -0.0413,0.0129 -0.0826,0.027 -0.12396,0.0406 M 295.732,418.15295 c -9.569,13.25705 -14.15099,28.601 -14.10423,43.79263"
         sodipodi:nodetypes="ccccc" /><path
         id="path156"
         style="display:inline;fill:none;fill-opacity:1;stroke:#010000;stroke-width:0.785556;stroke-linecap:round;stroke-linejoin:round;stroke-dasharray:none;stroke-opacity:1"
         d="m 309.965,374.74107 c 9.14871,-12.66785 22.18015,-22.34653 37.34994,-27.28972 m -51.58294,70.7016 c 9.53875,-13.13958 14.16385,-28.34825 14.22298,-43.4336"
         sodipodi:nodetypes="cccc" /><path
         id="path100"
         style="display:inline;fill:none;fill-opacity:1;stroke:#010000;stroke-width:0.785556;stroke-linecap:round;stroke-linejoin:round;stroke-dasharray:none;stroke-opacity:1"
         d="m 309.95498,374.71935 c 0.0612,-15.61367 -4.769,-31.09523 -14.10509,-44.01374 m 0.0453,87.59895 c 0.006,-16.26561 5.22229,-31.31267 14.06983,-43.56349"
         sodipodi:nodetypes="cccc" /></g><g
       id="g76"
       inkscape:label="outer"
       style="fill:none;stroke:#010000;stroke-width:0.522457;stroke-linecap:round;stroke-linejoin:round;stroke-dasharray:none;stroke-opacity:1"
       transform="matrix(-1.90229,0.61809143,-0.61809145,-1.90229,356.25569,1009.2917)"><path
         id="path52"
         style="display:inline;fill:none;fill-opacity:1;stroke:#010000;stroke-width:0.522457;stroke-linecap:round;stroke-linejoin:round;stroke-dasharray:none;stroke-opacity:1"
         d="m -51.608905,428.55989 c -8.423075,6.08622 -14.856479,14.75374 -18.142296,24.84104 l -11.045762,-34.2566 c 8.564326,6.21564 18.831577,9.44709 29.194532,9.43946"
         sodipodi:nodetypes="cccc" /><path
         id="path42"
         style="display:inline;fill:none;fill-opacity:1;stroke:#010000;stroke-width:0.522457;stroke-linecap:round;stroke-linejoin:round;stroke-dasharray:none;stroke-opacity:1"
         d="m 24.364954,384.98849 c -0.0061,0.0182 -0.01221,0.0365 -0.01783,0.0547 M 6.3912925,409.74338 c 10.3377395,-0.005 20.5785545,3.21365 29.1277885,9.40066 L 24.347124,385.04319 c -3.273203,10.01002 -9.646848,18.61739 -17.9863725,24.68709"
         sodipodi:nodetypes="cccccc" /><path
         id="path49"
         style="display:inline;fill:none;fill-opacity:1;stroke:#010000;stroke-width:0.522457;stroke-linecap:round;stroke-linejoin:round;stroke-dasharray:none;stroke-opacity:1"
         d="m -51.626603,409.74337 c -10.34815,-0.0151 -20.601691,3.20008 -29.161292,9.38962 l 11.136532,-34.15212 c 3.269067,10.04266 9.65756,18.67751 18.021787,24.7604"
         sodipodi:nodetypes="cccc" /><path
         id="path43"
         style="display:inline;fill:none;fill-opacity:1;stroke:#010000;stroke-width:0.522457;stroke-linecap:round;stroke-linejoin:round;stroke-dasharray:none;stroke-opacity:1"
         d="m 6.3540875,428.58079 c 8.3978555,6.07723 14.8144545,14.7218 18.1003745,24.78069 l 11.055596,-34.21499 c -8.554089,6.20724 -18.806699,9.43765 -29.1565781,9.4373"
         sodipodi:nodetypes="cccc" /><path
         id="path48"
         style="display:inline;fill:none;fill-opacity:1;stroke:#010000;stroke-width:0.522457;stroke-linecap:round;stroke-linejoin:round;stroke-dasharray:none;stroke-opacity:1"
         d="m -40.663478,394.44875 c -8.342608,-6.03582 -18.481895,-9.42442 -28.994396,-9.44328 l 29.029241,-21.07889 c -3.255604,10.01896 -3.177701,20.73138 -0.01498,30.55116"
         sodipodi:nodetypes="cccc" /><path
         id="path44"
         style="display:inline;fill:none;fill-opacity:1;stroke:#010000;stroke-width:0.522457;stroke-linecap:round;stroke-linejoin:round;stroke-dasharray:none;stroke-opacity:1"
         d="m -4.8300023,443.73463 c 3.2700202,9.88184 3.4051414,20.69353 0.147825,30.80699 L 24.437443,453.37458 c -10.634145,-0.008 -20.8877458,-3.46395 -29.289135,-9.6196"
         sodipodi:nodetypes="cccc" /><path
         id="path64"
         style="display:inline;fill:none;fill-opacity:1;stroke:#010000;stroke-width:0.522457;stroke-linecap:round;stroke-linejoin:round;stroke-dasharray:none;stroke-opacity:1"
         d="m -22.642321,388.68685 c -3.206713,-9.82742 -9.447302,-18.56251 -17.986332,-24.76743 l 35.9526624,0.0151 C -13.2031,370.13758 -19.435581,378.8648 -22.640122,388.68246"
         sodipodi:nodetypes="cccc" /><path
         id="path45"
         style="display:inline;fill:none;fill-opacity:1;stroke:#010000;stroke-width:0.522457;stroke-linecap:round;stroke-linejoin:round;stroke-dasharray:none;stroke-opacity:1"
         d="m -22.631672,449.62431 c -3.174468,9.88105 -9.411605,18.67303 -17.969199,24.91996 l 35.9130766,-0.003 C -13.235375,468.2996 -19.46732,459.51908 -22.643801,449.65053"
         sodipodi:nodetypes="cccc" /><path
         id="path62"
         style="display:inline;fill:none;fill-opacity:1;stroke:#010000;stroke-width:0.522457;stroke-linecap:round;stroke-linejoin:round;stroke-dasharray:none;stroke-opacity:1"
         d="m -4.6393313,394.46243 c 8.3361255,-6.0371 18.4683773,-9.4299 28.9752353,-9.45688 0.02878,3.6e-4 0.05782,-9e-5 0.08675,-2e-4 L -4.6568803,363.92171 c 3.2545701,10.01224 3.1799207,20.71729 0.024249,30.53216"
         sodipodi:nodetypes="ccccc" /><path
         id="path46"
         style="display:inline;fill:none;fill-opacity:1;stroke:#010000;stroke-width:0.522457;stroke-linecap:round;stroke-linejoin:round;stroke-dasharray:none;stroke-opacity:1"
         d="m -40.477171,443.80505 c -3.24764,9.8635 -3.374186,20.64872 -0.123873,30.7388 l -29.111477,-21.16928 c 10.611241,-0.009 20.843154,-3.4528 29.233474,-9.58532"
         sodipodi:nodetypes="cccc" /></g><g
       id="g133"
       inkscape:label="outermost"
       style="fill:none;stroke:#010000;stroke-width:0.783558;stroke-linecap:round;stroke-linejoin:bevel;stroke-dasharray:none;stroke-opacity:1"
       transform="matrix(1.3336727,0,1.6581292e-8,1.3336727,-254.62379,-359.92111)"><path
         fill="#ffffff"
         d="m 295.8441,505.71293 c 4.48739,6.18825 10.01158,11.78481 16.5299,16.52067 20.06088,14.57509 44.96504,17.67683 66.87329,10.5343 z"
         id="path88"
         style="display:inline;fill:none;fill-opacity:1;stroke:#010000;stroke-width:0.783558;stroke-linecap:round;stroke-linejoin:bevel;stroke-dasharray:none;stroke-opacity:1"
         sodipodi:nodetypes="cscc"
         inkscape:transform-center-x="-41.641617"
         inkscape:transform-center-y="102.75938" /><path
         fill="#ffffff"
         d="m 212.64087,445.16273 c -4.49869,6.18003 -8.11427,13.16328 -10.60407,20.82603 -7.66258,23.58298 -2.9167,48.22674 10.64627,66.85556 z"
         id="path102"
         style="display:inline;fill:none;fill-opacity:1;stroke:#010000;stroke-width:0.783558;stroke-linecap:round;stroke-linejoin:bevel;stroke-dasharray:none;stroke-opacity:1"
         sodipodi:nodetypes="cscc"
         inkscape:transform-center-x="-41.641617"
         inkscape:transform-center-y="102.75938" /><path
         fill="#ffffff"
         d="m 244.51633,347.32071 c -7.26774,-2.36877 -15.02648,-3.64945 -23.08358,-3.64947 -24.79661,0 -46.76766,12.12893 -60.29353,30.78471 z"
         id="path103"
         style="display:inline;fill:none;fill-opacity:1;stroke:#010000;stroke-width:0.783558;stroke-linecap:round;stroke-linejoin:bevel;stroke-dasharray:none;stroke-opacity:1"
         sodipodi:nodetypes="cscc"
         inkscape:transform-center-x="-41.641617"
         inkscape:transform-center-y="102.75938" /><path
         fill="#ffffff"
         d="m 347.41967,347.40123 c 0.007,-7.64402 -1.1726,-15.41877 -3.66236,-23.08154 -7.66257,-23.58298 -25.98731,-40.73064 -47.90973,-47.82956 z"
         id="path104"
         style="display:inline;fill:none;fill-opacity:1;stroke:#010000;stroke-width:0.783558;stroke-linecap:round;stroke-linejoin:bevel;stroke-dasharray:none;stroke-opacity:1"
         sodipodi:nodetypes="cscc"
         inkscape:transform-center-x="-41.641617"
         inkscape:transform-center-y="102.75938" /><path
         fill="#ffffff"
         d="m 379.14198,445.293 c 7.27205,-2.35549 14.30177,-5.87987 20.82011,-10.6157 20.06088,-14.57508 30.70662,-37.30185 30.6837,-60.345 z"
         id="path105"
         style="display:inline;fill:none;fill-opacity:1;stroke:#010000;stroke-width:0.783558;stroke-linecap:round;stroke-linejoin:bevel;stroke-dasharray:none;stroke-opacity:1"
         sodipodi:nodetypes="cscc"
         inkscape:transform-center-x="-41.641617"
         inkscape:transform-center-y="102.75938" /><path
         fill="#ffffff"
         d="m 212.6832,445.293 c -7.27206,-2.35549 -14.30177,-5.87987 -20.82011,-10.6157 -20.06089,-14.57508 -30.70663,-37.30186 -30.6837,-60.34501 z"
         id="path106"
         style="display:inline;fill:none;fill-opacity:1;stroke:#010000;stroke-width:0.783558;stroke-linecap:round;stroke-linejoin:bevel;stroke-dasharray:none;stroke-opacity:1"
         sodipodi:nodetypes="cscc"
         inkscape:transform-center-x="-41.641617"
         inkscape:transform-center-y="102.75938" /><path
         fill="#ffffff"
         d="m 244.40551,347.40122 c -0.007,-7.64402 1.1726,-15.41877 3.66236,-23.08153 7.66257,-23.58299 25.9873,-40.73064 47.90972,-47.82956 z"
         id="path130"
         style="display:inline;fill:none;fill-opacity:1;stroke:#010000;stroke-width:0.783558;stroke-linecap:round;stroke-linejoin:bevel;stroke-dasharray:none;stroke-opacity:1"
         sodipodi:nodetypes="cscc"
         inkscape:transform-center-x="-41.641617"
         inkscape:transform-center-y="102.75938" /><path
         fill="#ffffff"
         d="m 347.30883,347.32072 c 7.26774,-2.36878 15.02648,-3.64946 23.08358,-3.64948 24.79662,0 46.76766,12.12894 60.29353,30.78471 z"
         id="path131"
         style="display:inline;fill:none;fill-opacity:1;stroke:#010000;stroke-width:0.783558;stroke-linecap:round;stroke-linejoin:bevel;stroke-dasharray:none;stroke-opacity:1"
         sodipodi:nodetypes="cscc"
         inkscape:transform-center-x="-41.641617"
         inkscape:transform-center-y="102.75938" /><path
         fill="#ffffff"
         d="m 379.18429,445.16271 c 4.4987,6.18004 8.11427,13.16329 10.60407,20.82604 7.66258,23.58298 2.91671,48.22673 -10.64627,66.85555 z"
         id="path132"
         style="display:inline;fill:none;fill-opacity:1;stroke:#010000;stroke-width:0.783558;stroke-linecap:round;stroke-linejoin:bevel;stroke-dasharray:none;stroke-opacity:1"
         sodipodi:nodetypes="cscc"
         inkscape:transform-center-x="-41.641617"
         inkscape:transform-center-y="102.75938" /><path
         fill="#ffffff"
         d="m 295.98107,505.71292 c -4.48739,6.18825 -10.01158,11.78481 -16.5299,16.52067 -20.06088,14.57509 -44.96504,17.67683 -66.87329,10.5343 z"
         id="path133-3"
         style="display:inline;fill:none;fill-opacity:1;stroke:#010000;stroke-width:0.783558;stroke-linecap:round;stroke-linejoin:bevel;stroke-dasharray:none;stroke-opacity:1"
         sodipodi:nodetypes="cscc"
         inkscape:transform-center-x="-41.641617"
         inkscape:transform-center-y="102.75938" /></g></g></g><g
   id="g4"
   style="display:inline;fill:none;stroke:#000000;stroke-width:0.521187;stroke-dasharray:none;stroke-opacity:1"
   transform="matrix(1.8973409,0.61648307,0.61648313,-1.8973409,-75.230829,1007.8199)"
   inkscape:transform-center-x="0.27715676"
   inkscape:transform-center-y="41.019167"><path
     fill="#ffffff"
     d="M 71.665322,449.76298 C 88.446362,397.73044 59.939816,341.93376 7.9440571,325.03931 -44.051702,308.14487 -99.910447,336.5296 -116.91826,388.48846 m 188.533535,30.76439 c 3.124331,9.5764 3.36784,20.1899 0.05005,30.51013"
     id="path2"
     style="display:inline;fill:none;stroke:#000000;stroke-width:0.521187;stroke-dasharray:none;stroke-opacity:1"
     sodipodi:nodetypes="csccc" /><path
     fill="#ffffff"
     d="m -116.94925,449.76298 c -16.78118,-52.03259 11.72536,-107.8294 63.721198,-124.72387 51.9958401,-16.89448 107.85466,11.49037 124.862385,63.44935 3.394827,10.46163 3.124409,21.23334 -0.10284,30.92544"
     id="path3"
     style="display:inline;fill:none;stroke:#000000;stroke-width:0.521187;stroke-dasharray:none;stroke-opacity:1"
     sodipodi:nodetypes="cscc" /></g><g
   id="g11"
   inkscape:label="rhombs"><path
     id="use1"
     d="m 250.66407,234.10697 26.14527,35.98604 42.30407,-13.7455 -26.14529,-35.98606 z"
     style="display:inline;fill:none;stroke:#ff00ff;stroke-width:1.03952;stroke-linejoin:bevel;stroke-dasharray:none;stroke-opacity:0.533333"
     inkscape:transform-center-x="-144.37555"
     inkscape:transform-center-y="46.944332" /><use
     x="0"
     y="0"
     xlink:href="#use1"
     inkscape:transform-center-x="-144.39546"
     inkscape:transform-center-y="-46.88305"
     id="use4"
     transform="rotate(-36,140.51319,198.2829)" /><use
     x="0"
     y="0"
     xlink:href="#use4"
     inkscape:transform-center-x="-89.261202"
     inkscape:transform-center-y="-122.80271"
     id="use5"
     transform="rotate(-36,140.51319,198.2829)" /><use
     x="0"
     y="0"
     xlink:href="#use5"
     inkscape:transform-center-x="-0.032211136"
     inkscape:transform-center-y="-151.81591"
     id="use6"
     transform="rotate(-36,140.51319,198.2829)" /><use
     x="0"
     y="0"
     xlink:href="#use6"
     inkscape:transform-center-x="89.209085"
     inkscape:transform-center-y="-122.84059"
     id="use7"
     transform="rotate(-36,140.51319,198.2829)" /><use
     x="0"
     y="0"
     xlink:href="#use7"
     inkscape:transform-center-x="144.37555"
     inkscape:transform-center-y="-46.944332"
     id="use8"
     transform="rotate(-36,140.51319,198.2829)" /><use
     x="0"
     y="0"
     xlink:href="#use8"
     inkscape:transform-center-x="144.39546"
     inkscape:transform-center-y="46.88305"
     id="use9"
     transform="rotate(-36,140.51319,198.2829)" /><use
     x="0"
     y="0"
     xlink:href="#use9"
     inkscape:transform-center-x="89.261202"
     inkscape:transform-center-y="122.80271"
     id="use10"
     transform="rotate(-36,140.51319,198.2829)" /><use
     x="0"
     y="0"
     xlink:href="#use10"
     inkscape:transform-center-x="0.032211136"
     inkscape:transform-center-y="151.81591"
     id="use11"
     transform="rotate(-36,140.51319,198.2829)" /><use
     x="0"
     y="0"
     xlink:href="#use11"
     inkscape:transform-center-x="-89.209085"
     inkscape:transform-center-y="122.84059"
     id="use16"
     transform="rotate(-36,140.51319,198.2829)" /></g><use
   x="0"
   y="0"
   xlink:href="#g4"
   inkscape:transform-center-x="-19.063796"
   inkscape:transform-center-y="5.1996472"
   id="use12"
   transform="rotate(-72,140.50014,198.20747)" /><use
   x="0"
   y="0"
   xlink:href="#use12"
   inkscape:transform-center-x="-19.250301"
   inkscape:transform-center-y="-4.9428251"
   id="use13"
   transform="rotate(-72,140.50014,198.20747)" /><use
   x="0"
   y="0"
   xlink:href="#use13"
   inkscape:transform-center-x="-0.024853049"
   inkscape:transform-center-y="-41.117097"
   id="use14"
   transform="rotate(-72,140.50014,198.20747)" /><use
   x="0"
   y="0"
   xlink:href="#use14"
   inkscape:transform-center-x="68.660319"
   inkscape:transform-center-y="-0.15884666"
   id="use15"
   transform="rotate(-72,140.50014,198.20747)" /></svg>
