<?xml version="1.0" encoding="UTF-8" standalone="no"?>
<!-- 
Creator: http://commons.wikimedia.org/wiki/User:ParaDox 2006-07-24 09'30
Resource: http://commons.wikimedia.org/wiki/Image:A_Yin-Yang-Yuan_Symbol_-_Triality-One.svg
-->

<svg
   version="1.0"
   width="190.78535"
   height="190.71271"
   viewBox="0 0 280.52513 396.59061"
   id="svg2"
   xml:space="preserve"
   sodipodi:version="0.32"
   inkscape:version="1.4 (e7c3feb1, 2024-10-09)"
   sodipodi:docname="deidecQuro.svg"
   inkscape:export-filename="deidecQuro.png"
   inkscape:export-xdpi="300"
   inkscape:export-ydpi="300"
   xmlns:inkscape="http://www.inkscape.org/namespaces/inkscape"
   xmlns:sodipodi="http://sodipodi.sourceforge.net/DTD/sodipodi-0.dtd"
   xmlns:xlink="http://www.w3.org/1999/xlink"
   xmlns="http://www.w3.org/2000/svg"
   xmlns:svg="http://www.w3.org/2000/svg"
   xmlns:rdf="http://www.w3.org/1999/02/22-rdf-syntax-ns#"
   xmlns:cc="http://creativecommons.org/ns#"
   xmlns:dc="http://purl.org/dc/elements/1.1/"><metadata
   id="metadata26"><rdf:RDF><cc:Work
       rdf:about=""><dc:format>image/svg+xml</dc:format><dc:type
         rdf:resource="http://purl.org/dc/dcmitype/StillImage" /></cc:Work></rdf:RDF></metadata><sodipodi:namedview
   inkscape:window-height="896"
   inkscape:window-width="1256"
   inkscape:pageshadow="2"
   inkscape:pageopacity="0.0"
   guidetolerance="10.0"
   gridtolerance="10.0"
   objecttolerance="10.0"
   borderopacity="1.0"
   bordercolor="#666666"
   pagecolor="#ffffff"
   id="base"
   inkscape:zoom="2.2774675"
   inkscape:cx="44.567047"
   inkscape:cy="78.815614"
   inkscape:window-x="221"
   inkscape:window-y="32"
   inkscape:current-layer="svg2"
   inkscape:showpageshadow="2"
   inkscape:pagecheckerboard="0"
   inkscape:deskcolor="#d1d1d1"
   inkscape:window-maximized="0"
   showgrid="false" />
 <defs
   id="defs4"><linearGradient
   x1="227.64796"
   y1="836.40973"
   x2="569.92059"
   y2="287.24582"
   id="id0"
   gradientUnits="userSpaceOnUse">
   <stop
   style="stop-color:blue;stop-opacity:1"
   offset="0"
   id="stop9" />
   <stop
   style="stop-color:#ff0000;stop-opacity:1;"
   offset="1"
   id="stop11" />
   
  </linearGradient><linearGradient
   x1="245.55229"
   y1="785.56146"
   x2="546.28687"
   y2="338.09409"
   id="linearGradient4679"
   xlink:href="#id0"
   gradientUnits="userSpaceOnUse"
   gradientTransform="matrix(1.830783,-0.59485747,0.59485747,1.830783,-663.81742,-230.30367)" />
   
   
   
  
   
   
   
  </defs>
 
<g
   id="g1"
   inkscape:label="deidec"
   style="stroke:#000000;stroke-opacity:1;stroke-width:1.03975927;stroke-dasharray:none"><g
     id="g694"
     transform="matrix(1.1726214,1.6139743,1.6139743,-1.1726213,-509.90813,726.39421)"
     style="display:inline;stroke:#000000;stroke-width:0.52118725;stroke-dasharray:none;stroke-opacity:1;fill:none"
     inkscape:transform-center-x="0.059863051"
     inkscape:transform-center-y="302.08812"
     inkscape:label="kwiatek"><g
       id="g10"
       inkscape:label="inner"
       style="stroke:#000000;stroke-opacity:1;stroke-width:0.52118725;stroke-dasharray:none"><path
         fill="#ffffff"
         d="m -22.523033,518.33956 c 54.671827,-0.11878 98.9291,-44.47237 98.9291,-99.14426 0,-54.67189 -44.257273,-99.02548 -98.9291,-99.14426"
         id="path683"
         style="display:inline;fill:none;stroke:#000000;stroke-width:0.52118725;stroke-dasharray:none;stroke-opacity:1"
         sodipodi:nodetypes="csc" /><path
         fill="#ffffff"
         d="m 35.718052,499.33326 c 44.161158,-32.23121 53.895994,-94.1282 21.760472,-138.35895 -32.135522,-44.23076 -94.011288,-54.0996 -138.311539,-22.05984 -8.920328,6.48389 -15.043217,15.38617 -18.122886,25.15395 m 18.307461,55.19327 c 16.889779,12.15767 40.333214,12.7584 58.09107,-0.13767 17.7831104,-12.836 41.212426,-12.17959 58.068951,0.0144 M 24.35124,385.03609 c -6.479711,19.82629 -25.12170706,34.15175 -47.112137,34.1594 -21.93678,0.0683 -40.509155,14.37751 -46.974623,34.15796"
         id="path684"
         style="display:inline;fill:none;stroke:#000000;stroke-width:0.521187;stroke-dasharray:none;stroke-opacity:1"
         sodipodi:nodetypes="cscccccccc" /><path
         fill="#ffffff"
         d="M 71.665322,449.76298 C 88.446362,397.73044 59.939816,341.93376 7.9440571,325.03931 -44.051702,308.14487 -99.910447,336.5296 -116.91826,388.48846 m 141.232496,-3.48273 c -20.786856,0.0625 -40.103543,13.29855 -46.940527,34.12005 -6.797473,20.88869 -26.149709,34.18365 -46.982818,34.24565 m 29.027647,21.22405 c -6.419483,-19.85074 0.239117,-42.4044 18.027221,-55.34027 17.7063755,-12.94864 24.3213088,-35.44012 17.9269508,-55.2425 m 76.2425652,55.24014 c 3.124331,9.5764 3.36784,20.1899 0.05005,30.51013"
         id="path685"
         style="display:inline;fill:none;stroke:#000000;stroke-width:0.521187;stroke-dasharray:none;stroke-opacity:1"
         sodipodi:nodetypes="csccccccccc" /><path
         fill="#ffffff"
         d="M 71.599337,388.56201 C 54.592249,336.60217 -1.2671157,308.21649 -53.263545,325.11115 c -51.996425,16.89467 -80.502915,72.69248 -63.720705,124.72539 3.38629,10.41163 9.89157,18.93729 18.144851,24.87871 m 58.271439,-0.18956 c 16.818191,-12.29751 24.658295,-34.43105 17.875685,-55.32647 -6.704119,-20.85313 1.132099,-42.90377 17.8948155,-55.17633 m -35.6693615,0.0138 c 16.749436,12.27548 24.576966,34.31734 17.875196,55.1625 -6.786551,20.91182 1.072072,43.06293 17.9178655,55.35379"
         id="path686"
         style="display:inline;fill:none;stroke:#000000;stroke-width:0.521187;stroke-linejoin:round;stroke-dasharray:none;stroke-opacity:1"
         sodipodi:nodetypes="cscccccccc" /><path
         fill="#ffffff"
         d="M 35.545735,339.04596 C -8.7545276,307.00745 -70.6292,316.87672 -102.7643,361.10688 c -32.13509,44.23017 -22.26872,106.03718 21.891247,138.26879 m 40.175746,-135.23644 c -6.32547,19.77159 0.298945,42.1949 17.96762,55.11597 17.7706265,12.92352 24.4332942,35.446 18.0451758,55.28262 m 29.1158602,-21.1629 c -20.8742954,-0.0175 -40.223835,-13.3423 -47.088988,-34.24914 -6.821764,-20.77471 -26.067223,-33.99791 -46.800794,-34.11914 M 6.4010021,329.66553 c 10.1099119,-0.035 20.3221859,3.01224 29.1447329,9.38043"
         id="path687"
         style="display:inline;fill:none;stroke:#000000;stroke-width:0.521187;stroke-dasharray:none;stroke-opacity:1"
         sodipodi:nodetypes="cscccccsccc" /><path
         fill="#ffffff"
         d="m 6.6157557,508.76332 c -8.1667849,5.99148 -18.2373547,9.54234 -29.2577207,9.57624 h -0.118932 C -77.432724,518.22078 -121.69,473.86719 -121.69,419.1953 c 0,-54.67189 44.257276,-99.02548 98.929103,-99.14426 10.975811,0.004 21.1174654,3.57447 29.3290545,9.61565"
         id="path689"
         style="display:inline;fill:none;stroke:#000000;stroke-width:0.52118725;stroke-dasharray:none;stroke-opacity:1"
         sodipodi:nodetypes="cccscc" /><path
         fill="#ffffff"
         d="m -80.9618,499.3111 c -44.16026,-32.23151 -53.89454,-94.12782 -21.75934,-138.35813 32.135206,-44.23031 93.9699635,-54.07731 138.270223,-22.03849 m -0.03506,80.22494 c -16.89805,12.26643 -40.4274687,12.91417 -58.240587,-0.0154 -17.757221,-12.81731 -41.14422,-12.18147 -57.995289,-0.0387 m 11.136286,-33.89829 c 6.524817,19.74803 25.127951,34.00083 47.062534,34.00846 21.95219123,0.0683 40.535249,14.39762 46.988232,34.19966 M -98.865198,474.7126 c 3.11009,9.54781 9.184441,18.22455 17.906741,24.60315"
         id="path690"
         style="display:inline;fill:none;stroke:#000000;stroke-width:0.521187;stroke-dasharray:none;stroke-opacity:1"
         sodipodi:nodetypes="csccccccccc" /><path
         fill="#ffffff"
         d="m -116.94925,449.76298 c -16.78118,-52.03259 11.72536,-107.8294 63.721198,-124.72387 51.9958401,-16.89448 107.85466,11.49037 124.862385,63.44935 3.394827,10.46163 3.124409,21.23334 -0.10284,30.92544"
         id="path691"
         style="display:inline;fill:none;stroke:#000000;stroke-width:0.52118725;stroke-dasharray:none;stroke-opacity:1"
         sodipodi:nodetypes="cscc" /><path
         fill="#ffffff"
         d="m -116.88324,388.56201 c 17.006999,-51.95996 72.866439,-80.34576 124.8629499,-63.45107 51.9965111,16.8947 80.5029871,72.69265 63.7206381,124.7256 M -98.940996,363.93059 c -8.141584,5.91007 -14.564804,14.34513 -17.942244,24.63142"
         id="path692"
         style="display:inline;fill:none;stroke:#000000;stroke-width:0.52118725;stroke-dasharray:none;stroke-opacity:1"
         sodipodi:nodetypes="csccc" /><path
         fill="#ffffff"
         d="m -80.829663,339.04597 c 44.300258,-32.03891 106.175279,-22.16978 138.310512,22.06057 32.135232,44.23036 22.400901,106.12673 -21.759444,138.35821 -8.842751,6.41865 -19.094236,9.49138 -29.2438924,9.4578"
         id="path693"
         style="display:inline;fill:none;stroke:#000000;stroke-width:0.52118725;stroke-dasharray:none;stroke-opacity:1"
         inkscape:label="path693"
         sodipodi:nodetypes="cscc" /></g><g
       id="g9"
       inkscape:label="outer"
       transform="matrix(0.29463188,0.40552588,0.40552588,-0.29463191,-144.33646,420.79986)"
       style="stroke:#000000;stroke-opacity:1;stroke-width:1.03975927;stroke-dasharray:none"><path
         fill="#ffffff"
         d="m 140.11643,314.25757 c -5.9644,8.22518 -13.30686,15.66374 -21.97062,21.95839 -26.663801,19.37232 -59.764998,23.49503 -88.884202,14.00156"
         id="path133"
         style="display:inline;fill:none;fill-opacity:1;stroke:#000000;stroke-width:1.03975927;stroke-linecap:round;stroke-linejoin:round;stroke-dasharray:none;stroke-opacity:1"
         sodipodi:nodetypes="csc"
         inkscape:transform-center-x="55.585883"
         inkscape:transform-center-y="136.40858" /><use
         x="0"
         y="0"
         xlink:href="#path133"
         inkscape:transform-center-x="144.58054"
         inkscape:transform-center-y="-11.4694"
         id="use1"
         transform="rotate(72,140.2749,198.27754)"
         style="stroke:#000000;stroke-opacity:1;stroke-width:1.03975927;stroke-dasharray:none" /><use
         x="0"
         y="0"
         xlink:href="#use1"
         inkscape:transform-center-x="33.769817"
         inkscape:transform-center-y="-141.04849"
         id="use2"
         transform="rotate(72,140.2749,198.27754)"
         style="stroke:#000000;stroke-opacity:1;stroke-width:1.03975927;stroke-dasharray:none" /><use
         x="0"
         y="0"
         xlink:href="#use2"
         inkscape:transform-center-x="-123.70964"
         inkscape:transform-center-y="-78.128713"
         id="use3"
         transform="rotate(72,140.2749,198.27755)"
         style="stroke:#000000;stroke-opacity:1;stroke-width:1.03975927;stroke-dasharray:none" /><use
         x="0"
         y="0"
         xlink:href="#use3"
         inkscape:transform-center-x="-119.70767"
         inkscape:transform-center-y="94.261233"
         id="use4"
         transform="rotate(72,140.27491,198.27755)"
         style="stroke:#000000;stroke-opacity:1;stroke-width:1.03975927;stroke-dasharray:none" /><use
         x="0"
         y="0"
         xlink:href="#use4"
         inkscape:transform-center-x="119.70767"
         inkscape:transform-center-y="94.261233"
         id="use5"
         transform="matrix(-1,0,0,1,280.5498,0)"
         style="stroke:#000000;stroke-opacity:1;stroke-width:1.03975927;stroke-dasharray:none" /><use
         x="0"
         y="0"
         xlink:href="#use5"
         inkscape:transform-center-x="123.70964"
         inkscape:transform-center-y="-78.128722"
         id="use6"
         transform="rotate(72,140.2749,198.27755)"
         style="stroke:#000000;stroke-opacity:1;stroke-width:1.03975927;stroke-dasharray:none" /><use
         x="0"
         y="0"
         xlink:href="#use6"
         inkscape:transform-center-x="-33.769826"
         inkscape:transform-center-y="-141.04848"
         id="use7"
         transform="rotate(72,140.2749,198.27755)"
         style="stroke:#000000;stroke-opacity:1;stroke-width:1.03975927;stroke-dasharray:none" /><use
         x="0"
         y="0"
         xlink:href="#use7"
         inkscape:transform-center-x="-144.58055"
         inkscape:transform-center-y="-11.469387"
         id="use8"
         transform="rotate(72,140.2749,198.27754)"
         style="stroke:#000000;stroke-opacity:1;stroke-width:1.03975927;stroke-dasharray:none" /><use
         x="0"
         y="0"
         xlink:href="#use8"
         inkscape:transform-center-x="-55.585874"
         inkscape:transform-center-y="136.4086"
         id="use9"
         transform="rotate(72,140.27489,198.27754)"
         style="stroke:#000000;stroke-opacity:1;stroke-width:1.03975927;stroke-dasharray:none" /></g></g><g
     id="g703"
     inkscape:label="star"
     transform="matrix(0.99360748,0,0,0.99360748,0.89748722,1.2675471)"
     style="stroke-width:1.04644871;stroke-dasharray:none;fill:none;stroke:#000000;stroke-opacity:1" /></g><g
   id="g6"
   inkscape:transform-center-y="40.932518"
   inkscape:transform-center-x="-0.059516904"
   style="stroke:#000000;stroke-opacity:1;stroke-width:1.03975927;stroke-dasharray:none"><path
     fill="#ffffff"
     d="M 35.767379,499.38174 C 79.927489,467.15018 89.661669,405.25399 57.526529,361.02376 25.391383,316.79352 -36.483417,306.9243 -80.783679,338.96296"
     id="path2"
     style="display:inline;fill:none;stroke:#000000;stroke-width:0.52118725;stroke-dasharray:none;stroke-opacity:1"
     sodipodi:nodetypes="csc"
     transform="matrix(1.1726214,1.6139743,1.6139743,-1.1726213,-509.90813,726.39421)" /><path
     fill="#ffffff"
     d="m -116.82501,388.51687 c 17.007729,-51.95898 72.866548,-80.34382 124.862384,-63.44934 51.995845,16.89447 80.502385,72.69128 63.721195,124.72387 -3.40272,10.45907 -9.95294,19.01462 -18.26072,24.95876 m 18.158221,-55.5298 c 3.124333,9.57641 3.367837,20.18991 0.05004,30.51013"
     id="path3"
     style="display:inline;fill:none;stroke:#000000;stroke-width:0.521187;stroke-dasharray:none;stroke-opacity:1"
     sodipodi:nodetypes="cscccc"
     transform="matrix(1.1726214,1.6139743,1.6139743,-1.1726213,-509.90813,726.39421)" /><path
     id="use1-9"
     d="m 24.411377,453.51135 22.296502,-5e-5 6.88997,21.20526 -22.296514,5e-5 z"
     style="display:inline;fill:none;stroke:#000000;stroke-width:0.52118725;stroke-linejoin:bevel;stroke-dasharray:none;stroke-opacity:1"
     inkscape:transform-center-x="-144.37555"
     inkscape:transform-center-y="46.944332"
     transform="matrix(1.1726214,1.6139743,1.6139743,-1.1726213,-509.90813,726.39421)" /></g><g
   id="use10"
   inkscape:transform-center-y="40.932518"
   inkscape:transform-center-x="-0.059516904"
   transform="rotate(-36,140.17222,198.18364)"
   style="stroke:#000000;stroke-opacity:1;stroke-width:1.03975927;stroke-dasharray:none"><path
     fill="#ffffff"
     d="M 35.767379,499.38174 C 79.927489,467.15018 89.661669,405.25399 57.526529,361.02376 25.391383,316.79352 -36.483417,306.9243 -80.783679,338.96296"
     id="path56"
     style="display:inline;fill:none;stroke:#000000;stroke-width:0.52118725;stroke-dasharray:none;stroke-opacity:1"
     sodipodi:nodetypes="csc"
     transform="matrix(1.1726214,1.6139743,1.6139743,-1.1726213,-509.90813,726.39421)" /><path
     fill="#ffffff"
     d="m -116.82501,388.51687 c 17.007729,-51.95898 72.866548,-80.34382 124.862384,-63.44934 51.995845,16.89447 80.502385,72.69128 63.721195,124.72387 -3.40272,10.45907 -9.95294,19.01462 -18.26072,24.95876 m 18.158221,-55.5298 c 3.124333,9.57641 3.367837,20.18991 0.05004,30.51013"
     id="path57"
     style="display:inline;fill:none;stroke:#000000;stroke-width:0.521187;stroke-dasharray:none;stroke-opacity:1"
     sodipodi:nodetypes="cscccc"
     transform="matrix(1.1726214,1.6139743,1.6139743,-1.1726213,-509.90813,726.39421)" /><path
     id="path58"
     d="m 250.17143,234.07589 26.14528,35.98604 42.30407,-13.7455 -26.14529,-35.98606 z"
     style="display:inline;fill:none;stroke:#000000;stroke-width:1.03975927;stroke-linejoin:bevel;stroke-dasharray:none;stroke-opacity:1"
     inkscape:transform-center-x="-144.37555"
     inkscape:transform-center-y="46.944332" /></g><g
   id="use11"
   inkscape:transform-center-y="40.932518"
   inkscape:transform-center-x="-0.059516904"
   transform="rotate(-72,140.36155,198.19128)"
   style="stroke:#000000;stroke-opacity:1;stroke-width:1.03975927;stroke-dasharray:none"><path
     fill="#ffffff"
     d="M 35.767379,499.38174 C 79.927489,467.15018 89.661669,405.25399 57.526529,361.02376 25.391383,316.79352 -36.483417,306.9243 -80.783679,338.96296"
     id="path53"
     style="display:inline;fill:none;stroke:#000000;stroke-width:0.52118725;stroke-dasharray:none;stroke-opacity:1"
     sodipodi:nodetypes="csc"
     transform="matrix(1.1726214,1.6139743,1.6139743,-1.1726213,-509.90813,726.39421)" /><path
     fill="#ffffff"
     d="m -116.82501,388.51687 c 17.007729,-51.95898 72.866548,-80.34382 124.862384,-63.44934 51.995845,16.89447 80.502385,72.69128 63.721195,124.72387 -3.40272,10.45907 -9.95294,19.01462 -18.26072,24.95876 m 18.158221,-55.5298 c 3.124333,9.57641 3.367837,20.18991 0.05004,30.51013"
     id="path54"
     style="display:inline;fill:none;stroke:#000000;stroke-width:0.521187;stroke-dasharray:none;stroke-opacity:1"
     sodipodi:nodetypes="cscccc"
     transform="matrix(1.1726214,1.6139743,1.6139743,-1.1726213,-509.90813,726.39421)" /><path
     id="path55"
     d="m 24.411377,453.51135 22.296502,-5e-5 6.88997,21.20526 -22.296514,5e-5 z"
     style="display:inline;fill:none;stroke:#000000;stroke-width:0.52118725;stroke-linejoin:bevel;stroke-dasharray:none;stroke-opacity:1"
     inkscape:transform-center-x="-144.37555"
     inkscape:transform-center-y="46.944332"
     transform="matrix(1.1726214,1.6139743,1.6139743,-1.1726213,-509.90813,726.39421)" /></g><g
   id="use12"
   inkscape:transform-center-y="40.932518"
   inkscape:transform-center-x="-0.059516904"
   transform="rotate(-108,140.17222,198.18364)"
   style="stroke:#000000;stroke-opacity:1;stroke-width:1.03975927;stroke-dasharray:none"><path
     fill="#ffffff"
     d="M 35.767379,499.38174 C 79.927489,467.15018 89.661669,405.25399 57.526529,361.02376 25.391383,316.79352 -36.483417,306.9243 -80.783679,338.96296"
     id="path50"
     style="display:inline;fill:none;stroke:#000000;stroke-width:0.52118725;stroke-dasharray:none;stroke-opacity:1"
     sodipodi:nodetypes="csc"
     transform="matrix(1.1726214,1.6139743,1.6139743,-1.1726213,-509.90813,726.39421)" /><path
     fill="#ffffff"
     d="m -116.82501,388.51687 c 17.007729,-51.95898 72.866548,-80.34382 124.862384,-63.44934 51.995845,16.89447 80.502385,72.69128 63.721195,124.72387 -3.40272,10.45907 -9.95294,19.01462 -18.26072,24.95876 m 18.158221,-55.5298 c 3.124333,9.57641 3.367837,20.18991 0.05004,30.51013"
     id="path51"
     style="display:inline;fill:none;stroke:#000000;stroke-width:0.521187;stroke-dasharray:none;stroke-opacity:1"
     sodipodi:nodetypes="cscccc"
     transform="matrix(1.1726214,1.6139743,1.6139743,-1.1726213,-509.90813,726.39421)" /><path
     id="path52"
     d="m 249.83177,234.02921 26.14527,35.98604 42.30407,-13.74551 -26.14528,-35.98606 z"
     style="display:inline;fill:none;stroke:#000000;stroke-width:1.03975927;stroke-linejoin:bevel;stroke-dasharray:none;stroke-opacity:1"
     inkscape:transform-center-x="-144.37555"
     inkscape:transform-center-y="46.944332" /></g><g
   id="use13"
   inkscape:transform-center-y="40.932518"
   inkscape:transform-center-x="-0.059516904"
   transform="rotate(-144,140.17222,198.18364)"
   style="stroke:#000000;stroke-opacity:1;stroke-width:1.03975927;stroke-dasharray:none"><path
     fill="#ffffff"
     d="M 35.767379,499.38174 C 79.927489,467.15018 89.661669,405.25399 57.526529,361.02376 25.391383,316.79352 -36.483417,306.9243 -80.783679,338.96296"
     id="path47"
     style="display:inline;fill:none;stroke:#000000;stroke-width:0.52118725;stroke-dasharray:none;stroke-opacity:1"
     sodipodi:nodetypes="csc"
     transform="matrix(1.1726214,1.6139743,1.6139743,-1.1726213,-509.90813,726.39421)" /><path
     fill="#ffffff"
     d="m -116.82501,388.51687 c 17.007729,-51.95898 72.866548,-80.34382 124.862384,-63.44934 51.995845,16.89447 80.502385,72.69128 63.721195,124.72387 -3.40272,10.45907 -9.95294,19.01462 -18.26072,24.95876 m 18.158221,-55.5298 c 3.124333,9.57641 3.367837,20.18991 0.05004,30.51013"
     id="path48"
     style="display:inline;fill:none;stroke:#000000;stroke-width:0.521187;stroke-dasharray:none;stroke-opacity:1"
     sodipodi:nodetypes="cscccc"
     transform="matrix(1.1726214,1.6139743,1.6139743,-1.1726213,-509.90813,726.39421)" /><path
     id="path49"
     d="m 24.411377,453.51135 22.296502,-5e-5 6.88997,21.20526 -22.296514,5e-5 z"
     style="display:inline;fill:none;stroke:#000000;stroke-width:0.52118725;stroke-linejoin:bevel;stroke-dasharray:none;stroke-opacity:1"
     inkscape:transform-center-x="-144.37555"
     inkscape:transform-center-y="46.944332"
     transform="matrix(1.1726214,1.6139743,1.6139743,-1.1726213,-509.90813,726.39421)" /></g><g
   id="use14"
   inkscape:transform-center-y="40.932518"
   inkscape:transform-center-x="-0.059516904"
   transform="rotate(-180,140.17222,198.18364)"
   style="stroke:#000000;stroke-opacity:1;stroke-width:1.03975927;stroke-dasharray:none"><path
     fill="#ffffff"
     d="M 35.767379,499.38174 C 79.927489,467.15018 89.661669,405.25399 57.526529,361.02376 25.391383,316.79352 -36.483417,306.9243 -80.783679,338.96296"
     id="path44"
     style="display:inline;fill:none;stroke:#000000;stroke-width:0.52118725;stroke-dasharray:none;stroke-opacity:1"
     sodipodi:nodetypes="csc"
     transform="matrix(1.1726214,1.6139743,1.6139743,-1.1726213,-509.90813,726.39421)" /><path
     fill="#ffffff"
     d="m -116.82501,388.51687 c 17.007729,-51.95898 72.866548,-80.34382 124.862384,-63.44934 51.995845,16.89447 80.502385,72.69128 63.721195,124.72387 -3.40272,10.45907 -9.95294,19.01462 -18.26072,24.95876 m 18.158221,-55.5298 c 3.124333,9.57641 3.367837,20.18991 0.05004,30.51013"
     id="path45"
     style="display:inline;fill:none;stroke:#000000;stroke-width:0.521187;stroke-dasharray:none;stroke-opacity:1"
     sodipodi:nodetypes="cscccc"
     transform="matrix(1.1726214,1.6139743,1.6139743,-1.1726213,-509.90813,726.39421)" /><path
     id="path46"
     d="m 249.6877,233.71501 26.14527,35.98604 42.30408,-13.74551 -26.14529,-35.98606 z"
     style="display:inline;fill:none;stroke:#000000;stroke-width:1.03975927;stroke-linejoin:bevel;stroke-dasharray:none;stroke-opacity:1"
     inkscape:transform-center-x="-144.37555"
     inkscape:transform-center-y="46.944332" /></g><g
   id="use15"
   inkscape:transform-center-y="40.932518"
   inkscape:transform-center-x="-0.059516904"
   transform="rotate(144,140.17222,198.18364)"
   style="stroke:#000000;stroke-opacity:1;stroke-width:1.03975927;stroke-dasharray:none"><path
     fill="#ffffff"
     d="M 35.767379,499.38174 C 79.927489,467.15018 89.661669,405.25399 57.526529,361.02376 25.391383,316.79352 -36.483417,306.9243 -80.783679,338.96296"
     id="path41"
     style="display:inline;fill:none;stroke:#000000;stroke-width:0.52118725;stroke-dasharray:none;stroke-opacity:1"
     sodipodi:nodetypes="csc"
     transform="matrix(1.1726214,1.6139743,1.6139743,-1.1726213,-509.90813,726.39421)" /><path
     fill="#ffffff"
     d="m -116.82501,388.51687 c 17.007729,-51.95898 72.866548,-80.34382 124.862384,-63.44934 51.995845,16.89447 80.502385,72.69128 63.721195,124.72387 -3.40272,10.45907 -9.95294,19.01462 -18.26072,24.95876 m 18.158221,-55.5298 c 3.124333,9.57641 3.367837,20.18991 0.05004,30.51013"
     id="path42"
     style="display:inline;fill:none;stroke:#000000;stroke-width:0.521187;stroke-dasharray:none;stroke-opacity:1"
     sodipodi:nodetypes="cscccc"
     transform="matrix(1.1726214,1.6139743,1.6139743,-1.1726213,-509.90813,726.39421)" /><path
     id="path43"
     d="m 24.411377,453.51135 22.296502,-5e-5 6.88997,21.20526 -22.296514,5e-5 z"
     style="display:inline;fill:none;stroke:#000000;stroke-width:0.52118725;stroke-linejoin:bevel;stroke-dasharray:none;stroke-opacity:1"
     inkscape:transform-center-x="-144.37555"
     inkscape:transform-center-y="46.944332"
     transform="matrix(1.1726214,1.6139743,1.6139743,-1.1726213,-509.90813,726.39421)" /></g><g
   id="use16"
   inkscape:transform-center-y="40.932518"
   inkscape:transform-center-x="-0.059516904"
   transform="rotate(108,140.17222,198.18364)"
   style="stroke:#000000;stroke-opacity:1;stroke-width:1.03975927;stroke-dasharray:none"><path
     fill="#ffffff"
     d="M 35.767379,499.38174 C 79.927489,467.15018 89.661669,405.25399 57.526529,361.02376 25.391383,316.79352 -36.483417,306.9243 -80.783679,338.96296"
     id="path38"
     style="display:inline;fill:none;stroke:#000000;stroke-width:0.52118725;stroke-dasharray:none;stroke-opacity:1"
     sodipodi:nodetypes="csc"
     transform="matrix(1.1726214,1.6139743,1.6139743,-1.1726213,-509.90813,726.39421)" /><path
     fill="#ffffff"
     d="m -116.82501,388.51687 c 17.007729,-51.95898 72.866548,-80.34382 124.862384,-63.44934 51.995845,16.89447 80.502385,72.69128 63.721195,124.72387 -3.40272,10.45907 -9.95294,19.01462 -18.26072,24.95876 m 18.158221,-55.5298 c 3.124333,9.57641 3.367837,20.18991 0.05004,30.51013"
     id="path39"
     style="display:inline;fill:none;stroke:#000000;stroke-width:0.521187;stroke-dasharray:none;stroke-opacity:1"
     sodipodi:nodetypes="cscccc"
     transform="matrix(1.1726214,1.6139743,1.6139743,-1.1726213,-509.90813,726.39421)" /><path
     id="path40"
     d="m 250.01874,233.6324 26.14527,35.98604 42.30407,-13.74551 -26.14529,-35.98606 z"
     style="display:inline;fill:none;stroke:#000000;stroke-width:1.03975927;stroke-linejoin:bevel;stroke-dasharray:none;stroke-opacity:1"
     inkscape:transform-center-x="-144.37555"
     inkscape:transform-center-y="46.944332" /></g><g
   id="use17"
   inkscape:transform-center-y="40.932518"
   inkscape:transform-center-x="-0.059516904"
   transform="rotate(72,140.17222,198.18364)"
   style="stroke:#000000;stroke-opacity:1;stroke-width:1.03975927;stroke-dasharray:none"><path
     fill="#ffffff"
     d="M 35.767379,499.38174 C 79.927489,467.15018 89.661669,405.25399 57.526529,361.02376 25.391383,316.79352 -36.483417,306.9243 -80.783679,338.96296"
     id="path35"
     style="display:inline;fill:none;stroke:#000000;stroke-width:0.52118725;stroke-dasharray:none;stroke-opacity:1"
     sodipodi:nodetypes="csc"
     transform="matrix(1.1726214,1.6139743,1.6139743,-1.1726213,-509.90813,726.39421)" /><path
     fill="#ffffff"
     d="m -116.82501,388.51687 c 17.007729,-51.95898 72.866548,-80.34382 124.862384,-63.44934 51.995845,16.89447 80.502385,72.69128 63.721195,124.72387 -3.40272,10.45907 -9.95294,19.01462 -18.26072,24.95876 m 18.158221,-55.5298 c 3.124333,9.57641 3.367837,20.18991 0.05004,30.51013"
     id="path36"
     style="display:inline;fill:none;stroke:#000000;stroke-width:0.521187;stroke-dasharray:none;stroke-opacity:1"
     sodipodi:nodetypes="cscccc"
     transform="matrix(1.1726214,1.6139743,1.6139743,-1.1726213,-509.90813,726.39421)" /><path
     id="path37"
     d="m 24.411377,453.51135 22.296502,-5e-5 6.88997,21.20526 -22.296514,5e-5 z"
     style="display:inline;fill:none;stroke:#000000;stroke-width:0.52118725;stroke-linejoin:bevel;stroke-dasharray:none;stroke-opacity:1"
     inkscape:transform-center-x="-144.37555"
     inkscape:transform-center-y="46.944332"
     transform="matrix(1.1726214,1.6139743,1.6139743,-1.1726213,-509.90813,726.39421)" /></g><g
   id="use18"
   inkscape:transform-center-y="40.932518"
   inkscape:transform-center-x="-0.059516904"
   transform="rotate(36,140.17222,198.18364)"
   style="stroke:#000000;stroke-opacity:1;stroke-width:1.03975927;stroke-dasharray:none"><path
     fill="#ffffff"
     d="M 35.767379,499.38174 C 79.927489,467.15018 89.661669,405.25399 57.526529,361.02376 25.391383,316.79352 -36.483417,306.9243 -80.783679,338.96296"
     id="path32"
     style="display:inline;fill:none;stroke:#000000;stroke-width:0.52118725;stroke-dasharray:none;stroke-opacity:1"
     sodipodi:nodetypes="csc"
     transform="matrix(1.1726214,1.6139743,1.6139743,-1.1726213,-509.90813,726.39421)" /><path
     fill="#ffffff"
     d="m -116.82501,388.51687 c 17.007729,-51.95898 72.866548,-80.34382 124.862384,-63.44934 51.995845,16.89447 80.502385,72.69128 63.721195,124.72387 -3.40272,10.45907 -9.95294,19.01462 -18.26072,24.95876 m 18.158221,-55.5298 c 3.124333,9.57641 3.367837,20.18991 0.05004,30.51013"
     id="path33"
     style="display:inline;fill:none;stroke:#000000;stroke-width:0.521187;stroke-dasharray:none;stroke-opacity:1"
     sodipodi:nodetypes="cscccc"
     transform="matrix(1.1726214,1.6139743,1.6139743,-1.1726213,-509.90813,726.39421)" /><path
     id="path34"
     d="m 250.20093,233.7515 26.14528,35.98604 42.30407,-13.74551 -26.14529,-35.98605 z"
     style="display:inline;fill:none;stroke:#000000;stroke-width:1.03975927;stroke-linejoin:bevel;stroke-dasharray:none;stroke-opacity:1"
     inkscape:transform-center-x="-144.37555"
     inkscape:transform-center-y="46.944332" /></g><g
   id="g66"
   style="stroke:#000000;stroke-opacity:1;stroke-width:1.03975927;stroke-dasharray:none" /><path
   id="use2-0"
   d="m 140.23564,358.82346 -26.20203,-8.51355 26.20203,-8.51357 26.20204,8.51357 z"
   style="fill:none;stroke:#0000ff;stroke-width:1.03567;stroke-linejoin:bevel;stroke-dasharray:none"
   inkscape:transform-center-x="-0.064612586"
   inkscape:transform-center-y="152.10002" /><path
   id="path4"
   d="m 45.817007,328.18697 -16.193748,-22.28877 26.202038,8.51354 16.193745,22.2888 z"
   style="fill:none;stroke:#0000ff;stroke-width:1.03567;stroke-linejoin:bevel;stroke-dasharray:none"
   inkscape:transform-center-x="89.349882"
   inkscape:transform-center-y="123.08949" /><path
   id="path5"
   d="m -12.561594,247.90365 -7e-6,-27.55044 16.1937605,22.28877 -1.3e-5,27.55046 z"
   style="fill:none;stroke:#0000ff;stroke-width:1.03567;stroke-linejoin:bevel;stroke-dasharray:none"
   inkscape:transform-center-x="144.63575"
   inkscape:transform-center-y="47.062945" /><path
   id="path6"
   d="m -12.601524,148.639 16.193737,-22.28878 1.71e-5,27.55045 -16.1937641,22.28878 z"
   style="fill:none;stroke:#0000ff;stroke-width:1.03567;stroke-linejoin:bevel;stroke-dasharray:none"
   inkscape:transform-center-x="144.67568"
   inkscape:transform-center-y="-46.940045" /><path
   id="path7"
   d="M 45.712469,68.308743 71.914494,59.795181 55.72076,82.083973 29.518713,90.597519 Z"
   style="fill:none;stroke:#0000ff;stroke-width:1.03567;stroke-linejoin:bevel;stroke-dasharray:none"
   inkscape:transform-center-x="89.454425"
   inkscape:transform-center-y="-123.01353" /><path
   id="path8"
   d="m 140.10642,37.596304 26.20203,8.513548 -26.20203,8.513573 -26.20204,-8.513573 z"
   style="fill:none;stroke:#0000ff;stroke-width:1.03567;stroke-linejoin:bevel;stroke-dasharray:none"
   inkscape:transform-center-x="0.0646135"
   inkscape:transform-center-y="-152.10002" /><path
   id="path9"
   d="M 234.52505,68.232792 250.7188,90.521564 224.51676,82.008023 208.32302,59.719225 Z"
   style="fill:none;stroke:#0000ff;stroke-width:1.03567;stroke-linejoin:bevel;stroke-dasharray:none"
   inkscape:transform-center-x="-89.349882"
   inkscape:transform-center-y="-123.08949" /><path
   id="path10"
   d="m 292.90365,148.51611 10e-6,27.55044 -16.19376,-22.28877 10e-6,-27.55046 z"
   style="fill:none;stroke:#0000ff;stroke-width:1.03567;stroke-linejoin:bevel;stroke-dasharray:none"
   inkscape:transform-center-x="-144.63575"
   inkscape:transform-center-y="-47.062949" /><path
   id="path11"
   d="m 292.94358,247.78076 -16.19373,22.28878 -2e-5,-27.55045 16.19376,-22.28878 z"
   style="fill:none;stroke:#0000ff;stroke-width:1.03567;stroke-linejoin:bevel;stroke-dasharray:none"
   inkscape:transform-center-x="-144.67568"
   inkscape:transform-center-y="46.940041" /><path
   id="path12"
   d="m 234.62959,328.11102 -26.20202,8.51356 16.19373,-22.28879 26.20205,-8.51355 z"
   style="fill:none;stroke:#0000ff;stroke-width:1.03567;stroke-linejoin:bevel;stroke-dasharray:none"
   inkscape:transform-center-x="-89.45443"
   inkscape:transform-center-y="123.01353" /></svg>
