<?xml version="1.0" encoding="UTF-8" standalone="no"?>
<!-- Created with Inkscape (http://www.inkscape.org/) -->

<svg
   width="185.26907mm"
   height="46.659119mm"
   version="1.1"
   viewBox="0 0 185.26907 46.659118"
   id="svg1"
   sodipodi:docname="deirenism.svg"
   inkscape:version="1.4 (e7c3feb1, 2024-10-09)"
   inkscape:export-filename="deirenism.png"
   inkscape:export-xdpi="300"
   inkscape:export-ydpi="300"
   xmlns:inkscape="http://www.inkscape.org/namespaces/inkscape"
   xmlns:sodipodi="http://sodipodi.sourceforge.net/DTD/sodipodi-0.dtd"
   xmlns="http://www.w3.org/2000/svg"
   xmlns:svg="http://www.w3.org/2000/svg"
   xmlns:rdf="http://www.w3.org/1999/02/22-rdf-syntax-ns#"
   xmlns:cc="http://creativecommons.org/ns#"
   xmlns:dc="http://purl.org/dc/elements/1.1/">
  <defs
     id="defs1" />
  <sodipodi:namedview
     id="namedview1"
     pagecolor="#ffffff"
     bordercolor="#000000"
     borderopacity="0.25"
     inkscape:showpageshadow="2"
     inkscape:pageopacity="0.0"
     inkscape:pagecheckerboard="0"
     inkscape:deskcolor="#d1d1d1"
     inkscape:document-units="mm"
     inkscape:zoom="0.84411861"
     inkscape:cx="418.78001"
     inkscape:cy="103.65842"
     inkscape:window-width="1472"
     inkscape:window-height="896"
     inkscape:window-x="0"
     inkscape:window-y="32"
     inkscape:window-maximized="0"
     inkscape:current-layer="svg1" />
  <metadata
     id="metadata1">
    <rdf:RDF>
      <cc:Work
         rdf:about="">
        <dc:format>image/svg+xml</dc:format>
        <dc:type
           rdf:resource="http://purl.org/dc/dcmitype/StillImage" />
      </cc:Work>
    </rdf:RDF>
  </metadata>
  <g
     id="g8"
     inkscape:label="Deirenism"
     transform="translate(15.63444,183.71773)">
    <path
       d="m 143.51286,-140.61314 c -0.20444,-0.24633 -0.21046,-0.41094 -0.0193,-0.52905 0.50816,-0.31406 0.28613,-1.1097 -0.39647,-1.4207 -1.3182,-0.60059 -3.3951,-0.15572 -3.7022,0.79298 -0.16106,0.49758 -0.83819,0.8311 -1.2148,0.59835 -0.13831,-0.0855 -0.17185,-0.40628 -0.0745,-0.71288 0.2096,-0.66039 2.3294,-2.7508 3.0078,-2.9662 0.67615,-0.21459 0.81823,-1.3356 0.97299,-7.6766 0.11138,-4.5638 0.068,-5.6468 -0.24308,-6.0634 -0.61764,-0.82713 -1.8115,-0.64246 -3.1995,0.4949 -0.94708,0.77606 -1.2228,0.89908 -1.2228,0.54555 0,-0.46682 3.124,-4.3698 3.4977,-4.3698 0.11356,0 0.20751,-0.14882 0.20877,-0.33073 0.004,-0.53201 1.8368,-2.3151 2.38,-2.3151 0.81014,0 0.85125,0.45346 0.10392,1.1464 -0.62293,0.57762 -0.69986,1.4702 -0.0945,1.096 0.41339,-0.25549 1.7672,0.6202 1.9366,1.2527 0.0893,0.33325 0.17094,1.3798 0.18148,2.3257 0.0162,1.4547 0.0678,1.6384 0.33435,1.1916 0.17334,-0.29048 0.95004,-1.1834 1.726,-1.9844 0.77596,-0.801 1.7201,-1.8432 2.0981,-2.3161 0.378,-0.4729 0.82623,-0.8599 0.99608,-0.8599 0.16984,0 0.58337,-0.23812 0.91894,-0.52916 0.64041,-0.55542 1.4541,-0.69455 1.7033,-0.29124 0.0809,0.13086 -0.25854,0.59404 -0.75426,1.0293 -0.91969,0.80749 -0.86948,1.3786 0.12119,1.3786 0.74042,0 1.3758,0.98118 1.4851,2.2933 0.0572,0.68642 0.14588,1.2899 0.19711,1.3412 0.0512,0.0512 0.73279,-0.59324 1.5146,-1.4321 2.6709,-2.866 5.5118,-5.4344 6.1836,-5.5904 0.60823,-0.14124 0.7744,0.53958 0.24094,0.98715 -1.056,0.88599 -1.1987,1.2202 -0.82678,1.9371 0.72827,1.4037 1.893,2.5877 2.789,2.8351 1.0608,0.29291 1.4772,0.12133 2.5039,-1.0318 0.76651,-0.8609 1.2465,-0.86931 1.2465,-0.0218 0,0.65515 -1.8196,2.4655 -3.0873,3.0717 l -1.0137,0.48474 -0.0909,4.6839 c -0.088,4.5333 -0.0715,4.7102 0.51277,5.5005 0.33205,0.44911 0.7589,0.81657 0.94855,0.81657 0.53093,0 2.8026,-1.8195 3.3624,-2.6931 0.34428,-0.53731 0.58453,-0.69437 0.77334,-0.50556 0.53309,0.53309 -0.75158,2.4086 -3.9886,5.8229 -1.1986,1.2643 -1.457,1.4246 -1.8521,1.1496 -0.25252,-0.17578 -0.83526,-0.50992 -1.295,-0.74253 -0.45972,-0.23261 -1.052,-0.6618 -1.3162,-0.95376 -0.50972,-0.56323 -0.57231,-1.5905 -0.61022,-10.015 l -0.0161,-3.5719 -2.6079,-2.2459 -0.74642,0.76226 c -0.41053,0.41924 -0.86549,0.94083 -1.011,1.1591 -0.14552,0.21825 -0.58108,0.79728 -0.96791,1.2867 -0.69176,0.87528 -0.70488,0.96713 -0.79702,5.5823 l -0.0937,4.6924 0.67008,0.23359 c 0.5872,0.2047 0.78457,0.0988 1.5959,-0.85593 0.5092,-0.59924 1.2651,-1.7741 1.6798,-2.6109 0.73809,-1.4892 1.2201,-1.9286 1.2201,-1.1122 0,0.7017 -1.8961,4.2828 -2.9679,5.6053 -0.5623,0.69384 -1.345,1.6603 -1.7392,2.1477 -0.61921,0.76548 -1.8327,1.6273 -2.2912,1.6273 -0.29878,0 -0.13235,-1.019 0.1853,-1.1346 0.24895,-0.0906 0.25864,-0.24323 0.0392,-0.61736 -0.38965,-0.66432 -2.1936,-0.79446 -3.2732,-0.23613 -0.80663,0.41713 -1.33,0.35427 -1.33,-0.15975 0,-0.54674 1.6836,-2.3319 2.4519,-2.5997 l 0.79917,-0.2786 -0.21122,-1.9187 c -0.11617,-1.0553 -0.20191,-2.2462 -0.19054,-2.6463 0.18154,-6.3892 0.006,-7.8637 -1.001,-8.4026 -0.78182,-0.41841 -1.1701,-0.31704 -2.2197,0.57954 -1.8145,1.5499 -2.2583,2.6587 -2.4269,6.063 -0.0822,1.6592 -0.2369,3.7454 -0.34387,4.6359 l -0.19448,1.6191 0.90723,0.32806 c 0.98167,0.35497 0.89594,0.40732 1.8325,-1.1189 0.43062,-0.70175 1.1262,-0.99491 1.1262,-0.47466 0,0.4434 -1.5126,2.8375 -2.7612,4.3706 -0.66413,0.81537 -1.2075,1.5842 -1.2075,1.7085 0,0.40997 -0.74934,0.52262 -1.0518,0.15813 z"
       id="path2"
       sodipodi:nodetypes="ccsssccssssscssccscsssscsssccsscsssscssssscsscsccsscscsscsscsssssccssscsscssscscc"
       inkscape:label="m" />
    <path
       d="m 127.46099,-137.2476 c 0.0562,-0.10914 0.31467,-0.67469 0.57442,-1.2568 0.25974,-0.58209 0.96535,-1.5669 1.568,-2.1884 l 1.0958,-1.1301 -0.73404,-0.63075 c -0.85113,-0.73135 -3.5893,-1.3046 -4.9712,-1.0406 -1.0221,0.19519 -2.7648,1.0133 -3.0126,1.4143 -0.20683,0.33465 -0.92837,0.35457 -0.92837,0.0256 0,-0.4759 2.9927,-3.6954 3.6729,-3.9513 0.38097,-0.1433 1.6457,-0.32385 2.8105,-0.40121 2.1868,-0.14526 3.2268,0.13748 4.8275,1.3124 0.35677,0.26187 0.59532,0.31801 0.59532,0.14011 0,-0.16327 0.16446,-0.29686 0.36546,-0.29686 0.46358,0 1.5739,-1.4591 1.9538,-2.5676 0.38476,-1.1225 -0.0114,-2.5353 -0.90887,-3.2412 -0.80888,-0.63627 -2.1352,-0.68582 -3.6594,-0.1367 -1.4717,0.53019 -2.0762,0.5042 -1.9227,-0.0827 0.11332,-0.43337 -0.008,-0.45232 -1.4905,-0.23197 -2.703,0.40187 -4.1274,-0.53704 -4.1274,-2.7205 0,-0.40927 0.1786,-0.89235 0.39688,-1.0735 0.21828,-0.18116 0.39687,-0.50134 0.39687,-0.71151 0,-0.78954 1.4043,-2.1762 3.1196,-3.0804 0.97639,-0.51469 2.3702,-1.3604 3.0973,-1.8792 0.72713,-0.51888 1.5022,-0.94343 1.7223,-0.94343 0.22011,0 0.55441,-0.24691 0.74287,-0.5487 0.38211,-0.61184 2.0495,-1.4065 2.4421,-1.1639 0.47009,0.29053 0.25361,0.78427 -0.54247,1.2373 -0.67151,0.3821 -0.79208,0.61099 -0.79208,1.5035 0,0.83506 0.11419,1.0891 0.55215,1.2281 0.65985,0.20943 2.3583,-0.0699 2.3583,-0.38785 0,-0.43145 0.81285,-0.53896 0.97044,-0.12836 0.18502,0.48218 -1.0004,1.8166 -2.1611,2.4327 -0.43657,0.23174 -1.5409,0.56436 -2.4541,0.73916 -1.4841,0.28407 -1.6947,0.27009 -1.9844,-0.13167 -0.17822,-0.24721 -0.53239,-0.5272 -0.78705,-0.62219 -0.25467,-0.095 -0.46302,-0.41457 -0.46302,-0.71018 0,-0.64824 -0.0601,-0.65404 -1.1376,-0.10965 -2.8988,1.4646 -2.7187,3.9466 0.32165,4.4327 0.89842,0.14366 1.1524,0.0706 1.7169,-0.49389 0.36436,-0.36437 0.77994,-0.66249 0.92348,-0.66249 0.51022,0 0.59629,0.5618 0.18275,1.193 -0.61167,0.93353 -0.53552,0.9756 0.64865,0.35837 1.5019,-0.78285 3.5022,-0.60353 4.8654,0.43617 1.148,0.87562 1.475,1.5687 1.4736,3.123 -0.003,1.8528 -1.9041,4.2907 -4.1325,5.2956 -0.72753,0.32807 -1.2507,0.8418 -1.7436,1.7121 -0.3873,0.68385 -1.4856,2.0768 -2.4406,3.0954 -0.95504,1.0186 -1.7365,1.9967 -1.7365,2.1735 -5e-5,0.17678 -0.23037,0.44467 -0.51186,0.59532 -0.60325,0.32285 -0.89551,0.35213 -0.75309,0.0755 z"
       id="path8"
       sodipodi:nodetypes="ssscscsssssssccsscsssscssccssscssssssssscsccssccsss"
       style="display:inline"
       inkscape:label="s" />
    <path
       d="m 95.75588,-141.37374 c 0,-0.74831 -0.76073,-1.4962 -1.5219,-1.4962 -0.30479,0 -0.91806,0.30619 -1.3628,0.68042 -0.84031,0.70708 -1.348596,0.66871 -1.348596,-0.1018 0,-0.53288 1.812896,-2.8762 2.381196,-3.078 0.33634,-0.11942 0.39688,-1.0209 0.39688,-5.91 0,-5.0392 -0.0583,-5.8581 -0.46102,-6.4727 -0.65029,-0.99251 -2.078796,-1.2356 -2.879096,-0.49003 -0.32788,0.30548 -0.8341,0.55541 -1.1249,0.55541 -0.49222,0 -0.48183,-0.0503 0.15026,-0.72761 0.37348,-0.40018 0.98246,-1.2038 1.3533,-1.7859 0.896176,-1.4067 1.693296,-2.2709 2.908296,-3.1532 1.6422,-1.1925 2.5196,-0.30013 0.97924,0.99596 -0.97453,0.82001 -0.98836,0.96664 -0.0911,0.96664 1.156,0 2.4429,1.1778 2.6411,2.4173 l 0.17096,1.0691 0.61439,-0.75099 c 0.33791,-0.41305 0.61888,-0.87006 0.62438,-1.0156 0.005,-0.14552 0.54259,-0.60106 1.1936,-1.0123 0.65096,-0.41125 1.4603,-1.0661 1.7985,-1.4552 0.67648,-0.77832 2.7045,-1.9 3.4331,-1.8988 0.67977,0.001 0.56414,0.67654 -0.22162,1.2946 -0.57091,0.44908 -0.65475,0.67462 -0.50471,1.3578 0.26727,1.2169 1.7942,2.6392 2.7074,2.5218 0.98724,-0.1269 2.21611,-0.68097 2.79181,-1.2588 0.51918,-0.52109 1.2465,-0.63624 1.2465,-0.19735 0,0.42545 -0.78036,1.839 -1.0152,1.839 -0.11435,0 -0.44991,0.22546 -0.7457,0.50104 -0.74804,0.69689 -2.07441,1.351 -2.73951,1.351 -0.30686,0 -0.5014,0.0915 -0.43233,0.20321 0.0691,0.11177 0.017,1.1536 -0.11578,2.3151 -0.40744,3.5649 -0.35012,6.7145 0.13191,7.2472 0.23027,0.25445 0.41868,0.59982 0.41868,0.76749 0,0.33205 1.2144,0.73478 1.8521,0.61421 0.40293,-0.0762 3.32011,-3.022 3.87521,-3.9133 0.22987,-0.36906 0.3802,-0.41356 0.62076,-0.18373 0.24598,0.23499 0.20873,0.53279 -0.16547,1.3229 -0.62174,1.3128 -0.97339,1.7619 -2.7646,3.5303 -3.04011,3.0014 -4.47631,3.9986 -4.47631,3.108 0,-0.18393 -0.46196,-0.61993 -1.0266,-0.96889 -1.5966,-0.98672 -1.8054,-1.565 -1.9924,-5.5176 -0.0914,-1.9325 -0.0612,-3.7184 0.0672,-3.9688 0.12841,-0.25033 0.30847,-1.4772 0.40015,-2.7265 0.16407,-2.2359 0.15618,-2.277 -0.50469,-2.6307 -0.36925,-0.19762 -0.92614,-0.81261 -1.2375,-1.3666 -0.31138,-0.55404 -0.63353,-1.0007 -0.71587,-0.99258 -0.15765,0.0156 -2.1248,2.3681 -3.111,3.7205 -0.54364,0.74553 -0.58108,1.0908 -0.59745,5.5097 l -0.0175,4.7143 0.65428,0.4287 c 0.85235,0.55849 0.80398,0.57489 1.4666,-0.49733 0.64091,-1.037 1.0583,-1.1925 1.0583,-0.39417 0,0.55259 -1.5618,3.0049 -2.3606,3.7065 -0.25167,0.22107 -0.67063,0.72708 -0.93102,1.1245 -0.5983,0.91312 -1.4709,0.97369 -1.4709,0.10209 z m 21.42651,-0.43839 c -0.3638,-0.28457 -0.79584,-0.52005 -0.96009,-0.52329 -0.87983,-0.0173 -1.177,-3.9694 -0.82016,-10.909 0.19886,-3.8673 0.19639,-3.8933 -0.39889,-4.2104 -0.32944,-0.1755 -0.72914,-0.49559 -0.88823,-0.71132 -0.24988,-0.33885 -0.40035,-0.31011 -1.1054,0.21114 -0.83346,0.6162 -1.6481,0.5778 -1.6481,-0.0777 0,-0.19902 0.60132,-0.82783 1.3363,-1.3974 0.73494,-0.56953 1.7767,-1.494 2.3151,-2.0544 1.5297,-1.5923 3.2278,-2.2832 3.2278,-1.3132 0,0.24528 -0.24149,0.70302 -0.53665,1.0172 -0.65558,0.69783 -0.51308,1.1346 0.62331,1.9103 1.0052,0.68619 1.6845,0.73972 2.4113,0.19003 0.65772,-0.49748 1.1092,-0.49357 1.303,0.0113 0.16189,0.4219 -1.729,2.5648 -2.5092,2.8435 -0.64044,0.22879 -0.78486,1.2083 -0.91335,6.1942 -0.13607,5.2803 -7.9e-4,5.9103 1.2687,5.9044 0.47655,-0.002 0.99181,-0.0915 1.145,-0.19844 0.35968,-0.25099 1.7516,-2.1029 1.7257,-2.2959 -0.0683,-0.50722 0.0261,-0.67659 0.37702,-0.67659 1.1214,0 -0.0329,2.273 -2.3831,4.6927 -1.986,2.0448 -2.4867,2.2401 -3.57,1.3927 z m -3.81736,-23.25334 c -0.16106,-0.26061 0.15349,-0.53442 1.2382,-1.0778 0.84033,-0.42096 0.95034,-0.80424 0.23083,-0.80424 -0.66901,0 -1.0851,-0.55406 -1.2695,-1.6905 -0.13534,-0.83403 -0.0507,-1.0294 0.72641,-1.6772 0.48378,-0.40332 1.2016,-1.0607 1.5951,-1.4609 1.0427,-1.0604 1.3966,-0.95173 1.2188,0.37404 -0.12699,0.94675 -0.0575,1.1726 0.49433,1.6067 0.99868,0.78557 0.8388,1.7331 -0.53845,3.1911 -1.1682,1.2367 -2.0927,1.7735 -3.0544,1.7735 -0.27298,0 -0.56157,-0.10557 -0.64132,-0.23461 z"
       id="path3"
       sodipodi:nodetypes="cssssscsssssssscscsscssssssssscsssssssssscssscsscscsssccccsssssscsssscsscccsccccssssssssscc"
       inkscape:label="ni" />
    <path
       d="m 83.276446,-141.54513 c -0.3638,-0.1213 -0.98743,-0.2924 -1.3858,-0.38022 -1.0996,-0.24237 -1.6797,-1.6666 -2.0379,-5.0032 -0.38744,-3.6095 -0.42522,-9.0943 -0.0686,-9.9647 0.3574,-0.87237 3.3099,-3.8707 4.9047,-4.9808 0.98845,-0.68803 1.3436,-0.81352 1.6298,-0.57596 0.20129,0.16706 0.30937,0.45128 0.24017,0.63161 -0.0692,0.18033 0.18605,0.49478 0.56722,0.69877 0.97984,0.5244 1.6984,1.6381 1.7271,2.6768 0.0594,2.1537 -1.1557,5.6372 -2.0829,5.9711 -0.24809,0.0893 -0.62966,0.32129 -0.84794,0.51549 -0.21828,0.19419 -0.93266,0.74975 -1.5875,1.2346 l -1.1906,0.8815 0.0498,2.0511 c 0.0638,2.6281 0.47147,3.3312 1.9318,3.3312 0.9424,0 1.2189,-0.17913 2.859,-1.8521 0.99865,-1.0186 1.9552,-1.8521 2.1256,-1.8521 1.2412,0 -1.2586,3.2681 -4.5031,5.887 -1.3148,1.0613 -1.3262,1.0648 -2.3308,0.72985 z m 1.2566,-11.046 c 0.86815,-1.0044 0.92092,-1.2265 0.95143,-4.0042 0.0141,-1.2863 -0.0684,-1.4972 -0.86463,-2.2086 -0.85786,-0.7665 -0.89274,-0.77399 -1.3719,-0.29483 -0.53534,0.53533 -0.65424,1.9255 -0.53945,6.3068 0.0604,2.3051 0.0768,2.3623 0.51362,1.7883 0.24818,-0.32611 0.8381,-1.0405 1.3109,-1.5875 z"
       id="path7"
       sodipodi:nodetypes="cscssssscssscsssssccssssssss"
       inkscape:label="e" />
    <path
       d="m 68.80118,-138.5129 c 0,-0.0774 0.1706,-0.54913 0.37914,-1.0482 0.65265,-1.562 0.78576,-3.1557 0.29742,-3.561 -0.36666,-0.30432 -0.57721,-0.23292 -1.5,0.50867 -1.3142,1.0561 -1.9492,0.77158 -1.0612,-0.47553 0.30895,-0.43386 0.56171,-0.91064 0.56171,-1.0595 0,-0.14887 0.30176,-0.50803 0.67056,-0.79813 l 0.67053,-0.52746 -0.0449,-5.7756 c -0.0463,-5.9515 -0.23254,-7.5998 -0.88702,-7.8509 -0.35462,-0.13609 -1.2556,0.0531 -2.3274,0.48859 -0.28821,0.11712 -0.46302,0.0683 -0.46302,-0.12924 0,-0.545 1.9559,-2.8992 2.5446,-3.0628 0.30813,-0.0856 0.81772,-0.50398 1.1324,-0.9296 0.3147,-0.42563 0.80672,-0.77387 1.0934,-0.77387 0.62587,0 0.67252,0.45266 0.1106,1.0736 -0.37706,0.41664 -0.33592,0.49994 0.50292,1.0184 1.0766,0.66537 1.2306,0.9904 1.2306,2.5963 v 1.2054 l 0.72761,-0.92035 c 0.40018,-0.50619 1.1277,-1.5092 1.6166,-2.229 0.96486,-1.4202 2.5105,-2.6024 3.1046,-2.3744 0.5067,0.19444 0.46762,0.49727 -0.15719,1.2177 -0.63791,0.73552 -0.65082,0.8989 -0.1134,1.4363 0.55338,0.55338 1.1388,0.52174 2.0978,-0.11339 0.79878,-0.52901 1.9844,-0.71556 1.9844,-0.31224 0,0.11931 -0.35719,0.61701 -0.79375,1.106 -0.43656,0.48899 -0.79375,0.98319 -0.79375,1.0982 0,0.11504 -0.63656,0.51032 -1.4146,0.87838 -1.7685,0.83663 -3.4714,0.89814 -3.8771,0.14005 -0.42074,-0.78614 -0.61214,-0.66728 -1.3848,0.85989 -0.81563,1.6122 -1.0512,3.3864 -1.0512,7.917 0,2.3996 0.0893,3.2531 0.35811,3.4233 0.53938,0.34142 0.80272,0.16593 1.3587,-0.90541 0.61275,-1.1808 1.3476,-1.349 1.0846,-0.24838 -0.0956,0.40018 -0.30623,0.90465 -0.46808,1.121 -0.16182,0.21638 -0.37756,0.51404 -0.4794,0.66146 -0.10184,0.14742 -0.58761,0.74428 -1.0795,1.3264 -0.49188,0.58209 -1.1015,1.5941 -1.3547,2.249 -0.58479,1.5124 -1.5168,2.9063 -1.9447,2.9086 -0.18191,0.001 -0.33073,-0.0615 -0.33073,-0.13898 z"
       id="path5"
       sodipodi:nodetypes="ccssssscsssssssssscscssssssssscscsscsscscc"
       inkscape:label="r" />
    <path
       d="m 59.64087,-141.81213 c -0.3638,-0.28457 -0.79584,-0.52005 -0.96009,-0.52329 -0.87983,-0.0173 -1.177,-3.9694 -0.82016,-10.909 0.19886,-3.8673 0.19639,-3.8933 -0.39889,-4.2104 -0.32944,-0.1755 -0.72914,-0.49559 -0.88823,-0.71132 -0.24988,-0.33885 -0.40035,-0.31011 -1.1054,0.21114 -0.83346,0.6162 -1.6481,0.5778 -1.6481,-0.0777 0,-0.19902 0.60132,-0.82783 1.3363,-1.3974 0.73494,-0.56953 1.7767,-1.494 2.3151,-2.0544 1.5297,-1.5923 3.2278,-2.2832 3.2278,-1.3132 0,0.24528 -0.24149,0.70302 -0.53665,1.0172 -0.65558,0.69783 -0.51308,1.1346 0.62331,1.9103 1.0052,0.68619 1.6845,0.73972 2.4113,0.19003 0.65772,-0.49748 1.1092,-0.49357 1.303,0.0113 0.16189,0.4219 -1.729,2.5648 -2.5092,2.8435 -0.64044,0.22879 -0.78486,1.2083 -0.91335,6.1942 -0.13607,5.2803 -7.9e-4,5.9103 1.2687,5.9044 0.47655,-0.002 0.99181,-0.0915 1.145,-0.19844 0.35968,-0.25099 1.7516,-2.1029 1.7257,-2.2959 -0.0683,-0.50722 0.0261,-0.67659 0.37702,-0.67659 1.1214,0 -0.0329,2.273 -2.3831,4.6927 -1.986,2.0448 -2.4867,2.2401 -3.57,1.3927 z m -3.81736,-23.25334 c -0.16106,-0.26061 0.15349,-0.53442 1.2382,-1.0778 0.84033,-0.42096 0.95034,-0.80424 0.23083,-0.80424 -0.66901,0 -1.0851,-0.55406 -1.2695,-1.6905 -0.13534,-0.83403 -0.0507,-1.0294 0.72641,-1.6772 0.48378,-0.40332 1.2016,-1.0607 1.5951,-1.4609 1.0427,-1.0604 1.3966,-0.95173 1.2188,0.37404 -0.12699,0.94675 -0.0575,1.1726 0.49433,1.6067 0.99868,0.78557 0.8388,1.7331 -0.53845,3.1911 -1.1682,1.2367 -2.0927,1.7735 -3.0544,1.7735 -0.27298,0 -0.56157,-0.10557 -0.64132,-0.23461 z"
       id="path6"
       sodipodi:nodetypes="ccsssssscsssscsscccsccccssssssssscc"
       inkscape:label="i" />
    <path
       d="m 47.06622,-141.37274 c -0.0926,-0.24139 -0.38518,-0.43889 -0.65008,-0.43889 -0.79897,0 -1.5301,-1.224 -1.707,-2.8579 -0.0898,-0.82924 -0.41011,-2.8053 -0.71176,-4.3912 -0.90022,-4.7327 -0.44884,-6.8335 1.9534,-9.0915 0.88877,-0.83537 1.9246,-1.8252 2.302,-2.1996 0.37733,-0.37444 0.98473,-0.87531 1.3498,-1.113 0.6464,-0.42098 0.69294,-0.40518 1.7898,0.60762 1.4106,1.3026 1.7352,2.1327 1.5184,3.8845 -0.16729,1.3526 -0.47341,1.9044 -2.105,3.7947 -0.44471,0.51524 -1.073,1.2912 -1.3963,1.7244 -0.55513,0.74394 -2.1904,1.9192 -2.1904,1.5742 0,-0.0881 0.45963,-0.85211 1.0214,-1.6979 1.2275,-1.8481 1.8854,-4.585 1.3504,-5.6179 -0.45122,-0.87103 -1.0765,-1.5499 -1.4277,-1.5499 -0.16322,0 -0.62103,0.50008 -1.0174,1.1113 -0.60012,0.92553 -0.71969,1.401 -0.71535,2.8443 0.003,0.95314 0.1733,2.626 0.37875,3.7174 0.20545,1.0914 0.44127,2.3416 0.52403,2.7781 0.0828,0.43656 0.22009,1.2105 0.3051,1.7198 0.16565,0.99226 0.77716,1.8521 1.3172,1.8521 0.18238,0 0.88286,-0.53579 1.5566,-1.1906 0.67374,-0.65481 1.3396,-1.1906 1.4795,-1.1906 0.95763,0 -1.1091,2.854 -3.9102,5.3998 -0.728,0.66165 -0.87042,0.70804 -1.0152,0.33073 z"
       id="path4"
       sodipodi:nodetypes="cssssccccscsscsccssssssscc"
       inkscape:label="e" />
    <path
       d="m 30.289055,-139.53036 c 0,-0.20051 0.171,-0.77385 0.38002,-1.2741 0.71935,-1.7216 0.008,-3.3407 -2.2198,-5.0559 -1.966,-1.5133 -2.4075,-1.7518 -3.2618,-1.7627 -1.4427,-0.0184 -4.777,-1.3658 -6.2221,-2.5145 -1.5746,-1.2516 -2.6993,-3.32 -2.6993,-4.9643 0,-1.9743 1.2481,-4.7014 2.1516,-4.7014 0.41897,0 0.45207,0.46384 0.0838,1.1737 -0.49578,0.9556 -0.48959,2.1129 0.0135,2.5305 0.21828,0.18115 0.39688,0.47003 0.39688,0.64195 0,0.59737 1.7284,1.9702 3.175,2.5219 0.80036,0.30521 1.6933,0.6651 1.9844,0.79975 0.2911,0.13465 1.0054,0.36965 1.5875,0.52224 1.0131,0.26556 1.0898,0.24062 1.7933,-0.58284 0.40423,-0.47315 0.92429,-1.2174 1.1557,-1.654 0.2314,-0.43657 0.71093,-1.1814 1.0656,-1.6552 0.3547,-0.4738 0.58139,-0.96417 0.50379,-1.0897 -0.0776,-0.12553 -0.60449,-0.30238 -1.1709,-0.39295 -1.2911,-0.20646 -1.5237,-0.49758 -1.7514,-2.1922 -0.16717,-1.244 -0.0881,-1.5573 0.91797,-3.6357 0.60547,-1.2509 1.1968,-2.3337 1.3139,-2.4061 0.11716,-0.0724 0.35137,0.035 0.52047,0.23873 0.21042,0.25356 0.21987,0.4245 0.03,0.54187 -0.15258,0.0943 -0.27744,0.81792 -0.27744,1.608 0,1.9355 0.49192,2.501 2.1755,2.501 0.70099,0 1.2641,-0.12291 1.2641,-0.27591 0,-0.34069 2.3669,-2.8991 2.682,-2.8991 0.47469,0 0.19003,0.62939 -0.98123,2.1695 -1.1834,1.5561 -1.198,1.5987 -0.67175,1.9673 1.4328,1.0036 1.3628,5.1874 -0.12348,7.3776 -0.35253,0.5195 -0.64305,1.0881 -0.64556,1.2635 -0.006,0.39435 -1.1537,1.5096 -1.5541,1.5096 -0.35181,0 -0.39007,-0.43822 -0.0563,-0.64452 0.13046,-0.0806 0.50361,-0.65319 0.82923,-1.2724 1.0204,-1.9403 0.64148,-4.163 -0.84929,-4.9815 -0.37126,-0.20385 -0.66659,0.15839 -1.7958,2.2027 -0.74335,1.3457 -1.3541,2.5658 -1.3572,2.7113 -0.003,0.14552 0.22897,0.32411 0.51577,0.39687 0.90208,0.22885 4.2744,3.6488 4.4465,4.5094 0.13685,0.68419 0.6195,1.1336 0.6195,0.57678 0,-0.23297 1.5052,-1.742 2.9572,-2.9648 3.1096,-2.6186 4.2838,-8.8597 2.4985,-13.28 -1.1133,-2.7562 -3.1734,-4.702 -6.1409,-5.8003 -0.86003,-0.31829 -1.8825,-0.80199 -2.2722,-1.0749 -0.38968,-0.27288 -1.2231,-0.60698 -1.8521,-0.74243 -0.62894,-0.13545 -1.8579,-0.44337 -2.7311,-0.68426 -3.2518,-0.89717 -6.4612,-1.4302 -10.319,-1.7136 -2.1828,-0.16041 -4.683101,-0.39092 -5.556201,-0.51223 -0.8731207,-0.12132 -3.4164005,-0.23553 -5.6516005,-0.2538 -2.2353001,-0.0182 -4.25930017,-0.13277 -4.49790017,-0.25446 -0.23856992,-0.12168 -1.26719986,-0.13074 -2.28589983,-0.0201 -1.0186,0.11063 -1.9116,0.16624 -1.9844,0.12358 -0.0728,-0.0427 -1.442,-0.21638 -3.0427,-0.38605 -5.5673985,-0.59013 -6.6851985,-1.1296 -8.1613985,-3.9389 -1.108,-2.1086 -1.129,-3.1845 -0.10263,-5.2828 0.80107,-1.6378 1.0213,-1.6177 0.84076,0.0767 -0.15698,1.4731 0.0965,2.2348 1.0686,3.2111 1.3253,1.331 5.4025985,2.1951 10.5879985,2.2437 4.1465999,0.0389 18.0850015,0.98595 22.6220015,1.537 3.8781,0.47104 5.4941,0.78374 8.3344,1.6128 0.43656,0.12742 1.5676,0.37793 2.5135,0.55667 2.5293,0.47798 5.6848,2.0692 7.4083,3.7358 3.0092,2.9097 3.6358,3.8701 4.2064,6.4468 0.65275,2.9478 0.56959,4.1131 -0.5646,7.9125 -0.30411,1.0186 -0.68749,2.0307 -0.85196,2.249 -0.16449,0.21828 -0.46534,0.75406 -0.66854,1.1906 -0.65305,1.4029 -1.7169,3.0417 -1.975,3.0422 -0.30684,5.3e-4 -3.581,3.405 -4.0738,4.2359 -0.19561,0.32976 -0.58479,1.0076 -0.86487,1.5062 -0.92406,1.6452 -1.3964,2.3195 -2.1404,3.0557 -0.80481,0.79634 -1.2693,0.9292 -1.2693,0.36304 z"
       id="path9"
       sodipodi:nodetypes="cscscsssssssssssssscsssssssssscsccsscsssccsssccscssssscsscssccscsscscscc"
       inkscape:label="D" />
  </g>
</svg>
