<?xml version="1.0" encoding="UTF-8" standalone="no"?>
<svg
   viewBox="160 200 272.00021 233.99989"
   version="1.1"
   id="svg56"
   sodipodi:docname="Hand_apaumy_couped_base32.svg"
   inkscape:version="1.4.4 (dcaf3e7, 2026-05-05)"
   width="272.00021"
   height="233.99989"
   xmlns:inkscape="http://www.inkscape.org/namespaces/inkscape"
   xmlns:sodipodi="http://sodipodi.sourceforge.net/DTD/sodipodi-0.dtd"
   xmlns="http://www.w3.org/2000/svg"
   xmlns:svg="http://www.w3.org/2000/svg">
  <defs
     id="defs60">
    <rect
       x="-25.373165"
       y="-21.660019"
       width="493.84843"
       height="193.70245"
       id="rect3" />
  </defs>
  <sodipodi:namedview
     id="namedview58"
     pagecolor="#ffffff"
     bordercolor="#111111"
     borderopacity="1"
     inkscape:showpageshadow="0"
     inkscape:pageopacity="0"
     inkscape:pagecheckerboard="1"
     inkscape:deskcolor="#d1d1d1"
     showgrid="false"
     inkscape:zoom="2.0699065"
     inkscape:cx="130.44068"
     inkscape:cy="149.52366"
     inkscape:window-width="1470"
     inkscape:window-height="896"
     inkscape:window-x="0"
     inkscape:window-y="32"
     inkscape:window-maximized="1"
     inkscape:current-layer="svg56" />
  <g
     id="g214"
     transform="translate(132.0003,-11)">
    <g
       id="g213">
      <g
         id="g212">
        <g
           id="g211">
          <g
             id="g210">
            <g
               id="g209">
              <path
                 d="m 273.7585,374.6416 c 17.591,-14.4193 18.2762,-25.948 19.2705,-37.4015 1.215,-13.9952 2.8044,-18.7216 3.3902,-24.1011 0.2361,-2.1683 0.1266,-4.983 -0.2489,-8.596 -0.4152,-3.9947 3.3296,-13.4621 3.3296,-17.8571 0,-5.0998 -3.2673,-7.0255 -6.8774,-7.1074 -11.5205,-0.2611 -17.6211,9.0746 -21.3496,23.0322 -0.7929,2.9683 -1.5523,6.4724 -0.716,9.6542 -3.0923,6.4879 -1.3788,10.7517 -6.0269,18.4694 0.5448,-9.5383 -2.3254,-16.06 -1.4186,-26.736 0.4664,-5.4913 1.9898,-24.5823 1.1219,-35.6561 0.5501,-8.6509 0.859,-18.77 0.1876,-24.1745 0.1615,-15.7291 -1.7828,-23.5897 -8.6107,-24.2827 -6.8279,-0.693 -10.2913,4.437 -10.6872,9.4455 -0.3428,4.3366 -0.531,8.5953 -0.7968,12.8823 -1.6906,12.5305 -1.598,17.4189 -2.0563,27.2985 -2.662,11.4077 -2.4706,21.8364 -3.832,30.4468 l -1.6971,0.251 c 0.6304,-8.6945 1.8267,-18.8214 1.626,-28.6953 -0.201,-9.8881 -0.8813,-14.7461 -0.2537,-27.3747 -0.0967,-4.2942 -0.2684,-8.5536 -0.2926,-12.9036 -0.039,-7.0023 -0.2828,-19.7355 -10.3386,-19.7355 -9.0713,0 -10.5724,11.0666 -10.5397,16.9424 0.0258,4.6423 0.0605,9.142 0.356,13.5704 -0.6438,10.9379 -0.4866,21.0758 -0.6355,30.6612 -1.5082,10.341 -2.4648,18.6934 -2.1964,28.8544 l -1.665,0.4982 c 0.0442,-9.29 0.4913,-17.7687 0.057,-28.7076 -0.3803,-9.579 -1.4184,-19.6722 -1.5583,-30.6281 -0.6114,-4.3959 -0.9677,-8.8816 -1.3254,-13.5102 -0.3434,-4.4429 -4.0977,-9.2454 -9.3771,-8.6657 -7.8874,0.8661 -10.2498,10.016 -8.6524,25.6499 -0.1458,3.4346 -0.4101,1.3892 -0.1009,5.3898 0.4127,5.3397 -0.0275,20.9357 0.5475,25.9828 -0.2678,14.2842 0.41,20.4225 0.7793,29.5503 l -1.3544,0.4727 c -0.9736,-9.0831 -2.0312,-17.1223 -2.7109,-31.3928 -0.9083,-4.9978 -1.503,-20.5887 -2.2686,-25.8893 -0.0876,-0.6065 -0.3827,-8.2663 -8.6945,-7.1331 -6.1812,0.8427 -7.6429,10.1414 -7.6429,18.5672 0,2.9887 0.265,5.9315 0.5656,8.4769 1.0982,9.3012 2.4987,49.1895 1.794,55.9193 -1.3122,12.53 -2.3595,24.2396 -2.3595,36.5584 0,8.7248 0.82,16.7588 2.0858,21.6259 1.9335,7.4341 4.567,18.2503 8.867,24.1412 3.2822,7.7925 4.431,22.6314 4.9812,29.7496 5.4161,4.6855 20.5084,6.3161 35.2484,6.3161 13.3987,0 27.6978,-1.6533 33.6513,-6.0801 -0.4931,-14.9031 1.6419,-23.1874 0.1225,-35.6383 5.3529,-4.661 9.3926,-20.8368 18.3024,-28.14 z"
                 fill="#e5e5e5"
                 id="path12"
                 style="fill:none;stroke:#000000;stroke-linecap:round;stroke-linejoin:round" />
              <path
                 d="m 243.6138,297.8943 c 5.5992,0.0717 9.5842,0.9258 12.863,1.5117"
                 fill="none"
                 id="path14"
                 style="stroke:#000000;stroke-linecap:round;stroke-linejoin:round" />
              <path
                 d="m 246.9554,268.3261 c 5.5837,-0.2495 9.3419,0.5309 12.6501,0.9283"
                 fill="none"
                 id="path16"
                 style="stroke:#000000;stroke-linecap:round;stroke-linejoin:round" />
              <path
                 d="m 249.7106,242.9985 c 4.9651,-0.3469 7.5995,-0.0745 10.684,0.7375"
                 fill="none"
                 id="path18"
                 style="stroke:#000000;stroke-linecap:round;stroke-linejoin:round" />
              <path
                 d="m 218.4434,300.5263 c 3.1574,-0.5936 8.5112,-1.3168 13.722,-0.8306"
                 fill="none"
                 id="path20"
                 style="stroke:#000000;stroke-linecap:round;stroke-linejoin:round" />
              <path
                 d="m 222.1791,243.1323 c 3.0655,-1.1947 8.9707,-0.9322 12.3006,-0.8155"
                 fill="none"
                 id="path22"
                 style="stroke:#000000;stroke-linecap:round;stroke-linejoin:round" />
              <path
                 d="m 221.8785,270.5225 c 5.5427,-0.7199 8.3461,-0.7903 12.0809,0.2467"
                 fill="none"
                 id="path24"
                 style="stroke:#000000;stroke-linecap:round;stroke-linejoin:round" />
              <path
                 d="m 197.4305,306.004 c 4.0316,-1.871 7.9681,-3.2995 10.4829,-3.595"
                 fill="none"
                 id="path26"
                 style="stroke:#000000;stroke-linecap:round;stroke-linejoin:round" />
              <path
                 d="m 181.4528,408.4343 c 5.623,6.7392 18.6529,-0.6111 25.3338,-3.1717"
                 fill="none"
                 id="path28"
                 style="stroke:#000000;stroke-linecap:round;stroke-linejoin:round" />
              <path
                 d="m 195.7844,245.9518 c 4.0681,-0.8183 7.797,-1.1171 11.1267,-1.239"
                 fill="none"
                 id="path30"
                 style="stroke:#000000;stroke-linecap:round;stroke-linejoin:round" />
              <path
                 d="m 197.2273,275.268 c 4.0681,-1.1146 7.6505,-0.6908 10.9802,-0.8126"
                 fill="none"
                 id="path32"
                 style="stroke:#000000;stroke-linecap:round;stroke-linejoin:round" />
              <path
                 d="m 177.9643,310.9924 c 2.9915,-2.2689 6.2907,-3.5549 9.6338,-3.3902"
                 fill="none"
                 id="path38"
                 style="stroke:#000000;stroke-linecap:round;stroke-linejoin:round" />
              <path
                 d="m 174.1911,267.5747 c 5.3911,-1.4755 6.6367,-1.6051 9.9511,-1.9474"
                 fill="none"
                 id="path40"
                 style="stroke:#000000;stroke-linecap:round;stroke-linejoin:round" />
              <path
                 d="m 175.622,286.3946 c 5.3911,-1.4755 6.6368,-1.605 9.9511,-1.9473"
                 fill="none"
                 id="path42"
                 style="stroke:#000000;stroke-linecap:round;stroke-linejoin:round" />
              <path
                 d="m 219.2588,401.4415 c 4.4129,2.7365 23.6722,12.4246 36.2179,1.34"
                 fill="none"
                 id="path44"
                 style="stroke:#000000;stroke-linecap:round;stroke-linejoin:round" />
              <path
                 d="m 270.557,312.265 c 1.4778,1.0469 3.0173,1.5343 4.7451,1.7837"
                 fill="none"
                 id="path46"
                 style="stroke:#000000;stroke-linecap:round;stroke-linejoin:round" />
              <path
                 d="m 259.6984,337.2704 c 2.1257,-2.4373 3.6723,-4.6111 4.8316,-6.5361 -15.8592,-1.7972 -37.244,15.7926 -38.4218,40.1469"
                 fill="none"
                 id="path48"
                 style="stroke:#000000;stroke-linecap:round;stroke-linejoin:round" />
            </g>
          </g>
        </g>
      </g>
    </g>
  </g>
  <text
     xml:space="preserve"
     style="font-size:16px;line-height:0.9;font-family:Tahoma;-inkscape-font-specification:Tahoma;text-align:center;letter-spacing:0px;word-spacing:0px;writing-mode:lr-tb;direction:ltr;text-anchor:middle;fill:none;stroke:#ffffff;stroke-width:0.562;stroke-linecap:round;stroke-linejoin:bevel"
     x="205.28743"
     y="226.47865"
     id="text56"><tspan
       sodipodi:role="line"
       x="205.28743"
       y="226.47865"
       id="tspan56"
       style="font-style:normal;font-variant:normal;font-weight:normal;font-stretch:normal;font-size:16px;font-family:Tahoma;-inkscape-font-specification:Tahoma;fill:#000000;fill-opacity:1;stroke:none">A</tspan></text>
  <text
     xml:space="preserve"
     style="font-size:16px;line-height:0.9;font-family:Tahoma;-inkscape-font-specification:Tahoma;text-align:center;letter-spacing:0px;word-spacing:0px;writing-mode:lr-tb;direction:ltr;text-anchor:middle;fill:none;stroke:#ffffff;stroke-width:0.562;stroke-linecap:round;stroke-linejoin:bevel"
     x="205.82317"
     y="252.4323"
     id="text122"><tspan
       sodipodi:role="line"
       x="205.82317"
       y="252.4323"
       id="tspan122"
       style="font-style:normal;font-variant:normal;font-weight:normal;font-stretch:normal;font-size:16px;font-family:Tahoma;-inkscape-font-specification:Tahoma;fill:#000000;fill-opacity:1;stroke:none">Á</tspan></text>
  <text
     xml:space="preserve"
     style="font-size:16px;line-height:0.9;font-family:Tahoma;-inkscape-font-specification:Tahoma;text-align:center;letter-spacing:0px;word-spacing:0px;writing-mode:lr-tb;direction:ltr;text-anchor:middle;fill:none;stroke:#ffffff;stroke-width:0.562;stroke-linecap:round;stroke-linejoin:bevel"
     x="278.22192"
     y="289.99231"
     id="text146-31"><tspan
       sodipodi:role="line"
       x="278.22192"
       y="289.99231"
       id="tspan146-9"
       style="font-style:normal;font-variant:normal;font-weight:normal;font-stretch:normal;font-size:16px;font-family:Tahoma;-inkscape-font-specification:Tahoma;fill:#000000;fill-opacity:1;stroke:none">L</tspan></text>
  <text
     xml:space="preserve"
     style="font-size:16px;line-height:0.9;font-family:Tahoma;-inkscape-font-specification:Tahoma;text-align:center;letter-spacing:0px;word-spacing:0px;writing-mode:lr-tb;direction:ltr;text-anchor:middle;fill:none;stroke:#ffffff;stroke-width:0.562;stroke-linecap:round;stroke-linejoin:bevel"
     x="276.84631"
     y="315.12238"
     id="text146-31-0"><tspan
       sodipodi:role="line"
       x="276.84631"
       y="315.12238"
       id="tspan146-9-4"
       style="font-style:normal;font-variant:normal;font-weight:normal;font-stretch:normal;font-size:16px;font-family:Tahoma;-inkscape-font-specification:Tahoma;fill:#000000;fill-opacity:1;stroke:none">M</tspan></text>
  <text
     xml:space="preserve"
     style="font-size:16px;line-height:0.9;font-family:Tahoma;-inkscape-font-specification:Tahoma;text-align:center;letter-spacing:0px;word-spacing:0px;writing-mode:lr-tb;direction:ltr;text-anchor:middle;fill:none;stroke:#ffffff;stroke-width:0.562;stroke-linecap:round;stroke-linejoin:bevel"
     x="280.2717"
     y="270.24893"
     id="text146-1"><tspan
       sodipodi:role="line"
       x="280.2717"
       y="270.24893"
       id="tspan146-26"
       style="font-style:normal;font-variant:normal;font-weight:normal;font-stretch:normal;font-size:16px;font-family:Tahoma;-inkscape-font-specification:Tahoma;fill:#000000;fill-opacity:1;stroke:none">K</tspan></text>
  <text
     xml:space="preserve"
     style="font-size:16px;line-height:0.9;font-family:Tahoma;-inkscape-font-specification:Tahoma;text-align:center;letter-spacing:0px;word-spacing:0px;writing-mode:lr-tb;direction:ltr;text-anchor:middle;fill:none;stroke:#ffffff;stroke-width:0.562;stroke-linecap:round;stroke-linejoin:bevel"
     x="280.61493"
     y="250.14539"
     id="text146-5"><tspan
       sodipodi:role="line"
       x="280.61493"
       y="250.14539"
       id="tspan146-22"
       style="font-style:normal;font-variant:normal;font-weight:normal;font-stretch:normal;font-size:16px;font-family:Tahoma;-inkscape-font-specification:Tahoma;fill:#000000;fill-opacity:1;stroke:none">J</tspan></text>
  <text
     xml:space="preserve"
     style="font-size:16px;line-height:0.9;font-family:Tahoma;-inkscape-font-specification:Tahoma;text-align:center;letter-spacing:0px;word-spacing:0px;writing-mode:lr-tb;direction:ltr;text-anchor:middle;fill:none;stroke:#ffffff;stroke-width:0.562;stroke-linecap:round;stroke-linejoin:bevel"
     x="257.54837"
     y="282.5549"
     id="text146-6"><tspan
       sodipodi:role="line"
       x="257.54837"
       y="282.5549"
       id="tspan146-4"
       style="font-style:normal;font-variant:normal;font-weight:normal;font-stretch:normal;font-size:16px;font-family:Tahoma;-inkscape-font-specification:Tahoma;fill:#000000;fill-opacity:1;stroke:none">I</tspan></text>
  <text
     xml:space="preserve"
     style="font-size:16px;line-height:0.9;font-family:Tahoma;-inkscape-font-specification:Tahoma;text-align:center;letter-spacing:0px;word-spacing:0px;writing-mode:lr-tb;direction:ltr;text-anchor:middle;fill:none;stroke:#ffffff;stroke-width:0.562;stroke-linecap:round;stroke-linejoin:bevel"
     x="255.65234"
     y="311.47656"
     id="text146-6-1"><tspan
       sodipodi:role="line"
       x="258.15234"
       y="311.47656"
       id="tspan146-4-2"
       style="font-style:normal;font-variant:normal;font-weight:normal;font-stretch:normal;font-size:16px;font-family:Tahoma;-inkscape-font-specification:Tahoma;fill:#000000;fill-opacity:1;stroke:none">Í </tspan></text>
  <text
     xml:space="preserve"
     style="font-size:16px;line-height:0.9;font-family:Tahoma;-inkscape-font-specification:Tahoma;text-align:center;letter-spacing:0px;word-spacing:0px;writing-mode:lr-tb;direction:ltr;text-anchor:middle;fill:none;stroke:#ffffff;stroke-width:0.562;stroke-linecap:round;stroke-linejoin:bevel"
     x="257.79517"
     y="254.72519"
     id="text146-0"><tspan
       sodipodi:role="line"
       x="257.79517"
       y="254.72519"
       id="tspan146-6"
       style="font-style:normal;font-variant:normal;font-weight:normal;font-stretch:normal;font-size:16px;font-family:Tahoma;-inkscape-font-specification:Tahoma;fill:#000000;fill-opacity:1;stroke:none">H</tspan></text>
  <text
     xml:space="preserve"
     style="font-size:16px;line-height:0.9;font-family:Tahoma;-inkscape-font-specification:Tahoma;text-align:center;letter-spacing:0px;word-spacing:0px;writing-mode:lr-tb;direction:ltr;text-anchor:middle;fill:none;stroke:#ffffff;stroke-width:0.562;stroke-linecap:round;stroke-linejoin:bevel"
     x="258.84055"
     y="228.60201"
     id="text146-71"><tspan
       sodipodi:role="line"
       x="258.84055"
       y="228.60201"
       id="tspan146-2"
       style="font-style:normal;font-variant:normal;font-weight:normal;font-stretch:normal;font-size:16px;font-family:Tahoma;-inkscape-font-specification:Tahoma;fill:#000000;fill-opacity:1;stroke:none">G</tspan></text>
  <text
     xml:space="preserve"
     style="font-size:16px;line-height:0.9;font-family:Tahoma;-inkscape-font-specification:Tahoma;text-align:center;letter-spacing:0px;word-spacing:0px;writing-mode:lr-tb;direction:ltr;text-anchor:middle;fill:none;stroke:#ffffff;stroke-width:0.562;stroke-linecap:round;stroke-linejoin:bevel"
     x="233.33453"
     y="279.08752"
     id="text146-3"><tspan
       sodipodi:role="line"
       x="233.33453"
       y="279.08752"
       id="tspan146-0"
       style="font-style:normal;font-variant:normal;font-weight:normal;font-stretch:normal;font-size:16px;font-family:Tahoma;-inkscape-font-specification:Tahoma;fill:#000000;fill-opacity:1;stroke:none">É</tspan></text>
  <text
     xml:space="preserve"
     style="font-size:16px;line-height:0.9;font-family:Tahoma;-inkscape-font-specification:Tahoma;text-align:center;letter-spacing:0px;word-spacing:0px;writing-mode:lr-tb;direction:ltr;text-anchor:middle;fill:none;stroke:#ffffff;stroke-width:0.562;stroke-linecap:round;stroke-linejoin:bevel"
     x="232.25697"
     y="250.51508"
     id="text146-8"><tspan
       sodipodi:role="line"
       x="232.25697"
       y="250.51508"
       id="tspan146-7"
       style="font-style:normal;font-variant:normal;font-weight:normal;font-stretch:normal;font-size:16px;font-family:Tahoma;-inkscape-font-specification:Tahoma;fill:#000000;fill-opacity:1;stroke:none">E</tspan></text>
  <text
     xml:space="preserve"
     style="font-size:16px;line-height:0.9;font-family:Tahoma;-inkscape-font-specification:Tahoma;text-align:center;letter-spacing:0px;word-spacing:0px;writing-mode:lr-tb;direction:ltr;text-anchor:middle;fill:none;stroke:#ffffff;stroke-width:0.562;stroke-linecap:round;stroke-linejoin:bevel"
     x="233.96875"
     y="304.47656"
     id="text146-8-1"><tspan
       sodipodi:role="line"
       x="233.96875"
       y="304.47656"
       id="tspan146-7-9"
       style="font-style:normal;font-variant:normal;font-weight:normal;font-stretch:normal;font-size:16px;font-family:Tahoma;-inkscape-font-specification:Tahoma;fill:#000000;fill-opacity:1;stroke:none">F</tspan></text>
  <text
     xml:space="preserve"
     style="font-size:16px;line-height:0.9;font-family:Tahoma;-inkscape-font-specification:Tahoma;text-align:center;letter-spacing:0px;word-spacing:0px;writing-mode:lr-tb;direction:ltr;text-anchor:middle;fill:none;stroke:#ffffff;stroke-width:0.562;stroke-linecap:round;stroke-linejoin:bevel"
     x="232.26424"
     y="222.67303"
     id="text146-7"><tspan
       sodipodi:role="line"
       x="232.26424"
       y="222.67303"
       id="tspan146-5"
       style="font-style:normal;font-variant:normal;font-weight:normal;font-stretch:normal;font-size:16px;font-family:Tahoma;-inkscape-font-specification:Tahoma;fill:#000000;fill-opacity:1;stroke:none">D</tspan></text>
  <text
     xml:space="preserve"
     style="font-size:16px;line-height:0.9;font-family:Tahoma;-inkscape-font-specification:Tahoma;text-align:center;letter-spacing:0px;word-spacing:0px;writing-mode:lr-tb;direction:ltr;text-anchor:middle;fill:none;stroke:#ffffff;stroke-width:0.562;stroke-linecap:round;stroke-linejoin:bevel"
     x="208.39516"
     y="278.58917"
     id="text169"><tspan
       sodipodi:role="line"
       x="208.39516"
       y="278.58917"
       id="tspan169"
       style="font-style:normal;font-variant:normal;font-weight:normal;font-stretch:normal;font-size:16px;font-family:Tahoma;-inkscape-font-specification:Tahoma;fill:#000000;fill-opacity:1;stroke:none">B</tspan></text>
  <g
     id="g237"
     transform="matrix(-1,0,0,1,459.9999,-11)">
    <g
       id="g236">
      <g
         id="g235">
        <g
           id="g234">
          <g
             id="g233">
            <g
               id="g232">
              <path
                 d="m 273.7585,374.6416 c 17.591,-14.4193 18.2762,-25.948 19.2705,-37.4015 1.215,-13.9952 2.8044,-18.7216 3.3902,-24.1011 0.2361,-2.1683 0.1266,-4.983 -0.2489,-8.596 -0.4152,-3.9947 3.3296,-13.4621 3.3296,-17.8571 0,-5.0998 -3.2673,-7.0255 -6.8774,-7.1074 -11.5205,-0.2611 -17.6211,9.0746 -21.3496,23.0322 -0.7929,2.9683 -1.5523,6.4724 -0.716,9.6542 -3.0923,6.4879 -1.3788,10.7517 -6.0269,18.4694 0.5448,-9.5383 -2.3254,-16.06 -1.4186,-26.736 0.4664,-5.4913 1.9898,-24.5823 1.1219,-35.6561 0.5501,-8.6509 0.859,-18.77 0.1876,-24.1745 0.1615,-15.7291 -1.7828,-23.5897 -8.6107,-24.2827 -6.8279,-0.693 -10.2913,4.437 -10.6872,9.4455 -0.3428,4.3366 -0.531,8.5953 -0.7968,12.8823 -1.6906,12.5305 -1.598,17.4189 -2.0563,27.2985 -2.662,11.4077 -2.4706,21.8364 -3.832,30.4468 l -1.6971,0.251 c 0.6304,-8.6945 1.8267,-18.8214 1.626,-28.6953 -0.201,-9.8881 -0.8813,-14.7461 -0.2537,-27.3747 -0.0967,-4.2942 -0.2684,-8.5536 -0.2926,-12.9036 -0.039,-7.0023 -0.2828,-19.7355 -10.3386,-19.7355 -9.0713,0 -10.5724,11.0666 -10.5397,16.9424 0.0258,4.6423 0.0605,9.142 0.356,13.5704 -0.6438,10.9379 -0.4866,21.0758 -0.6355,30.6612 -1.5082,10.341 -2.4648,18.6934 -2.1964,28.8544 l -1.665,0.4982 c 0.0442,-9.29 0.4913,-17.7687 0.057,-28.7076 -0.3803,-9.579 -1.4184,-19.6722 -1.5583,-30.6281 -0.6114,-4.3959 -0.9677,-8.8816 -1.3254,-13.5102 -0.3434,-4.4429 -4.0977,-9.2454 -9.3771,-8.6657 -7.8874,0.8661 -10.2498,10.016 -8.6524,25.6499 -0.1458,3.4346 -0.4101,1.3892 -0.1009,5.3898 0.4127,5.3397 -0.0275,20.9357 0.5475,25.9828 -0.2678,14.2842 0.41,20.4225 0.7793,29.5503 l -1.3544,0.4727 c -0.9736,-9.0831 -2.0312,-17.1223 -2.7109,-31.3928 -0.9083,-4.9978 -1.503,-20.5887 -2.2686,-25.8893 -0.0876,-0.6065 -0.3827,-8.2663 -8.6945,-7.1331 -6.1812,0.8427 -7.6429,10.1414 -7.6429,18.5672 0,2.9887 0.265,5.9315 0.5656,8.4769 1.0982,9.3012 2.4987,49.1895 1.794,55.9193 -1.3122,12.53 -2.3595,24.2396 -2.3595,36.5584 0,8.7248 0.82,16.7588 2.0858,21.6259 1.9335,7.4341 4.567,18.2503 8.867,24.1412 3.2822,7.7925 4.431,22.6314 4.9812,29.7496 5.4161,4.6855 20.5084,6.3161 35.2484,6.3161 13.3987,0 27.6978,-1.6533 33.6513,-6.0801 -0.4931,-14.9031 1.6419,-23.1874 0.1225,-35.6383 5.3529,-4.661 9.3926,-20.8368 18.3024,-28.14 z"
                 fill="#e5e5e5"
                 id="path214"
                 style="fill:none;stroke:#000000;stroke-linecap:round;stroke-linejoin:round" />
              <path
                 d="m 243.6138,297.8943 c 5.5992,0.0717 9.5842,0.9258 12.863,1.5117"
                 fill="none"
                 id="path215"
                 style="stroke:#000000;stroke-linecap:round;stroke-linejoin:round" />
              <path
                 d="m 246.9554,268.3261 c 5.5837,-0.2495 9.3419,0.5309 12.6501,0.9283"
                 fill="none"
                 id="path216"
                 style="stroke:#000000;stroke-linecap:round;stroke-linejoin:round" />
              <path
                 d="m 249.7106,242.9985 c 4.9651,-0.3469 7.5995,-0.0745 10.684,0.7375"
                 fill="none"
                 id="path217"
                 style="stroke:#000000;stroke-linecap:round;stroke-linejoin:round" />
              <path
                 d="m 218.4434,300.5263 c 3.1574,-0.5936 8.5112,-1.3168 13.722,-0.8306"
                 fill="none"
                 id="path218"
                 style="stroke:#000000;stroke-linecap:round;stroke-linejoin:round" />
              <path
                 d="m 222.1791,243.1323 c 3.0655,-1.1947 8.9707,-0.9322 12.3006,-0.8155"
                 fill="none"
                 id="path219"
                 style="stroke:#000000;stroke-linecap:round;stroke-linejoin:round" />
              <path
                 d="m 221.8785,270.5225 c 5.5427,-0.7199 8.3461,-0.7903 12.0809,0.2467"
                 fill="none"
                 id="path220"
                 style="stroke:#000000;stroke-linecap:round;stroke-linejoin:round" />
              <path
                 d="m 197.4305,306.004 c 4.0316,-1.871 7.9681,-3.2995 10.4829,-3.595"
                 fill="none"
                 id="path221"
                 style="stroke:#000000;stroke-linecap:round;stroke-linejoin:round" />
              <path
                 d="m 181.4528,408.4343 c 5.623,6.7392 18.6529,-0.6111 25.3338,-3.1717"
                 fill="none"
                 id="path222"
                 style="stroke:#000000;stroke-linecap:round;stroke-linejoin:round" />
              <path
                 d="m 195.7844,245.9518 c 4.0681,-0.8183 7.797,-1.1171 11.1267,-1.239"
                 fill="none"
                 id="path223"
                 style="stroke:#000000;stroke-linecap:round;stroke-linejoin:round" />
              <path
                 d="m 197.2273,275.268 c 4.0681,-1.1146 7.6505,-0.6908 10.9802,-0.8126"
                 fill="none"
                 id="path224"
                 style="stroke:#000000;stroke-linecap:round;stroke-linejoin:round" />
              <path
                 d="m 177.9643,310.9924 c 2.9915,-2.2689 6.2907,-3.5549 9.6338,-3.3902"
                 fill="none"
                 id="path227"
                 style="stroke:#000000;stroke-linecap:round;stroke-linejoin:round" />
              <path
                 d="m 174.1911,267.5747 c 5.3911,-1.4755 6.6367,-1.6051 9.9511,-1.9474"
                 fill="none"
                 id="path228"
                 style="stroke:#000000;stroke-linecap:round;stroke-linejoin:round" />
              <path
                 d="m 175.622,286.3946 c 5.3911,-1.4755 6.6368,-1.605 9.9511,-1.9473"
                 fill="none"
                 id="path229"
                 style="stroke:#000000;stroke-linecap:round;stroke-linejoin:round" />
              <path
                 d="m 219.2588,401.4415 c 4.4129,2.7365 23.6722,12.4246 36.2179,1.34"
                 fill="none"
                 id="path230"
                 style="stroke:#000000;stroke-linecap:round;stroke-linejoin:round" />
              <path
                 d="m 270.557,312.265 c 1.4778,1.0469 3.0173,1.5343 4.7451,1.7837"
                 fill="none"
                 id="path231"
                 style="stroke:#000000;stroke-linecap:round;stroke-linejoin:round" />
              <path
                 d="m 259.6984,337.2704 c 2.1257,-2.4373 3.6723,-4.6111 4.8316,-6.5361 -15.8592,-1.7972 -37.244,15.7926 -38.4218,40.1469"
                 fill="none"
                 id="path232"
                 style="stroke:#000000;stroke-linecap:round;stroke-linejoin:round" />
            </g>
          </g>
        </g>
      </g>
    </g>
  </g>
  <text
     xml:space="preserve"
     style="font-size:16px;line-height:0.9;font-family:Tahoma;-inkscape-font-specification:Tahoma;text-align:center;letter-spacing:0px;word-spacing:0px;writing-mode:lr-tb;direction:ltr;text-anchor:middle;fill:none;stroke:#ffffff;stroke-width:0.562;stroke-linecap:round;stroke-linejoin:bevel;font-weight:normal;font-style:normal;font-stretch:normal;font-variant:normal"
     x="210.24164"
     y="305.36313"
     id="text1"><tspan
       sodipodi:role="line"
       x="210.24164"
       y="305.36313"
       id="tspan1"
       style="font-style:normal;font-variant:normal;font-weight:normal;font-stretch:normal;font-size:16px;font-family:Tahoma;-inkscape-font-specification:Tahoma;fill:#000000;fill-opacity:1;stroke:none">C</tspan></text>
  <text
     xml:space="preserve"
     style="font-size:16px;line-height:0.9;font-family:Tahoma;-inkscape-font-specification:Tahoma;text-align:center;letter-spacing:0px;word-spacing:0px;writing-mode:lr-tb;direction:ltr;text-anchor:middle;fill:none;stroke:#ffffff;stroke-width:0.562;stroke-linecap:round;stroke-linejoin:bevel"
     x="386.37189"
     y="226.67484"
     id="text56-1"><tspan
       sodipodi:role="line"
       x="386.37189"
       y="226.67484"
       id="tspan56-1"
       style="font-style:normal;font-variant:normal;font-weight:normal;font-stretch:normal;font-size:16px;font-family:Tahoma;-inkscape-font-specification:Tahoma;fill:#000000;fill-opacity:1;stroke:none">X</tspan></text>
  <text
     xml:space="preserve"
     style="font-size:16px;line-height:0.9;font-family:Tahoma;-inkscape-font-specification:Tahoma;text-align:center;letter-spacing:0px;word-spacing:0px;writing-mode:lr-tb;direction:ltr;text-anchor:middle;fill:none;stroke:#ffffff;stroke-width:0.562;stroke-linecap:round;stroke-linejoin:bevel"
     x="385.83615"
     y="252.62849"
     id="text122-5"><tspan
       sodipodi:role="line"
       x="385.83615"
       y="252.62849"
       id="tspan122-0"
       style="font-style:normal;font-variant:normal;font-weight:normal;font-stretch:normal;font-size:16px;font-family:Tahoma;-inkscape-font-specification:Tahoma;fill:#000000;fill-opacity:1;stroke:none">Y</tspan></text>
  <text
     xml:space="preserve"
     style="font-size:16px;line-height:0.9;font-family:Tahoma;-inkscape-font-specification:Tahoma;text-align:center;letter-spacing:0px;word-spacing:0px;writing-mode:lr-tb;direction:ltr;text-anchor:middle;fill:none;stroke:#ffffff;stroke-width:0.562;stroke-linecap:round;stroke-linejoin:bevel"
     x="313.74612"
     y="292.60406"
     id="text146-31-8"><tspan
       sodipodi:role="line"
       x="313.74612"
       y="292.60406"
       id="tspan146-9-49"
       style="font-style:normal;font-variant:normal;font-weight:normal;font-stretch:normal;font-size:16px;font-family:Tahoma;-inkscape-font-specification:Tahoma;fill:#000000;fill-opacity:1;stroke:none">Ó</tspan></text>
  <text
     xml:space="preserve"
     style="font-size:16px;line-height:0.9;font-family:Tahoma;-inkscape-font-specification:Tahoma;text-align:center;letter-spacing:0px;word-spacing:0px;writing-mode:lr-tb;direction:ltr;text-anchor:middle;fill:none;stroke:#ffffff;stroke-width:0.562;stroke-linecap:round;stroke-linejoin:bevel"
     x="314.81302"
     y="315.31857"
     id="text146-31-0-3"><tspan
       sodipodi:role="line"
       x="314.81302"
       y="315.31857"
       id="tspan146-9-4-0"
       style="font-style:normal;font-variant:normal;font-weight:normal;font-stretch:normal;font-size:16px;font-family:Tahoma;-inkscape-font-specification:Tahoma;fill:#000000;fill-opacity:1;stroke:none">P</tspan></text>
  <text
     xml:space="preserve"
     style="font-size:16px;line-height:0.9;font-family:Tahoma;-inkscape-font-specification:Tahoma;text-align:center;letter-spacing:0px;word-spacing:0px;writing-mode:lr-tb;direction:ltr;text-anchor:middle;fill:none;stroke:#ffffff;stroke-width:0.562;stroke-linecap:round;stroke-linejoin:bevel"
     x="312.3735"
     y="270.44513"
     id="text146-1-5"><tspan
       sodipodi:role="line"
       x="312.3735"
       y="270.44513"
       id="tspan146-26-2"
       style="font-style:normal;font-variant:normal;font-weight:normal;font-stretch:normal;font-size:16px;font-family:Tahoma;-inkscape-font-specification:Tahoma;fill:#000000;fill-opacity:1;stroke:none">O</tspan></text>
  <text
     xml:space="preserve"
     style="font-size:16px;line-height:0.9;font-family:Tahoma;-inkscape-font-specification:Tahoma;text-align:center;letter-spacing:0px;word-spacing:0px;writing-mode:lr-tb;direction:ltr;text-anchor:middle;fill:none;stroke:#ffffff;stroke-width:0.562;stroke-linecap:round;stroke-linejoin:bevel"
     x="311.10941"
     y="250.82468"
     id="text146-5-3"><tspan
       sodipodi:role="line"
       x="311.10941"
       y="250.82468"
       id="tspan146-22-8"
       style="font-style:normal;font-variant:normal;font-weight:normal;font-stretch:normal;font-size:16px;font-family:Tahoma;-inkscape-font-specification:Tahoma;fill:#000000;fill-opacity:1;stroke:none">N</tspan></text>
  <text
     xml:space="preserve"
     style="font-size:16px;line-height:0.9;font-family:Tahoma;-inkscape-font-specification:Tahoma;text-align:center;letter-spacing:0px;word-spacing:0px;writing-mode:lr-tb;direction:ltr;text-anchor:middle;fill:none;stroke:#ffffff;stroke-width:0.562;stroke-linecap:round;stroke-linejoin:bevel"
     x="334.11096"
     y="282.7511"
     id="text146-6-7"><tspan
       sodipodi:role="line"
       x="334.11096"
       y="282.7511"
       id="tspan146-4-8"
       style="font-style:normal;font-variant:normal;font-weight:normal;font-stretch:normal;font-size:16px;font-family:Tahoma;-inkscape-font-specification:Tahoma;fill:#000000;fill-opacity:1;stroke:none">S</tspan></text>
  <text
     xml:space="preserve"
     style="font-size:16px;line-height:0.9;font-family:Tahoma;-inkscape-font-specification:Tahoma;text-align:center;letter-spacing:0px;word-spacing:0px;writing-mode:lr-tb;direction:ltr;text-anchor:middle;fill:none;stroke:#ffffff;stroke-width:0.562;stroke-linecap:round;stroke-linejoin:bevel"
     x="335.76355"
     y="310.22342"
     id="text146-6-1-0"><tspan
       sodipodi:role="line"
       x="338.26355"
       y="310.22342"
       id="tspan146-4-2-4"
       style="font-style:normal;font-variant:normal;font-weight:normal;font-stretch:normal;font-size:16px;font-family:Tahoma;-inkscape-font-specification:Tahoma;fill:#000000;fill-opacity:1;stroke:none">T </tspan></text>
  <text
     xml:space="preserve"
     style="font-size:16px;line-height:0.9;font-family:Tahoma;-inkscape-font-specification:Tahoma;text-align:center;letter-spacing:0px;word-spacing:0px;writing-mode:lr-tb;direction:ltr;text-anchor:middle;fill:none;stroke:#ffffff;stroke-width:0.562;stroke-linecap:round;stroke-linejoin:bevel"
     x="333.86417"
     y="254.92137"
     id="text146-0-5"><tspan
       sodipodi:role="line"
       x="333.86417"
       y="254.92137"
       id="tspan146-6-7"
       style="font-style:normal;font-variant:normal;font-weight:normal;font-stretch:normal;font-size:16px;font-family:Tahoma;-inkscape-font-specification:Tahoma;fill:#000000;fill-opacity:1;stroke:none">R</tspan></text>
  <text
     xml:space="preserve"
     style="font-size:16px;line-height:0.9;font-family:Tahoma;-inkscape-font-specification:Tahoma;text-align:center;letter-spacing:0px;word-spacing:0px;writing-mode:lr-tb;direction:ltr;text-anchor:middle;fill:none;stroke:#ffffff;stroke-width:0.562;stroke-linecap:round;stroke-linejoin:bevel"
     x="333.06879"
     y="228.79819"
     id="text146-71-1"><tspan
       sodipodi:role="line"
       x="333.06879"
       y="228.79819"
       id="tspan146-2-0"
       style="font-style:normal;font-variant:normal;font-weight:normal;font-stretch:normal;font-size:16px;font-family:Tahoma;-inkscape-font-specification:Tahoma;fill:#000000;fill-opacity:1;stroke:none">Q</tspan></text>
  <text
     xml:space="preserve"
     style="font-size:16px;line-height:0.9;font-family:Tahoma;-inkscape-font-specification:Tahoma;text-align:center;letter-spacing:0px;word-spacing:0px;writing-mode:lr-tb;direction:ltr;text-anchor:middle;fill:none;stroke:#ffffff;stroke-width:0.562;stroke-linecap:round;stroke-linejoin:bevel"
     x="357.66855"
     y="279.28372"
     id="text146-3-6"><tspan
       sodipodi:role="line"
       x="357.66855"
       y="279.28372"
       id="tspan146-0-0"
       style="font-style:normal;font-variant:normal;font-weight:normal;font-stretch:normal;font-size:16px;font-family:Tahoma;-inkscape-font-specification:Tahoma;fill:#000000;fill-opacity:1;stroke:none">V</tspan></text>
  <text
     xml:space="preserve"
     style="font-size:16px;line-height:0.9;font-family:Tahoma;-inkscape-font-specification:Tahoma;text-align:center;letter-spacing:0px;word-spacing:0px;writing-mode:lr-tb;direction:ltr;text-anchor:middle;fill:none;stroke:#ffffff;stroke-width:0.562;stroke-linecap:round;stroke-linejoin:bevel"
     x="359.22922"
     y="252.1606"
     id="text146-8-3"><tspan
       sodipodi:role="line"
       x="359.22922"
       y="252.1606"
       id="tspan146-7-3"
       style="font-style:normal;font-variant:normal;font-weight:normal;font-stretch:normal;font-size:16px;font-family:Tahoma;-inkscape-font-specification:Tahoma;fill:#000000;fill-opacity:1;stroke:none">Ú</tspan></text>
  <text
     xml:space="preserve"
     style="font-size:16px;line-height:0.9;font-family:Tahoma;-inkscape-font-specification:Tahoma;text-align:center;letter-spacing:0px;word-spacing:0px;writing-mode:lr-tb;direction:ltr;text-anchor:middle;fill:none;stroke:#ffffff;stroke-width:0.562;stroke-linecap:round;stroke-linejoin:bevel"
     x="356.71402"
     y="304.67276"
     id="text146-8-1-5"><tspan
       sodipodi:role="line"
       x="356.71402"
       y="304.67276"
       id="tspan146-7-9-0"
       style="font-style:normal;font-variant:normal;font-weight:normal;font-stretch:normal;font-size:16px;font-family:Tahoma;-inkscape-font-specification:Tahoma;fill:#000000;fill-opacity:1;stroke:none">W</tspan></text>
  <text
     xml:space="preserve"
     style="font-size:16px;line-height:0.9;font-family:Tahoma;-inkscape-font-specification:Tahoma;text-align:center;letter-spacing:0px;word-spacing:0px;writing-mode:lr-tb;direction:ltr;text-anchor:middle;fill:none;stroke:#ffffff;stroke-width:0.562;stroke-linecap:round;stroke-linejoin:bevel"
     x="358.71539"
     y="222.86922"
     id="text146-7-2"><tspan
       sodipodi:role="line"
       x="358.71539"
       y="222.86922"
       id="tspan146-5-3"
       style="font-style:normal;font-variant:normal;font-weight:normal;font-stretch:normal;font-size:16px;font-family:Tahoma;-inkscape-font-specification:Tahoma;fill:#000000;fill-opacity:1;stroke:none">U</tspan></text>
  <text
     xml:space="preserve"
     style="font-size:16px;line-height:0.9;font-family:Tahoma;-inkscape-font-specification:Tahoma;text-align:center;letter-spacing:0px;word-spacing:0px;writing-mode:lr-tb;direction:ltr;text-anchor:middle;fill:none;stroke:#ffffff;stroke-width:0.562;stroke-linecap:round;stroke-linejoin:bevel"
     x="383.89319"
     y="279.26849"
     id="text169-2"><tspan
       sodipodi:role="line"
       x="383.89319"
       y="279.26849"
       id="tspan169-7"
       style="font-style:normal;font-variant:normal;font-weight:normal;font-stretch:normal;font-size:16px;font-family:Tahoma;-inkscape-font-specification:Tahoma;fill:#000000;fill-opacity:1;stroke:none">Ý</tspan></text>
  <text
     xml:space="preserve"
     style="font-style:normal;font-variant:normal;font-weight:normal;font-stretch:normal;font-size:16px;line-height:0.9;font-family:Tahoma;-inkscape-font-specification:Tahoma;text-align:center;letter-spacing:0px;word-spacing:0px;writing-mode:lr-tb;direction:ltr;text-anchor:middle;fill:none;stroke:#ffffff;stroke-width:0.562;stroke-linecap:round;stroke-linejoin:bevel"
     x="381.65082"
     y="303.62686"
     id="text1-1"><tspan
       sodipodi:role="line"
       x="381.65082"
       y="303.62686"
       id="tspan1-0"
       style="font-style:normal;font-variant:normal;font-weight:normal;font-stretch:normal;font-size:16px;font-family:Tahoma;-inkscape-font-specification:Tahoma;fill:#000000;fill-opacity:1;stroke:none">Z</tspan></text>
</svg>
