<?xml version="1.0" encoding="UTF-8" standalone="no"?>
<!-- Generator: Adobe Illustrator 19.2.0, SVG Export Plug-In . SVG Version: 6.00 Build 0)  -->

<svg
   version="1.1"
   id="Layer_1"
   x="0px"
   y="0px"
   viewBox="0 0 783.54712 793.50415"
   xml:space="preserve"
   sodipodi:docname="Man_Lifting_Barbell_Cartoon.svg"
   width="783.54712"
   height="793.50415"
   inkscape:version="1.4 (e7c3feb1, 2024-10-09)"
   xmlns:inkscape="http://www.inkscape.org/namespaces/inkscape"
   xmlns:sodipodi="http://sodipodi.sourceforge.net/DTD/sodipodi-0.dtd"
   xmlns="http://www.w3.org/2000/svg"
   xmlns:svg="http://www.w3.org/2000/svg"><defs
   id="defs62" /><sodipodi:namedview
   id="namedview62"
   pagecolor="#ffffff"
   bordercolor="#000000"
   borderopacity="0.25"
   inkscape:showpageshadow="2"
   inkscape:pageopacity="0.0"
   inkscape:pagecheckerboard="0"
   inkscape:deskcolor="#d1d1d1"
   inkscape:zoom="0.77259023"
   inkscape:cx="382.4796"
   inkscape:cy="479.55563"
   inkscape:window-width="1256"
   inkscape:window-height="896"
   inkscape:window-x="221"
   inkscape:window-y="32"
   inkscape:window-maximized="0"
   inkscape:current-layer="Layer_1" />
<style
   type="text/css"
   id="style1">
	.st0{fill:#F2F2F2;}
	.st1{fill:#F8C09D;}
	.st2{fill:#1561A0;}
	.st3{fill:#22B573;}
	.st4{fill:#1B965B;}
	.st5{fill:#065082;}
	.st6{fill:#F6AE8D;}
	.st7{fill:#333333;}
	.st8{fill:#EF937E;}
	.st9{fill:#E6E6E6;}
	.st10{fill:#4D4D4D;}
	.st11{fill:#CCCCCC;}
	.st12{fill:#97D3FF;}
	.st13{fill:#AF4135;}
	.st14{fill:#FFFFFF;}
</style>























































<g
   id="g3"
   transform="matrix(0.75144748,0,0,0.75144748,97.376308,98.613725)"><path
     class="st0"
     d="m 522.44461,793.50412 h 102.2 c 1.4,0 2.5,-1.1 2.5,-2.5 v -11.4 h -107.2 v 11.4 c 0,1.3 1.1,2.5 2.5,2.5 z"
     id="path1" /><path
     class="st0"
     d="m 256.94461,793.50412 h -102.5 c -1.3,0 -2.3,-1 -2.3,-2.3 v -11.5 h 107.2 v 11.5 c 0,1.2 -1.1,2.3 -2.4,2.3 z"
     id="path2" /><path
     class="st1"
     d="m 196.54461,317.40412 v 0 c 3.4,9.6 14,14.6 23.6,11.2 l 86,-30.5 c 9.6,-3.4 14.6,-14 11.2,-23.6 v 0 c -3.4,-9.6 -14,-14.6 -23.6,-11.2 l -86,30.5 c -9.6,3.5 -14.6,14 -11.2,23.6 z"
     id="path3" /><path
     class="st1"
     d="m 528.64461,733.30412 28.4,-1.4 c 0,0 1.4,-79.1 0.4,-143.6 -1.1,-67.7 -124.3,-101 -124.3,-101 l -30.9,30.4 c 0,0 98.9,44 108.5,81.9 16.1,63.5 17.9,133.7 17.9,133.7 z"
     id="path4" /><path
     class="st1"
     d="m 210.24461,415.10412 v 0 c 10.2,0.1 18.5,-8.1 18.6,-18.3 l 1.2,-79.4 c 0.1,-10.2 -8.1,-18.5 -18.3,-18.6 v 0 c -10.2,-0.1 -18.5,8.1 -18.6,18.3 l -1.2,79.4 c -0.1,10.2 8.1,18.5 18.3,18.6 z"
     id="path5" /><polygon
     class="st0"
     points="1186.3,901.3 1157.9,902.7 1154.8,857.2 1187.3,856.3 "
     id="polygon5"
     transform="translate(-628.85539,-162.69588)" /><polygon
     class="st2"
     points="1186.6,875.3 1156.1,875.9 1155.4,866.8 1186.9,866 "
     id="polygon6"
     transform="translate(-628.85539,-162.69588)" /><path
     class="st1"
     d="m 249.94461,733.30412 -28.4,-1.4 c 0,0 -1.4,-79.1 -0.4,-143.6 1,-67.7 124.2,-101 124.2,-101 l 30.9,30.4 c 0,0 -98.9,44 -108.5,81.9 -16.1,63.5 -17.8,133.7 -17.8,133.7 z"
     id="path6" /><polygon
     class="st0"
     points="850,901.3 878.4,902.7 881.5,857.2 849,856.3 "
     id="polygon7"
     transform="translate(-628.85539,-162.69588)" /><polygon
     class="st2"
     points="849.7,875.3 880.2,875.9 880.8,866.8 849.3,866 "
     id="polygon8"
     transform="translate(-628.85539,-162.69588)" /><path
     class="st2"
     d="m 249.94461,733.30412 c 0,0 -3.8,3.8 -13.6,3.4 -9.8,-0.5 -14.8,-4.7 -14.8,-4.7 0,0 -15.1,13 -28.6,12.2 -13.5,-0.8 -33.1,-2.5 -38.1,11.6 -3.5,9.7 -3.4,18.4 -3,22.8 0.1,1.8 1.6,3.1 3.4,3.1 l 101.4,-0.1 c 1.8,0 3.3,-1.4 3.4,-3.1 0.3,-4 0.7,-11.3 -0.2,-20.2 -1.3,-13.4 -9.9,-25 -9.9,-25 z"
     id="path8" /><path
     class="st0"
     d="m 207.04461,735.80412 c 2,0 3.5,2 2.8,3.9 -0.8,2.3 -1.1,3 -0.7,5.7 0.2,1.5 0.5,2.7 0.8,3.6 0.5,1.7 -0.6,3.4 -2.4,3.7 l -0.5,0.1 c -1.6,0.3 -3.2,-0.8 -3.4,-2.4 -0.7,-4 -1.8,-8.8 0.8,-13.2 0.6,-0.9 1.6,-1.4 2.6,-1.4 z"
     id="path9" /><path
     class="st0"
     d="m 195.24461,739.90412 c 2,0 3.5,2 2.8,3.9 -0.8,2.3 -1.1,3 -0.7,5.7 0.2,1.5 0.5,2.7 0.8,3.6 0.5,1.7 -0.6,3.4 -2.4,3.7 l -0.5,0.1 c -1.6,0.3 -3.2,-0.8 -3.4,-2.4 -0.7,-4 -1.8,-8.8 0.8,-13.2 0.5,-0.9 1.5,-1.4 2.6,-1.4 z"
     id="path10" /><path
     class="st0"
     d="m 182.94461,740.40412 c 2,0 3.5,2 2.8,3.9 -0.8,2.3 -1.1,3 -0.7,5.7 0.2,1.5 0.5,2.7 0.8,3.6 0.5,1.7 -0.6,3.4 -2.4,3.7 l -0.5,0.1 c -1.6,0.3 -3.2,-0.8 -3.4,-2.4 -0.7,-4 -1.8,-8.8 0.8,-13.2 0.6,-0.9 1.6,-1.4 2.6,-1.4 z"
     id="path11" /><path
     class="st3"
     d="m 443.34461,454.90412 c -44.1,-15.7 -78.5,40.4 -44.2,72.3 0.7,0.6 1.4,1.3 2.1,1.9 56.9,51.1 86.9,77.3 86.9,77.3 l 81,-66.2 c 0,0 -45.8,-46.5 -81,-66.2 -10.8,-6.2 -27.3,-12.8 -44.8,-19.1 z"
     id="path12" /><polygon
     class="st4"
     points="1174.4,680.3 1093.4,748.3 1105.2,758.7 1185.9,691 "
     id="polygon12"
     transform="translate(-628.85539,-162.69588)" /><path
     class="st3"
     d="m 331.54461,454.90412 c 44.1,-15.7 78.5,40.4 44.2,72.3 -0.7,0.6 -1.4,1.3 -2.1,1.9 -56.9,51.1 -86.9,77.3 -86.9,77.3 l -81,-66.2 c 0,0 45.8,-46.5 81,-66.2 10.9,-6.2 27.3,-12.8 44.8,-19.1 z"
     id="path13" /><path
     class="st5"
     d="m 251.14461,333.50412 -22.3,-63 66.5,-23.6 c 17.4,-6.2 36.5,2.9 42.7,20.3 v 0 c 6.2,17.4 -2.9,36.5 -20.3,42.7 z"
     id="path14" /><path
     class="st1"
     d="m 574.34461,317.40412 v 0 c -3.4,9.6 -14,14.6 -23.6,11.2 l -86,-30.5 c -9.6,-3.4 -14.6,-14 -11.2,-23.6 v 0 c 3.4,-9.6 14,-14.6 23.6,-11.2 l 86,30.5 c 9.6,3.5 14.6,14 11.2,23.6 z"
     id="path15" /><path
     class="st1"
     d="m 560.74461,415.10412 v 0 c -10.2,0.1 -18.5,-8.1 -18.6,-18.3 l -1.2,-79.4 c -0.1,-10.2 8.1,-18.5 18.3,-18.6 v 0 c 10.2,-0.1 18.5,8.1 18.6,18.3 l 1.2,79.4 c 0,10.2 -8.2,18.5 -18.3,18.6 z"
     id="path16" /><path
     class="st5"
     d="m 519.74461,333.50412 22.3,-63 -66.5,-23.6 c -17.4,-6.2 -36.5,2.9 -42.7,20.3 v 0 c -6.2,17.4 2.9,36.5 20.3,42.7 z"
     id="path17" /><polygon
     class="st4"
     points="858.2,680.3 939.2,748.3 927.4,758.7 846.7,691 "
     id="polygon17"
     transform="translate(-628.85539,-162.69588)" /><path
     class="st2"
     d="m 467.34461,464.80412 h -164.2 v -207 c 0,-6.5 5.3,-11.8 11.8,-11.8 h 140.7 c 6.5,0 11.8,5.3 11.8,11.8 v 207 z"
     id="path18" /><path
     class="st3"
     d="m 385.94461,547.00412 h -1.4 c -45,0 -81.6,-37 -81.6,-82 v -0.3 h 164.6 v 0.3 c 0,45.1 -36.5,82 -81.6,82 z"
     id="path19" /><path
     class="st5"
     d="m 348.24461,246.30412 -0.1,2.4 c -0.1,20.2 16,36.7 36,37.2 v 0 c 21,0.5 38,-15.9 38.1,-36.7 l 0.1,-2.8 h -74.1 z"
     id="path20" /><path
     class="st1"
     d="m 384.54461,273.70412 v 0 c -13.3,-0.3 -24,-11.3 -23.9,-24.6 l 0.1,-23.1 49,1.3 -0.1,22.1 c -0.1,13.6 -11.4,24.6 -25.1,24.3 z"
     id="path21" /><path
     class="st6"
     d="m 360.64461,237.30412 c 7.8,2.8 16,4.2 24.2,4.2 8.4,0 16.8,-1.6 24.8,-4.4 l 0.1,-9.9 -49,-1.3 z"
     id="path22" /><path
     class="st1"
     d="m 384.84461,232.10412 c -36.2,0 -72.5,-28.7 -72.5,-69.1 V 41.804121 h 145.4 V 163.10412 c 0,40.2 -36.7,69 -72.9,69 z"
     id="path23" /><rect
     x="295.2446"
     y="95.604111"
     class="st7"
     width="34.200001"
     height="36.799999"
     id="rect23" /><circle
     class="st1"
     cx="312.04465"
     cy="130.30412"
     r="20.700001"
     id="circle23" /><path
     class="st8"
     d="m 307.84461,133.20412 c 0,-4 3.3,-7.3 7.3,-7.3 1.1,0 2.2,0.3 3.1,0.7 -1.3,-2.2 -3.6,-3.6 -6.3,-3.6 -4,0 -7.3,3.3 -7.3,7.3 0,2.9 1.7,5.4 4.2,6.6 -0.6,-1.1 -1,-2.3 -1,-3.7 z"
     id="path24" /><path
     class="st7"
     d="m 453.74461,41.804121 h 7.3 c 7.6,0 13.8,6.2 13.8,13.8 v 67.399999 h -21.2 V 41.804121 Z"
     id="path25" /><path
     class="st8"
     d="m 386.74461,141.40412 v 15 c 0,0.7 0.8,1.2 1.5,1.2 h 8.8 c 2.4,0 3.7,-2.8 2.2,-4.6 l -10.2,-12.3 c -0.7,-1 -2.3,-0.5 -2.3,0.7 z"
     id="path26" /><path
     class="st7"
     d="m 324.84461,41.204121 v 0.3 l -10.1,-0.1 c -10.7,-0.1 -19.4,8.6 -19.4,19.3 v 0 13.3 34.299999 l 32.6,0.9 0.3,-9.999999 c 0.2,-6.6 5.7,-11.8 12.3,-11.7 l 96.8,2.6 c 12.7,0.3 23.4,-9.8 23.7,-22.5 0,0.2 -135.9,-39.2 -136.2,-26.4 z"
     id="path27" /><path
     class="st7"
     d="m 315.94461,41.204121 c -1.9,-15.9 0.3,-25 11.1,-33.9000003 7,-5.7 19.4,-7.40000003 24,-7.30000003 3,0.1 6.1,0.6 8.8,2.10000003 5.7,3.1 8.8,10.7000003 7.1,17.2000003 3.6,-4.3 7.9,-8 12.6,-10.9000003 6,-3.8 13.1,-6.4 19.9,-4.7 6.8,1.7 12.5,9.1000003 10.6,16.2000003 3.8,-1.9 7,-4.7 10.7,-6.8 5.9,-3.3000003 12.9,-4.3000003 19.4,-2.8 2.4,0.6 4.8,1.5 6.9,2.9 4.3,2.9 7,7.8 8.3,13 1.3,5.2 6.7,33.1 -6.2,52 -1.6,2.4 -12.4,0.3 -15.2,-0.1 z"
     id="path28" /><rect
     x="295.2446"
     y="74.104126"
     class="st2"
     width="179.60001"
     height="24"
     id="rect28" /><circle
     class="st1"
     cx="457.34457"
     cy="130.30412"
     r="20.700001"
     id="circle28" /><path
     class="st8"
     d="m 464.14461,133.20412 c 0,-4 -3.3,-7.3 -7.3,-7.3 -1.1,0 -2.2,0.3 -3.1,0.7 1.3,-2.2 3.6,-3.6 6.3,-3.6 4,0 7.3,3.3 7.3,7.3 0,2.9 -1.7,5.4 -4.2,6.6 0.7,-1.1 1,-2.3 1,-3.7 z"
     id="path29" /><g
     id="g38"
     transform="translate(-628.85539,-162.69588)">
	<path
   class="st9"
   d="m 1412.4,665.2 c -0.2,9.7 -10.1,16.2 -19.1,12.6 -66.8,-26.8 -166.1,-100.6 -373.9,-107.3 -205.6,-6.6 -304.5,68.6 -367.9,108.1 -7.8,4.8 -18,1.6 -21.5,-6.9 v 0 c -2.7,-6.5 -0.5,-14 5.3,-18 66.7,-45.2 194.7,-115.7 382,-111.8 187.3,3.9 332.6,83 387.5,110.7 4.8,2.3 7.7,7.2 7.6,12.6 z"
   id="path30" />
	<path
   class="st10"
   d="m 785.3,688.4 -23.6,10.4 c -7.5,3.3 -16.2,-0.1 -19.5,-7.6 L 683.7,558 c -3.3,-7.5 0.1,-16.2 7.6,-19.5 l 23.6,-10.4 c 7.5,-3.3 16.2,0.1 19.5,7.6 l 58.5,133.2 c 3.3,7.5 -0.1,16.2 -7.6,19.5 z"
   id="path31" />
	<path
   class="st10"
   d="m 728.9,697.8 -23.6,10.4 c -7.5,3.3 -16.2,-0.1 -19.5,-7.6 L 638.7,593.3 c -3.3,-7.5 0.1,-16.2 7.6,-19.5 l 23.6,-10.4 c 7.5,-3.3 16.2,0.1 19.5,7.6 l 47.1,107.3 c 3.3,7.4 -0.1,16.2 -7.6,19.5 z"
   id="path32" />
	<path
   class="st7"
   d="m 728.9,697.8 v 0 l -59,-134.4 v 0 c 7.5,-3.3 16.2,0.1 19.5,7.6 l 47.1,107.3 c 3.3,7.4 -0.1,16.2 -7.6,19.5 z"
   id="path33" />
	<path
   class="st11"
   d="m 781.6,618.5 -9.1,4 -16.9,-38.4 9.1,-4 c 3.7,-1.6 8,0.1 9.7,3.8 l 11,25 c 1.6,3.7 -0.1,8 -3.8,9.6 z"
   id="path34" />
	<path
   class="st10"
   d="m 1260.5,694.4 24.5,8.1 c 7.8,2.6 16.2,-1.6 18.7,-9.4 l 45.9,-138 c 2.6,-7.8 -1.6,-16.2 -9.4,-18.7 l -24.5,-8.1 c -7.8,-2.6 -16.2,1.6 -18.7,9.4 l -45.9,138 c -2.6,7.7 1.6,16.1 9.4,18.7 z"
   id="path35" />
	<path
   class="st10"
   d="m 1317.5,698.5 24.5,8.1 c 7.8,2.6 16.2,-1.6 18.7,-9.4 l 37,-111.2 c 2.6,-7.8 -1.6,-16.2 -9.4,-18.7 l -24.5,-8.1 c -7.8,-2.6 -16.2,1.6 -18.7,9.4 l -37,111.2 c -2.5,7.7 1.7,16.1 9.4,18.7 z"
   id="path36" />
	<path
   class="st7"
   d="m 1317.5,698.5 v 0 l 46.3,-139.3 v 0 c -7.8,-2.6 -16.2,1.6 -18.7,9.4 l -37,111.2 c -2.5,7.7 1.7,16.1 9.4,18.7 z"
   id="path37" />
	<path
   class="st11"
   d="m 1257.7,624.4 9.4,3.1 13.3,-39.8 -9.4,-3.1 c -3.8,-1.3 -8,0.8 -9.3,4.6 l -8.6,25.9 c -1.3,3.9 0.8,8.1 4.6,9.3 z"
   id="path38" />
</g><g
     id="g43"
     transform="translate(-628.85539,-162.69588)">
	<path
   class="st1"
   d="m 816.2,566.1 1.7,10.2 c 0.7,4.4 4.9,7.4 9.3,6.7 l 34.6,-5.7 c 4.4,-0.7 7.4,-4.9 6.7,-9.3 l -1.7,-10.2 c -0.8,-4.7 -5.2,-7.9 -9.9,-7.1 l -33.6,5.5 c -4.7,0.8 -7.8,5.3 -7.1,9.9 z"
   id="path39" />
	<path
   class="st1"
   d="m 860.4,558 v 0 c -3.5,0.6 -5.9,3.9 -5.3,7.4 l 4.4,29.1 c 0.6,3.5 3.9,5.9 7.4,5.3 v 0 c 3.5,-0.6 5.9,-3.9 5.3,-7.4 l -4.4,-29.1 c -0.6,-3.5 -3.9,-5.8 -7.4,-5.3 z"
   id="path40" />
	<path
   class="st1"
   d="m 848.7,565.8 v 0 c -3.5,0.6 -5.9,3.9 -5.3,7.4 l 4.8,29 c 0.6,3.5 3.9,5.9 7.4,5.3 v 0 c 3.5,-0.6 5.9,-3.9 5.3,-7.4 l -4.8,-29 c -0.6,-3.5 -3.9,-5.9 -7.4,-5.3 z"
   id="path41" />
	<path
   class="st1"
   d="m 835.5,564.7 v 0 c -3.5,0.6 -5.9,3.9 -5.3,7.4 l 4.8,29 c 0.6,3.5 3.9,5.9 7.4,5.3 v 0 c 3.5,-0.6 5.9,-3.9 5.3,-7.4 l -4.8,-29 c -0.6,-3.5 -3.9,-5.9 -7.4,-5.3 z"
   id="path42" />
	<path
   class="st1"
   d="m 822.1,562.1 v 0 c -3.5,0.6 -5.9,3.9 -5.3,7.4 l 4.8,29 c 0.6,3.5 3.9,5.9 7.4,5.3 v 0 c 3.5,-0.6 5.9,-3.9 5.3,-7.4 l -4.8,-29 c -0.6,-3.5 -3.9,-5.8 -7.4,-5.3 z"
   id="path43" />
</g><g
     id="g48"
     transform="translate(-628.85539,-162.69588)">
	<path
   class="st1"
   d="m 1214.1,564.5 -2.2,10.1 c -0.9,4.4 -5.2,7.1 -9.6,6.2 l -34.3,-7.4 c -4.4,-0.9 -7.1,-5.2 -6.2,-9.6 l 2.2,-10.1 c 1,-4.6 5.6,-7.6 10.2,-6.6 l 33.3,7.2 c 4.7,1 7.6,5.6 6.6,10.2 z"
   id="path44" />
	<path
   class="st1"
   d="m 1170.4,554.2 v 0 c 3.5,0.7 5.7,4.2 4.9,7.6 l -5.8,28.8 c -0.7,3.5 -4.2,5.7 -7.6,4.9 v 0 c -3.5,-0.7 -5.7,-4.2 -4.9,-7.6 l 5.8,-28.8 c 0.8,-3.4 4.2,-5.6 7.6,-4.9 z"
   id="path45" />
	<path
   class="st1"
   d="m 1181.7,562.6 v 0 c 3.5,0.7 5.7,4.2 4.9,7.6 l -6.2,28.7 c -0.7,3.5 -4.2,5.7 -7.6,4.9 v 0 c -3.5,-0.7 -5.7,-4.2 -4.9,-7.6 l 6.2,-28.7 c 0.8,-3.5 4.2,-5.7 7.6,-4.9 z"
   id="path46" />
	<path
   class="st1"
   d="m 1194.9,562.1 v 0 c 3.5,0.7 5.7,4.2 4.9,7.6 l -6.2,28.7 c -0.7,3.5 -4.2,5.7 -7.6,4.9 v 0 c -3.5,-0.7 -5.7,-4.2 -4.9,-7.6 l 6.2,-28.7 c 0.8,-3.4 4.2,-5.6 7.6,-4.9 z"
   id="path47" />
	<path
   class="st1"
   d="m 1208.4,560.2 v 0 c 3.5,0.7 5.7,4.2 4.9,7.6 l -6.2,28.7 c -0.7,3.5 -4.2,5.7 -7.6,4.9 v 0 c -3.5,-0.7 -5.7,-4.2 -4.9,-7.6 l 6.2,-28.7 c 0.8,-3.4 4.2,-5.6 7.6,-4.9 z"
   id="path48" />
</g><path
     class="st2"
     d="m 529.34461,733.30412 c 0,0 3.8,3.8 13.6,3.4 9.8,-0.5 14.8,-4.7 14.8,-4.7 0,0 15.1,13 28.6,12.2 13.5,-0.8 33.1,-2.5 38.1,11.6 3.8,10.8 3.3,20.2 2.9,24 -0.1,1.1 -1,1.8 -2.1,1.8 l -103.8,-0.1 c -1.1,0 -2,-0.8 -2.1,-1.9 -0.3,-3.5 -0.9,-11.6 0.1,-21.4 1.3,-13.3 9.9,-24.9 9.9,-24.9 z"
     id="path49" /><path
     class="st0"
     d="m 572.14461,735.80412 c -2,0 -3.5,2 -2.8,3.9 0.8,2.3 1.1,3 0.7,5.7 -0.2,1.5 -0.5,2.7 -0.8,3.6 -0.5,1.7 0.6,3.4 2.4,3.7 l 0.5,0.1 c 1.6,0.3 3.2,-0.8 3.4,-2.4 0.7,-4 1.8,-8.8 -0.8,-13.2 -0.5,-0.9 -1.5,-1.4 -2.6,-1.4 z"
     id="path50" /><path
     class="st0"
     d="m 584.04461,739.90412 c -2,0 -3.5,2 -2.8,3.9 0.8,2.3 1.1,3 0.7,5.7 -0.2,1.5 -0.5,2.7 -0.8,3.6 -0.5,1.7 0.6,3.4 2.4,3.7 l 0.5,0.1 c 1.6,0.3 3.2,-0.8 3.4,-2.4 0.7,-4 1.8,-8.8 -0.8,-13.2 -0.6,-0.9 -1.6,-1.4 -2.6,-1.4 z"
     id="path51" /><path
     class="st0"
     d="m 596.24461,740.40412 c -2,0 -3.5,2 -2.8,3.9 0.8,2.3 1.1,3 0.7,5.7 -0.2,1.5 -0.5,2.7 -0.8,3.6 -0.5,1.7 0.6,3.4 2.4,3.7 l 0.5,0.1 c 1.6,0.3 3.2,-0.8 3.4,-2.4 0.7,-4 1.8,-8.8 -0.8,-13.2 -0.5,-0.9 -1.5,-1.4 -2.6,-1.4 z"
     id="path52" /><path
     class="st12"
     d="m 482.84461,112.70412 c 0,0 10.1,-10.6 17.4,-9.3 7.3,1.3 6.2,11 0,9.3 -6.3,-1.8 -17.4,0 -17.4,0 z"
     id="path53" /><path
     class="st12"
     d="m 482.34461,145.50412 c 0,0 14.4,-2.4 19.5,3.1 5,5.5 -1.7,12.5 -5.6,7.4 -3.9,-5.1 -13.9,-10.5 -13.9,-10.5 z"
     id="path54" /><path
     class="st12"
     d="m 276.04461,131.30412 c 0,0 -15.7,-3.4 -20.2,2.7 -4.5,6.1 0.5,12.7 5.2,7.9 5.1,-5.3 15,-10.6 15,-10.6 z"
     id="path55" /><path
     class="st12"
     d="m 295.94461,169.70412 c 0,0 -12.2,-1.9 -18,1.2 -5.8,3.1 -0.8,11.8 5.1,6.5 6,-5.2 12.9,-7.7 12.9,-7.7 z"
     id="path56" /><path
     class="st12"
     d="m 444.04461,107.90412 c 0,0 5.2,9.8 4.3,15.8 -1.6,11.2 -16.1,6 -10.3,-1.4 4.6,-5.7 6,-14.4 6,-14.4 z"
     id="path57" /><path
     class="st13"
     d="m 387.74461,170.50412 c -14.3,-0.5 -35.1,4.5 -41.7,17.9 -8.6,17.3 6.1,31 26,24.6 21.1,-6.8 42.3,4.8 51.8,-4.1 9.4,-8.8 7.7,-21.8 -1.4,-29.2 -8.7,-7 -16.7,-8.5 -34.7,-9.2 z"
     id="path58" /><path
     class="st14"
     d="m 422.44461,179.80412 c -8.8,-7.1 -19.2,-9.2 -34.7,-9.2 -16.7,0 -28.2,3.3 -37.6,12.1 0,0 1.4,6.5 4.6,5.9 3.2,-0.7 15.2,-1.6 33.3,-1.9 18,-0.3 29.5,0.8 32.2,0.6 3.1,-0.2 2.2,-7.5 2.2,-7.5 z"
     id="path59" /><path
     class="st8"
     d="m 388.44461,195.50412 c -17.9,1.2 -22.5,12.7 -24.6,19.1 2.6,-0.2 5.3,-0.7 8.2,-1.6 16.1,-5.2 32.2,0.3 43.2,-0.7 -1.7,-5.2 -7.7,-18.1 -26.8,-16.8 z"
     id="path60" /><path
     class="st7"
     d="m 352.14461,141.50412 v 0 c -0.7,-0.9 -0.5,-2.2 0.5,-2.8 1.3,-0.9 3.2,-2.2 4.6,-3 1.5,-0.8 3.2,-1.5 4.6,-1.9 -1,-0.7 -2.4,-1.5 -4.2,-1.9 -2.3,-0.6 -4,-0.6 -5,-0.5 -0.8,0.1 -1.6,-0.3 -2,-1 v 0 c -0.7,-1.2 0.1,-2.8 1.5,-3 1.5,-0.2 3.7,-0.2 6.5,0.6 5.9,1.6 8.7,5.5 8.8,5.7 v 0 c 0.8,1.2 0.2,2.9 -1.3,3.1 v 0 c 0,0 -4.1,0.7 -7.1,2.4 -1.3,0.7 -3,1.9 -4.3,2.8 -0.7,0.6 -1.9,0.4 -2.6,-0.5 z"
     id="path61" /><path
     class="st7"
     d="m 424.04461,141.50412 v 0 c 0.7,-0.9 0.5,-2.2 -0.5,-2.8 -1.3,-0.9 -3.2,-2.2 -4.6,-3 -1.5,-0.8 -3.2,-1.5 -4.6,-1.9 1,-0.7 2.4,-1.5 4.2,-1.9 2.3,-0.6 4,-0.6 5,-0.5 0.8,0.1 1.6,-0.3 2,-1 v 0 c 0.7,-1.2 -0.1,-2.8 -1.5,-3 -1.5,-0.2 -3.7,-0.2 -6.5,0.6 -5.9,1.6 -8.7,5.5 -8.8,5.7 v 0 c -0.8,1.2 -0.2,2.9 1.3,3.1 v 0 c 0,0 4.1,0.7 7.1,2.4 1.3,0.7 3,1.9 4.3,2.8 0.7,0.6 1.9,0.4 2.6,-0.5 z"
     id="path62" /><rect
     style="fill:none;stroke:#888888;stroke-width:6.65382496;stroke-linecap:round;stroke-linejoin:round;stroke-dasharray:none;stroke-opacity:1"
     id="rect62"
     width="219.4845"
     height="196.89049"
     x="279.03281"
     y="587.00262" /></g><g
   id="g2"
   transform="translate(-21.822921,-84)"><text
     xml:space="preserve"
     style="font-size:96px;line-height:1;font-family:Tahoma;-inkscape-font-specification:Tahoma;text-align:center;letter-spacing:0px;word-spacing:0px;writing-mode:lr-tb;direction:ltr;text-anchor:middle;fill:none;stroke:#888888;stroke-width:5;stroke-linecap:round;stroke-linejoin:round;stroke-opacity:1"
     x="391.56262"
     y="747.09937"
     id="text62"><tspan
       sodipodi:role="line"
       id="tspan62"
       x="391.56262"
       y="747.09937"
       style="font-size:96px;fill:#999999;fill-opacity:1;stroke:none">z<tspan
   style="font-size:96px;baseline-shift:super"
   id="tspan64" /></tspan></text><text
     xml:space="preserve"
     style="font-size:74.6667px;line-height:1;font-family:Tahoma;-inkscape-font-specification:Tahoma;text-align:center;letter-spacing:0px;word-spacing:0px;writing-mode:lr-tb;direction:ltr;text-anchor:middle;fill:none;stroke:#888888;stroke-width:5;stroke-linecap:round;stroke-linejoin:round;stroke-opacity:1"
     x="437.56262"
     y="701.09937"
     id="text2"><tspan
       sodipodi:role="line"
       id="tspan2"
       x="437.56262"
       y="701.09937"
       style="font-size:74.6667px;fill:#999999;fill-opacity:1;stroke:none">2</tspan></text></g></svg>
