<?xml version="1.0" encoding="UTF-8" standalone="no"?>
<!-- Created with Inkscape (http://www.inkscape.org/) -->

<svg
   width="210.61456mm"
   height="94.223671mm"
   viewBox="0 0 746.27207 333.8634"
   id="svg2"
   version="1.1"
   inkscape:version="1.4 (e7c3feb1, 2024-10-09)"
   sodipodi:docname="Modulor_measurements.svg"
   xmlns:inkscape="http://www.inkscape.org/namespaces/inkscape"
   xmlns:sodipodi="http://sodipodi.sourceforge.net/DTD/sodipodi-0.dtd"
   xmlns="http://www.w3.org/2000/svg"
   xmlns:svg="http://www.w3.org/2000/svg"
   xmlns:rdf="http://www.w3.org/1999/02/22-rdf-syntax-ns#"
   xmlns:cc="http://creativecommons.org/ns#"
   xmlns:dc="http://purl.org/dc/elements/1.1/">
  <defs
     id="defs4" />
  <sodipodi:namedview
     id="base"
     pagecolor="#ffffff"
     bordercolor="#666666"
     borderopacity="1.0"
     inkscape:pageopacity="0.0"
     inkscape:pageshadow="2"
     inkscape:zoom="0.56118111"
     inkscape:cx="327.87989"
     inkscape:cy="166.61288"
     inkscape:document-units="px"
     inkscape:current-layer="layer1"
     showgrid="false"
     inkscape:window-width="1472"
     inkscape:window-height="896"
     inkscape:window-x="0"
     inkscape:window-y="32"
     inkscape:window-maximized="0"
     fit-margin-top="0"
     fit-margin-left="0"
     fit-margin-right="0"
     fit-margin-bottom="0"
     inkscape:showpageshadow="2"
     inkscape:pagecheckerboard="0"
     inkscape:deskcolor="#d1d1d1" />
  <metadata
     id="metadata7">
    <rdf:RDF>
      <cc:Work
         rdf:about="">
        <dc:format>image/svg+xml</dc:format>
        <dc:type
           rdf:resource="http://purl.org/dc/dcmitype/StillImage" />
        <dc:title />
      </cc:Work>
    </rdf:RDF>
  </metadata>
  <g
     inkscape:label="Layer 1"
     inkscape:groupmode="layer"
     id="layer1"
     transform="translate(666.85976,-290.87488)">
    <path
       style="opacity:0.41940002;fill:#000000;fill-rule:evenodd;stroke:#000000;stroke-width:1.02986181px;stroke-linecap:butt;stroke-linejoin:miter;stroke-opacity:1"
       d="m -295.757,309.2616 c -2.37671,0.0276 -3.36457,2.77172 -3.72795,5.12063 -0.63054,4.07581 4.01328,5.1158 5.3009,9.03393 0.43647,1.32813 0.92521,3.14582 0,4.19387 -1.86481,2.11244 -7.64633,1.04797 -7.64633,1.04797 0,0 -0.14059,-3.89418 -1.26638,-5.24184 -0.81554,-0.97623 -2.78906,-1.9689 -3.66889,-1.04998 -1.14652,1.19747 1.31976,2.69448 1.20224,4.34816 -0.0831,1.16931 -1.39002,2.35948 -1.20224,3.51661 0.2771,1.70761 2.12621,2.88694 3.66889,3.66888 2.05008,1.03914 6.81479,1.04998 6.81479,1.04998 0,0 9.90075,21.7701 8.38974,33.02799 -0.80157,5.97221 -6.26373,10.31527 -8.91273,15.72752 -1.7504,7.28841 -7.82988,9.64737 -13.10661,12.58161 -3.71427,2.08214 -4.71875,7.33888 -4.19387,11.00867 0,0 -4.59542,2.54936 -6.2918,0.78647 -3.15276,-3.27634 -0.54711,-11.4551 0.41577,-15.89886 0.87962,-4.05962 3.18068,-5.94023 3.77809,-10.05084 0.50519,-3.47594 0.76164,-7.47524 -1.04795,-10.48568 -1.29844,-2.16009 -3.77511,-4.32831 -6.29182,-4.19388 -4.08873,0.21842 -6.97349,4.74062 -8.32359,8.60618 -1.70641,4.8857 1.59876,9.30432 2.03379,14.46112 0.41157,4.87884 1.42914,10.19024 -0.525,14.67955 -0.2959,0.67979 -1.57294,1.57296 -1.57294,1.57296 -7.95119,-0.15264 -15.90258,-2.24399 -23.85377,-3.67091 -4.77575,-0.85705 -11.52143,21.46814 -6.02831,33.55298 0,0 4.21946,7.43621 5.24183,11.53366 1.35644,5.43628 1.25905,11.17642 1.04998,16.77547 -0.19089,5.11223 -2.87175,10.14765 -2.09795,15.20456 1.54898,10.12266 12.58162,27.78413 12.58162,27.78413 0,0 -3.57479,14.53913 -3.4074,21.49434 0.1866,7.75407 4.98035,21.49435 4.98035,21.49435 0,0 -5.36583,28.87291 -8.38774,44.82514 -1.07383,5.66864 0.52499,14.94103 0.52499,14.94103 -17.45157,3.28824 -17.46675,5.97846 -22.79776,8.98112 l 31.71048,0.2122 4.71686,-31.73762 c 0,0 6.20117,-6.62361 7.60126,-11.53165 2.21817,-7.77571 -0.78447,-24.64024 -0.78447,-24.64024 3.50913,-12.08602 7.36204,-24.86284 13.62959,-42.46571 0,0 4.49724,26.91186 9.87055,37.87313 2.07845,4.23992 7.42992,8.78645 7.42992,8.78645 0,0 -4.45883,12.28353 -3.1459,18.34844 1.25111,5.77943 9.96068,14.67955 9.96068,14.67955 l 2.62092,19.3964 -0.26149,9.69921 18.08695,-0.26149 c -0.81064,-3.29503 -3.55804,-7.36598 -7.86276,-12.05864 0,0 -1.50311,-23.55349 -3.67088,-35.12392 -1.10076,-5.87527 -4.71886,-17.30047 -4.71886,-17.30047 0.74815,-13.2197 2.74536,-28.1155 -0.2615,-41.67923 -2.76703,-12.48194 -10.67136,-22.42449 -15.989,-34.86243 -1.85609,-4.34139 -2.17879,-14.976 -0.52498,-19.39842 7.3398,-19.62726 5.8587,-27.9235 12.5816,-49.80346 1.92159,-6.25391 13.18252,-21.4594 17.82547,-35.64892 3.15541,-9.6434 -11.44199,-31.83879 -11.00867,-32.50501 0,0 3.74682,-5.5997 3.1439,-10.48367 -0.54711,-4.43193 -2.81955,-11.59749 -5.76682,-15.20455 -1.74828,-2.13964 -4.05192,-4.74897 -6.8148,-4.71684 z m -49.11153,131.4341 c 0,0 10.96898,23.66533 11.1213,36.32877 0.0771,6.41556 -5.18953,18.53551 -5.18953,18.53551 0,0 -3.11652,-9.42473 -4.81944,-14.08618 -0.81891,-2.24159 -2.23862,-4.31421 -2.59476,-6.67399 -1.0353,-6.85975 1.23514,-13.82512 1.48243,-20.75814 0.15856,-4.44562 0,-13.34597 0,-13.34597 z m 24.46726,20.01794 c 1.43338,10e-5 2.5952,1.41141 2.59477,3.15194 -4.9e-4,1.73975 -1.16203,3.14982 -2.59477,3.14993 -1.43273,-1.1e-4 -2.59429,-1.41018 -2.59477,-3.14993 -4.3e-4,-1.74053 1.16139,-3.15184 2.59477,-3.15194 z"
       id="path3358"
       inkscape:connector-curvature="0"
       sodipodi:nodetypes="cssscsscsscscccsssssssscscssscscsccccsccscscccccscssssscssccscssscccccc" />
    <path
       sodipodi:nodetypes="ccccccsccccccsscsscccccscccccccscscccsscccc"
       inkscape:connector-curvature="0"
       id="path3366"
       d="m -208.69247,443.9338 c -10.60905,0.16273 -9.26046,10.52924 -7.96004,18.08978 0.91403,5.50879 5.24221,14.6797 5.24221,14.6797 l -2.09574,0 c -10.60751,1.89462 -26.89346,1.32945 -32.85672,10.83527 -4.26557,11.00845 -0.6596,41.9461 -11.88452,42.11908 -2.81321,-0.1173 -5.38109,-4.56719 -6.81605,-6.98975 -2.99337,-5.05353 -4.83393,-4.04395 -11.36056,-11.36112 l 3.49544,-11.53323 -5.59308,0.69795 -2.79559,6.29292 -4.54446,-0.35087 2e-4,-6.29103 c 0,0 -2.509,2.53944 -2.79559,4.19529 -0.49156,2.84009 1.15023,5.78502 3.14626,7.86436 1.42967,1.48934 4.89343,2.27107 4.89343,2.27107 0,0 13.99906,21.27205 22.37041,25.51687 2.04955,1.03925 4.36041,-1.82838 5.94206,-3.49544 8.78863,-9.26322 17.66114,-33.99278 17.66114,-33.99278 7.47358,18.30226 12.00693,42.43352 14.28418,50.5843 1.96801,6.93293 -5.96176,-0.55867 -12.02153,-2.96064 -10.10505,-3.97949 -21.68317,-11.1389 -27.26482,-9.43672 -9.68935,3.18759 -6.79165,18.03686 -8.38938,27.26477 0,0 -3.48428,11.8882 -3.84441,17.47528 -0.55641,8.63231 2.44661,24.81892 2.44661,24.81892 0,0 -10.29196,3.68735 -15.37923,7.68805 l 23.06918,-0.69759 c 3.38024,-15.14115 6.88694,-29.07725 11.18503,-40.54702 1.36661,-6.99076 -4.57623,-13.98186 -8.38867,-20.97261 0,0 8.23166,7.45224 11.19807,9.19522 12.00876,11.62081 21.92881,12.83549 35.29142,12.65108 2.64175,-0.28332 6.95625,-0.30024 8.73763,-2.27149 0.60379,-0.66813 0.94882,-1.76875 1.16073,-2.94541 0,0 1.52683,2.47789 2.68405,3.29496 11.56611,8.16636 10.42729,-22.59251 10.24179,-24.84332 -7.63874,-24.08321 1.91689,-50.12128 -0.45379,-69.8811 -1.36555,-5.2303 -4.77998,-5.83602 -9.78836,-4.89513 -6.64531,0 -5.5967,-12.66001 -3.84442,-19.22394 0.71673,-2.68482 0.18105,-9.65298 -3.14645,-12.23308 -0.51793,-0.40159 -1.15005,-0.57834 -1.82643,-0.6126 z m -25.08824,56.88855 c -0.86296,1.65952 4.76773,7.54242 -0.46657,0.89709 z"
       style="opacity:0.83800007;fill:none;fill-rule:evenodd;stroke:#d31b1b;stroke-width:3;stroke-linecap:butt;stroke-linejoin:miter;stroke-opacity:1" />
    <path
       style="fill:none;fill-rule:evenodd;stroke:#000000;stroke-width:0.97105974px;stroke-linecap:butt;stroke-linejoin:miter;stroke-opacity:1"
       d="m -283.76383,502.21966 -3.14584,-16.42827 10.1366,-1.04862 0.69907,13.28244 0,0"
       id="path3370"
       inkscape:connector-curvature="0" />
    <path
       style="fill:none;fill-rule:evenodd;stroke:#b61e1e;stroke-width:2;stroke-linecap:butt;stroke-linejoin:miter;stroke-opacity:1"
       d="m 60.60836,578.34248 -301.04156,0"
       id="path3377"
       inkscape:connector-curvature="0"
       sodipodi:nodetypes="cc" />
    <path
       id="path3381"
       style="fill:none;fill-rule:evenodd;stroke:#2b4de5;stroke-width:3;stroke-linecap:butt;stroke-linejoin:miter;stroke-opacity:1"
       d="m -400.06014,466.76038 0.98865,33.11951 c 0,0 0.4418,7.49143 0.49431,11.36939 0.084,6.20421 -1.65951,12.1758 -1.48296,18.28988 0.20649,7.15093 2.96593,21.25581 2.96593,21.25581 m 10.87507,5.93184 17.03651,0.40952 c 0,0 -16.34284,-2.03114 -17.53084,-8.81297 -2.34549,-13.38949 -0.64692,-27.51709 -0.49432,-43.50025 0.10702,-11.20896 1.65756,-23.38656 0.98865,-33.61385 -0.30795,-4.70834 -1.45183,-12.40867 -2.96593,-13.84099 -6.82398,-6.45539 -27.18767,-7.41481 -27.18767,-7.41481 -3.71114,-1.01212 -1.97728,-11.36939 -1.97728,-11.36939 l 0,2.96593 c 0,0 6.71048,1.92787 9.88642,0.98865 9.65717,1.16705 -3.88103,-39.94981 -13.84099,-26.19903 -3.74224,5.81675 -4.44889,20.26717 -4.44889,20.26717 l -4.9432,19.27852 c 0,0 -1.58564,15.65279 0,23.23309 1.76756,8.45006 8.17616,15.82859 10.38073,23.72742 1.74785,6.26244 2.96593,19.27852 2.96593,19.27852 0,0 -1.74539,8.57222 -1.97728,15.32396 -0.21292,14.06056 5.20327,21.16248 20.76149,19.77284 9.40528,-1.42819 18.02336,-2.69427 22.38923,-1.77253 7.99395,1.68772 20.66073,-1.3926 33.49389,-3.68983 0,0 -3.84395,10.59117 -2.87082,18.97866 0.52763,4.54771 2.35024,10.80718 4.82327,14.66001 2.93854,4.57808 6.67581,8.63331 9.3921,13.34666 3.53395,6.13219 2.22743,18.09931 8.89778,19.27853 10.94584,1.93507 25.21037,0 25.21037,0 -5.913,-2.76293 -19.77284,-8.89777 -19.77284,-8.89777 -7.82485,-3.80713 -10.2137,-33.01089 -11.36938,-51.40941 -0.24792,-3.94679 1.90149,-11.68341 -0.49432,-14.82963 -3.00308,-3.94368 -10.98017,-4.64563 -15.73347,-6.0518 -13.97477,-4.13414 -10.60053,-3.68114 -16.89173,-5.81191 -5.79127,-1.96144 -11.70057,-3.96186 -17.79556,-4.44889 -5.76984,-0.46105 -17.30124,1.48297 -17.30124,1.48297"
       inkscape:connector-curvature="0"
       sodipodi:nodetypes="ccsacccsssscccccccsscccscsssscssssssc" />
    <path
       style="fill:none;fill-rule:evenodd;stroke:#2121d8;stroke-width:2;stroke-linecap:butt;stroke-linejoin:miter;stroke-opacity:1"
       d="m -434.65644,557.01822 494.099474,0"
       id="path3384"
       inkscape:connector-curvature="0"
       sodipodi:nodetypes="cc" />
    <path
       id="path3394"
       style="fill:none;fill-rule:evenodd;stroke:#1fe03a;stroke-width:3;stroke-linecap:butt;stroke-linejoin:miter;stroke-opacity:1"
       d="m -173.32448,552.32351 c 0,0 13.73951,12.49102 14.68059,20.97227 1.5558,14.02113 -16.07874,39.14824 -16.07874,39.14824 m 43.93576,-77.52614 -16.67181,-1.46941 c 0,0 -20.55397,-1.14647 -30.06025,2.09723 -4.77101,1.62794 -8.64015,-0.4965 -10.48613,4.19445 -5.17431,13.14878 7.028,30.09218 7.68983,45.43992 0.49355,11.44558 -2.7963,34.2547 -2.7963,34.2547 m 62.9168,-141.91235 c 1.80846,11.87303 4.80909,24.13886 4.66325,35.65286 -0.16095,5.02969 -3.2916,14.7336 -3.2916,14.7336 l -17.19362,-0.3893 m 13.72474,-89.14539 2.79631,18.87504 -9.78706,2.09723 c -12.8723,2.75835 0.73173,35.98422 4.89353,55.92605 0,0 -21.6518,7.07979 -33.55563,6.29168 -5.44306,-0.36037 -11.34066,-4.63506 -16.77782,-4.19446 -6.65508,0.5393 -17.47689,9.78706 -17.47689,9.78706 m 67.81034,-90.18075 c -3.64935,6.05898 -2.7793,19.4289 -11.88429,10.48613 -4.67945,-2.67397 -9.5654,-17.21332 -8.38891,-28.6621 0.66357,-6.45732 13.13007,2.90709 18.17597,6.99076 9.29464,7.52219 16.50526,18.50361 19.57412,30.06025 5.15208,19.4016 -4.81844,40.09014 -3.49538,60.1205 0.81327,12.31252 12.72953,21.22798 7.48508,32.39736 -2.26063,4.81458 -11.35283,7.05858 -16.52105,8.31569 -8.83341,2.14861 -32.63355,-3.30221 -32.63355,-3.30221"
       inkscape:connector-curvature="0"
       sodipodi:nodetypes="cscccssscccccccscsscccssssssc" />
    <path
       style="fill:none;fill-rule:evenodd;stroke:#12d32a;stroke-width:0.97105974px;stroke-linecap:butt;stroke-linejoin:miter;stroke-opacity:1"
       d="m -530.85578,529.04926 591.183098,0"
       id="path3397"
       inkscape:connector-curvature="0"
       sodipodi:nodetypes="cc" />
    <path
       id="path3401"
       style="fill:none;fill-rule:evenodd;stroke:#b23fdd;stroke-width:3;stroke-linecap:butt;stroke-linejoin:miter;stroke-opacity:1"
       d="m -490.52613,503.4754 c -0.82549,-3.02679 -11.62663,28.14154 -10.45965,57.40371 0.53865,13.50674 -5.80127,29.10268 -9.75389,42.02935 -1.66346,5.44024 -7.31545,12.49855 -7.31545,12.49855 l 0.69907,0.69908 m 76.19925,-2.09723 -2.09722,-10.48613 -7.68984,-44.04177 -13.28243,-58.02327 c 0,0 -3.69043,-16.99341 -3.82007,-25.8658 -0.27847,-19.05623 9.41267,-55.92605 9.41267,-55.92605 0,0 -0.18297,37.68563 -0.83158,57.27119 -0.27171,8.20447 4.78616,26.90745 4.78616,26.90745 l 28.25258,0.40951 -16.25698,-9.6035 c -13.67513,-8.07833 2.07192,-53.81317 -1.88385,-84.51727 -1.24272,-9.64574 -24.01768,-2.71057 -30.06025,-10.33107 -4.71956,-5.95198 2.83078,-15.14138 0.61426,-22.77993 -1.38977,-4.78939 -4.10719,-11.63644 -9.08798,-11.88428 -3.26496,-0.16246 -5.45163,7.42379 -6.70119,10.06269 -3.7553,7.93071 5.8905,11.45029 3.90488,19.99756 -0.79094,3.40471 -3.29024,6.59753 -6.29168,8.38891 -4.04668,2.41523 -9.42712,0.8862 -13.98151,2.09723 -4.34934,1.1565 -10.04239,1.17901 -12.58337,4.89352 -3.28917,4.80827 -0.45177,11.66881 0,17.4769 0.57015,7.33004 2.99506,14.45084 3.41057,21.79128 0.27453,4.8501 -1.17166,9.73487 -0.61427,14.56065 1.19363,10.33425 8.38892,30.06025 8.38892,30.06025 -9.63536,1.88949 -17.02807,6.9539 -18.75511,10.16144 l 26.12025,0.0848 c 6.92045,0.0224 2.42192,-7.44995 2.42192,-7.44995 0,0 2.46152,-27.35212 -2.09723,-39.84731 -0.9889,-2.71049 -4.25239,-4.18715 -5.21822,-6.90594 -3.36582,-9.47464 -1.07346,-30.14507 -1.07346,-30.14507 0,0 11.58883,25.65016 15.37966,39.14824 2.55853,9.1102 5.23285,18.50645 4.89353,27.96302 -0.10336,2.88052 -2.09722,8.38891 -2.09722,8.38891"
       inkscape:connector-curvature="0"
       sodipodi:nodetypes="cssccccccscsccsssssssssssssccscsscssc" />
    <path
       style="fill:none;fill-rule:evenodd;stroke:#000000;stroke-width:0.97105974px;stroke-linecap:butt;stroke-linejoin:miter;stroke-opacity:1"
       d="m -661.10048,618.89441 720.720199,0"
       id="path3404"
       inkscape:connector-curvature="0"
       sodipodi:nodetypes="cc" />
    <path
       style="fill:none;fill-rule:evenodd;stroke:#b939d2;stroke-width:2;stroke-linecap:butt;stroke-linejoin:miter;stroke-opacity:1"
       d="M -530.5997,504.97821 60.603367,503.00092"
       id="path3406"
       inkscape:connector-curvature="0"
       sodipodi:nodetypes="cc" />
    <path
       id="path3418"
       style="fill:none;fill-rule:evenodd;stroke:#1e3bcc;stroke-width:3;stroke-linecap:butt;stroke-linejoin:miter;stroke-opacity:1"
       d="m -69.015299,503.69013 c 0,0 7.135674,54.1095 16.575656,79.39181 1.444384,3.86837 5.400183,14.56049 6.657434,18.49365 1.263242,3.9519 1.482963,12.35802 1.482963,12.35802 l -4.12221,3.65971 m -54.702004,1.2835 c 7.748469,0.878 11.754064,-0.73926 13.709462,-3.72331 6.711877,-56.71291 12.698176,-73.0386 19.410053,-110.46487 m -23.532264,0 c 0,0 -3.186481,27.49608 -4.149711,41.52299 -1.14104,16.61605 4.319261,33.43672 1.97728,49.92642 -0.80596,5.67472 -5.43753,16.3126 -5.43753,16.3126 m 53.386679,-140.3872 c 0,0 -0.119126,14.37971 0.494318,18.28988 2.01362,12.83508 5.62289,21.24026 7.414818,34.10816 3.181776,22.84843 3.396632,69.56775 3.396632,69.56775 1.373183,9.77732 2.157573,21.32103 6.294645,22.80668 M -78.901726,463.16567 c 1.240363,10.66226 8.403466,23.2331 8.403466,23.2331 l -0.247167,-12.6052 5.437537,11.86371 c 1.998344,4.36002 -0.988646,-13.09951 -0.988646,-13.09951 0,0 5.684691,17.05328 5.684691,12.85236 1e-5,-11.36939 -5.931855,-26.19903 -5.931855,-26.19903 -1.703423,-1.53802 -4.13115,-2.46632 -6.426172,-2.4716 -12.572104,-0.0289 -33.860988,4.94321 -33.860988,4.94321 7.988723,-12.14872 13.874148,-22.98522 20.813497,-35.1286 m 37.022063,-3.42845 c 5.471016,8.93082 26.349845,34.47432 19.031363,34.10816 -24.673793,-3.07993 -43.313829,-14.72382 -53.386668,-12.35803 -12.380645,2.90782 -23.233095,16.3126 -23.233095,16.3126 l 21.255804,-4.94322 11.369378,-3.46024 c 0,0 25.18561,11.29871 38.557054,14.33531 5.324389,1.20914 20.423151,2.68882 19.278527,-2.96593 -4.048379,-20.00006 -13.764607,-41.56737 -23.727418,-57.83557 -4.482256,-7.31904 -21.264485,6.57204 -27.155856,0.33099 0,0 15.193044,-37.14714 -3.986377,-36.41644 -20.029906,0.89396 -3.841122,27.07309 -5.732402,36.57978 -4.692202,4.89578 -17.338549,-0.40329 -20.96093,1.97728 -4.76149,3.464 -5.43754,16.80691 -5.43754,16.80691 -6.30915,19.50098 -12.58244,29.35529 -15.32395,42.51162 l 36.579759,-0.49432"
       inkscape:connector-curvature="0"
       sodipodi:nodetypes="cssccccccssccsscccccscscsccccscccsssccccccc" />
    <path
       style="fill:none;fill-rule:evenodd;stroke:#2921df;stroke-width:2;stroke-linecap:butt;stroke-linejoin:miter;stroke-opacity:1"
       d="m 61.597002,468.10888 -716.765632,0"
       id="path3421"
       inkscape:connector-curvature="0"
       sodipodi:nodetypes="cc" />
    <path
       style="fill:none;fill-rule:evenodd;stroke:#000000;stroke-width:2;stroke-linecap:butt;stroke-linejoin:miter;stroke-opacity:1"
       d="m -654.17998,364.79577 717.754267,0"
       id="path3423"
       inkscape:connector-curvature="0"
       sodipodi:nodetypes="cc" />
    <path
       style="fill:#000080;fill-rule:evenodd;stroke:#2e5f9e;stroke-width:2;stroke-linecap:butt;stroke-linejoin:miter;stroke-opacity:1"
       d="m -652.2027,309.46697 711.822418,0"
       id="path3425"
       inkscape:connector-curvature="0"
       sodipodi:nodetypes="cc" />
    <path
       id="path3431"
       style="fill:none;fill-rule:evenodd;stroke:#d32828;stroke-width:3;stroke-linecap:butt;stroke-linejoin:miter;stroke-opacity:1"
       d="m -558.80913,409.22939 c 0,0 -4.83972,2.13411 -6.29168,4.19445 -2.21384,3.14145 -4.63493,7.81041 -2.79631,11.18521 2.7675,5.07975 10.1754,4.40524 16.42828,5.5926 11.68462,2.2188 36.70147,0.69908 36.70147,0.69908 0,0 4.42612,1.45415 5.59261,0 1.3443,-1.67583 0.61905,-5.55246 -1.39816,-6.29168 -13.70517,-5.02237 -44.10971,-13.29994 -43.34268,-14.68059 m 16.77781,22.37042 c 0,0 -12.57254,34.82352 -11.53475,52.43067 0.54742,9.2874 8.03937,24.46765 8.03937,24.46765 0,0 17.69064,18.47985 22.37042,30.06025 2.72901,6.7531 2.32929,14.40266 2.79631,21.67135 1.12057,17.44093 -9.62088,37.84024 0,52.43067 2.93081,4.44469 15.37966,4.99075 15.37966,4.99075 l -20.97227,-0.69908 c 0,0 -2.00278,-7.80825 -3.14584,-12.68058 -2.69144,-11.47243 -7.10501,-25.96673 -8.73844,-34.2547 -1.35552,-6.87785 1.99305,-19.57412 1.99305,-19.57412 -7.58537,-3.53556 -10.24533,-9.0599 -15.97457,-15.37967 m -6.29168,-35.65285 c 1.168,9.22915 3.2369,18.0482 4.89353,27.26395 2.91357,15.89647 -2.48761,26.07378 -2.7963,42.64361 -0.0582,3.12582 -3.58774,5.32198 -4.19445,8.38891 -1.85906,9.39746 2.09722,28.6621 2.09722,28.6621 7.62022,10.09647 10.54554,9.62942 14.68059,11.88428 l -21.67134,-0.69907 c 0,0 -0.86287,-9.13705 -1.74769,-13.63198 -2.35267,-11.95164 -7.85114,-22.72501 -9.43752,-35.30332 -1.22604,-9.72114 2.2959,-19.60424 1.39815,-29.36117 -1.11864,-12.15748 -9.88304,-23.5358 -8.38891,-35.65286 0.99486,-8.0681 9.98617,-12.99441 11.18521,-21.67134 2.29045,-16.57493 -11.96797,-33.38111 -9.78706,-50.33345 1.27005,-9.87211 6.44195,-18.21358 12.9329,-26.91441 4.58442,-6.14521 3.07664,-11.96594 6.64122,-22.02088 1.31734,-3.71595 5.37379,-7.22677 9.78706,-6.64122 6.53777,0.86743 7.39861,7.76718 8.03937,14.33105 0.50877,5.21181 1.22141,12.23655 -3.14584,14.68059 -3.66591,2.05155 -9.70716,-0.60171 -11.88429,-4.19446 -0.85394,-1.40919 0.69908,-4.89352 0.69908,-4.89352 l 0.69907,0" />
    <path
       style="fill:none;fill-rule:evenodd;stroke:#ce2d2d;stroke-width:2;stroke-linecap:butt;stroke-linejoin:miter;stroke-opacity:1"
       d="m 62.091317,434.00072 -716.765647,0"
       id="path3421-1"
       inkscape:connector-curvature="0"
       sodipodi:nodetypes="cc" />
    <text
       xml:space="preserve"
       style="font-style:normal;font-variant:normal;font-weight:normal;font-stretch:normal;line-height:0%;font-family:Nakula;-inkscape-font-specification:'Nakula, Normal';text-align:start;letter-spacing:0px;word-spacing:0px;writing-mode:lr-tb;text-anchor:start;fill:#000000;fill-opacity:1;stroke:none;stroke-width:1px;stroke-linecap:butt;stroke-linejoin:miter;stroke-opacity:1"
       x="30.774036"
       y="306.59842"
       id="text4253"><tspan
         sodipodi:role="line"
         id="tspan4255"
         x="30.774036"
         y="306.59842"
         style="font-size:14.5659px;line-height:1">9.04</tspan></text>
    <text
       xml:space="preserve"
       style="font-style:normal;font-variant:normal;font-weight:normal;font-stretch:normal;line-height:0%;font-family:Nakula;-inkscape-font-specification:'Nakula, Normal';text-align:start;letter-spacing:0px;word-spacing:0px;writing-mode:lr-tb;text-anchor:start;fill:#000000;fill-opacity:1;stroke:none;stroke-width:1px;stroke-linecap:butt;stroke-linejoin:miter;stroke-opacity:1"
       x="30.482433"
       y="360.77679"
       id="text4257"><tspan
         sodipodi:role="line"
         id="tspan4259"
         x="30.482433"
         y="360.77679"
         style="font-size:14.5659px;line-height:1">7.316</tspan></text>
    <text
       xml:space="preserve"
       style="font-style:normal;font-variant:normal;font-weight:normal;font-stretch:normal;line-height:0%;font-family:Nakula;-inkscape-font-specification:'Nakula, Normal';text-align:start;letter-spacing:0px;word-spacing:0px;writing-mode:lr-tb;text-anchor:start;fill:#000000;fill-opacity:1;stroke:none;stroke-width:1px;stroke-linecap:butt;stroke-linejoin:miter;stroke-opacity:1"
       x="30.247728"
       y="429.98523"
       id="text4261"><tspan
         sodipodi:role="line"
         id="tspan4263"
         x="30.247728"
         y="429.98523"
         style="font-size:14.5659px;line-height:1">5.588</tspan></text>
    <text
       xml:space="preserve"
       style="font-style:normal;font-variant:normal;font-weight:normal;font-stretch:normal;line-height:0%;font-family:Nakula;-inkscape-font-specification:'Nakula, Normal';text-align:start;letter-spacing:0px;word-spacing:0px;writing-mode:lr-tb;text-anchor:start;fill:#000000;fill-opacity:1;stroke:none;stroke-width:1px;stroke-linecap:butt;stroke-linejoin:miter;stroke-opacity:1"
       x="31.030077"
       y="464.58951"
       id="text4265"><tspan
         sodipodi:role="line"
         id="tspan4267"
         x="31.030077"
         y="464.58951"
         style="font-size:14.5659px;line-height:1">4.52</tspan></text>
    <text
       xml:space="preserve"
       style="font-style:normal;font-variant:normal;font-weight:normal;font-stretch:normal;line-height:0%;font-family:Nakula;-inkscape-font-specification:'Nakula, Normal';text-align:start;letter-spacing:0px;word-spacing:0px;writing-mode:lr-tb;text-anchor:start;fill:#000000;fill-opacity:1;stroke:none;stroke-width:1px;stroke-linecap:butt;stroke-linejoin:miter;stroke-opacity:1"
       x="30.389975"
       y="500.24237"
       id="text4269"><tspan
         sodipodi:role="line"
         id="tspan4271"
         x="30.389975"
         y="500.24237"
         style="font-size:14.5659px;line-height:1">3.452</tspan></text>
    <text
       xml:space="preserve"
       style="font-style:normal;font-variant:normal;font-weight:normal;font-stretch:normal;line-height:0%;font-family:Nakula;-inkscape-font-specification:'Nakula, Normal';text-align:start;letter-spacing:0px;word-spacing:0px;writing-mode:lr-tb;text-anchor:start;fill:#000000;fill-opacity:1;stroke:none;stroke-width:1px;stroke-linecap:butt;stroke-linejoin:miter;stroke-opacity:1"
       x="30.432648"
       y="527.1568"
       id="text4273"><tspan
         sodipodi:role="line"
         id="tspan4275"
         x="30.432648"
         y="527.1568"
         style="font-size:14.5659px;line-height:1">2.792</tspan></text>
    <text
       xml:space="preserve"
       style="font-style:normal;font-variant:normal;font-weight:normal;font-stretch:normal;line-height:0%;font-family:Nakula;-inkscape-font-specification:'Nakula, Normal';text-align:start;letter-spacing:0px;word-spacing:0px;writing-mode:lr-tb;text-anchor:start;fill:#000000;fill-opacity:1;stroke:none;stroke-width:1px;stroke-linecap:butt;stroke-linejoin:miter;stroke-opacity:1"
       x="29.600513"
       y="554.12073"
       id="text4277"><tspan
         sodipodi:role="line"
         id="tspan4279"
         x="29.600513"
         y="554.12073"
         style="font-size:14.5659px;line-height:1">1.728</tspan></text>
    <text
       xml:space="preserve"
       style="font-style:normal;font-variant:normal;font-weight:normal;font-stretch:normal;line-height:0%;font-family:Nakula;-inkscape-font-specification:'Nakula, Normal';text-align:start;letter-spacing:0px;word-spacing:0px;writing-mode:lr-tb;text-anchor:start;fill:#000000;fill-opacity:1;stroke:none;stroke-width:1px;stroke-linecap:butt;stroke-linejoin:miter;stroke-opacity:1"
       x="29.600513"
       y="576.39056"
       id="text4281"><tspan
         sodipodi:role="line"
         id="tspan4283"
         x="29.600513"
         y="576.39056"
         style="font-size:14.5659px;line-height:1">1.068</tspan></text>
    <text
       xml:space="preserve"
       style="font-style:normal;font-variant:normal;font-weight:normal;font-stretch:normal;line-height:0%;font-family:Nakula;-inkscape-font-specification:'Nakula, Normal';text-align:start;letter-spacing:0px;word-spacing:0px;writing-mode:lr-tb;text-anchor:start;fill:#000000;fill-opacity:1;stroke:none;stroke-width:1px;stroke-linecap:butt;stroke-linejoin:miter;stroke-opacity:1"
       x="30.896568"
       y="592.72058"
       id="text3376"><tspan
         sodipodi:role="line"
         id="tspan3378"
         x="30.896568"
         y="592.72058"
         style="font-size:15px;line-height:1">zem</tspan></text>
    <text
       xml:space="preserve"
       style="font-style:normal;font-variant:normal;font-weight:normal;font-stretch:normal;line-height:0%;font-family:Nakula;-inkscape-font-specification:'Nakula, Normal';text-align:start;letter-spacing:0px;word-spacing:0px;writing-mode:lr-tb;text-anchor:start;fill:#000000;fill-opacity:1;stroke:none;stroke-width:1px;stroke-linecap:butt;stroke-linejoin:miter;stroke-opacity:1"
       x="-653.60095"
       y="306.59842"
       id="text1"><tspan
         sodipodi:role="line"
         id="tspan1"
         x="-653.60095"
         y="306.59842"
         style="font-size:14.5659px;line-height:1">9.04</tspan></text>
    <text
       xml:space="preserve"
       style="font-style:normal;font-variant:normal;font-weight:normal;font-stretch:normal;line-height:0%;font-family:Nakula;-inkscape-font-specification:'Nakula, Normal';text-align:start;letter-spacing:0px;word-spacing:0px;writing-mode:lr-tb;text-anchor:start;fill:#000000;fill-opacity:1;stroke:none;stroke-width:1px;stroke-linecap:butt;stroke-linejoin:miter;stroke-opacity:1"
       x="-653.89258"
       y="360.77679"
       id="text2"><tspan
         sodipodi:role="line"
         id="tspan2"
         x="-653.89258"
         y="360.77679"
         style="font-size:14.5659px;line-height:1">7.316</tspan></text>
    <text
       xml:space="preserve"
       style="font-style:normal;font-variant:normal;font-weight:normal;font-stretch:normal;line-height:0%;font-family:Nakula;-inkscape-font-specification:'Nakula, Normal';text-align:start;letter-spacing:0px;word-spacing:0px;writing-mode:lr-tb;text-anchor:start;fill:#000000;fill-opacity:1;stroke:none;stroke-width:1px;stroke-linecap:butt;stroke-linejoin:miter;stroke-opacity:1"
       x="-654.12726"
       y="429.98523"
       id="text3"><tspan
         sodipodi:role="line"
         id="tspan3"
         x="-654.12726"
         y="429.98523"
         style="font-size:14.5659px;line-height:1">5.588</tspan></text>
    <text
       xml:space="preserve"
       style="font-style:normal;font-variant:normal;font-weight:normal;font-stretch:normal;line-height:0%;font-family:Nakula;-inkscape-font-specification:'Nakula, Normal';text-align:start;letter-spacing:0px;word-spacing:0px;writing-mode:lr-tb;text-anchor:start;fill:#000000;fill-opacity:1;stroke:none;stroke-width:1px;stroke-linecap:butt;stroke-linejoin:miter;stroke-opacity:1"
       x="-653.34491"
       y="464.58951"
       id="text4"><tspan
         sodipodi:role="line"
         id="tspan4"
         x="-653.34491"
         y="464.58951"
         style="font-size:14.5659px;line-height:1">4.52</tspan></text>
    <text
       xml:space="preserve"
       style="font-style:normal;font-variant:normal;font-weight:normal;font-stretch:normal;line-height:0%;font-family:Nakula;-inkscape-font-specification:'Nakula, Normal';text-align:start;letter-spacing:0px;word-spacing:0px;writing-mode:lr-tb;text-anchor:start;fill:#000000;fill-opacity:1;stroke:none;stroke-width:1px;stroke-linecap:butt;stroke-linejoin:miter;stroke-opacity:1"
       x="-653.47839"
       y="482.09558"
       id="text5"><tspan
         sodipodi:role="line"
         id="tspan5"
         x="-653.47839"
         y="482.09558"
         style="font-size:15px;line-height:1">zem</tspan></text>
  </g>
</svg>
