<?xml version="1.0" encoding="UTF-8" standalone="no"?>
<svg
   version="1.1"
   id="Layer_1"
   x="0px"
   y="0px"
   width="194.00772"
   viewBox="0 0 194.00772 194.74867"
   enable-background="new 0 0 1126 209"
   xml:space="preserve"
   sodipodi:docname="positron.svg"
   height="194.74867"
   inkscape:version="1.4 (e7c3feb1, 2024-10-09)"
   xmlns:inkscape="http://www.inkscape.org/namespaces/inkscape"
   xmlns:sodipodi="http://sodipodi.sourceforge.net/DTD/sodipodi-0.dtd"
   xmlns="http://www.w3.org/2000/svg"
   xmlns:svg="http://www.w3.org/2000/svg"><defs
   id="defs7" /><sodipodi:namedview
   id="namedview7"
   pagecolor="#ffffff"
   bordercolor="#000000"
   borderopacity="0.25"
   inkscape:showpageshadow="2"
   inkscape:pageopacity="0.0"
   inkscape:pagecheckerboard="0"
   inkscape:deskcolor="#d1d1d1"
   inkscape:zoom="0.78136952"
   inkscape:cx="-3.1995105"
   inkscape:cy="158.05582"
   inkscape:window-width="1472"
   inkscape:window-height="896"
   inkscape:window-x="0"
   inkscape:window-y="32"
   inkscape:window-maximized="0"
   inkscape:current-layer="Layer_1" />


<path
   fill="#3b79b1"
   opacity="1"
   stroke="none"
   d="m 151.46101,0.00590507 c 9.70295,2.25237703 18.4701,5.26897103 25.90431,11.63980493 9.82811,8.422304 16.1577,18.924926 16.33725,31.709716 0.50485,35.945774 0.26645,71.903654 0.10913,107.855834 -0.0367,8.38569 -3.22041,16.02632 -8.00832,22.81436 -8.1544,11.56084 -19.34642,18.31569 -33.66211,20.42361 -36.26625,0.36698 -72.321369,0.40848 -109.062015,0.0587 C 31.928299,193.29079 23.058461,189.13995 15.3354,181.97517 7.3117177,174.53149 2.3106417,165.5703 0.0270717,154.97069 -0.0142643,116.91553 -0.0556003,78.860359 0.2885547,40.131202 2.1923117,26.136631 10.09566,16.826282 20.064917,8.9075101 c 6.63872,-5.273261 14.69586,-7.130218 22.766531,-8.84026403 36.054501,-0.04146 72.109002,-0.082919 108.629562,-0.061341 M 33.550366,95.421419 c 1.9e-5,22.818041 6.29e-4,45.636091 -1.49e-4,68.454141 -5.15e-4,15.06398 2.022747,16.90804 17.093166,16.35344 4.910511,-0.18071 7.287831,-2.80606 8.106259,-7.18805 0.392822,-2.10321 0.273567,-4.31425 0.274917,-6.47653 0.01686,-26.98207 -0.104187,-53.96484 0.05496,-80.945989 0.111717,-18.939934 13.782318,-35.418907 32.228318,-39.381882 17.91414,-3.848713 38.45219,6.615173 45.87858,23.37458 7.29456,16.461892 1.55034,37.757631 -13.36943,48.747471 -3.39552,2.50114 -7.29504,4.31808 -11.10617,6.53341 4.46974,8.5268 4.05502,17.03427 0.34559,25.87648 1.02248,-0.0573 1.67276,0.007 2.27037,-0.14161 35.90347,-8.90923 57.32539,-41.14234 50.40924,-77.461399 C 160.89207,47.728271 145.37894,30.217624 120.77628,22.300235 96.22794,14.400327 73.614922,19.189218 54.760193,37.40208 38.691208,52.924022 32.137024,72.258819 33.550366,95.421419 m 36.199856,51.881151 c 6.824455,12.01024 19.763702,16.20952 30.929558,10.03784 10.9594,-6.05757 14.85628,-19.73259 8.7262,-30.62206 -5.60013,-9.94802 -18.12346,-14.10355 -28.510083,-9.46027 -11.191047,5.00289 -15.804207,16.78458 -11.145675,30.04449 z"
   id="path3" />


<path
   fill="#fefefe"
   opacity="1"
   stroke="none"
   d="M 33.550209,94.921529 C 32.137024,72.258819 38.691208,52.924022 54.760193,37.40208 73.614922,19.189218 96.22794,14.400327 120.77628,22.300235 c 24.60266,7.917389 40.11579,25.428036 44.95974,50.865246 6.91615,36.319059 -14.50577,68.552169 -50.40924,77.461399 -0.59761,0.1483 -1.24789,0.0843 -2.27037,0.14161 3.70943,-8.84221 4.12415,-17.34968 -0.34559,-25.87648 3.81113,-2.21533 7.71065,-4.03227 11.10617,-6.53341 14.91977,-10.98984 20.66399,-32.285579 13.36943,-48.747471 -7.42639,-16.759407 -27.96444,-27.223293 -45.87858,-23.37458 -18.446,3.962975 -32.116601,20.441948 -32.228318,39.381882 -0.15915,26.981149 -0.0381,53.963919 -0.05496,80.945989 -0.0014,2.16228 0.117905,4.37332 -0.274917,6.47653 -0.818428,4.38199 -3.195748,7.00734 -8.106259,7.18805 -15.070419,0.5546 -17.093681,-1.28946 -17.093166,-16.35344 7.78e-4,-22.81805 1.68e-4,-45.6361 -8e-6,-68.954031 z"
   id="path6" />
<path
   fill="#fdfefe"
   opacity="1"
   stroke="none"
   d="m 69.579667,146.94855 c -4.487977,-12.90589 0.125183,-24.68758 11.31623,-29.69047 10.386623,-4.64328 22.909953,-0.48775 28.510083,9.46027 6.13008,10.88947 2.2332,24.56449 -8.7262,30.62206 -11.165856,6.17168 -24.105103,1.9724 -31.100113,-10.39186 z"
   id="path7" />
</svg>
