<?xml version="1.0" encoding="UTF-8" standalone="no"?>
<!-- Created with Inkscape (http://www.inkscape.org/) -->

<svg
   id="svg9263"
   version="1.1"
   width="53.981823"
   height="162.20856"
   sodipodi:docname="Semigarrapatea.svg"
   inkscape:version="1.4 (e7c3feb1, 2024-10-09)"
   xmlns:inkscape="http://www.inkscape.org/namespaces/inkscape"
   xmlns:sodipodi="http://sodipodi.sourceforge.net/DTD/sodipodi-0.dtd"
   xmlns="http://www.w3.org/2000/svg"
   xmlns:svg="http://www.w3.org/2000/svg">
  <sodipodi:namedview
     id="namedview1"
     pagecolor="#ffffff"
     bordercolor="#000000"
     borderopacity="0.25"
     inkscape:showpageshadow="2"
     inkscape:pageopacity="0.0"
     inkscape:pagecheckerboard="0"
     inkscape:deskcolor="#d1d1d1"
     inkscape:zoom="1.1038424"
     inkscape:cx="4.5296321"
     inkscape:cy="155.36638"
     inkscape:window-width="1472"
     inkscape:window-height="896"
     inkscape:window-x="0"
     inkscape:window-y="32"
     inkscape:window-maximized="0"
     inkscape:current-layer="svg9263" />
  <defs
     id="defs9267" />
  <path
     style="fill:#000000;fill-opacity:1;stroke:none"
     d="M 26.981604,141.05625 26.984604,0 l 2.0005,0.038146 c 0.92472,3.3874496 1.5503,6.9629993 3.52864,9.962415 1.99154,3.497804 12.09687,12.61848 15.72526,18.052197 1.80942,2.645339 2.53275,4.862318 3.14603,6.816389 0.63832,2.286983 0.69729,4.964284 0.6337,7.431258 -0.046,2.904808 -0.87039,6.311086 -1.44895,8.730879 l -0.62083,-1.899627 c -0.0344,-3.191799 0.31541,-6.490361 -0.51146,-9.618376 -0.65586,-2.690193 -2.27489,-5.513079 -4.41942,-8.089781 -4.25581,-5.234997 -10.0805,-10.473021 -15.52701,-13.357969 -0.0561,3.022038 1.08957,6.340404 2.11895,7.964781 3.86726,6.145928 11.912,11.710365 15.4305,17.378048 1.31971,1.784693 2.57321,4.455435 3.45914,6.644482 1.26835,3.299158 1.47723,6.335714 1.4981,9.512983 -0.0671,2.803405 -0.70031,6.143427 -1.05046,9.215141 l -0.97067,-3.476826 c -0.34798,-3.019753 0.30003,-5.741457 -0.98857,-8.787338 -1.05661,-2.41489 -2.4336,-5.203858 -4.11979,-7.041106 -4.55226,-4.94774 -10.23707,-8.888771 -15.3556,-13.333157 0.18249,2.316573 0.98063,4.915343 2.47187,7.340727 4.73568,7.703695 11.95215,14.48258 17.99452,21.823307 1.30491,3.962846 2.03134,8.247402 2.00522,12.708073 -0.0358,2.410966 -0.65667,5.754212 -0.99994,8.637293 l -1.00094,-3.140677 c 0.0276,-2.339387 -0.27115,-4.694399 -0.62493,-7.018161 -0.53129,-2.87058 -1.7605,-6.105268 -3.29172,-8.066344 -3.15685,-4.544228 -8.16883,-11.358193 -16.66214,-14.440821 0.25709,2.447604 1.34577,4.746711 2.1305,7.100094 3.34844,6.658118 13.04796,14.513242 18.44694,22.426113 1.66069,3.783654 2.05059,8.426971 2.00223,11.955458 -0.004,0.913 0.0706,4.26206 -0.8719,6.815259 l -1.12358,-2.28162 c -0.32022,-2.548239 -0.58915,-5.062009 -1.15055,-7.529856 -1.73197,-8.106345 -11.48895,-14.286103 -19.39405,-20.985912 0.10148,2.818104 0.30589,6.389467 2.01601,8.476714 6.12233,6.724162 14.38025,12.168663 18.51998,20.036625 2.2694,2.871969 2.95485,8.490179 2.95577,13.136719 -0.0334,1.31008 -0.26478,2.97325 -0.69758,4.419 l -1.5626,-3.12352 c 0.13922,-2.72156 -0.7533,-5.15586 -1.61281,-7.87742 -3.36765,-8.922689 -12.68842,-12.811789 -19.64974,-18.590011 0.14501,2.510392 0.68687,5.352241 1.97207,8.028362 0.80163,1.91466 13.02652,12.226289 19.28981,18.441509 3.4545,3.54153 3.30373,8.8066 3.30358,11.44573 0.0482,3.90801 -0.45789,7.55772 -1.55472,11.97138 -0.12932,0.60626 -2.1778,6.32394 -4.94963,8.2062 1.63062,-3.24322 2.59804,-5.80213 3.49711,-10.06582 0.73219,-3.32219 0.83991,-5.39992 0.86302,-7.19045 -1.4e-4,-3.07189 -1.17287,-6.34305 -2.99622,-8.53921 -4.9615,-5.83327 -12.43439,-11.19114 -19.85686,-15.22694 l -8.1e-4,43.48189 c 0.014,1.38624 -1.89376,5.73413 -4.52397,8.22397 -1.44461,1.44778 -7.50512,5.44083 -13.894946,5.46809 C 5.40284,162.23379 0.196766,160.40639 0,155.16718 c 0.05271,-8.50683 11.64089,-15.55968 20.074644,-15.65522 3.01449,-0.17231 5.67534,0.93423 6.90696,1.54429 z"
     id="path9273" />
</svg>
