<?xml version="1.0" encoding="UTF-8" standalone="no"?>
<!-- Created with Inkscape (http://www.inkscape.org/) -->

<svg
   id="svg8637"
   version="1.1"
   width="14.690024"
   height="40.006741"
   sodipodi:docname="Silencio_de_semigarrapatea.svg"
   inkscape:version="1.4 (e7c3feb1, 2024-10-09)"
   viewBox="0 0 58.760099 160.02697"
   xmlns:inkscape="http://www.inkscape.org/namespaces/inkscape"
   xmlns:sodipodi="http://sodipodi.sourceforge.net/DTD/sodipodi-0.dtd"
   xmlns="http://www.w3.org/2000/svg"
   xmlns:svg="http://www.w3.org/2000/svg">
  <sodipodi:namedview
     id="namedview1"
     pagecolor="#ffffff"
     bordercolor="#000000"
     borderopacity="0.25"
     inkscape:showpageshadow="2"
     inkscape:pageopacity="0.0"
     inkscape:pagecheckerboard="0"
     inkscape:deskcolor="#d1d1d1"
     inkscape:zoom="2.6621046"
     inkscape:cx="25.355878"
     inkscape:cy="68.930424"
     inkscape:window-width="1256"
     inkscape:window-height="896"
     inkscape:window-x="221"
     inkscape:window-y="32"
     inkscape:window-maximized="0"
     inkscape:current-layer="svg8637" />
  <defs
     id="defs8641" />
  <path
     style="fill:#000000;fill-opacity:1;stroke:none"
     d="m 32.709057,20.973846 c 7.02489,0.0361 6.65952,6.658479 5.9009,10.395942 1.89551,0.194794 8.71922,-4.025012 10.12538,-6.748702 1.75133,-2.493574 2.45024,-10.456027 3.0201,-13.49611 -1.9934,1.114169 -5.55,2.834081 -9.95613,2.733187 -4.10674,0.09631 -8.2874,-3.079899 -8.23092,-7.3534912 0.006,-3.904562 2.43054,-6.5808686 6.03325,-6.503017 3.34815,-0.071559 6.42188,3.771596 6.41179,6.350611 0.0341,1.783519 0.0559,2.324996 -0.2913,3.8922932 4.51457,-0.6756782 9.59011,-5.3488372 11.08933,-7.7995002 l 1.94864,-0.01253 -26.10589,89.1693302 -18.677928,68.415101 -1.780333,0.005 -1.780334,0.005 c 3.049183,-10.58966 6.098364,-21.17931 9.147544,-31.76897 0,0 -6.999971,2.72198 -11.085996,2.72421 -4.496839,0.002 -8.274709,-2.20158 -8.47716,-7.21854 0.07878,-3.15849 1.575302,-6.7739 6.962153,-6.78627 4.551963,0.003 6.371819,2.80096 6.343742,5.79057 0.02499,1.67849 -0.187319,3.22656 -0.599243,4.36268 4.480481,0.32336 7.500512,-2.76652 7.983849,-4.37177 l 5.014896,-18.77575 c -2.157293,1.23474 -5.731578,2.99271 -9.88751,2.99622 -4.227269,-0.003 -8.835566,-2.52198 -8.846201,-7.221471 0.02073,-3.77902 2.737726,-6.76798 6.652006,-6.77139 4.138735,0.006 6.376748,3.3623 6.43927,6.33625 0.02604,2.010271 -0.54477,2.871461 -0.958326,3.555191 5.104609,0.10579 7.783001,-3.159441 8.009551,-3.982841 l 5.33269,-19.625213 c -3.66814,1.77106 -7.26726,2.698273 -10.794182,2.704406 -5.373362,0.01174 -8.026877,-2.906216 -8.23178,-7.198729 0.07052,-3.295011 1.915313,-6.785618 6.591673,-6.801071 4.967143,-3.39e-4 6.433383,3.575117 6.441863,6.052018 -0.02253,1.3785 -0.175858,2.69169 -0.599247,3.895079 3.471633,0.728916 7.244653,-3.009126 7.640353,-4.194701 l 5.24338,-18.426723 c -3.33466,1.387271 -6.7024,2.681185 -10.17778,2.677867 -5.10594,-0.03794 -8.57254,-3.376829 -8.581677,-7.465191 0.01295,-3.537117 2.638818,-6.532474 6.30643,-6.532752 5.265017,-0.0032 6.712207,3.495477 6.693927,5.971082 -0.008,1.949609 -0.41105,3.110787 -0.83258,3.956818 3.43605,0.50779 7.6554,-2.826099 7.97929,-3.873298 l 4.60482,-17.805383 c -2.81982,1.118806 -5.69944,2.766101 -9.58789,2.74956 -2.77672,-0.0087 -8.208595,-0.746231 -8.68903,-7.243883 -0.08584,-3.867412 3.10798,-6.745917 6.25461,-6.761119 z"
     id="path8647" />
</svg>
