<?xml version="1.0" encoding="UTF-8" standalone="no"?>
<!-- Created with Inkscape (http://www.inkscape.org/) -->

<svg
   width="208.33372mm"
   height="208.09441mm"
   viewBox="0 0 208.33373 208.0944"
   version="1.1"
   id="svg1"
   xml:space="preserve"
   inkscape:version="1.4 (e7c3feb1, 2024-10-09)"
   sodipodi:docname="squareZem.svg"
   xmlns:inkscape="http://www.inkscape.org/namespaces/inkscape"
   xmlns:sodipodi="http://sodipodi.sourceforge.net/DTD/sodipodi-0.dtd"
   xmlns="http://www.w3.org/2000/svg"
   xmlns:svg="http://www.w3.org/2000/svg"><sodipodi:namedview
     id="namedview1"
     pagecolor="#ffffff"
     bordercolor="#000000"
     borderopacity="0.25"
     inkscape:showpageshadow="2"
     inkscape:pageopacity="0.0"
     inkscape:pagecheckerboard="0"
     inkscape:deskcolor="#d1d1d1"
     inkscape:document-units="mm"
     inkscape:zoom="0.65905322"
     inkscape:cx="474.92371"
     inkscape:cy="343.67482"
     inkscape:window-width="1472"
     inkscape:window-height="896"
     inkscape:window-x="0"
     inkscape:window-y="32"
     inkscape:window-maximized="0"
     inkscape:current-layer="svg1" /><defs
     id="defs1" /><g
     id="g166"
     transform="rotate(-90,299.13714,-23.236774)"><path
       style="fill:#000000"
       d="m 68.123572,-159.56649 c 0.0023,0.34964 2.572982,1.4831 3.767141,1.80616 1.194159,0.32307 2.546576,0.62219 3.867996,0.90631 1.321419,0.28411 2.611841,0.55322 3.68201,0.81623 4.862859,1.19513 10.311373,0.92851 16.021026,-0.0486 3.617555,-0.61908 4.938665,-0.68708 10.223435,-0.52616 3.8276,0.11655 7.0383,0.39316 8.69348,0.74897 2.41403,0.51894 3.67651,0.53306 15.74668,0.17614 7.21722,-0.21342 16.00091,-0.6025 19.51931,-0.86462 3.5184,-0.26213 6.69234,-0.49352 7.0532,-0.51421 6.54709,-0.37535 -1.15391,0.0645 17.55098,-1.47336 3.33797,-0.27444 7.11965,-0.58545 8.40374,-0.69115 2.23712,-0.18416 2.46018,-0.13439 5.33676,1.19069 2.956,1.36167 8.6393,2.96554 15.09225,4.25916 2.35116,0.47133 4.27632,1.13597 6.75883,2.3334 1.90919,0.92088 4.73964,1.98746 6.28989,2.37017 2.62809,0.6488 3.13501,0.75271 4.00587,0.28116 1.02572,-0.55541 1.03928,-1.77046 0.89372,-0.36497 -0.164,1.58356 -5.54458,0.90695 -10.69492,-1.54549 -3.71208,-1.76757 -4.19021,-1.90512 -13.45029,-3.86923 -4.41317,-0.93605 -7.34149,-1.86428 -9.58378,-3.03788 -2.07982,-1.08857 -2.3357,-1.14323 -4.59278,-0.98119 -6.31427,0.45331 -16.84297,1.31943 -23.05777,1.89679 -9.22513,0.85703 -22.20366,1.55235 -33.78974,1.81027 -8.22197,0.18303 -9.84766,0.13731 -11.97403,-0.33674 -1.52368,-0.33969 -4.70861,-0.61855 -8.36542,-0.73244 -5.13893,-0.16006 -6.422938,-0.0919 -9.897211,0.52535 -5.970422,1.06074 -11.176247,1.01674 -17.133256,-0.14479 -4.388949,-0.85578 -10.636515,-3.20075 -10.622311,-3.61902 0.0142,-0.41826 0.252872,-0.7206 0.25519,-0.37095 z m 152.557238,8.91007 c -0.007,-0.43467 -1.77995,-1.40219 -3.12525,-1.81081 -1.26539,-0.38436 -8.70036,-4.37293 -8.81818,-4.56359 -0.0294,-0.0477 0.0507,-0.87606 0.29282,-1.11318 0.21821,-0.21369 0.3219,-0.64859 0.68648,-0.64502 0.0789,7.7e-4 -0.8,1.47255 -0.71839,1.52191 0.1632,0.0987 7.48962,4.08343 8.79506,4.47051 1.57478,0.46695 3.08259,1.42357 3.17644,1.92031 0.37767,1.9989 -0.25657,2.27148 -0.28897,0.21987 z m 3.5206,-5.05018 c -0.76347,-0.12442 -1.5016,-0.34463 -1.64027,-0.48934 -0.13868,-0.14472 0.19074,-0.18126 0.73203,-0.0812 2.97887,0.5506 4.9602,0.75166 5.85789,0.17142 0.64438,-0.4165 0.95312,-1.89242 0.95726,-2.23715 0.006,-0.48836 0.23948,-0.32181 0.2572,-0.0575 0.0143,0.21244 -0.35494,1.95891 -0.83034,2.33286 -0.90852,0.71464 -2.54503,0.81542 -5.33377,0.36094 z m -14.53496,-3.08203 c 0.91102,-0.0277 5.48687,1.85847 10.25765,2.23711 l 3.11535,0.24726 0.11151,0.30692 c -1.08259,0.002 -5.05469,-0.34292 -5.92484,-0.48905 l -7.06246,-1.90373 -0.62201,-0.01 m 4.14223,-4.36265 0.0307,-0.35063 c -0.0427,0.48842 15.8907,1.84079 16.02289,1.87255 1.13561,0.2729 4.44271,0.48235 4.8372,-0.61883 0.50449,-1.40825 0.40978,-1.54992 0.44071,-1.03124 0.10533,1.7665 -1.52197,2.2736 -2.34889,2.2736 -0.44064,0 -1.36389,0.14969 -1.9942,-0.0312 m -4.91868,0.64435 c -1.26598,-0.26721 -12.2832,-2.22009 -12.35187,-2.29029 -0.076,-0.0777 -0.15028,-0.368 0.0101,-0.55359 0.1924,-0.22264 0.28843,-0.21305 0.30276,-0.23678 0.0143,-0.0237 -0.0146,0.32563 0.008,0.31049 -0.0446,0.005 -0.18762,0.0519 -0.18672,0.12694 -0.0966,0.16725 0.0301,0.217 0.0519,0.22029 0.12649,0.0191 10.60219,1.71101 11.25792,1.80947 1.31147,0.19694 2.86539,0.42527 3.45316,0.50742 0.95879,0.134 2.48846,1.64804 1.93178,1.75841 -0.29973,0.0594 -0.95518,-1.65236 -4.4767,-1.65236 z m 8.60262,-3.74175 c -1.05179,-1.41586 -2.77904,-1.6249 -8.55379,-2.50897 -2.40344,-0.0871 -12.06107,-1.40764 -12.23481,-1.49656 -0.23811,-0.0193 0.0298,-0.18343 0.24999,-0.13518 0.6655,0.14579 3.22828,0.43303 7.38249,0.82263 2.36416,0.22171 9.85822,1.12199 11.13895,1.48799 1.10404,0.31551 2.64356,2.0203 2.67402,2.48316 0.0928,1.41005 -0.41286,-0.32463 -0.65685,-0.65307 z m -21.04187,-4.59004 c 0.0386,0.50041 0.63466,0.39395 0.62764,0.51668 -0.01,0.16798 -0.33054,0.0907 -0.41637,0.0766 -0.15498,-0.0256 -0.37772,-0.45568 -0.39965,-0.78156 0.11099,-0.33157 0.44387,-0.46682 0.67809,-0.47296 1.35577,-0.0356 16.03824,-0.98077 17.81178,-2.18005 2.34312,-1.58445 0.85534,-3.43849 1.11926,-3.17854 1.62032,1.59597 -0.96797,3.59823 -1.64673,3.80049 -3.69471,1.10103 -16.29681,1.72865 -17.28317,1.74702 0,0 -0.52947,-0.0281 -0.49085,0.47232 z m -39.16281,-4.97845 c -0.0367,-0.0337 -3.06215,-0.14484 -6.7232,-0.24699 -3.66105,-0.10214 -6.76882,-0.25517 -6.90616,-0.34005 -0.13735,-0.0849 -1.51982,-0.1268 -3.07217,-0.0931 -1.55235,0.0337 -2.68924,-0.0211 -2.52643,-0.12158 0.16281,-0.10053 -1.95482,-0.44978 -4.70584,-0.77611 -2.75102,-0.32634 -6.84716,-0.96049 -9.10255,-1.40922 -6.06018,-1.20575 -15.26808,-1.4114 -21.15959,-0.4726 -4.33257,0.69039 -7.43076,0.6915 -9.61305,0.003 -0.59599,-0.18791 -1.48174,-0.24932 -1.96834,-0.13646 -0.55683,0.12913 -0.72487,0.0983 -0.4534,-0.0833 0.49077,-0.32827 -4.56075,-1.31505 -12.077314,-2.35923 -8.540842,-1.18646 -13.715534,-2.11884 -15.462355,-2.78601 -0.655562,-0.25039 -3.22373,-1.62578 -5.548058,-3.28932 -3.254606,-2.32934 -6.562462,24.79605 -6.562462,24.79605 0,0 -0.258149,2.10006 -0.454757,1.30264 -0.196609,-0.79743 2.545244,-29.79017 7.119659,-26.8646 2.522047,1.61299 5.113572,3.15332 5.758943,3.42298 1.257353,0.52535 7.715107,1.66801 15.557015,2.75272 2.660205,0.36796 7.088959,1.13944 9.841679,1.71438 6.2232,1.29982 10.14767,1.4988 14.35224,0.72769 4.60767,-0.84503 13.68698,-0.76553 18.70146,0.16375 10.02018,1.85694 16.77118,2.59158 29.03293,3.15937 4.40878,0.20415 13.82022,-0.26438 15.76653,-0.7849 0.5012,-0.13405 1.73515,-1.01092 2.7421,-1.94861 1.00696,-0.93769 3.24508,-3.00992 4.9736,-4.60495 l 3.14278,-2.90007 3.11411,-0.71961 c 1.71276,-0.39578 3.62201,-0.99182 4.24277,-1.32452 0.62075,-0.33271 2.21205,-0.91152 3.53622,-1.28625 1.32416,-0.37472 2.75638,-0.90987 3.18271,-1.18922 0.42633,-0.27934 1.05271,-0.50789 1.39196,-0.50789 0.70214,0 1.89831,2.11485 1.72422,2.76477 -0.10709,0.39981 -0.64173,0.92927 -0.30789,0.35033 0.23121,-0.40098 -0.1129,-0.82115 -0.3493,-1.47179 -0.50096,-1.49024 -1.25487,-1.22236 -2.12337,-0.70683 -0.15588,0.0925 -1.17429,0.60678 -2.39776,1.00572 -3.33798,1.08844 -4.03586,1.38959 -3.86413,1.66745 0.086,0.13912 -0.0266,0.24635 -0.25021,0.2383 -1.12243,-0.0404 -1.57672,0.1158 -1.35938,0.46746 0.14676,0.23746 0.0898,0.28958 -0.15267,0.13972 -0.21271,-0.13146 -0.84568,-0.13822 -1.40659,-0.015 -0.74658,0.16398 -0.89826,0.29985 -0.56609,0.5071 0.2716,0.16945 -0.0606,0.20043 -0.82747,0.0772 -0.98545,-0.1584 -1.22209,-0.11027 -1.0251,0.20847 0.18582,0.30066 0.0774,0.35769 -0.39486,0.20779 -0.82064,-0.26046 -1.793,0.0931 -1.51098,0.54944 0.12706,0.20558 0.0544,0.24645 -0.18028,0.10141 -0.4909,-0.3034 -1.4167,0.422 -1.13021,0.88555 0.1161,0.18786 0.0604,0.24843 -0.1238,0.13459 -0.32547,-0.20115 -1.2529,0.59237 -1.46539,1.2538 -0.058,0.18043 -0.19351,0.29868 -0.3012,0.26279 -0.23971,-0.0799 -2.52825,2.23318 -2.66117,2.68971 -0.0525,0.18043 -0.34053,0.32806 -0.63998,0.32806 -0.63735,0 -1.09582,0.38888 -1.09582,0.92949 0,0.2105 -0.18087,0.38273 -0.40194,0.38273 -0.47915,0 -2.41378,2.04408 -2.10718,2.22639 0.117,0.0696 0.0651,0.0961 -0.11533,0.059 -0.18043,-0.0371 -2.73383,0.17704 -5.67423,0.47591 -2.94039,0.29887 -5.37621,0.51584 -5.41292,0.48214 z m 41.21934,-1.11977 c -1.77739,-0.14943 -4.07823,-0.44998 -5.11297,-0.66787 -3.59571,-0.75719 -2.62252,-0.24407 -3.77459,-0.62836 -2.37866,-0.79345 -5.99004,-2.74633 -5.99004,-3.36895 0,-0.66282 3.45719,-2.40641 6.57386,-3.31545 1.90696,-0.5562 3.47099,-1.83611 4.39404,-3.65665 0.45436,-0.52517 0.47316,-1.00399 0.52762,-0.89355 0.44979,0.91225 -2.18968,3.93103 -3.24086,4.47462 -0.49637,0.25668 -1.85551,0.71099 -3.02031,1.00957 -1.1648,0.29858 -2.75272,0.91161 -3.52871,1.36228 l -1.41089,0.8194 1.3625,0.98699 c 1.70544,1.23542 2.93029,1.66822 7.40626,2.61701 3.75503,0.79597 9.19379,0.97607 18.39514,0.60913 3.6017,-0.14362 4.06176,-0.0983 4.59278,0.45281 0.57194,0.59354 0.56613,0.6001 -0.18837,0.21289 -6.09293,-0.28302 -10.9496,0.54331 -16.98546,-0.0139 z"
       id="path154"
       sodipodi:nodetypes="zssssssssssssssssssssssssssszzsssssssssscssssssscssccccccsssscsccsscccsssscsscssssscssscsscccssssssssssssssczsssssssscsssssssssscssssssssssssssssssssscssssssscscscsssssssss" /><path
       style="fill:#ff0000;stroke:#000000;stroke-width:2.27425;stroke-linejoin:round"
       d="m 818.72844,-563.31175 c -8.92391,-2.31505 -16.19108,-5.02258 -27.51837,-10.25249 -8.30546,-3.83471 -16.20005,-6.35048 -27.06353,-8.62434 -22.35442,-4.67906 -43.71614,-10.91695 -55.14153,-16.102 -7.09876,-3.22155 -9.53555,-3.92967 -13.52278,-3.92967 -3.32112,0 -60.09132,4.61815 -80.75363,6.56916 -6.37925,0.60236 -13.44079,1.21629 -15.69229,1.36431 -2.2515,0.14801 -11.15518,0.76881 -19.78594,1.37955 -19.56777,1.38468 -28.38421,1.91776 -41.39127,2.50268 -35.30191,1.5875 -63.3228,2.42338 -82.32769,2.45587 -13.59093,0.0232 -16.7592,-0.097 -20.01336,-0.75924 -12.09805,-2.46218 -23.10615,-3.24836 -45.71234,-3.26473 l -18.64882,-0.0135 -8.68612,1.4648 c -21.62079,3.64605 -38.64392,4.42037 -52.46278,2.38634 -4.51155,-0.66407 -33.05487,-6.97648 -37.88479,-8.3783 -4.39555,-1.27575 -10.75022,-3.92596 -12.79379,-5.33565 -0.78647,-0.54252 -1.48048,-1.01792 -1.54223,-1.05645 -0.25119,-0.15673 3.66691,-27.41717 5.60392,-38.98965 6.38321,-38.1359 12.67548,-59.02745 17.7783,-59.02745 0.6209,0 2.39367,0.89826 3.9395,1.99614 3.94815,2.80405 10.61521,6.7853 15.31801,9.14718 7.18725,3.60966 18.92685,5.95764 57.99421,11.59913 34.82486,5.02886 48.89628,7.71824 48.89628,9.3452 0,0.54974 0.54546,0.61714 3.08479,0.38113 2.36824,-0.2201 3.93208,-0.0671 6.73247,0.65883 8.14033,2.11007 18.0833,2.3589 29.98204,0.75032 18.97453,-2.56514 24.11011,-2.94703 39.57187,-2.94259 16.3841,0.005 30.75396,1.0855 42.75582,3.2158 15.26974,2.71032 24.63635,4.18248 37.29763,5.86208 7.75518,1.02877 15.76575,2.2714 17.80128,2.76139 2.9685,0.71458 5.35401,0.89334 12.0535,0.90323 4.5939,0.007 10.27475,0.19823 12.62411,0.42545 2.34936,0.22721 14.83497,0.75735 27.7458,1.17809 l 23.47423,0.76496 17.51169,-1.64313 c 9.63143,-0.90372 18.77878,-1.76142 20.32745,-1.90599 1.97927,-0.18478 2.75132,-0.43076 2.59887,-0.82804 -0.34094,-0.88848 5.06155,-6.46164 7.32675,-7.55821 1.28121,-0.62022 2.04122,-1.2889 2.04122,-1.79592 0,-1.59127 1.69882,-3.08334 3.8836,-3.41097 1.68521,-0.25271 2.2485,-0.58682 2.95893,-1.75505 1.14585,-1.88414 8.55734,-9.32799 9.62483,-9.66679 0.4548,-0.14435 1.11688,-0.82326 1.47135,-1.5087 1.09841,-2.1241 3.48828,-4.14747 4.89877,-4.14747 1.11183,0 1.25151,-0.14083 1.02696,-1.03548 -0.18499,-0.73714 0.0673,-1.34282 0.87563,-2.10221 0.9323,-0.87588 1.42745,-1.01196 2.76739,-0.76058 1.56413,0.29343 1.62017,0.25921 1.3484,-0.82359 -0.25231,-1.00519 -0.0881,-1.18829 1.48949,-1.66096 1.28968,-0.38639 2.25046,-0.39942 3.52404,-0.0478 2.06688,0.5707 2.66278,0.32399 2.26264,-0.93677 -0.28341,-0.89286 -0.17284,-0.91229 3.39286,-0.59666 3.57098,0.31611 4.27909,0.0971 3.19413,-0.9878 -0.74313,-0.74315 3.73413,-1.67947 6.36321,-1.33072 2.03326,0.26972 2.15953,0.22562 2.12501,-0.7421 -0.0337,-0.94467 0.20522,-1.04747 2.91981,-1.25628 2.48229,-0.19095 2.94597,-0.35754 2.89079,-1.03866 -0.0898,-1.10846 1.82222,-2.00989 10.75468,-5.0704 4.12776,-1.41428 9.50667,-3.50454 11.95317,-4.64502 6.1597,-2.87144 6.63001,-2.68492 9.12663,3.61947 l 1.22741,3.09951 -1.707,2.81353 c -2.42303,3.99366 -7.50465,8.98589 -10.88099,10.68951 -1.53402,0.77403 -5.24236,2.22742 -8.24073,3.22975 -9.50566,3.17763 -18.50895,7.56176 -20.99834,10.22509 -0.92534,0.99001 -1.02077,1.34578 -0.6054,2.25744 1.48936,3.26873 21.34902,13.0271 26.51202,13.0271 0.92343,0 4.41836,0.51646 7.7665,1.14769 16.21469,3.05696 32.32781,4.1326 51.34501,3.42755 7.12976,-0.26434 17.91214,-0.48083 23.96081,-0.4811 12.1684,-5.5e-4 12.12815,-0.01 12.68174,2.941 0.60936,3.2483 -2.25573,7.74746 -5.98918,9.40493 -5.6318,2.50028 -29.84943,5.52865 -57.94432,7.24583 -10.11835,0.61844 -11.19716,0.95032 -10.72721,3.30003 0.15729,0.78648 0.53727,1.67254 0.84438,1.96903 0.74832,0.7224 30.5388,4.68278 43.99652,5.84894 4.56955,0.39597 21.82743,3.19403 25.24412,4.09289 5.9497,1.56524 9.27856,3.86582 10.94686,7.56542 0.74654,1.65551 0.7626,2.00621 0.16966,3.70188 -1.11157,3.17888 -2.63258,3.73554 -10.20682,3.73554 -10.11471,0 -63.9451,-5.59499 -67.75055,-7.04182 -1.40212,-0.53309 -2.52364,0.25987 -2.52364,1.78434 0,0.96361 0.26049,1.35593 1.02341,1.54127 3.80772,0.92504 46.46648,8.49344 47.90316,8.49884 4.46844,0.0168 10.63006,2.35559 13.15843,4.99461 1.38933,1.45016 1.30282,2.91646 -0.37416,6.34244 -1.72898,3.53214 -2.63954,3.89959 -9.55388,3.85541 -3.43698,-0.022 -7.73444,-0.35828 -10.08342,-0.78913 -2.2515,-0.41296 -7.77792,-1.06575 -12.28092,-1.45064 -13.19113,-1.12749 -18.50245,-2.1721 -36.80662,-7.23896 -3.23225,-0.89474 -6.2409,-1.62681 -6.68587,-1.62681 -1.08778,0 -3.12818,2.75668 -3.61082,4.87831 -0.3129,1.3757 -0.23607,1.86722 0.38648,2.47265 1.83686,1.78626 26.10284,14.31794 32.84393,16.9616 4.55286,1.78549 8.58159,3.8005 10.43228,5.2178 0.86171,0.65995 1.1762,1.44014 1.41545,3.51187 0.34955,3.02643 0.12658,3.47439 -2.36108,4.7435 -2.50121,1.27603 -6.0283,1.08553 -12.89802,-0.69662 z"
       id="path156"
       transform="scale(0.26458333)" /></g><g
     id="g163"
     transform="translate(-19.549712,-16.066136)"><path
       style="fill:#000000"
       d="m 19.867318,179.49346 c 0.0023,0.34964 2.572982,1.48311 3.767141,1.80617 1.194159,0.32306 2.546576,0.62219 3.867996,0.9063 1.321419,0.28412 2.611841,0.55322 3.68201,0.81624 4.862859,1.19513 10.311373,0.92851 16.021026,-0.0486 3.617555,-0.61908 4.938665,-0.68708 10.22343,-0.52616 3.8276,0.11655 7.038295,0.39316 8.693475,0.74897 2.41403,0.51894 3.67651,0.53306 15.74668,0.17614 7.21722,-0.21342 16.00091,-0.6025 19.519314,-0.86462 3.5184,-0.26213 6.69234,-0.49352 7.0532,-0.51421 6.54709,-0.37535 -1.15391,0.0645 17.55098,-1.47336 3.33797,-0.27444 7.11965,-0.58545 8.40374,-0.69115 2.23712,-0.18416 2.46018,-0.13439 5.33676,1.19069 2.956,1.36167 8.6393,2.96554 15.09225,4.25916 2.35116,0.47133 4.27632,1.13597 6.75883,2.3334 1.90919,0.92088 4.73964,1.98746 6.28989,2.37017 2.62809,0.6488 3.13501,0.75271 4.00587,0.28116 1.02572,-0.55541 1.03928,-1.77046 0.89372,-0.36497 -0.164,1.58356 -5.54458,0.90695 -10.69492,-1.54549 -3.71208,-1.76757 -4.19021,-1.90512 -13.45029,-3.86923 -4.41317,-0.93605 -7.34149,-1.86428 -9.58378,-3.03788 -2.07982,-1.08857 -2.3357,-1.14323 -4.59278,-0.98119 -6.31427,0.45331 -16.84297,1.31943 -23.05777,1.89679 -9.22513,0.85703 -22.203664,1.55235 -33.789744,1.81027 -8.22197,0.18303 -9.84766,0.13731 -11.97403,-0.33674 -1.52368,-0.33969 -4.708605,-0.61855 -8.365415,-0.73244 -5.138926,-0.16006 -6.422933,-0.0919 -9.897206,0.52535 -5.970422,1.06074 -11.176247,1.01674 -17.133256,-0.14479 -4.388949,-0.85578 -10.636515,-3.20075 -10.622311,-3.61902 0.0142,-0.41827 0.252872,-0.7206 0.25519,-0.37096 z m 152.557232,8.91008 c -0.007,-0.43467 -1.77995,-1.40219 -3.12525,-1.81081 -1.26539,-0.38436 -8.70036,-4.37293 -8.81818,-4.56359 -0.0294,-0.0477 0.0507,-0.87606 0.29282,-1.11318 0.21821,-0.21369 0.3219,-0.64859 0.68648,-0.64502 0.0789,7.7e-4 -0.8,1.47255 -0.71839,1.52191 0.1632,0.0987 7.48962,4.08343 8.79506,4.47051 1.57478,0.46695 3.08259,1.42357 3.17644,1.92031 0.37767,1.9989 -0.25657,2.27148 -0.28897,0.21987 z m 3.5206,-5.05018 c -0.76347,-0.12442 -1.5016,-0.34463 -1.64027,-0.48934 -0.13868,-0.14472 0.19074,-0.18126 0.73203,-0.0812 2.97887,0.5506 4.9602,0.75166 5.85789,0.17142 0.64438,-0.4165 0.95312,-1.89242 0.95726,-2.23715 0.006,-0.48836 0.23948,-0.32181 0.2572,-0.0575 0.0143,0.21244 -0.35494,1.95891 -0.83034,2.33286 -0.90852,0.71464 -2.54503,0.81542 -5.33377,0.36094 z m -14.53496,-3.08203 c 0.91102,-0.0277 5.48687,1.85847 10.25765,2.23711 l 3.11535,0.24726 0.11151,0.30692 c -1.08259,0.002 -5.05469,-0.34292 -5.92484,-0.48905 l -7.06246,-1.90373 -0.62201,-0.01 m 4.14223,-4.36265 0.0307,-0.35063 c -0.0427,0.48842 15.8907,1.84079 16.02289,1.87255 1.13561,0.2729 4.44271,0.48235 4.8372,-0.61883 0.50449,-1.40825 0.40978,-1.54992 0.44071,-1.03124 0.10533,1.7665 -1.52197,2.2736 -2.34889,2.2736 -0.44064,0 -1.36389,0.14969 -1.9942,-0.0312 m -4.91868,0.64435 c -1.26598,-0.26721 -12.2832,-2.22009 -12.35187,-2.29029 -0.076,-0.0777 -0.15028,-0.368 0.0101,-0.55359 0.1924,-0.22264 0.28843,-0.21305 0.30276,-0.23678 0.0143,-0.0237 -0.0146,0.32563 0.008,0.31049 -0.0446,0.005 -0.18762,0.0519 -0.18672,0.12694 -0.0966,0.16725 0.0301,0.217 0.0519,0.22029 0.12649,0.0191 10.60219,1.71101 11.25792,1.80947 1.31147,0.19694 2.86539,0.42527 3.45316,0.50742 0.95879,0.134 2.48846,1.64804 1.93178,1.75841 -0.29973,0.0594 -0.95518,-1.65236 -4.4767,-1.65236 z m 8.60262,-3.74175 c -1.05179,-1.41586 -2.77904,-1.6249 -8.55379,-2.50897 -2.40344,-0.0871 -12.06107,-1.40764 -12.23481,-1.49656 -0.23811,-0.0193 0.0298,-0.18343 0.24999,-0.13518 0.6655,0.14579 3.22828,0.43303 7.38249,0.82263 2.36416,0.22171 9.85822,1.12199 11.13895,1.48799 1.10404,0.31551 2.64356,2.0203 2.67402,2.48316 0.0928,1.41005 -0.41286,-0.32463 -0.65685,-0.65307 z M 165.0581,170.724 c 0.0386,0.50041 0.63466,0.39395 0.62764,0.51668 -0.01,0.16798 -0.33054,0.0907 -0.41637,0.0766 -0.15498,-0.0256 -0.37772,-0.45568 -0.39965,-0.78156 0.11099,-0.33157 0.44387,-0.46682 0.67809,-0.47296 1.35577,-0.0356 16.03824,-0.98077 17.81178,-2.18005 2.34312,-1.58445 0.85534,-3.43849 1.11926,-3.17854 1.62032,1.59597 -0.96797,3.59823 -1.64673,3.80049 -3.69471,1.10103 -16.29681,1.72865 -17.28317,1.74702 0,0 -0.52947,-0.0281 -0.49085,0.47232 z m -39.16281,-4.97845 c -0.0367,-0.0337 -3.06215,-0.14484 -6.7232,-0.24699 -3.66105,-0.10214 -6.76882,-0.25517 -6.90616,-0.34005 -0.13735,-0.0849 -1.51982,-0.1268 -3.07217,-0.0931 -1.55235,0.0337 -2.68924,-0.0211 -2.52643,-0.12158 0.16281,-0.10053 -1.95482,-0.44978 -4.70584,-0.77611 -2.751024,-0.32634 -6.847164,-0.96049 -9.102554,-1.40922 -6.06018,-1.20575 -15.26808,-1.4114 -21.15959,-0.4726 -4.33257,0.69039 -7.43076,0.6915 -9.61305,0.003 -0.595985,-0.18791 -1.481735,-0.24932 -1.968335,-0.13646 -0.55683,0.12913 -0.72487,0.0983 -0.4534,-0.0833 0.49077,-0.32827 -4.560752,-1.31505 -12.077309,-2.35923 -8.540842,-1.18646 -13.715534,-2.11884 -15.462355,-2.78601 -0.655562,-0.25039 -3.22373,-1.62579 -5.548058,-3.28932 -3.254606,-2.32935 -6.562462,24.79605 -6.562462,24.79605 0,0 -0.258149,2.10006 -0.454757,1.30263 -0.196609,-0.79742 2.545244,-29.79016 7.119659,-26.86459 2.522047,1.61299 5.113572,3.15332 5.758943,3.42298 1.257353,0.52535 7.715107,1.66801 15.557015,2.75272 2.660205,0.36796 7.088957,1.13944 9.841674,1.71438 6.223195,1.29982 10.147665,1.4988 14.352235,0.72769 4.60767,-0.84503 13.68698,-0.76553 18.70146,0.16375 10.020184,1.85694 16.771184,2.59158 29.032934,3.15937 4.40878,0.20415 13.82022,-0.26438 15.76653,-0.7849 0.5012,-0.13405 1.73515,-1.01092 2.7421,-1.94861 1.00696,-0.93769 3.24508,-3.00992 4.9736,-4.60495 l 3.14278,-2.90007 3.11411,-0.71961 c 1.71276,-0.39578 3.62201,-0.99182 4.24277,-1.32452 0.62075,-0.33271 2.21205,-0.91152 3.53622,-1.28625 1.32416,-0.37472 2.75638,-0.90987 3.18271,-1.18922 0.42633,-0.27934 1.05271,-0.50789 1.39196,-0.50789 0.70214,0 1.89831,2.11485 1.72422,2.76477 -0.10709,0.39981 -0.64173,0.92927 -0.30789,0.35033 0.23121,-0.40098 -0.1129,-0.82115 -0.3493,-1.47179 -0.50096,-1.49024 -1.25487,-1.22236 -2.12337,-0.70683 -0.15588,0.0925 -1.17429,0.60678 -2.39776,1.00572 -3.33798,1.08844 -4.03586,1.38959 -3.86413,1.66745 0.086,0.13912 -0.0266,0.24635 -0.25021,0.2383 -1.12243,-0.0404 -1.57672,0.1158 -1.35938,0.46746 0.14676,0.23746 0.0898,0.28958 -0.15267,0.13972 -0.21271,-0.13146 -0.84568,-0.13822 -1.40659,-0.015 -0.74658,0.16398 -0.89826,0.29985 -0.56609,0.5071 0.2716,0.16945 -0.0606,0.20043 -0.82747,0.0772 -0.98545,-0.1584 -1.22209,-0.11027 -1.0251,0.20847 0.18582,0.30066 0.0774,0.35769 -0.39486,0.20779 -0.82064,-0.26046 -1.793,0.0931 -1.51098,0.54944 0.12706,0.20558 0.0544,0.24645 -0.18028,0.10141 -0.4909,-0.3034 -1.4167,0.422 -1.13021,0.88555 0.1161,0.18786 0.0604,0.24843 -0.1238,0.13459 -0.32547,-0.20115 -1.2529,0.59237 -1.46539,1.2538 -0.058,0.18043 -0.19351,0.29868 -0.3012,0.26279 -0.23971,-0.0799 -2.52825,2.23318 -2.66117,2.68971 -0.0525,0.18043 -0.34053,0.32806 -0.63998,0.32806 -0.63735,0 -1.09582,0.38888 -1.09582,0.92949 0,0.2105 -0.18087,0.38273 -0.40194,0.38273 -0.47915,0 -2.41378,2.04408 -2.10718,2.22639 0.117,0.0696 0.0651,0.0961 -0.11533,0.059 -0.18043,-0.0371 -2.73383,0.17704 -5.67423,0.47591 -2.94039,0.29887 -5.37621,0.51584 -5.41292,0.48214 z m 41.21934,-1.11977 c -1.77739,-0.14943 -4.07823,-0.44998 -5.11297,-0.66787 -3.59571,-0.75719 -2.62252,-0.24407 -3.77459,-0.62836 -2.37866,-0.79345 -5.99004,-2.74633 -5.99004,-3.36895 0,-0.66282 3.45719,-2.40641 6.57386,-3.31545 1.90696,-0.5562 3.47099,-1.83611 4.39404,-3.65665 0.45436,-0.52517 0.47316,-1.00399 0.52762,-0.89355 0.44979,0.91225 -2.18968,3.93103 -3.24086,4.47462 -0.49637,0.25668 -1.85551,0.71099 -3.02031,1.00957 -1.1648,0.29858 -2.75272,0.91161 -3.52871,1.36228 l -1.41089,0.8194 1.3625,0.98699 c 1.70544,1.23542 2.93029,1.66822 7.40626,2.61701 3.75503,0.79597 9.19379,0.97607 18.39514,0.60913 3.6017,-0.14362 4.06176,-0.0983 4.59278,0.45281 0.57194,0.59354 0.56613,0.6001 -0.18837,0.21289 -6.09293,-0.28302 -10.9496,0.54331 -16.98546,-0.0139 z"
       id="path152"
       sodipodi:nodetypes="zssssssssssssssssssssssssssszzsssssssssscssssssscssccccccsssscsccsscccsssscsscssssscssscsscccssssssssssssssczsssssssscsssssssssscssssssssssssssssssssscssssssscscscsssssssss" /><path
       style="fill:#d5ff00;fill-opacity:1;stroke:#000000;stroke-width:0.602866;stroke-linejoin:round"
       d="m 168.32586,190.02159 c -1.8925,-0.47929 -4.15783,-1.31807 -6.81975,-2.52513 -2.78686,-1.26371 -4.38865,-1.78295 -7.67714,-2.48862 -3.494,-0.74977 -7.31706,-1.7202 -9.73837,-2.47194 -1.72603,-0.53587 -2.59521,-0.86589 -5.72723,-2.1746 -1.14034,-0.47649 -1.5472,-0.58771 -2.2909,-0.62626 -0.82714,-0.0429 -13.84473,0.99374 -21.52235,1.71386 -1.7242,0.16172 -4.03017,0.35279 -5.12437,0.42459 -1.09421,0.0718 -3.0475,0.20915 -4.34065,0.30523 -9.619797,0.7147 -23.941224,1.28964 -32.615104,1.30934 -3.916561,0.009 -4.730591,-0.0202 -5.606664,-0.20015 -3.120519,-0.64112 -6.15682,-0.85912 -12.05734,-0.86569 l -4.762651,-0.005 -2.712902,0.44261 c -3.561623,0.58107 -4.350086,0.67493 -6.936126,0.82567 -2.215759,0.12916 -4.831014,0.0314 -6.713956,-0.25095 -1.207706,-0.18111 -8.769776,-1.85793 -10.070163,-2.23298 -1.221941,-0.35242 -3.500305,-1.40185 -3.598386,-1.65744 -0.131437,-0.34252 1.032613,-8.32102 1.938075,-13.28375 1.199296,-6.57317 2.397136,-10.74731 3.498488,-12.19126 0.512344,-0.67172 0.642051,-0.64802 2.264476,0.41368 2.062194,1.34949 3.987117,2.3979 4.907634,2.67295 2.068097,0.61794 6.047761,1.32508 13.57385,2.41193 7.434511,1.07362 12.059542,1.88759 13.094912,2.3046 0.221564,0.0892 0.300574,0.18994 0.250798,0.31966 -0.04843,0.1262 -0.025,0.1599 0.07026,0.10103 0.309785,-0.19146 1.903291,-0.0879 2.912388,0.18928 0.934866,0.25678 1.263129,0.28126 3.737777,0.27869 2.307002,-0.002 3.04664,-0.0516 4.943509,-0.32859 3.03861,-0.44377 4.423196,-0.56224 7.596124,-0.64995 4.771565,-0.13191 9.231942,0.21062 14.348238,1.10185 3.61915,0.63044 5.485167,0.91595 8.681283,1.32829 2.90538,0.37483 4.60367,0.65497 4.76505,0.78601 0.0676,0.0549 1.39695,0.12345 2.95404,0.15229 1.5571,0.0288 3.67208,0.11097 4.69997,0.18251 2.14749,0.14946 9.81725,0.42048 11.69563,0.41329 0.69631,-0.003 3.24643,-0.1999 5.66694,-0.4383 2.42052,-0.23839 4.65278,-0.43369 4.96059,-0.434 0.50035,-5.3e-4 0.5679,-0.0334 0.63747,-0.3106 0.0991,-0.39485 1.67625,-1.98085 1.9698,-1.98085 0.29841,0 0.51056,-0.23183 0.51056,-0.55794 0,-0.35026 0.53965,-0.76836 0.99173,-0.76836 0.25449,0 0.44802,-0.11092 0.67703,-0.38801 0.77764,-0.94086 2.38525,-2.52001 2.62726,-2.58075 0.14586,-0.0366 0.33044,-0.22403 0.41016,-0.41649 0.21177,-0.51128 1.04187,-1.22532 1.32135,-1.13662 0.18471,0.0586 0.23319,10e-4 0.26438,-0.31372 0.0538,-0.54325 0.5762,-0.9271 0.9993,-0.73432 0.28089,0.12798 0.30492,0.11571 0.30492,-0.15567 0,-0.43212 0.3881,-0.58844 1.23991,-0.49941 0.67466,0.0705 0.71345,0.0607 0.65426,-0.16567 -0.0888,-0.33958 0.008,-0.3641 0.92798,-0.23388 0.88411,0.1252 1.13109,0.0717 0.90838,-0.1966 -0.11158,-0.13443 -0.0747,-0.19276 0.18384,-0.29107 0.4104,-0.15604 1.36327,-0.19418 1.74009,-0.0696 0.25518,0.0843 0.28096,0.0649 0.22056,-0.16601 -0.0843,-0.32235 0.2795,-0.4894 1.0658,-0.4894 0.43616,0 0.53473,-0.0403 0.53473,-0.21882 0,-0.28793 0.47739,-0.50865 2.83348,-1.31006 1.06104,-0.36091 2.43833,-0.89704 3.06062,-1.1914 1.28572,-0.60818 1.55765,-0.64573 1.9112,-0.26392 0.23465,0.25341 0.87599,1.67363 0.87599,1.93985 0,0.0659 -0.2441,0.51146 -0.54246,0.99014 -1.02828,1.6498 -2.60305,2.80927 -4.57408,3.36777 -1.79295,0.50804 -4.77713,1.88411 -5.65127,2.60592 -0.67998,0.56147 -0.59451,0.857 0.45425,1.57083 1.8217,1.23992 4.70877,2.49626 6.09349,2.65166 0.49736,0.0558 1.62357,0.23701 2.50267,0.40266 0.8791,0.16566 2.58823,0.41838 3.79806,0.56161 2.5451,0.30131 6.4423,0.35431 13.89531,0.18897 4.88926,-0.10846 4.93799,-0.10303 5.16334,0.57602 0.0811,0.24439 0.0742,0.52136 -0.0219,0.88083 -0.29008,1.08457 -1.0331,1.70617 -2.48263,2.07689 -2.16106,0.55271 -7.97815,1.20993 -14.33689,1.6198 -2.21271,0.14263 -2.54306,0.1906 -2.75209,0.39962 -0.22246,0.22246 -0.22587,0.26544 -0.0538,0.6773 0.10107,0.24187 0.23121,0.43976 0.28923,0.43976 0.058,0 0.64407,0.0799 1.30233,0.17745 2.29236,0.33989 7.84158,1.02719 9.75973,1.20881 3.27468,0.31005 7.1786,1.0201 8.33783,1.51649 0.68258,0.29229 1.39933,0.96363 1.67026,1.56443 0.2034,0.45109 0.20803,0.54188 0.0504,0.98805 -0.0955,0.27022 -0.30927,0.5898 -0.47506,0.71017 -0.48896,0.35501 -1.87794,0.50766 -3.23207,0.35521 -0.64287,-0.0724 -3.12215,-0.32074 -5.5095,-0.55191 -7.23208,-0.70028 -10.78146,-1.13103 -11.46674,-1.39157 -0.19373,-0.0737 -0.31742,-0.0434 -0.45814,0.11209 -0.28823,0.31851 -0.24408,0.69756 0.0911,0.78168 0.80197,0.20128 12.23277,2.23034 13.1929,2.34185 1.25404,0.14564 2.13831,0.49134 2.84586,1.11257 0.41266,0.36233 0.44889,0.44164 0.38003,0.83183 -0.0419,0.23722 -0.2103,0.71082 -0.37429,1.05245 -0.23953,0.499 -0.39288,0.65904 -0.77984,0.81387 -0.66176,0.26479 -2.24569,0.24812 -4.03371,-0.0425 -0.79578,-0.12932 -2.45065,-0.32134 -3.67749,-0.42671 -3.68449,-0.31646 -4.5712,-0.4922 -9.70616,-1.92365 -0.8621,-0.24032 -1.67597,-0.40908 -1.8086,-0.37502 -0.36088,0.0927 -0.82536,0.89488 -0.83538,1.44282 l -0.009,0.47172 1.62774,0.89956 c 2.49388,1.37822 6.43528,3.35796 7.14316,3.58796 0.80952,0.26303 2.66022,1.20723 2.89436,1.47666 0.0986,0.11341 0.21295,0.50927 0.25421,0.87969 0.0664,0.59567 0.0438,0.70269 -0.19499,0.92641 -0.67545,0.63272 -1.67271,0.65753 -3.88721,0.0967 z"
       id="path162" /></g><g
     id="g164"
     transform="rotate(90,18.891893,-43.833859)"><path
       style="fill:#000000"
       d="m 63.043357,-69.936974 c 0.0023,0.349642 2.572982,1.483105 3.767141,1.806166 1.194159,0.323062 2.546576,0.62219 3.867996,0.906305 1.321419,0.284116 2.611841,0.553219 3.68201,0.816232 4.862859,1.195132 10.311373,0.92851 16.021026,-0.0486 3.617555,-0.61908 4.938665,-0.68708 10.22343,-0.52616 3.8276,0.11655 7.0383,0.39316 8.69348,0.74897 2.41403,0.51894 3.67651,0.53306 15.74668,0.17614 7.21722,-0.21342 16.00091,-0.6025 19.51931,-0.86462 3.5184,-0.26213 6.69234,-0.49352 7.0532,-0.51421 6.54709,-0.37535 -1.15391,0.0645 17.55098,-1.47336 3.33797,-0.27444 7.11965,-0.58545 8.40374,-0.69115 2.23712,-0.18416 2.46018,-0.13439 5.33676,1.19069 2.956,1.36167 8.6393,2.96554 15.09225,4.25916 2.35116,0.47133 4.27632,1.13597 6.75883,2.3334 1.90919,0.92088 4.73964,1.98746 6.28989,2.37017 2.62809,0.6488 3.13501,0.75271 4.00587,0.28116 1.02572,-0.55541 1.03928,-1.77046 0.89372,-0.36497 -0.164,1.58356 -5.54458,0.90695 -10.69492,-1.54549 -3.71208,-1.76757 -4.19021,-1.90512 -13.45029,-3.86923 -4.41317,-0.93605 -7.34149,-1.86428 -9.58378,-3.03788 -2.07982,-1.08857 -2.3357,-1.14323 -4.59278,-0.98119 -6.31427,0.45331 -16.84297,1.31943 -23.05777,1.89679 -9.22513,0.85703 -22.20366,1.55235 -33.78974,1.81027 -8.22197,0.18303 -9.84766,0.13731 -11.97403,-0.33674 -1.52368,-0.33969 -4.70861,-0.61855 -8.36542,-0.73244 -5.138926,-0.16006 -6.422933,-0.0919 -9.897206,0.52535 -5.970422,1.06074 -11.176247,1.01674 -17.133256,-0.14479 -4.388949,-0.85578 -10.636515,-3.200749 -10.622311,-3.619016 0.0142,-0.418267 0.252872,-0.7206 0.25519,-0.370957 z m 152.557233,8.910073 c -0.007,-0.43467 -1.77995,-1.40219 -3.12525,-1.81081 -1.26539,-0.38436 -8.70036,-4.37293 -8.81818,-4.56359 -0.0294,-0.0477 0.0507,-0.87606 0.29282,-1.11318 0.21821,-0.21369 0.3219,-0.64859 0.68648,-0.64502 0.0789,7.7e-4 -0.8,1.47255 -0.71839,1.52191 0.1632,0.0987 7.48962,4.08343 8.79506,4.47051 1.57478,0.46695 3.08259,1.42357 3.17644,1.92031 0.37767,1.9989 -0.25657,2.27148 -0.28897,0.21987 z m 3.5206,-5.05018 c -0.76347,-0.12442 -1.5016,-0.34463 -1.64027,-0.48934 -0.13868,-0.14472 0.19074,-0.18126 0.73203,-0.0812 2.97887,0.5506 4.9602,0.75166 5.85789,0.17142 0.64438,-0.4165 0.95312,-1.89242 0.95726,-2.23715 0.006,-0.48836 0.23948,-0.32181 0.2572,-0.0575 0.0143,0.21244 -0.35494,1.95891 -0.83034,2.33286 -0.90852,0.71464 -2.54503,0.81542 -5.33377,0.36094 z m -14.53496,-3.08203 c 0.91102,-0.0277 5.48687,1.85847 10.25765,2.23711 l 3.11535,0.24726 0.11151,0.30692 c -1.08259,0.002 -5.05469,-0.34292 -5.92484,-0.48905 l -7.06246,-1.90373 -0.62201,-0.01 m 4.14223,-4.36265 0.0307,-0.35063 c -0.0427,0.48842 15.8907,1.84079 16.02289,1.87255 1.13561,0.2729 4.44271,0.48235 4.8372,-0.61883 0.50449,-1.40825 0.40978,-1.54992 0.44071,-1.03124 0.10533,1.7665 -1.52197,2.2736 -2.34889,2.2736 -0.44064,0 -1.36389,0.14969 -1.9942,-0.0312 m -4.91868,0.64435 c -1.26598,-0.26721 -12.2832,-2.22009 -12.35187,-2.29029 -0.076,-0.0777 -0.15028,-0.368 0.0101,-0.55359 0.1924,-0.22264 0.28843,-0.21305 0.30276,-0.23678 0.0143,-0.0237 -0.0146,0.32563 0.008,0.31049 -0.0446,0.005 -0.18762,0.0519 -0.18672,0.12694 -0.0966,0.16725 0.0301,0.217 0.0519,0.22029 0.12649,0.0191 10.60219,1.71101 11.25792,1.80947 1.31147,0.19694 2.86539,0.42527 3.45316,0.50742 0.95879,0.134 2.48846,1.64804 1.93178,1.75841 -0.29973,0.0594 -0.95518,-1.65236 -4.4767,-1.65236 z m 8.60262,-3.74175 c -1.05179,-1.41586 -2.77904,-1.6249 -8.55379,-2.50897 -2.40344,-0.0871 -12.06107,-1.40764 -12.23481,-1.49656 -0.23811,-0.0193 0.0298,-0.18343 0.24999,-0.13518 0.6655,0.14579 3.22828,0.43303 7.38249,0.82263 2.36416,0.22171 9.85822,1.12199 11.13895,1.48799 1.10404,0.31551 2.64356,2.0203 2.67402,2.48316 0.0928,1.41005 -0.41286,-0.32463 -0.65685,-0.65307 z m -21.04187,-4.59004 c 0.0386,0.50041 0.63466,0.39395 0.62764,0.51668 -0.01,0.16798 -0.33054,0.0907 -0.41637,0.0766 -0.15498,-0.0256 -0.37772,-0.45568 -0.39965,-0.78156 0.11099,-0.33157 0.44387,-0.46682 0.67809,-0.47296 1.35577,-0.0356 16.03824,-0.98077 17.81178,-2.18005 2.34312,-1.58445 0.85534,-3.43849 1.11926,-3.17854 1.62032,1.59597 -0.96797,3.59823 -1.64673,3.80049 -3.69471,1.10103 -16.29681,1.72865 -17.28317,1.74702 0,0 -0.52947,-0.0281 -0.49085,0.47232 z m -39.16281,-4.97845 c -0.0367,-0.0337 -3.06215,-0.14484 -6.7232,-0.24699 -3.66105,-0.10214 -6.76882,-0.25517 -6.90616,-0.34005 -0.13735,-0.0849 -1.51982,-0.1268 -3.07217,-0.0931 -1.55235,0.0337 -2.68924,-0.0211 -2.52643,-0.12158 0.16281,-0.10053 -1.95482,-0.44978 -4.70584,-0.77611 -2.75102,-0.32634 -6.84716,-0.96049 -9.10255,-1.40922 -6.06018,-1.20575 -15.26808,-1.4114 -21.15959,-0.4726 -4.33257,0.69039 -7.43076,0.6915 -9.61305,0.003 -0.59599,-0.18791 -1.48174,-0.24932 -1.96834,-0.13646 -0.55683,0.12913 -0.72487,0.0983 -0.4534,-0.0833 0.49077,-0.32827 -4.560752,-1.31505 -12.077309,-2.35923 -8.540842,-1.18646 -13.715534,-2.11884 -15.462355,-2.78601 -0.655562,-0.25039 -3.22373,-1.625781 -5.548058,-3.28932 -3.254606,-2.329345 -6.562462,24.79605 -6.562462,24.79605 0,0 -0.258149,2.100063 -0.454757,1.302637 -0.196609,-0.797425 2.545244,-29.790167 7.119659,-26.864597 2.522047,1.61299 5.113572,3.15332 5.758943,3.42298 1.257353,0.52535 7.715107,1.66801 15.557015,2.75272 2.660205,0.36796 7.088957,1.13944 9.841674,1.71438 6.2232,1.29982 10.14767,1.4988 14.35224,0.72769 4.60767,-0.84503 13.68698,-0.76553 18.70146,0.16375 10.02018,1.85694 16.77118,2.59158 29.03293,3.15937 4.40878,0.20415 13.82022,-0.26438 15.76653,-0.7849 0.5012,-0.13405 1.73515,-1.01092 2.7421,-1.94861 1.00696,-0.93769 3.24508,-3.00992 4.9736,-4.60495 l 3.14278,-2.90007 3.11411,-0.71961 c 1.71276,-0.39578 3.62201,-0.99182 4.24277,-1.32452 0.62075,-0.33271 2.21205,-0.91152 3.53622,-1.28625 1.32416,-0.37472 2.75638,-0.90987 3.18271,-1.18922 0.42633,-0.27934 1.05271,-0.50789 1.39196,-0.50789 0.70214,0 1.89831,2.11485 1.72422,2.76477 -0.10709,0.39981 -0.64173,0.92927 -0.30789,0.35033 0.23121,-0.40098 -0.1129,-0.82115 -0.3493,-1.47179 -0.50096,-1.49024 -1.25487,-1.22236 -2.12337,-0.70683 -0.15588,0.0925 -1.17429,0.60678 -2.39776,1.00572 -3.33798,1.08844 -4.03586,1.38959 -3.86413,1.66745 0.086,0.13912 -0.0266,0.24635 -0.25021,0.2383 -1.12243,-0.0404 -1.57672,0.1158 -1.35938,0.46746 0.14676,0.23746 0.0898,0.28958 -0.15267,0.13972 -0.21271,-0.13146 -0.84568,-0.13822 -1.40659,-0.015 -0.74658,0.16398 -0.89826,0.29985 -0.56609,0.5071 0.2716,0.16945 -0.0606,0.20043 -0.82747,0.0772 -0.98545,-0.1584 -1.22209,-0.11027 -1.0251,0.20847 0.18582,0.30066 0.0774,0.35769 -0.39486,0.20779 -0.82064,-0.26046 -1.793,0.0931 -1.51098,0.54944 0.12706,0.20558 0.0544,0.24645 -0.18028,0.10141 -0.4909,-0.3034 -1.4167,0.422 -1.13021,0.88555 0.1161,0.18786 0.0604,0.24843 -0.1238,0.13459 -0.32547,-0.20115 -1.2529,0.59237 -1.46539,1.2538 -0.058,0.18043 -0.19351,0.29868 -0.3012,0.26279 -0.23971,-0.0799 -2.52825,2.23318 -2.66117,2.68971 -0.0525,0.18043 -0.34053,0.32806 -0.63998,0.32806 -0.63735,0 -1.09582,0.38888 -1.09582,0.92949 0,0.2105 -0.18087,0.38273 -0.40194,0.38273 -0.47915,0 -2.41378,2.04408 -2.10718,2.22639 0.117,0.0696 0.0651,0.0961 -0.11533,0.059 -0.18043,-0.0371 -2.73383,0.17704 -5.67423,0.47591 -2.94039,0.29887 -5.37621,0.51584 -5.41292,0.48214 z m 41.21934,-1.11977 c -1.77739,-0.14943 -4.07823,-0.44998 -5.11297,-0.66787 -3.59571,-0.75719 -2.62252,-0.24407 -3.77459,-0.62836 -2.37866,-0.79345 -5.99004,-2.74633 -5.99004,-3.36895 0,-0.66282 3.45719,-2.40641 6.57386,-3.31545 1.90696,-0.5562 3.47099,-1.83611 4.39404,-3.65665 0.45436,-0.52517 0.47316,-1.00399 0.52762,-0.89355 0.44979,0.91225 -2.18968,3.93103 -3.24086,4.47462 -0.49637,0.25668 -1.85551,0.71099 -3.02031,1.00957 -1.1648,0.29858 -2.75272,0.91161 -3.52871,1.36228 l -1.41089,0.8194 1.3625,0.98699 c 1.70544,1.23542 2.93029,1.66822 7.40626,2.61701 3.75503,0.79597 9.19379,0.97607 18.39514,0.60913 3.6017,-0.14362 4.06176,-0.0983 4.59278,0.45281 0.57194,0.59354 0.56613,0.6001 -0.18837,0.21289 -6.09293,-0.28302 -10.9496,0.54331 -16.98546,-0.0139 z"
       id="path146"
       sodipodi:nodetypes="zssssssssssssssssssssssssssszzsssssssssscssssssscssccccccsssscsccsscccsssscsscssssscssscsscccssssssssssssssczsssssssscsssssssssscssssssssssssssssssssscssssssscscscsssssssss" /><path
       style="fill:#00ffff;fill-opacity:1;stroke:#000000;stroke-width:2.27125;stroke-linejoin:round"
       d="m 806.97602,-222.87637 c -9.76824,-1.69222 -20.6723,-5.36873 -33.8507,-11.41336 -11.3316,-5.19754 -14.74574,-6.26512 -31.56137,-9.86894 -23.98079,-5.13941 -38.41079,-9.54376 -55.19144,-16.84567 -4.39388,-1.91195 -5.46261,-2.19635 -8.85788,-2.35722 -3.59585,-0.17036 -52.09066,3.66001 -81.76509,6.45825 -6.37086,0.60075 -13.4231,1.21323 -15.67164,1.36105 -2.24854,0.14782 -11.1405,0.7678 -19.7599,1.37774 -25.06221,1.77348 -35.79756,2.35672 -62.68657,3.40566 -26.97373,1.05225 -44.84798,1.51062 -60.64244,1.55511 -16.41306,0.0462 -16.96176,0.0187 -23.3939,-1.17484 -12.35783,-2.29305 -29.147,-3.31016 -49.00081,-2.96852 -11.77127,0.20255 -13.80294,0.35637 -21.42582,1.62224 -12.0486,2.00081 -18.19266,2.72944 -27.3144,3.23924 -8.17743,0.45702 -18.91852,0.0585 -25.5605,-0.94829 -5.29737,-0.80299 -35.65866,-7.6541 -39.29006,-8.8659 -3.97528,-1.32655 -9.50542,-3.82613 -11.31352,-5.11361 l -1.27891,-0.91066 0.59229,-3.99954 c 0.32576,-2.19975 1.22024,-8.49663 1.98774,-13.99306 4.9864,-35.71011 11.27836,-64.61394 16.21699,-74.49708 1.53146,-3.06476 3.11061,-5.1011 4.23176,-5.45694 0.67854,-0.21536 1.99051,0.42894 4.8835,2.39825 8.30455,5.65307 16.28844,9.93605 21.21722,11.38204 7.71374,2.26303 22.61636,4.86617 53.75904,9.39045 33.23537,4.82829 46.85745,7.47005 46.85745,9.08718 0,0.47788 0.71801,0.55875 3.29331,0.37093 2.50223,-0.18248 4.20427,-0.005 7.0856,0.7375 8.71056,2.24563 18.6712,2.19644 35.50039,-0.17533 12.96322,-1.82694 20.40738,-2.2026 38.36006,-1.93581 19.52975,0.29023 26.07899,0.89063 43.1779,3.95831 10.40967,1.86758 20.51737,3.4104 34.29592,5.23488 6.6207,0.87668 13.26411,1.92589 14.76314,2.33158 1.9946,0.53981 5.10092,0.76508 11.58339,0.84001 4.87183,0.0563 11.51525,0.32722 14.76314,0.60201 3.24789,0.27478 15.81927,0.82568 27.9364,1.2242 l 22.03115,0.72459 16.80727,-1.59191 c 9.244,-0.87555 18.37495,-1.72882 20.291,-1.89615 3.05013,-0.26637 3.51438,-0.42523 3.73,-1.27637 0.30757,-1.21412 5.43371,-6.28737 7.49206,-7.41476 0.99539,-0.5452 1.71184,-1.38826 2.04413,-2.40537 0.51392,-1.57308 1.61411,-2.23004 4.91024,-2.93213 0.70305,-0.14974 1.34945,-0.67079 1.52729,-1.23113 0.42758,-1.34717 9.01319,-9.92839 9.93345,-9.92839 0.4121,0 0.87834,-0.35773 1.03606,-0.79494 0.93725,-2.59791 4.00295,-5.2027 5.6243,-4.77871 0.75783,0.19818 0.83646,0.0476 0.59789,-1.14519 -0.22813,-1.14062 -0.0731,-1.50543 0.91458,-2.15262 0.78895,-0.51692 1.64625,-0.68785 2.54676,-0.50776 1.21035,0.24208 1.35744,0.15141 1.35744,-0.83679 0,-1.65586 1.42494,-2.19658 4.82823,-1.83212 2.8397,0.30411 2.89393,0.28952 2.78155,-0.74818 -0.0631,-0.58208 0.0898,-1.03068 0.3396,-0.99688 3.50046,0.47358 6.58663,0.61072 6.58663,0.29268 0,-0.21976 -0.22322,-0.62279 -0.49608,-0.89563 -0.8405,-0.84053 2.53476,-1.64568 5.80005,-1.38358 2.69161,0.21606 2.88158,0.17076 2.62847,-0.62669 -0.32374,-1.02003 0.22713,-1.28766 3.54125,-1.7205 1.46696,-0.1916 2.33848,-0.51782 2.27025,-0.84982 -0.18679,-0.90922 1.61096,-1.73822 10.10421,-4.65938 4.49708,-1.54673 10.06656,-3.70918 12.3766,-4.80545 2.31005,-1.09628 4.58703,-1.99323 5.05999,-1.99323 1.46823,0 2.69902,1.45944 4.16044,4.93343 l 1.40658,3.34356 -2.18967,3.63405 c -2.40521,3.99178 -6.2036,7.8159 -9.84002,9.90665 -1.28875,0.74094 -4.57721,2.07971 -7.30771,2.97502 -9.04003,2.96418 -15.71484,5.9295 -20.566,9.13658 -4.001,2.64502 -3.79386,3.70692 1.39214,7.13615 6.92173,4.57704 17.13433,9.04451 21.86716,9.56575 1.49903,0.16509 4.87184,0.69079 7.49514,1.16823 19.459,3.5415 31.31353,4.11448 66.77482,3.2275 13.12448,-0.32828 20.60403,-0.0859 21.38016,0.69283 0.28959,0.29057 0.62819,1.42993 0.75238,2.53192 0.43285,3.84023 -3.10353,8.27981 -7.68301,9.64529 -7.65908,2.28372 -35.9627,5.52898 -59.87458,6.86516 -6.95939,0.38888 -8.19223,1.17261 -6.62175,4.20957 0.6285,1.21535 0.85663,1.2784 8.29007,2.29107 14.53779,1.98049 24.48138,3.20016 31.94622,3.9185 8.68477,0.83573 22.97499,2.99433 28.48296,4.30246 4.43834,1.0541 8.15847,2.70573 9.63533,4.27778 0.57381,0.61078 1.5102,2.07932 2.08088,3.26343 0.85653,1.77721 0.9561,2.39738 0.57045,3.55362 -1.6811,5.0402 -5.04464,5.27617 -33.95587,2.38218 -28.6558,-2.86842 -40.55621,-4.29134 -43.89245,-5.24816 -1.83635,-0.52666 -2.89535,0.11658 -2.89535,1.75866 0,1.55278 -3.06891,0.82958 26.01593,6.13071 11.68546,2.12984 22.0083,3.87545 22.93965,3.87915 4.15943,0.0165 10.14914,2.21856 12.99129,4.77618 1.11855,1.00655 1.26654,1.40755 1.03837,2.81367 -0.14636,0.9019 -0.7928,2.7163 -1.43652,4.032 -1.67818,3.43013 -3.43173,4.04037 -10.57109,3.67886 -2.92901,-0.14832 -7.0412,-0.58258 -9.1382,-0.96503 -2.09705,-0.38244 -7.6162,-1.01006 -12.26477,-1.3947 -12.52296,-1.0362 -18.46751,-2.20236 -35.89424,-7.04151 -3.6007,-0.99986 -6.92114,-1.81793 -7.37875,-1.81793 -1.30247,0 -3.56319,3.46641 -3.56319,5.46354 0,0.93127 0.25552,1.90031 0.56782,2.15341 0.79339,0.643 17.20328,9.43804 23.48625,12.58771 2.8615,1.43446 7.03584,3.30765 9.27634,4.16266 4.23425,1.61585 8.35693,3.67549 10.2319,5.11171 1.51261,1.15865 2.1948,5.74119 1.044,7.01281 -1.55853,1.72214 -4.79284,2.72442 -7.35777,2.28008 z"
       id="path161"
       transform="scale(0.26458333)" /></g><g
     id="g165"
     transform="rotate(180,135.16687,-35.250153)"><path
       style="fill:#000000"
       d="m 62.317612,-115.65891 c 0.0023,0.34964 2.572982,1.4831 3.767141,1.80616 1.194159,0.32307 2.546576,0.62219 3.867996,0.90631 1.321419,0.28411 2.611841,0.55322 3.68201,0.81623 4.862859,1.19513 10.311373,0.92851 16.021026,-0.0486 3.617555,-0.61908 4.938665,-0.68708 10.22343,-0.52616 3.827595,0.11655 7.038295,0.39316 8.693475,0.74897 2.41403,0.51894 3.67651,0.53306 15.74668,0.17614 7.21722,-0.21342 16.00091,-0.6025 19.51931,-0.86462 3.5184,-0.26213 6.69234,-0.49352 7.0532,-0.51421 6.54709,-0.37535 -1.15391,0.0645 17.55098,-1.47336 3.33797,-0.27444 7.11965,-0.58545 8.40374,-0.69115 2.23712,-0.18416 2.46018,-0.13439 5.33676,1.19069 2.956,1.36167 8.6393,2.96554 15.09225,4.25916 2.35116,0.47133 4.27632,1.13597 6.75883,2.3334 1.90919,0.92088 4.73964,1.98746 6.28989,2.37017 2.62809,0.6488 3.13501,0.75271 4.00587,0.28116 1.02572,-0.55541 1.03928,-1.77046 0.89372,-0.36497 -0.164,1.58356 -5.54458,0.90695 -10.69492,-1.54549 -3.71208,-1.76757 -4.19021,-1.90512 -13.45029,-3.86923 -4.41317,-0.93605 -7.34149,-1.86428 -9.58378,-3.03788 -2.07982,-1.08857 -2.3357,-1.14323 -4.59278,-0.98119 -6.31427,0.45331 -16.84297,1.31943 -23.05777,1.89679 -9.22513,0.85703 -22.20366,1.55235 -33.78974,1.81027 -8.22197,0.18303 -9.84766,0.13731 -11.97403,-0.33674 -1.52368,-0.33969 -4.70861,-0.61855 -8.365415,-0.73244 -5.138926,-0.16006 -6.422933,-0.0919 -9.897206,0.52535 -5.970422,1.06074 -11.176247,1.01674 -17.133256,-0.14479 -4.388949,-0.85578 -10.636515,-3.20075 -10.622311,-3.61902 0.0142,-0.41826 0.252872,-0.7206 0.25519,-0.37095 z m 152.557228,8.91007 c -0.007,-0.43467 -1.77995,-1.40219 -3.12525,-1.81081 -1.26539,-0.38436 -8.70036,-4.37293 -8.81818,-4.56359 -0.0294,-0.0477 0.0507,-0.87606 0.29282,-1.11318 0.21821,-0.21369 0.3219,-0.64859 0.68648,-0.64502 0.0789,7.7e-4 -0.8,1.47255 -0.71839,1.52191 0.1632,0.0987 7.48962,4.08343 8.79506,4.47051 1.57478,0.46695 3.08259,1.42357 3.17644,1.92031 0.37767,1.9989 -0.25657,2.27148 -0.28897,0.21987 z m 3.5206,-5.05018 c -0.76347,-0.12442 -1.5016,-0.34463 -1.64027,-0.48934 -0.13868,-0.14472 0.19074,-0.18126 0.73203,-0.0812 2.97887,0.5506 4.9602,0.75166 5.85789,0.17142 0.64438,-0.4165 0.95312,-1.89242 0.95726,-2.23715 0.006,-0.48836 0.23948,-0.32181 0.2572,-0.0575 0.0143,0.21244 -0.35494,1.95891 -0.83034,2.33286 -0.90852,0.71464 -2.54503,0.81542 -5.33377,0.36094 z m -14.53496,-3.08203 c 0.91102,-0.0277 5.48687,1.85847 10.25765,2.23711 l 3.11535,0.24726 0.11151,0.30692 c -1.08259,0.002 -5.05469,-0.34292 -5.92484,-0.48905 l -7.06246,-1.90373 -0.62201,-0.01 m 4.14223,-4.36265 0.0307,-0.35063 c -0.0427,0.48842 15.8907,1.84079 16.02289,1.87255 1.13561,0.2729 4.44271,0.48235 4.8372,-0.61883 0.50449,-1.40825 0.40978,-1.54992 0.44071,-1.03124 0.10533,1.7665 -1.52197,2.2736 -2.34889,2.2736 -0.44064,0 -1.36389,0.14969 -1.9942,-0.0312 m -4.91868,0.64435 c -1.26598,-0.26721 -12.2832,-2.22009 -12.35187,-2.29029 -0.076,-0.0777 -0.15028,-0.368 0.0101,-0.55359 0.1924,-0.22264 0.28843,-0.21305 0.30276,-0.23678 0.0143,-0.0237 -0.0146,0.32563 0.008,0.31049 -0.0446,0.005 -0.18762,0.0519 -0.18672,0.12694 -0.0966,0.16725 0.0301,0.217 0.0519,0.22029 0.12649,0.0191 10.60219,1.71101 11.25792,1.80947 1.31147,0.19694 2.86539,0.42527 3.45316,0.50742 0.95879,0.134 2.48846,1.64804 1.93178,1.75841 -0.29973,0.0594 -0.95518,-1.65236 -4.4767,-1.65236 z m 8.60262,-3.74175 c -1.05179,-1.41586 -2.77904,-1.6249 -8.55379,-2.50897 -2.40344,-0.0871 -12.06107,-1.40764 -12.23481,-1.49656 -0.23811,-0.0193 0.0298,-0.18343 0.24999,-0.13518 0.6655,0.14579 3.22828,0.43303 7.38249,0.82263 2.36416,0.22171 9.85822,1.12199 11.13895,1.48799 1.10404,0.31551 2.64356,2.0203 2.67402,2.48316 0.0928,1.41005 -0.41286,-0.32463 -0.65685,-0.65307 z m -21.04187,-4.59004 c 0.0386,0.50041 0.63466,0.39395 0.62764,0.51668 -0.01,0.16798 -0.33054,0.0907 -0.41637,0.0766 -0.15498,-0.0256 -0.37772,-0.45568 -0.39965,-0.78156 0.11099,-0.33157 0.44387,-0.46682 0.67809,-0.47296 1.35577,-0.0356 16.03824,-0.98077 17.81178,-2.18005 2.34312,-1.58445 0.85534,-3.43849 1.11926,-3.17854 1.62032,1.59597 -0.96797,3.59823 -1.64673,3.80049 -3.69471,1.10103 -16.29681,1.72865 -17.28317,1.74702 0,0 -0.52947,-0.0281 -0.49085,0.47232 z m -39.16281,-4.97845 c -0.0367,-0.0337 -3.06215,-0.14484 -6.7232,-0.24699 -3.66105,-0.10214 -6.76882,-0.25517 -6.90616,-0.34005 -0.13735,-0.0849 -1.51982,-0.1268 -3.07217,-0.0931 -1.55235,0.0337 -2.68924,-0.0211 -2.52643,-0.12158 0.16281,-0.10053 -1.95482,-0.44978 -4.70584,-0.77611 -2.75102,-0.32634 -6.84716,-0.96049 -9.10255,-1.40922 -6.06018,-1.20575 -15.26808,-1.4114 -21.15959,-0.4726 -4.33257,0.69039 -7.43076,0.6915 -9.61305,0.003 -0.59599,-0.18791 -1.48174,-0.24932 -1.96834,-0.13646 -0.55683,0.12913 -0.72487,0.0983 -0.4534,-0.0833 0.49077,-0.32827 -4.560747,-1.31505 -12.077304,-2.35923 -8.540842,-1.18646 -13.715534,-2.11884 -15.462355,-2.78601 -0.655562,-0.25039 -3.22373,-1.62578 -5.548058,-3.28932 -3.254606,-2.32934 -6.562462,24.79605 -6.562462,24.79605 0,0 -0.258149,2.10006 -0.454757,1.30264 -0.196609,-0.79743 2.545244,-29.79017 7.119659,-26.8646 2.522047,1.61299 5.113572,3.15332 5.758943,3.42298 1.257353,0.52535 7.715107,1.66801 15.557015,2.75272 2.660205,0.36796 7.088957,1.13944 9.841669,1.71438 6.2232,1.29982 10.14767,1.4988 14.35224,0.72769 4.60767,-0.84503 13.68698,-0.76553 18.70146,0.16375 10.02018,1.85694 16.77118,2.59158 29.03293,3.15937 4.40878,0.20415 13.82022,-0.26438 15.76653,-0.7849 0.5012,-0.13405 1.73515,-1.01092 2.7421,-1.94861 1.00696,-0.93769 3.24508,-3.00992 4.9736,-4.60495 l 3.14278,-2.90007 3.11411,-0.71961 c 1.71276,-0.39578 3.62201,-0.99182 4.24277,-1.32452 0.62075,-0.33271 2.21205,-0.91152 3.53622,-1.28625 1.32416,-0.37472 2.75638,-0.90987 3.18271,-1.18922 0.42633,-0.27934 1.05271,-0.50789 1.39196,-0.50789 0.70214,0 1.89831,2.11485 1.72422,2.76477 -0.10709,0.39981 -0.64173,0.92927 -0.30789,0.35033 0.23121,-0.40098 -0.1129,-0.82115 -0.3493,-1.47179 -0.50096,-1.49024 -1.25487,-1.22236 -2.12337,-0.70683 -0.15588,0.0925 -1.17429,0.60678 -2.39776,1.00572 -3.33798,1.08844 -4.03586,1.38959 -3.86413,1.66745 0.086,0.13912 -0.0266,0.24635 -0.25021,0.2383 -1.12243,-0.0404 -1.57672,0.1158 -1.35938,0.46746 0.14676,0.23746 0.0898,0.28958 -0.15267,0.13972 -0.21271,-0.13146 -0.84568,-0.13822 -1.40659,-0.015 -0.74658,0.16398 -0.89826,0.29985 -0.56609,0.5071 0.2716,0.16945 -0.0606,0.20043 -0.82747,0.0772 -0.98545,-0.1584 -1.22209,-0.11027 -1.0251,0.20847 0.18582,0.30066 0.0774,0.35769 -0.39486,0.20779 -0.82064,-0.26046 -1.793,0.0931 -1.51098,0.54944 0.12706,0.20558 0.0544,0.24645 -0.18028,0.10141 -0.4909,-0.3034 -1.4167,0.422 -1.13021,0.88555 0.1161,0.18786 0.0604,0.24843 -0.1238,0.13459 -0.32547,-0.20115 -1.2529,0.59237 -1.46539,1.2538 -0.058,0.18043 -0.19351,0.29868 -0.3012,0.26279 -0.23971,-0.0799 -2.52825,2.23318 -2.66117,2.68971 -0.0525,0.18043 -0.34053,0.32806 -0.63998,0.32806 -0.63735,0 -1.09582,0.38888 -1.09582,0.92949 0,0.2105 -0.18087,0.38273 -0.40194,0.38273 -0.47915,0 -2.41378,2.04408 -2.10718,2.22639 0.117,0.0696 0.0651,0.0961 -0.11533,0.059 -0.18043,-0.0371 -2.73383,0.17704 -5.67423,0.47591 -2.94039,0.29887 -5.37621,0.51584 -5.41292,0.48214 z m 41.21934,-1.11977 c -1.77739,-0.14943 -4.07823,-0.44998 -5.11297,-0.66787 -3.59571,-0.75719 -2.62252,-0.24407 -3.77459,-0.62836 -2.37866,-0.79345 -5.99004,-2.74633 -5.99004,-3.36895 0,-0.66282 3.45719,-2.40641 6.57386,-3.31545 1.90696,-0.5562 3.47099,-1.83611 4.39404,-3.65665 0.45436,-0.52517 0.47316,-1.00399 0.52762,-0.89355 0.44979,0.91225 -2.18968,3.93103 -3.24086,4.47462 -0.49637,0.25668 -1.85551,0.71099 -3.02031,1.00957 -1.1648,0.29858 -2.75272,0.91161 -3.52871,1.36228 l -1.41089,0.8194 1.3625,0.98699 c 1.70544,1.23542 2.93029,1.66822 7.40626,2.61701 3.75503,0.79597 9.19379,0.97607 18.39514,0.60913 3.6017,-0.14362 4.06176,-0.0983 4.59278,0.45281 0.57194,0.59354 0.56613,0.6001 -0.18837,0.21289 -6.09293,-0.28302 -10.9496,0.54331 -16.98546,-0.0139 z"
       id="path153"
       sodipodi:nodetypes="zssssssssssssssssssssssssssszzsssssssssscssssssscssccccccsssscsccsscccsssscsscssssscssscsscccssssssssssssssczsssssssscsssssssssscssssssssssssssssssssscssssssscscscsssssssss" /><path
       style="fill:#5500ff;fill-opacity:1;stroke:#000000;stroke-width:2.27425;stroke-linejoin:round"
       d="m 796.89568,-397.29246 c -8.59187,-2.1963 -14.771,-4.51416 -28.88292,-10.83423 -8.56713,-3.83682 -14.5926,-5.73871 -25.47155,-8.03989 -24.67488,-5.21937 -41.54342,-10.09856 -54.37422,-15.72762 -8.92698,-3.9164 -10.26512,-4.30612 -14.78551,-4.30612 -3.87042,0 -57.92736,4.36146 -81.62276,6.58554 -6.50434,0.61051 -20.93443,1.73184 -32.06686,2.49185 -11.13243,0.76001 -21.7759,1.48887 -23.65216,1.61969 -19.97565,1.39278 -80.56964,3.47744 -103.25075,3.55221 -14.17641,0.0467 -15.05305,-10e-4 -21.37791,-1.1648 -11.77105,-2.16588 -25.53304,-3.12514 -45.71234,-3.1863 -12.79166,-0.0388 -14.48155,0.10093 -28.88292,2.38781 -14.25644,2.26388 -22.0431,2.85171 -34.34111,2.59251 -12.70494,-0.26777 -13.72361,-0.41736 -35.02338,-5.14305 -16.41701,-3.64237 -21.26889,-5.041 -26.66149,-7.6856 -5.64062,-2.76622 -5.23541,-1.50569 -3.83004,-11.91445 5.35037,-39.62716 11.39159,-69.1953 16.7418,-81.94108 1.73715,-4.1384 4.70402,-7.5739 6.06307,-7.02078 0.47516,0.19339 2.39904,1.39279 4.27529,2.66534 6.96673,4.72511 15.12988,9.20404 19.54095,10.72168 5.80786,1.99819 22.85074,5.05355 50.49301,9.05213 36.92798,5.3418 51.41076,8.08268 51.41076,9.72953 0,0.50641 0.66569,0.5862 3.29766,0.39528 2.50422,-0.18166 4.17237,-0.007 6.93312,0.72382 8.65206,2.29194 18.61394,2.24666 35.70898,-0.16232 4.37793,-0.61692 11.12387,-1.36041 14.99098,-1.6522 9.36792,-0.70683 37.00145,-0.29347 46.18623,0.69088 6.98778,0.7489 9.45423,1.12657 27.97322,4.28326 5.87893,1.00211 16.22224,2.55522 22.98514,3.45137 6.76289,0.89614 13.92677,1.94382 15.91972,2.32818 7.55735,1.4575 9.20027,1.62639 13.38863,1.37634 2.36879,-0.14143 8.09989,0.0417 12.73578,0.40683 4.63588,0.36518 18.35595,0.98985 30.48905,1.38816 l 22.06018,0.72418 16.82942,-1.59401 c 9.25618,-0.8767 18.39916,-1.7311 20.31774,-1.89865 3.05415,-0.26672 3.51901,-0.42578 3.73491,-1.27804 0.30798,-1.21573 5.44088,-6.29566 7.50194,-7.42454 0.9967,-0.54591 1.7141,-1.39009 2.04682,-2.40854 0.5146,-1.57515 1.61624,-2.23298 4.91672,-2.93599 0.70397,-0.14994 1.35122,-0.67167 1.52929,-1.23275 0.42815,-1.34896 9.02507,-9.94148 9.94655,-9.94148 0.41264,0 0.87645,-0.3582 1.03069,-0.79599 0.85548,-2.42837 4.12189,-5.27772 5.49035,-4.78932 0.3752,0.13391 0.56856,-0.27048 0.56856,-1.18904 0,-1.79366 1.69067,-3.00791 3.64411,-2.61723 1.21909,0.24382 1.35923,0.15461 1.35923,-0.86516 0,-1.54018 1.73197,-2.1574 4.93202,-1.75758 2.41925,0.30226 2.47661,0.28358 2.21393,-0.7208 -0.269,-1.0287 -0.26067,-1.03038 3.56979,-0.71958 3.71694,0.30159 4.40326,0.10015 3.32673,-0.9764 -0.78312,-0.78309 2.98585,-1.63831 5.90285,-1.33943 2.2444,0.22997 2.4157,0.18065 2.20265,-0.63409 -0.25426,-0.97219 0.40108,-1.25554 3.55101,-1.53541 1.00066,-0.0889 1.9729,-0.18241 2.16053,-0.20779 0.18762,-0.0254 0.34114,-0.34845 0.34114,-0.71794 0,-1.08504 1.58319,-1.82656 10.2341,-4.79343 4.50301,-1.54433 10.10802,-3.70963 12.45554,-4.81179 2.34753,-1.10215 4.61454,-2.00392 5.03778,-2.00392 0.42323,0 1.19748,0.46054 1.72055,1.02341 1.16878,1.25776 3.30116,6.0088 3.30116,7.35525 0,1.47267 -4.21199,7.60906 -6.85212,9.98276 -3.2141,2.88977 -6.20751,4.49618 -12.02412,6.45274 -7.18393,2.41651 -11.23336,4.07059 -16.14714,6.59572 -4.81685,2.47532 -7.27759,4.45777 -7.27759,5.86305 0,2.85957 19.0373,12.63953 26.15383,13.4359 1.501,0.16797 6.10635,0.89822 10.2341,1.62277 17.39603,3.05359 27.54558,3.58777 55.71902,2.93257 22.23521,-0.5171 29.14715,-0.35886 29.80345,0.68228 0.74522,1.18217 0.49728,4.93515 -0.44848,6.78901 -2.21503,4.34187 -6.78021,6.04426 -21.39511,7.97843 -10.95968,1.45043 -31.71886,3.3533 -45.03006,4.12765 -5.70686,0.33198 -7.27759,0.90833 -7.27759,2.67034 0,2.55307 0.68014,2.77505 13.8729,4.5278 14.56691,1.93532 21.72191,2.7883 29.11035,3.47042 6.77056,0.62507 21.38113,2.88208 26.45006,4.08595 6.42811,1.52667 10.14428,4.02898 11.76941,7.92502 0.68377,1.63928 0.68386,1.92365 10e-4,3.71101 -1.02186,2.67578 -2.87046,3.5006 -8.42813,3.76052 -2.37658,0.11114 -6.1632,-0.0347 -8.4147,-0.32412 -2.25151,-0.28941 -12.58795,-1.34304 -22.96989,-2.3414 -21.02945,-2.02228 -32.5289,-3.37326 -36.61535,-4.3017 -2.43499,-0.55322 -2.81702,-0.5406 -3.5451,0.11704 -1.15754,1.04557 -0.80553,2.47713 0.70798,2.87936 2.27916,0.60573 46.88384,8.5339 50.41684,8.96124 3.92339,0.47457 7.62941,2.0003 10.07545,4.14798 1.91933,1.68516 1.92952,2.59088 0.0761,6.76327 -0.91256,2.05433 -1.38338,2.54522 -3.22056,3.3579 -1.88931,0.83573 -2.73737,0.92176 -6.95332,0.7053 -2.64086,-0.13559 -7.46244,-0.66677 -10.71461,-1.18041 -3.25217,-0.51363 -9.59732,-1.23962 -14.10032,-1.6133 -9.08439,-0.75387 -16.54505,-2.12933 -26.26941,-4.84305 -3.56383,-0.99455 -8.04519,-2.24072 -9.95855,-2.76926 -1.91337,-0.52855 -3.96019,-0.83536 -4.5485,-0.68182 -1.35263,0.35303 -2.91608,2.76297 -3.30625,5.09637 -0.35765,2.13885 -1.43159,1.35336 10.82905,7.92038 12.31763,6.59752 17.43814,9.12723 22.53063,11.13093 5.66165,2.22763 8.30064,3.59367 10.25139,5.30644 1.45607,1.27846 1.60876,1.63795 1.60876,3.78778 0,2.47556 -0.6775,3.53431 -3.04035,4.75125 -1.71519,0.88338 -6.07014,0.50419 -12.1971,-1.06203 z"
       id="path157"
       transform="scale(0.26458333)" /></g><g
     id="g167"
     transform="rotate(-90,299.13714,-23.236774)"><path
       style="fill:#000000"
       d="m 182.65257,-159.23078 c 2.23712,-0.18416 2.46018,-0.13439 5.33676,1.19069 2.956,1.36167 8.6393,2.96554 15.09225,4.25916 2.35116,0.47133 4.27632,1.13597 6.75883,2.3334 1.90919,0.92088 4.73964,1.98746 6.28989,2.37017 2.62809,0.6488 3.13501,0.75271 4.00587,0.28116 1.02572,-0.55541 1.03928,-1.77046 0.89372,-0.36497 -0.164,1.58356 -5.54458,0.90695 -10.69492,-1.54549 -3.71208,-1.76757 -4.19021,-1.90512 -13.45029,-3.86923 -4.41317,-0.93605 -7.34149,-1.86428 -9.58378,-3.03788 -2.07982,-1.08857 -2.3357,-1.14323 -4.59278,-0.98119 -148.066687,11.16252 -109.132354,8.3409 -0.0556,-0.63582 z m 38.02824,8.57436 c -0.007,-0.43467 -1.77995,-1.40219 -3.12525,-1.81081 -1.26539,-0.38436 -8.70036,-4.37293 -8.81818,-4.56359 -0.0294,-0.0477 0.0507,-0.87606 0.29282,-1.11318 0.21821,-0.21369 0.3219,-0.64859 0.68648,-0.64502 0.0789,7.7e-4 -0.8,1.47255 -0.71839,1.52191 0.1632,0.0987 7.48962,4.08343 8.79506,4.47051 1.57478,0.46695 3.08259,1.42357 3.17644,1.92031 0.37767,1.9989 -0.25657,2.27148 -0.28897,0.21987 z m 3.5206,-5.05018 c -0.76347,-0.12442 -1.5016,-0.34463 -1.64027,-0.48934 -0.13868,-0.14472 0.19074,-0.18126 0.73203,-0.0812 2.97887,0.5506 4.9602,0.75166 5.85789,0.17142 0.64438,-0.4165 0.95312,-1.89242 0.95726,-2.23715 0.006,-0.48836 0.23948,-0.32181 0.2572,-0.0575 0.0143,0.21244 -0.35494,1.95891 -0.83034,2.33286 -0.90852,0.71464 -2.54503,0.81542 -5.33377,0.36094 z m -14.53496,-3.08203 c 0.91102,-0.0277 5.48687,1.85847 10.25765,2.23711 l 3.11535,0.24726 0.11151,0.30692 c -1.08259,0.002 -5.05469,-0.34292 -5.92484,-0.48905 l -7.06246,-1.90373 -0.62201,-0.01 m 4.14223,-4.36265 0.0307,-0.35063 c -0.0427,0.48842 15.8907,1.84079 16.02289,1.87255 1.13561,0.2729 4.44271,0.48235 4.8372,-0.61883 0.50449,-1.40825 0.40978,-1.54992 0.44071,-1.03124 0.10533,1.7665 -1.52197,2.2736 -2.34889,2.2736 -0.44064,0 -1.36389,0.14969 -1.9942,-0.0312 m -4.91868,0.64435 c -1.26598,-0.26721 -12.2832,-2.22009 -12.35187,-2.29029 -0.076,-0.0777 -0.15028,-0.368 0.0101,-0.55359 0.1924,-0.22264 0.28843,-0.21305 0.30276,-0.23678 0.0143,-0.0237 -0.0146,0.32563 0.008,0.31049 -0.0446,0.005 -0.18762,0.0519 -0.18672,0.12694 -0.0966,0.16725 0.0301,0.217 0.0519,0.22029 0.12649,0.0191 10.60219,1.71101 11.25792,1.80947 1.31147,0.19694 2.86539,0.42527 3.45316,0.50742 0.95879,0.134 2.48846,1.64804 1.93178,1.75841 -0.29973,0.0594 -0.95518,-1.65236 -4.4767,-1.65236 z m 8.60262,-3.74175 c -1.05179,-1.41586 -2.77904,-1.6249 -8.55379,-2.50897 -2.40344,-0.0871 -12.06107,-1.40764 -12.23481,-1.49656 -0.23811,-0.0193 0.0298,-0.18343 0.24999,-0.13518 0.6655,0.14579 3.22828,0.43303 7.38249,0.82263 2.36416,0.22171 9.85822,1.12199 11.13895,1.48799 1.10404,0.31551 2.64356,2.0203 2.67402,2.48316 0.0928,1.41005 -0.41286,-0.32463 -0.65685,-0.65307 z m -21.04187,-4.59004 c 0.0386,0.50041 0.63466,0.39395 0.62764,0.51668 -0.01,0.16798 -0.33054,0.0907 -0.41637,0.0766 -0.15498,-0.0256 -0.37772,-0.45568 -0.39965,-0.78156 0.11099,-0.33157 0.44387,-0.46682 0.67809,-0.47296 1.35577,-0.0356 16.03824,-0.98077 17.81178,-2.18005 2.34312,-1.58445 0.85534,-3.43849 1.11926,-3.17854 1.62032,1.59597 -0.96797,3.59823 -1.64673,3.80049 -3.69471,1.10103 -16.29681,1.72865 -17.28317,1.74702 0,0 -0.52947,-0.0281 -0.49085,0.47232 z m -29.36803,-6.69934 c 0.50368,-0.12442 1.73515,-1.01092 2.7421,-1.94861 1.00696,-0.93769 3.24508,-3.00992 4.9736,-4.60495 l 3.14278,-2.90007 3.11411,-0.71961 c 1.71276,-0.39578 3.62201,-0.99182 4.24277,-1.32452 0.62075,-0.33271 2.21205,-0.91152 3.53622,-1.28625 1.32416,-0.37472 2.75638,-0.90987 3.18271,-1.18922 0.42633,-0.27934 1.05271,-0.50789 1.39196,-0.50789 0.70214,0 1.89831,2.11485 1.72422,2.76477 -0.10709,0.39981 -0.64173,0.92927 -0.30789,0.35033 0.23121,-0.40098 -0.1129,-0.82115 -0.3493,-1.47179 -0.50096,-1.49024 -1.25487,-1.22236 -2.12337,-0.70683 -0.15588,0.0925 -1.17429,0.60678 -2.39776,1.00572 -3.33798,1.08844 -4.03586,1.38959 -3.86413,1.66745 0.086,0.13912 -0.0266,0.24635 -0.25021,0.2383 -1.12243,-0.0404 -1.57672,0.1158 -1.35938,0.46746 0.14676,0.23746 0.0898,0.28958 -0.15267,0.13972 -0.21271,-0.13146 -0.84568,-0.13822 -1.40659,-0.015 -0.74658,0.16398 -0.89826,0.29985 -0.56609,0.5071 0.2716,0.16945 -0.0606,0.20043 -0.82747,0.0772 -0.98545,-0.1584 -1.22209,-0.11027 -1.0251,0.20847 0.18582,0.30066 0.0774,0.35769 -0.39486,0.20779 -0.82064,-0.26046 -1.793,0.0931 -1.51098,0.54944 0.12706,0.20558 0.0544,0.24645 -0.18028,0.10141 -0.4909,-0.3034 -1.4167,0.422 -1.13021,0.88555 0.1161,0.18786 0.0604,0.24843 -0.1238,0.13459 -0.32547,-0.20115 -1.2529,0.59237 -1.46539,1.2538 -0.058,0.18043 -0.19351,0.29868 -0.3012,0.26279 -0.23971,-0.0799 -2.52825,2.23318 -2.66117,2.68971 -0.0525,0.18043 -0.34053,0.32806 -0.63998,0.32806 -0.63735,0 -1.09582,0.38888 -1.09582,0.92949 0,0.2105 -0.18087,0.38273 -0.40194,0.38273 -0.47915,0 -2.41378,2.04408 -2.10718,2.22639 0.117,0.0696 0.0651,0.0961 -0.11533,0.059 -0.18043,-0.0371 -2.74754,0.0639 -5.67423,0.47591 -4.90327,0.69025 -3.01859,0.58962 4.38186,-1.23844 z m 31.42456,0.60112 c -1.77739,-0.14943 -4.07823,-0.44998 -5.11297,-0.66787 -3.59571,-0.75719 -2.62252,-0.24407 -3.77459,-0.62836 -2.37866,-0.79345 -5.99004,-2.74633 -5.99004,-3.36895 0,-0.66282 3.45719,-2.40641 6.57386,-3.31545 1.90696,-0.5562 3.47099,-1.83611 4.39404,-3.65665 0.45436,-0.52517 0.47316,-1.00399 0.52762,-0.89355 0.44979,0.91225 -2.18968,3.93103 -3.24086,4.47462 -0.49637,0.25668 -1.85551,0.71099 -3.02031,1.00957 -1.1648,0.29858 -2.75272,0.91161 -3.52871,1.36228 l -1.41089,0.8194 1.3625,0.98699 c 1.70544,1.23542 2.93029,1.66822 7.40626,2.61701 3.75503,0.79597 9.19379,0.97607 18.39514,0.60913 3.6017,-0.14362 4.06176,-0.0983 4.59278,0.45281 0.57194,0.59354 0.56613,0.6001 -0.18837,0.21289 -6.09293,-0.28302 -10.9496,0.54331 -16.98546,-0.0139 z"
       id="path166"
       sodipodi:nodetypes="sssssssssssssssssssssscssssssscssccccccsssscsccsscccsssscsscssssscssscsscccscsssssssssscssssssssssssssssssssscsssssscscscsssssssss" /><path
       style="fill:#ff0000;stroke:#000000;stroke-width:2.27425;stroke-linejoin:round"
       d="m 636.96671,-655.64113 23.25583,-0.54545 17.73009,-0.33272 c 9.67203,-0.1815 18.77878,-1.76142 20.32745,-1.90599 1.97927,-0.18478 2.75132,-0.43076 2.59887,-0.82804 -0.34094,-0.88848 5.06155,-6.46164 7.32675,-7.55821 1.28121,-0.62022 2.04122,-1.2889 2.04122,-1.79592 0,-1.59127 1.69882,-3.08334 3.8836,-3.41097 1.68521,-0.25271 2.2485,-0.58682 2.95893,-1.75505 1.14585,-1.88414 8.55734,-9.32799 9.62483,-9.66679 0.4548,-0.14435 1.11688,-0.82326 1.47135,-1.5087 1.09841,-2.1241 3.48828,-4.14747 4.89877,-4.14747 1.11183,0 1.25151,-0.14083 1.02696,-1.03548 -0.18499,-0.73714 0.0673,-1.34282 0.87563,-2.10221 0.9323,-0.87588 1.42745,-1.01196 2.76739,-0.76058 1.56413,0.29343 1.62017,0.25921 1.3484,-0.82359 -0.25231,-1.00519 -0.0881,-1.18829 1.48949,-1.66096 1.28968,-0.38639 2.25046,-0.39942 3.52404,-0.0478 2.06688,0.5707 2.66278,0.32399 2.26264,-0.93677 -0.28341,-0.89286 -0.17284,-0.91229 3.39286,-0.59666 3.57098,0.31611 4.27909,0.0971 3.19413,-0.9878 -0.74313,-0.74315 3.73413,-1.67947 6.36321,-1.33072 2.03326,0.26972 2.15953,0.22562 2.12501,-0.7421 -0.0337,-0.94467 0.20522,-1.04747 2.91981,-1.25628 2.48229,-0.19095 2.94597,-0.35754 2.89079,-1.03866 -0.0898,-1.10846 1.82222,-2.00989 10.75468,-5.0704 4.12776,-1.41428 9.50667,-3.50454 11.95317,-4.64502 6.1597,-2.87144 6.63001,-2.68492 9.12663,3.61947 l 1.22741,3.09951 -1.707,2.81353 c -2.42303,3.99366 -7.50465,8.98589 -10.88099,10.68951 -1.53402,0.77403 -5.24236,2.22742 -8.24073,3.22975 -9.50566,3.17763 -18.50895,7.56176 -20.99834,10.22509 -0.92534,0.99001 -1.02077,1.34578 -0.6054,2.25744 1.48936,3.26873 21.34902,13.0271 26.51202,13.0271 0.92343,0 4.41836,0.51646 7.7665,1.14769 16.21469,3.05696 32.32781,4.1326 51.34501,3.42755 7.12976,-0.26434 17.91214,-0.48083 23.96081,-0.4811 12.1684,-5.5e-4 12.12815,-0.01 12.68174,2.941 0.60936,3.2483 -2.25573,7.74746 -5.98918,9.40493 -5.6318,2.50028 -29.84943,5.52865 -57.94432,7.24583 -10.11835,0.61844 -11.19716,0.95032 -10.72721,3.30003 0.15729,0.78648 0.53727,1.67254 0.84438,1.96903 0.74832,0.7224 30.5388,4.68278 43.99652,5.84894 4.56955,0.39597 21.82743,3.19403 25.24412,4.09289 5.9497,1.56524 9.27856,3.86582 10.94686,7.56542 0.74654,1.65551 0.7626,2.00621 0.16966,3.70188 -1.11157,3.17888 -2.63258,3.73554 -10.20682,3.73554 -10.11471,0 -63.9451,-5.59499 -67.75055,-7.04182 -1.40212,-0.53309 -2.52364,0.25987 -2.52364,1.78434 0,0.96361 0.26049,1.35593 1.02341,1.54127 3.80772,0.92504 46.46648,8.49344 47.90316,8.49884 4.46844,0.0168 10.63006,2.35559 13.15843,4.99461 1.38933,1.45016 1.30282,2.91646 -0.37416,6.34244 -1.72898,3.53214 -2.63954,3.89959 -9.55388,3.85541 -3.43698,-0.022 -7.73444,-0.35828 -10.08342,-0.78913 -2.2515,-0.41296 -7.77792,-1.06575 -12.28092,-1.45064 -13.19113,-1.12749 -18.50245,-2.1721 -36.80662,-7.23896 -3.23225,-0.89474 -6.2409,-1.62681 -6.68587,-1.62681 -1.08778,0 -3.12818,2.75668 -3.61082,4.87831 -0.3129,1.3757 -0.23607,1.86722 0.38648,2.47265 1.83686,1.78626 26.10284,14.31794 32.84393,16.9616 4.55286,1.78549 8.58159,3.8005 10.43228,5.2178 0.86171,0.65995 1.1762,1.44014 1.41545,3.51187 0.34955,3.02643 0.12658,3.47439 -2.36108,4.7435 -2.50121,1.27603 -6.0283,1.08553 -12.89802,-0.69662 v 3e-5 c -8.92391,-2.31505 -16.19108,-5.02258 -27.51837,-10.25249 -8.30546,-3.83471 -16.20005,-6.35048 -27.06353,-8.62434 -22.35442,-4.67906 -43.71614,-10.91695 -55.14153,-16.102 -7.09876,-3.22155 -10.06712,-1.94059 -13.52278,-3.92967"
       id="path167"
       transform="scale(0.26458333)"
       sodipodi:nodetypes="ccsssssssssssssssssssssssssscsssssssssssssssssssssssssssssssssssssssssc" /></g><rect
     style="fill:none;fill-opacity:1;stroke:#000000;stroke-width:1.32292;stroke-linejoin:round"
     id="rect166"
     width="125.83823"
     height="126.89521"
     x="40.7645"
     y="40.889122" /></svg>
