<?xml version="1.0" encoding="UTF-8" standalone="no"?>
<svg
   viewBox="0 0 177.37433 99.790638"
   fill="none"
   version="1.1"
   id="svg11"
   sodipodi:docname="vscodium.svg"
   width="177.37433"
   height="99.790642"
   inkscape:version="1.3.2 (091e20e, 2023-11-25)"
   xmlns:inkscape="http://www.inkscape.org/namespaces/inkscape"
   xmlns:sodipodi="http://sodipodi.sourceforge.net/DTD/sodipodi-0.dtd"
   xmlns="http://www.w3.org/2000/svg"
   xmlns:svg="http://www.w3.org/2000/svg">
  <sodipodi:namedview
     id="namedview11"
     pagecolor="#ffffff"
     bordercolor="#000000"
     borderopacity="0.25"
     inkscape:showpageshadow="2"
     inkscape:pageopacity="0.0"
     inkscape:pagecheckerboard="0"
     inkscape:deskcolor="#d1d1d1"
     inkscape:zoom="3.3764532"
     inkscape:cx="86.185114"
     inkscape:cy="59.085671"
     inkscape:window-width="1512"
     inkscape:window-height="916"
     inkscape:window-x="0"
     inkscape:window-y="38"
     inkscape:window-maximized="0"
     inkscape:current-layer="svg11" />
  <mask
     id="mask0"
     mask-type="alpha"
     maskUnits="userSpaceOnUse"
     x="0"
     y="0"
     width="100"
     height="100">
    <path
       fill-rule="evenodd"
       clip-rule="evenodd"
       d="m 70.9119,99.3171 c 1.575,0.6136 3.3709,0.5743 4.9606,-0.1907 L 96.4608,89.2197 C 98.6242,88.1787 100,85.9892 100,83.5872 V 16.4133 c 0,-2.402 -1.3757,-4.5915 -3.5391,-5.6325 L 75.8725,0.873756 C 73.7862,-0.130129 71.3446,0.11576 69.5135,1.44695 69.252,1.63711 69.0028,1.84943 68.769,2.08341 L 29.3551,38.0415 12.1872,25.0096 C 10.589,23.7965 8.35363,23.8959 6.86933,25.2461 l -5.5063,5.0088 c -1.815582,1.6515 -1.817663,4.5078 -0.0045,6.1621 L 16.2471,50.0001 1.35853,63.5832 c -1.813163,1.6542 -1.811082,4.5106 0.0045,6.1621 l 5.5063,5.0088 c 1.4843,1.3502 3.71967,1.4496 5.31787,0.2364 L 29.3551,61.9587 68.769,97.9167 c 0.6235,0.6239 1.3556,1.0937 2.1429,1.4004 z M 75.0152,27.2989 45.1091,50.0001 75.0152,72.7012 Z"
       fill="#ffffff"
       id="path1" />
  </mask>
  <g
     mask="url(#mask0)"
     id="g6"
     transform="translate(4.9391873e-7,-0.2578742)">
    <path
       d="M 96.4614,10.7962 75.8569,0.875542 C 73.4719,-0.272773 70.6217,0.211611 68.75,2.08333 L 1.29858,63.5832 c -1.814273,1.6541 -1.812187,4.5105 0.0045,6.162 l 5.50964,5.0088 c 1.48521,1.3502 3.72198,1.4496 5.32108,0.2365 L 93.3609,13.3699 C 96.086,11.3026 100,13.2462 100,16.6667 v -0.2392 c 0,-2.401 -1.3754,-4.5897 -3.5386,-5.6313 z"
       fill="#0065a9"
       id="path2" />
    <g
       filter="url(#filter0_d)"
       id="g3">
      <path
         d="m 96.4614,89.2038 -20.6045,9.9207 c -2.385,1.1485 -5.2352,0.6639 -7.1069,-1.2078 L 1.29858,36.4169 c -1.814273,-1.6542 -1.812187,-4.5106 0.0045,-6.1621 L 6.81272,25.246 C 8.29793,23.8958 10.5347,23.7964 12.1338,25.0095 L 93.3609,86.6301 C 96.086,88.6974 100,86.7538 100,83.3334 v 0.2392 c 0,2.4009 -1.3754,4.5896 -3.5386,5.6312 z"
         fill="#007acc"
         id="path3" />
    </g>
    <g
       filter="url(#filter1_d)"
       id="g4">
      <path
         d="M 75.8578,99.1263 C 73.4721,100.274 70.6219,99.7885 68.75,97.9166 71.0564,100.223 75,98.5895 75,95.3278 V 4.67213 C 75,1.41039 71.0564,-0.223106 68.75,2.08329 70.6219,0.211402 73.4721,-0.273666 75.8578,0.873633 L 96.4587,10.7807 C 98.6234,11.8217 100,14.0112 100,16.4132 v 67.1739 c 0,2.402 -1.3766,4.5915 -3.5414,5.6325 z"
         fill="#1f9cf0"
         id="path4" />
    </g>
    <g
       style="mix-blend-mode:overlay"
       opacity="0.25"
       id="g5">
      <path
         fill-rule="evenodd"
         clip-rule="evenodd"
         d="m 70.8511,99.3171 c 1.575,0.6135 3.371,0.5742 4.9606,-0.1907 L 96.4,89.2197 c 2.1634,-1.041 3.5392,-3.2305 3.5392,-5.6326 V 16.4133 c 0,-2.4021 -1.3757,-4.5916 -3.5391,-5.6326 L 75.8117,0.873695 C 73.7255,-0.13019 71.2838,0.115699 69.4527,1.44688 69.1912,1.63705 68.942,1.84937 68.7082,2.08335 L 29.2943,38.0414 12.1264,25.0096 C 10.5283,23.7964 8.29285,23.8959 6.80855,25.246 l -5.5063,5.0088 c -1.815584,1.6516 -1.817665,4.5079 -0.0045,6.1621 L 16.1863,50 1.29775,63.5832 c -1.813165,1.6542 -1.811084,4.5105 0.0045,6.162 l 5.5063,5.0088 c 1.4843,1.3502 3.71975,1.4496 5.31785,0.2365 L 29.2943,61.9586 68.7082,97.9167 c 0.6235,0.6238 1.3556,1.0937 2.1429,1.4004 z M 74.9544,27.2989 45.0483,50 74.9544,72.7012 Z"
         fill="url(#paint0_linear)"
         id="path5"
         style="fill:url(#paint0_linear)" />
    </g>
  </g>
  <defs
     id="defs11">
    <filter
       id="filter0_d"
       x="-8.3941097"
       y="15.8291"
       width="116.727"
       height="92.245598"
       filterUnits="userSpaceOnUse"
       color-interpolation-filters="sRGB">
      <feFlood
         flood-opacity="0"
         result="BackgroundImageFix"
         id="feFlood6" />
      <feColorMatrix
         in="SourceAlpha"
         type="matrix"
         values="0 0 0 0 0 0 0 0 0 0 0 0 0 0 0 0 0 0 127 0"
         id="feColorMatrix6" />
      <feOffset
         id="feOffset6" />
      <feGaussianBlur
         stdDeviation="4.16667"
         id="feGaussianBlur6" />
      <feColorMatrix
         type="matrix"
         values="0 0 0 0 0 0 0 0 0 0 0 0 0 0 0 0 0 0 0.25 0"
         id="feColorMatrix7" />
      <feBlend
         mode="overlay"
         in2="BackgroundImageFix"
         result="effect1_dropShadow"
         id="feBlend7" />
      <feBlend
         mode="normal"
         in="SourceGraphic"
         in2="effect1_dropShadow"
         result="shape"
         id="feBlend8" />
    </filter>
    <filter
       id="filter1_d"
       x="60.416698"
       y="-8.0755796"
       width="47.916698"
       height="116.151"
       filterUnits="userSpaceOnUse"
       color-interpolation-filters="sRGB">
      <feFlood
         flood-opacity="0"
         result="BackgroundImageFix"
         id="feFlood8" />
      <feColorMatrix
         in="SourceAlpha"
         type="matrix"
         values="0 0 0 0 0 0 0 0 0 0 0 0 0 0 0 0 0 0 127 0"
         id="feColorMatrix8" />
      <feOffset
         id="feOffset8" />
      <feGaussianBlur
         stdDeviation="4.16667"
         id="feGaussianBlur8" />
      <feColorMatrix
         type="matrix"
         values="0 0 0 0 0 0 0 0 0 0 0 0 0 0 0 0 0 0 0.25 0"
         id="feColorMatrix9" />
      <feBlend
         mode="overlay"
         in2="BackgroundImageFix"
         result="effect1_dropShadow"
         id="feBlend9" />
      <feBlend
         mode="normal"
         in="SourceGraphic"
         in2="effect1_dropShadow"
         result="shape"
         id="feBlend10" />
    </filter>
    <linearGradient
       id="paint0_linear"
       x1="49.939201"
       y1="0.25781199"
       x2="49.939201"
       y2="99.742302"
       gradientUnits="userSpaceOnUse">
      <stop
         stop-color="white"
         id="stop10" />
      <stop
         offset="1"
         stop-color="white"
         stop-opacity="0"
         id="stop11" />
    </linearGradient>
    <linearGradient
       id="Gradient_1"
       gradientUnits="userSpaceOnUse"
       x1="199.99699"
       y1="214.302"
       x2="296.66501"
       y2="307.573"
       gradientTransform="translate(-200,-213)">
      <stop
         offset="0"
         stop-color="#62A0EA"
         id="stop1" />
      <stop
         offset="1"
         stop-color="#1A5FB4"
         id="stop2" />
    </linearGradient>
  </defs>
  <g
     id="Layer_1"
     transform="matrix(1.0209726,0,0,1.0209726,75.280126,-1.0232552)">
    <path
       d="m 48.26,2.274 c -2.854,1.831 -3.677,5.624 -1.838,8.468 10.109,15.655 12.495,27.463 11.46,37.811 -4.184,19.816 -13.279,23.836 -21.227,23.836 -7.76,0 -5.682,-12.771 0.151,-16.509 3.482,-2.174 7.942,-3.587 11.365,-3.587 3.392,0 6.142,-2.741 6.142,-6.123 0,-3.383 -2.75,-6.124 -6.142,-6.124 -3.998,0 -7.92,0.84 -11.581,2.27 0.748,-3.529 1.024,-7.343 0.057,-11.397 -1.468,-6.156 -5.694,-12.036 -13.032,-17.736 -1.285,-1 -2.915,-1.449 -4.532,-1.249 -1.617,0.2 -3.088,1.032 -4.089,2.314 -2.082,2.67 -1.6,6.518 1.078,8.595 5.978,4.643 7.952,8.08 8.627,10.909 0.675,2.829 0.132,5.864 -1.224,10.034 -1.733,5.62 -3.745,10.637 -4.627,15.448 -0.434,2.368 -0.471,4.945 -0.583,7.004 -4.305,-4.196 -5.99,-9.736 -5.99,-17.831 -0.001,-3.382 -2.751,-6.124 -6.142,-6.123 -3.389,0.003 -6.135,2.743 -6.136,6.123 0,11.056 3.233,21.576 11.898,28.594 7.844,7.473 27.791,4.711 27.791,16.708 0,3.386 4.956,5.034 8.347,5.034 3.478,0 7.855,-2.325 7.855,-5.034 0,-13.612 14.345,-21.885 37.96,-21.849 3.392,0.005 6.144,-2.734 6.149,-6.116 0.006,-3.383 -2.738,-6.13 -6.13,-6.136 -1.615,-0.002 -3.189,0.053 -4.741,0.145 2.64,-6.209 3.811,-13.045 3.569,-20.429 -0.112,-3.381 -2.95,-6.031 -6.339,-5.921 -3.393,0.11 -6.051,2.943 -5.94,6.326 0.32,9.668 -0.042,18.301 -7.245,22.852 -2.048,1.293 -4.429,2.415 -6.687,2.415 1.753,-4.768 3.077,-9.801 3.619,-15.226 0.346,-3.462 0.383,-7.575 -0.012,-10.77 -0.613,-4.95 -1.353,-10.564 0.526,-14.793 1.688,-3.642 5.47,-5.167 11.023,-5.167 3.389,-0.003 6.135,-2.744 6.136,-6.123 0.002,-3.383 -2.745,-6.127 -6.136,-6.13 -8.252,0 -14.507,4.343 -18.053,9.59 C 61.733,12.417 59.475,8.336 56.747,4.112 55.866,2.747 54.478,1.788 52.887,1.443 52.099,1.272 51.285,1.257 50.491,1.399 49.697,1.542 48.939,1.839 48.26,2.274 Z"
       fill="url(#Gradient_1)"
       id="path6008"
       style="fill:url(#Gradient_1)" />
  </g>
</svg>
